<?xml version="1.0" encoding="UTF-8"?>
<svg xmlns="http://www.w3.org/2000/svg" xmlns:xlink="http://www.w3.org/1999/xlink" viewBox="0 0 204.65 208.57">
  <defs>
    <style>
      .cls-1 {
        fill: url(#_ÂÁ_Ï_ÌÌ_È_ËÂÌÚ_264-2);
      }

      .cls-2 {
        fill: url(#_ÂÁ_Ï_ÌÌ_È_ËÂÌÚ_326-2);
      }

      .cls-3 {
        fill: url(#_ÂÁ_Ï_ÌÌ_È_ËÂÌÚ_129-2);
      }

      .cls-4 {
        fill: url(#_ÂÁ_Ï_ÌÌ_È_ËÂÌÚ_36);
      }

      .cls-5 {
        fill: url(#_ÂÁ_Ï_ÌÌ_È_ËÂÌÚ_28);
      }

      .cls-6 {
        fill: url(#_ÂÁ_Ï_ÌÌ_È_ËÂÌÚ_46);
      }

      .cls-7 {
        fill: url(#_ÂÁ_Ï_ÌÌ_È_ËÂÌÚ_65);
      }

      .cls-8 {
        fill: url(#_ÂÁ_Ï_ÌÌ_È_ËÂÌÚ_91);
      }

      .cls-9 {
        fill: url(#_ÂÁ_Ï_ÌÌ_È_ËÂÌÚ_14);
      }

      .cls-10 {
        fill: url(#_ÂÁ_Ï_ÌÌ_È_ËÂÌÚ_17);
      }

      .cls-11 {
        fill: url(#_ÂÁ_Ï_ÌÌ_È_ËÂÌÚ_134-2);
      }

      .cls-11, .cls-12, .cls-13, .cls-14, .cls-15, .cls-16, .cls-17 {
        mix-blend-mode: screen;
      }

      .cls-11, .cls-12, .cls-16, .cls-17 {
        opacity: .72;
      }

      .cls-12 {
        fill: url(#_ÂÁ_Ï_ÌÌ_È_ËÂÌÚ_143-2);
      }

      .cls-18 {
        fill: url(#_ÂÁ_Ï_ÌÌ_È_ËÂÌÚ_54-3);
        mix-blend-mode: color-dodge;
      }

      .cls-18, .cls-13, .cls-14, .cls-15, .cls-19, .cls-20, .cls-21, .cls-22, .cls-23, .cls-24, .cls-25, .cls-26 {
        opacity: .5;
      }

      .cls-27, .cls-23 {
        fill: #fff;
      }

      .cls-28, .cls-24 {
        fill: #e5f6ff;
      }

      .cls-29 {
        fill: #ff91ff;
      }

      .cls-30 {
        fill: #6340a2;
      }

      .cls-31 {
        fill: #2f95cd;
      }

      .cls-32 {
        fill: url(#_ÂÁ_Ï_ÌÌ_È_ËÂÌÚ_46-6);
      }

      .cls-33 {
        fill: url(#_ÂÁ_Ï_ÌÌ_È_ËÂÌÚ_46-7);
      }

      .cls-34 {
        fill: url(#_ÂÁ_Ï_ÌÌ_È_ËÂÌÚ_46-8);
      }

      .cls-35 {
        fill: url(#_ÂÁ_Ï_ÌÌ_È_ËÂÌÚ_46-3);
      }

      .cls-36 {
        fill: url(#_ÂÁ_Ï_ÌÌ_È_ËÂÌÚ_46-2);
      }

      .cls-37 {
        fill: url(#_ÂÁ_Ï_ÌÌ_È_ËÂÌÚ_46-5);
      }

      .cls-38 {
        fill: url(#_ÂÁ_Ï_ÌÌ_È_ËÂÌÚ_46-4);
      }

      .cls-39 {
        fill: url(#_ÂÁ_Ï_ÌÌ_È_ËÂÌÚ_17-2);
      }

      .cls-40 {
        fill: url(#_ÂÁ_Ï_ÌÌ_È_ËÂÌÚ_17-4);
      }

      .cls-41 {
        fill: url(#_ÂÁ_Ï_ÌÌ_È_ËÂÌÚ_17-3);
      }

      .cls-42 {
        fill: url(#_ÂÁ_Ï_ÌÌ_È_ËÂÌÚ_28-2);
      }

      .cls-43 {
        fill: url(#_ÂÁ_Ï_ÌÌ_È_ËÂÌÚ_28-7);
      }

      .cls-44 {
        fill: url(#_ÂÁ_Ï_ÌÌ_È_ËÂÌÚ_28-4);
      }

      .cls-45 {
        fill: url(#_ÂÁ_Ï_ÌÌ_È_ËÂÌÚ_28-3);
      }

      .cls-46 {
        fill: url(#_ÂÁ_Ï_ÌÌ_È_ËÂÌÚ_28-5);
      }

      .cls-47 {
        fill: url(#_ÂÁ_Ï_ÌÌ_È_ËÂÌÚ_28-6);
      }

      .cls-48 {
        fill: url(#_ÂÁ_Ï_ÌÌ_È_ËÂÌÚ_65-3);
      }

      .cls-49 {
        fill: url(#_ÂÁ_Ï_ÌÌ_È_ËÂÌÚ_65-2);
      }

      .cls-50 {
        fill: url(#_ÂÁ_Ï_ÌÌ_È_ËÂÌÚ_91-2);
      }

      .cls-13 {
        fill: url(#_ÂÁ_Ï_ÌÌ_È_ËÂÌÚ_54);
      }

      .cls-14 {
        fill: url(#_ÂÁ_Ï_ÌÌ_È_ËÂÌÚ_54-2);
      }

      .cls-15 {
        fill: url(#_ÂÁ_Ï_ÌÌ_È_ËÂÌÚ_54-4);
      }

      .cls-51 {
        fill: url(#_ÂÁ_Ï_ÌÌ_È_ËÂÌÚ_153-2);
      }

      .cls-51, .cls-52, .cls-53, .cls-19, .cls-20, .cls-21, .cls-22, .cls-25, .cls-26, .cls-54 {
        mix-blend-mode: multiply;
      }

      .cls-51, .cls-52, .cls-53, .cls-54 {
        opacity: .3;
      }

      .cls-52 {
        fill: url(#_ÂÁ_Ï_ÌÌ_È_ËÂÌÚ_153-3);
      }

      .cls-53 {
        fill: url(#_ÂÁ_Ï_ÌÌ_È_ËÂÌÚ_153-4);
      }

      .cls-55 {
        isolation: isolate;
      }

      .cls-19 {
        fill: url(#_ÂÁ_Ï_ÌÌ_È_ËÂÌÚ_416-5);
      }

      .cls-20 {
        fill: url(#_ÂÁ_Ï_ÌÌ_È_ËÂÌÚ_416-4);
      }

      .cls-21 {
        fill: url(#_ÂÁ_Ï_ÌÌ_È_ËÂÌÚ_416-2);
      }

      .cls-22 {
        fill: url(#_ÂÁ_Ï_ÌÌ_È_ËÂÌÚ_416-3);
      }

      .cls-16 {
        fill: url(#_ÂÁ_Ï_ÌÌ_È_ËÂÌÚ_134);
      }

      .cls-17 {
        fill: url(#_ÂÁ_Ï_ÌÌ_È_ËÂÌÚ_143);
      }

      .cls-56 {
        fill: url(#_ÂÁ_Ï_ÌÌ_È_ËÂÌÚ_264);
      }

      .cls-57 {
        fill: url(#_ÂÁ_Ï_ÌÌ_È_ËÂÌÚ_129);
      }

      .cls-58 {
        fill: url(#_ÂÁ_Ï_ÌÌ_È_ËÂÌÚ_132);
      }

      .cls-59 {
        fill: url(#_ÂÁ_Ï_ÌÌ_È_ËÂÌÚ_326);
      }

      .cls-60 {
        fill: url(#_ÂÁ_Ï_ÌÌ_È_ËÂÌÚ_322);
      }

      .cls-61 {
        fill: url(#_ÂÁ_Ï_ÌÌ_È_ËÂÌÚ_8);
      }

      .cls-25 {
        fill: url(#_ÂÁ_Ï_ÌÌ_È_ËÂÌÚ_416);
      }

      .cls-26 {
        fill: url(#_ÂÁ_Ï_ÌÌ_È_ËÂÌÚ_123);
      }

      .cls-54 {
        fill: url(#_ÂÁ_Ï_ÌÌ_È_ËÂÌÚ_153);
      }
    </style>
    <radialGradient id="_ÂÁ_Ï_ÌÌ_È_ËÂÌÚ_123" data-name="¡ÂÁ˚ÏˇÌÌ˚È „‡‰ËÂÌÚ 123" cx="88.75" cy="-480.09" fx="88.75" fy="-480.09" r="40.79" gradientTransform="translate(0 306.32) scale(1 .22)" gradientUnits="userSpaceOnUse">
      <stop offset="0" stop-color="#be9dea"/>
      <stop offset=".39" stop-color="#e0bff5"/>
      <stop offset="1" stop-color="#fff"/>
    </radialGradient>
    <linearGradient id="_ÂÁ_Ï_ÌÌ_È_ËÂÌÚ_129" data-name="¡ÂÁ˚ÏˇÌÌ˚È „‡‰ËÂÌÚ 129" x1="93.28" y1="176.56" x2="101.32" y2="148.7" gradientUnits="userSpaceOnUse">
      <stop offset="0" stop-color="#cbc1f7"/>
      <stop offset="1" stop-color="#d4bef1"/>
    </linearGradient>
    <linearGradient id="_ÂÁ_Ï_ÌÌ_È_ËÂÌÚ_416" data-name="¡ÂÁ˚ÏˇÌÌ˚È „‡‰ËÂÌÚ 416" x1="100.67" y1="170.94" x2="100.67" y2="146" gradientUnits="userSpaceOnUse">
      <stop offset="0" stop-color="#8da4e5"/>
      <stop offset="1" stop-color="#755cbb"/>
    </linearGradient>
    <linearGradient id="_ÂÁ_Ï_ÌÌ_È_ËÂÌÚ_129-2" data-name="¡ÂÁ˚ÏˇÌÌ˚È „‡‰ËÂÌÚ 129" x1="124.2" y1="138.25" x2="130.48" y2="88.22" xlink:href="#_ÂÁ_Ï_ÌÌ_È_ËÂÌÚ_129"/>
    <linearGradient id="_ÂÁ_Ï_ÌÌ_È_ËÂÌÚ_28" data-name="¡ÂÁ˚ÏˇÌÌ˚È „‡‰ËÂÌÚ 28" x1="185.79" y1="-1.42" x2="184.2" y2="-16.96" gradientTransform="translate(-42.99 180.44) rotate(-12.24)" gradientUnits="userSpaceOnUse">
      <stop offset="0" stop-color="#be9dea"/>
      <stop offset="1" stop-color="#9e8cef"/>
    </linearGradient>
    <linearGradient id="_ÂÁ_Ï_ÌÌ_È_ËÂÌÚ_153" data-name="¡ÂÁ˚ÏˇÌÌ˚È „‡‰ËÂÌÚ 153" x1="123.75" y1="139.6" x2="123.75" y2="86.5" gradientUnits="userSpaceOnUse">
      <stop offset="0" stop-color="#9d68c2"/>
      <stop offset="1" stop-color="#ccedff"/>
    </linearGradient>
    <linearGradient id="_ÂÁ_Ï_ÌÌ_È_ËÂÌÚ_46" data-name="¡ÂÁ˚ÏˇÌÌ˚È „‡‰ËÂÌÚ 46" x1="1380.73" y1="331.83" x2="1390.52" y2="253.86" gradientTransform="translate(1515.61 177.46) rotate(-165.68) scale(1 -1)" gradientUnits="userSpaceOnUse">
      <stop offset="0" stop-color="#cbc1f7"/>
      <stop offset="1" stop-color="#e8dcf7"/>
    </linearGradient>
    <linearGradient id="_ÂÁ_Ï_ÌÌ_È_ËÂÌÚ_153-2" data-name="¡ÂÁ˚ÏˇÌÌ˚È „‡‰ËÂÌÚ 153" x1="1403.86" y1="319.08" x2="1403.86" y2="278.84" gradientTransform="translate(1515.61 177.46) rotate(-165.68) scale(1 -1)" xlink:href="#_ÂÁ_Ï_ÌÌ_È_ËÂÌÚ_153"/>
    <linearGradient id="_ÂÁ_Ï_ÌÌ_È_ËÂÌÚ_28-2" data-name="¡ÂÁ˚ÏˇÌÌ˚È „‡‰ËÂÌÚ 28" x1="1358.43" y1="307.15" x2="1396.67" y2="307.15" gradientTransform="translate(1515.61 177.46) rotate(-165.68) scale(1 -1)" xlink:href="#_ÂÁ_Ï_ÌÌ_È_ËÂÌÚ_28"/>
    <radialGradient id="_ÂÁ_Ï_ÌÌ_È_ËÂÌÚ_91" data-name="¡ÂÁ˚ÏˇÌÌ˚È „‡‰ËÂÌÚ 91" cx="1378.19" cy="324.48" fx="1378.19" fy="324.48" r="28.9" gradientTransform="translate(1515.61 177.46) rotate(-165.68) scale(1 -1)" gradientUnits="userSpaceOnUse">
      <stop offset="0" stop-color="#45ffcd"/>
      <stop offset="1" stop-color="#22e0ff"/>
    </radialGradient>
    <linearGradient id="_ÂÁ_Ï_ÌÌ_È_ËÂÌÚ_36" data-name="¡ÂÁ˚ÏˇÌÌ˚È „‡‰ËÂÌÚ 36" x1="1399.76" y1="278.84" x2="1409.61" y2="278.84" gradientTransform="translate(1515.61 177.46) rotate(-165.68) scale(1 -1)" gradientUnits="userSpaceOnUse">
      <stop offset="0" stop-color="#8879ea"/>
      <stop offset="1" stop-color="#9e8cef"/>
    </linearGradient>
    <linearGradient id="_ÂÁ_Ï_ÌÌ_È_ËÂÌÚ_134" data-name="¡ÂÁ˚ÏˇÌÌ˚È „‡‰ËÂÌÚ 134" x1="1360.42" y1="293.71" x2="1392.15" y2="293.71" gradientTransform="translate(1515.61 177.46) rotate(-165.68) scale(1 -1)" gradientUnits="userSpaceOnUse">
      <stop offset="0" stop-color="#000"/>
      <stop offset="1" stop-color="#d4e2ff"/>
    </linearGradient>
    <linearGradient id="_ÂÁ_Ï_ÌÌ_È_ËÂÌÚ_143" data-name="¡ÂÁ˚ÏˇÌÌ˚È „‡‰ËÂÌÚ 143" x1="1377.72" y1="330.25" x2="1377.72" y2="326.59" gradientTransform="translate(1515.61 177.46) rotate(-165.68) scale(1 -1)" gradientUnits="userSpaceOnUse">
      <stop offset="0" stop-color="#d4e2ff"/>
      <stop offset="1" stop-color="#000"/>
    </linearGradient>
    <linearGradient id="_ÂÁ_Ï_ÌÌ_È_ËÂÌÚ_46-2" data-name="¡ÂÁ˚ÏˇÌÌ˚È „‡‰ËÂÌÚ 46" x1="85.01" y1="150.29" x2="98.43" y2="103.83" gradientTransform="translate(-17.42 41.8) rotate(-3.1)" xlink:href="#_ÂÁ_Ï_ÌÌ_È_ËÂÌÚ_46"/>
    <linearGradient id="_ÂÁ_Ï_ÌÌ_È_ËÂÌÚ_46-3" data-name="¡ÂÁ˚ÏˇÌÌ˚È „‡‰ËÂÌÚ 46" x1="67.15" y1="114.71" x2="70.42" y2="88.71" gradientTransform="matrix(1, 0, 0, 1, 0, 0)" xlink:href="#_ÂÁ_Ï_ÌÌ_È_ËÂÌÚ_46"/>
    <linearGradient id="_ÂÁ_Ï_ÌÌ_È_ËÂÌÚ_416-2" data-name="¡ÂÁ˚ÏˇÌÌ˚È „‡‰ËÂÌÚ 416" x1="98.18" y1="99.47" x2="102.88" y2="81.08" xlink:href="#_ÂÁ_Ï_ÌÌ_È_ËÂÌÚ_416"/>
    <linearGradient id="_ÂÁ_Ï_ÌÌ_È_ËÂÌÚ_17" data-name="¡ÂÁ˚ÏˇÌÌ˚È „‡‰ËÂÌÚ 17" x1="1622.61" y1="-116.77" x2="1622.61" y2="-142.41" gradientTransform="translate(1731.63 -211.9) rotate(167.36) scale(1 -1)" gradientUnits="userSpaceOnUse">
      <stop offset="0" stop-color="#45ffcd"/>
      <stop offset="1" stop-color="#22e0ff"/>
    </linearGradient>
    <linearGradient id="_ÂÁ_Ï_ÌÌ_È_ËÂÌÚ_264" data-name="¡ÂÁ˚ÏˇÌÌ˚È „‡‰ËÂÌÚ 264" x1="1629.51" y1="-125.62" x2="1629.51" y2="-147.66" gradientTransform="translate(1731.63 -211.9) rotate(167.36) scale(1 -1)" gradientUnits="userSpaceOnUse">
      <stop offset="0" stop-color="#b9acf4"/>
      <stop offset="1" stop-color="#e1d1f5"/>
    </linearGradient>
    <linearGradient id="_ÂÁ_Ï_ÌÌ_È_ËÂÌÚ_46-4" data-name="¡ÂÁ˚ÏˇÌÌ˚È „‡‰ËÂÌÚ 46" x1="94.57" y1="90.1" x2="105.1" y2="6.26" gradientTransform="matrix(1, 0, 0, 1, 0, 0)" xlink:href="#_ÂÁ_Ï_ÌÌ_È_ËÂÌÚ_46"/>
    <linearGradient id="_ÂÁ_Ï_ÌÌ_È_ËÂÌÚ_416-3" data-name="¡ÂÁ˚ÏˇÌÌ˚È „‡‰ËÂÌÚ 416" x1="61.52" y1="69.92" x2="61.52" y2="52" xlink:href="#_ÂÁ_Ï_ÌÌ_È_ËÂÌÚ_416"/>
    <linearGradient id="_ÂÁ_Ï_ÌÌ_È_ËÂÌÚ_132" data-name="¡ÂÁ˚ÏˇÌÌ˚È „‡‰ËÂÌÚ 132" x1="108.74" y1="83.89" x2="108.74" y2="11.51" gradientUnits="userSpaceOnUse">
      <stop offset="0" stop-color="#0665bd"/>
      <stop offset="1" stop-color="#1a1f77"/>
    </linearGradient>
    <linearGradient id="_ÂÁ_Ï_ÌÌ_È_ËÂÌÚ_54" data-name="¡ÂÁ˚ÏˇÌÌ˚È „‡‰ËÂÌÚ 54" x1="86.93" y1="78.9" x2="88.58" y2="65.76" gradientUnits="userSpaceOnUse">
      <stop offset="0" stop-color="#000"/>
      <stop offset="1" stop-color="#6a9bff"/>
    </linearGradient>
    <linearGradient id="_ÂÁ_Ï_ÌÌ_È_ËÂÌÚ_264-2" data-name="¡ÂÁ˚ÏˇÌÌ˚È „‡‰ËÂÌÚ 264" x1="1340.83" y1="59.68" x2="1340.83" y2="17.47" gradientTransform="translate(1401.8) rotate(-180) scale(1 -1)" xlink:href="#_ÂÁ_Ï_ÌÌ_È_ËÂÌÚ_264"/>
    <linearGradient id="_ÂÁ_Ï_ÌÌ_È_ËÂÌÚ_28-3" data-name="¡ÂÁ˚ÏˇÌÌ˚È „‡‰ËÂÌÚ 28" x1="1344.06" y1="58.07" x2="1344.06" y2="17.66" gradientTransform="translate(1401.8) rotate(-180) scale(1 -1)" xlink:href="#_ÂÁ_Ï_ÌÌ_È_ËÂÌÚ_28"/>
    <linearGradient id="_ÂÁ_Ï_ÌÌ_È_ËÂÌÚ_17-2" data-name="¡ÂÁ˚ÏˇÌÌ˚È „‡‰ËÂÌÚ 17" x1="1347.11" y1="59.08" x2="1347.11" y2="19.47" gradientTransform="translate(1401.8) rotate(-180) scale(1 -1)" xlink:href="#_ÂÁ_Ï_ÌÌ_È_ËÂÌÚ_17"/>
    <linearGradient id="_ÂÁ_Ï_ÌÌ_È_ËÂÌÚ_143-2" data-name="¡ÂÁ˚ÏˇÌÌ˚È „‡‰ËÂÌÚ 143" x1="1346.35" y1="57.78" x2="1346.35" y2="46.22" gradientTransform="translate(1401.8) rotate(-180) scale(1 -1)" xlink:href="#_ÂÁ_Ï_ÌÌ_È_ËÂÌÚ_143"/>
    <linearGradient id="_ÂÁ_Ï_ÌÌ_È_ËÂÌÚ_134-2" data-name="¡ÂÁ˚ÏˇÌÌ˚È „‡‰ËÂÌÚ 134" x1="1336.74" y1="26.71" x2="1359.4" y2="26.71" gradientTransform="translate(1401.8) rotate(-180) scale(1 -1)" xlink:href="#_ÂÁ_Ï_ÌÌ_È_ËÂÌÚ_134"/>
    <linearGradient id="_ÂÁ_Ï_ÌÌ_È_ËÂÌÚ_17-3" data-name="¡ÂÁ˚ÏˇÌÌ˚È „‡‰ËÂÌÚ 17" x1="324.89" y1="-301.8" x2="324.89" y2="-321.61" gradientTransform="translate(27.07 474.83) rotate(-33.14)" xlink:href="#_ÂÁ_Ï_ÌÌ_È_ËÂÌÚ_17"/>
    <linearGradient id="_ÂÁ_Ï_ÌÌ_È_ËÂÌÚ_17-4" data-name="¡ÂÁ˚ÏˇÌÌ˚È „‡‰ËÂÌÚ 17" x1="372.74" y1="-244.73" x2="372.74" y2="-267.09" gradientTransform="translate(-248.8 501.68) rotate(-26.05) scale(1.36 1)" xlink:href="#_ÂÁ_Ï_ÌÌ_È_ËÂÌÚ_17"/>
    <linearGradient id="_ÂÁ_Ï_ÌÌ_È_ËÂÌÚ_54-2" data-name="¡ÂÁ˚ÏˇÌÌ˚È „‡‰ËÂÌÚ 54" x1="76.47" y1="31.84" x2="134.46" y2="31.84" xlink:href="#_ÂÁ_Ï_ÌÌ_È_ËÂÌÚ_54"/>
    <linearGradient id="_ÂÁ_Ï_ÌÌ_È_ËÂÌÚ_28-4" data-name="¡ÂÁ˚ÏˇÌÌ˚È „‡‰ËÂÌÚ 28" x1="50.41" y1="171.11" x2="55.35" y2="131.79" gradientTransform="translate(29.62 -82.06) rotate(6.38)" xlink:href="#_ÂÁ_Ï_ÌÌ_È_ËÂÌÚ_28"/>
    <linearGradient id="_ÂÁ_Ï_ÌÌ_È_ËÂÌÚ_8" data-name="¡ÂÁ˚ÏˇÌÌ˚È „‡‰ËÂÌÚ 8" x1="75.7" y1="-104.7" x2="75.7" y2="-116.04" gradientTransform="translate(14.82 196.88) rotate(-2.22)" gradientUnits="userSpaceOnUse">
      <stop offset="0" stop-color="#dd1a8f"/>
      <stop offset="1" stop-color="#fe117e"/>
    </linearGradient>
    <linearGradient id="_ÂÁ_Ï_ÌÌ_È_ËÂÌÚ_65" data-name="¡ÂÁ˚ÏˇÌÌ˚È „‡‰ËÂÌÚ 65" x1="152.85" y1="-99.9" x2="152.85" y2="-104.72" gradientTransform="translate(-35.05 220.88) rotate(-15.46)" gradientUnits="userSpaceOnUse">
      <stop offset="0" stop-color="#d93de3"/>
      <stop offset="1" stop-color="#ff6dba"/>
    </linearGradient>
    <linearGradient id="_ÂÁ_Ï_ÌÌ_È_ËÂÌÚ_28-5" data-name="¡ÂÁ˚ÏˇÌÌ˚È „‡‰ËÂÌÚ 28" x1="40.67" y1="99.09" x2="40.05" y2="92.96" gradientTransform="matrix(1, 0, 0, 1, 0, 0)" xlink:href="#_ÂÁ_Ï_ÌÌ_È_ËÂÌÚ_28"/>
    <linearGradient id="_ÂÁ_Ï_ÌÌ_È_ËÂÌÚ_65-2" data-name="¡ÂÁ˚ÏˇÌÌ˚È „‡‰ËÂÌÚ 65" x1="51.38" y1="124.92" x2="61.34" y2="74.87" gradientTransform="matrix(1, 0, 0, 1, 0, 0)" xlink:href="#_ÂÁ_Ï_ÌÌ_È_ËÂÌÚ_65"/>
    <linearGradient id="_ÂÁ_Ï_ÌÌ_È_ËÂÌÚ_14" data-name="¡ÂÁ˚ÏˇÌÌ˚È „‡‰ËÂÌÚ 14" x1="68.72" y1="122.11" x2="72.11" y2="74.3" gradientUnits="userSpaceOnUse">
      <stop offset="0" stop-color="#a242ea"/>
      <stop offset="1" stop-color="#fe117e"/>
    </linearGradient>
    <linearGradient id="_ÂÁ_Ï_ÌÌ_È_ËÂÌÚ_416-4" data-name="¡ÂÁ˚ÏˇÌÌ˚È „‡‰ËÂÌÚ 416" x1="46.36" y1="109.37" x2="53.91" y2="109.37" xlink:href="#_ÂÁ_Ï_ÌÌ_È_ËÂÌÚ_416"/>
    <linearGradient id="_ÂÁ_Ï_ÌÌ_È_ËÂÌÚ_28-6" data-name="¡ÂÁ˚ÏˇÌÌ˚È „‡‰ËÂÌÚ 28" x1="29.28" y1="274.58" x2="27.71" y2="259.15" gradientTransform="translate(81.47 -161.79) rotate(13.58)" xlink:href="#_ÂÁ_Ï_ÌÌ_È_ËÂÌÚ_28"/>
    <linearGradient id="_ÂÁ_Ï_ÌÌ_È_ËÂÌÚ_46-5" data-name="¡ÂÁ˚ÏˇÌÌ˚È „‡‰ËÂÌÚ 46" x1="25.02" y1="272.83" x2="26.97" y2="257.33" gradientTransform="translate(81.47 -161.79) rotate(13.58)" xlink:href="#_ÂÁ_Ï_ÌÌ_È_ËÂÌÚ_46"/>
    <linearGradient id="_ÂÁ_Ï_ÌÌ_È_ËÂÌÚ_65-3" data-name="¡ÂÁ˚ÏˇÌÌ˚È „‡‰ËÂÌÚ 65" x1="68.89" y1="95.29" x2="71.34" y2="82.97" gradientTransform="matrix(1, 0, 0, 1, 0, 0)" xlink:href="#_ÂÁ_Ï_ÌÌ_È_ËÂÌÚ_65"/>
    <linearGradient id="_ÂÁ_Ï_ÌÌ_È_ËÂÌÚ_326" data-name="¡ÂÁ˚ÏˇÌÌ˚È „‡‰ËÂÌÚ 326" x1="70" y1="95.24" x2="70.88" y2="82.81" gradientUnits="userSpaceOnUse">
      <stop offset="0" stop-color="#b31a8f"/>
      <stop offset="1" stop-color="#92117e"/>
    </linearGradient>
    <linearGradient id="_ÂÁ_Ï_ÌÌ_È_ËÂÌÚ_322" data-name="¡ÂÁ˚ÏˇÌÌ˚È „‡‰ËÂÌÚ 322" x1="96.79" y1="-35.46" x2="97.44" y2="-44.54" gradientTransform="translate(-34.22 146.28) rotate(-11.22)" gradientUnits="userSpaceOnUse">
      <stop offset="0" stop-color="#b31a8f"/>
      <stop offset="1" stop-color="#fe117e"/>
    </linearGradient>
    <radialGradient id="_ÂÁ_Ï_ÌÌ_È_ËÂÌÚ_91-2" data-name="¡ÂÁ˚ÏˇÌÌ˚È „‡‰ËÂÌÚ 91" cx="97.53" cy="-39.92" fx="97.53" fy="-39.92" r="3.12" gradientTransform="translate(-34.22 146.28) rotate(-11.22)" xlink:href="#_ÂÁ_Ï_ÌÌ_È_ËÂÌÚ_91"/>
    <linearGradient id="_ÂÁ_Ï_ÌÌ_È_ËÂÌÚ_326-2" data-name="¡ÂÁ˚ÏˇÌÌ˚È „‡‰ËÂÌÚ 326" x1="54.52" y1="120.44" x2="67.54" y2="120.44" xlink:href="#_ÂÁ_Ï_ÌÌ_È_ËÂÌÚ_326"/>
    <linearGradient id="_ÂÁ_Ï_ÌÌ_È_ËÂÌÚ_54-3" data-name="¡ÂÁ˚ÏˇÌÌ˚È „‡‰ËÂÌÚ 54" x1="59.31" y1="121.86" x2="59.31" y2="79.02" xlink:href="#_ÂÁ_Ï_ÌÌ_È_ËÂÌÚ_54"/>
    <linearGradient id="_ÂÁ_Ï_ÌÌ_È_ËÂÌÚ_54-4" data-name="¡ÂÁ˚ÏˇÌÌ˚È „‡‰ËÂÌÚ 54" x1="122.78" y1="80.81" x2="125.13" y2="62.1" xlink:href="#_ÂÁ_Ï_ÌÌ_È_ËÂÌÚ_54"/>
    <linearGradient id="_ÂÁ_Ï_ÌÌ_È_ËÂÌÚ_153-3" data-name="¡ÂÁ˚ÏˇÌÌ˚È „‡‰ËÂÌÚ 153" x1="91.49" y1="134.29" x2="91.49" y2="133.81" xlink:href="#_ÂÁ_Ï_ÌÌ_È_ËÂÌÚ_153"/>
    <linearGradient id="_ÂÁ_Ï_ÌÌ_È_ËÂÌÚ_153-4" data-name="¡ÂÁ˚ÏˇÌÌ˚È „‡‰ËÂÌÚ 153" x1="93.72" y1="154.56" x2="93.72" y2="102.11" gradientTransform="translate(-17.42 41.8) rotate(-3.1)" xlink:href="#_ÂÁ_Ï_ÌÌ_È_ËÂÌÚ_153"/>
    <linearGradient id="_ÂÁ_Ï_ÌÌ_È_ËÂÌÚ_46-6" data-name="¡ÂÁ˚ÏˇÌÌ˚È „‡‰ËÂÌÚ 46" x1="50.64" y1="69.93" x2="50.64" y2="54.88" gradientTransform="matrix(1, 0, 0, 1, 0, 0)" xlink:href="#_ÂÁ_Ï_ÌÌ_È_ËÂÌÚ_46"/>
    <linearGradient id="_ÂÁ_Ï_ÌÌ_È_ËÂÌÚ_46-7" data-name="¡ÂÁ˚ÏˇÌÌ˚È „‡‰ËÂÌÚ 46" x1="1496.09" y1="126.59" x2="1499.82" y2="96.85" gradientTransform="translate(1635.41 -41.47) rotate(177.26) scale(1 -1)" xlink:href="#_ÂÁ_Ï_ÌÌ_È_ËÂÌÚ_46"/>
    <linearGradient id="_ÂÁ_Ï_ÌÌ_È_ËÂÌÚ_28-7" data-name="¡ÂÁ˚ÏˇÌÌ˚È „‡‰ËÂÌÚ 28" x1="1499.98" y1="125.59" x2="1497.16" y2="97.95" gradientTransform="translate(1635.41 -41.47) rotate(177.26) scale(1 -1)" xlink:href="#_ÂÁ_Ï_ÌÌ_È_ËÂÌÚ_28"/>
    <linearGradient id="_ÂÁ_Ï_ÌÌ_È_ËÂÌÚ_416-5" data-name="¡ÂÁ˚ÏˇÌÌ˚È „‡‰ËÂÌÚ 416" x1="1500.61" y1="116.56" x2="1499.02" y2="100.88" gradientTransform="translate(1635.41 -41.47) rotate(177.26) scale(1 -1)" xlink:href="#_ÂÁ_Ï_ÌÌ_È_ËÂÌÚ_416"/>
    <linearGradient id="_ÂÁ_Ï_ÌÌ_È_ËÂÌÚ_46-8" data-name="¡ÂÁ˚ÏˇÌÌ˚È „‡‰ËÂÌÚ 46" x1="1502.68" y1="117.33" x2="1505.18" y2="97.43" gradientTransform="translate(1635.41 -41.47) rotate(177.26) scale(1 -1)" xlink:href="#_ÂÁ_Ï_ÌÌ_È_ËÂÌÚ_46"/>
  </defs>
  <g class="cls-55">
    <g id="Calque_2" data-name="Calque 2">
      <g id="chatbot">
        <g>
          <g>
            <path class="cls-28" d="M39.1,17.61C.77,29.89-13.24,90.11,14.65,122.52s63.76,28.71,84.74,42.64c26.13,17.35,52.2,21.39,72.85-13.45C200.78,103.54,101.91-2.52,39.1,17.61Z"/>
            <g>
              <path class="cls-28" d="M188.83,85.22c-3.34-.34-6.77,.1-9.92,1.28-.51,.19-1.02,.41-1.41,.79-.75,.74-.84,1.93-.6,2.95,.59,2.5,2.95,4.39,5.5,4.69s5.16-.9,6.82-2.85c.91-1.07,1.59-2.44,1.46-3.85-.12-1.4-1.24-2.77-2.65-2.82-.3,.33-.08,.97,.37,1.04l.41-1.23Z"/>
              <path class="cls-28" d="M37.87,16.05c-3.34-.34-6.77,.1-9.92,1.28-.51,.19-1.02,.41-1.41,.79-.75,.74-.84,1.93-.6,2.95,.59,2.5,2.95,4.39,5.5,4.69,2.55,.29,5.16-.9,6.82-2.85,.91-1.07,1.59-2.44,1.46-3.85-.12-1.4-1.24-2.77-2.65-2.82-.3,.33-.08,.97,.37,1.04l.41-1.23Z"/>
              <path class="cls-28" d="M181.14,92.17c-1-.95-2.51-1.32-3.84-.95-.32,1.34-.15,2.87,.78,3.88,.93,1.01,2.73,1.22,3.66,.21,.93-1.01,.22-3.07-1.15-3.04l.54-.1Z"/>
              <path class="cls-28" d="M168.87,93.47c-.13-.63-.56-1.18-1.14-1.46-.14,.25-.29,.51-.33,.79-.04,.28,.07,.61,.32,.74,.35,.19,.76-.04,1.08-.26-.02,.11-.04,.21-.06,.32l.12-.13Z"/>
              <path class="cls-28" d="M171.29,92.71c.19-.05,.39-.04,.57,.03-.25,.43-.81,.55-1.31,.6-.28,.03-.62,.01-.74-.24-.09-.17-.02-.38-.04-.57-.04-.39-.41-.8-.17-1.1,.14-.17,.41-.17,.6-.06,.19,.11,.31,.3,.43,.49,.26,.4,.51,.81,.77,1.21l-.11-.36Z"/>
              <path class="cls-24" d="M139.65,99.6c-.34-.21-.75,.32-.6,.69s.57,.54,.95,.68c.26-.49,.17-1.14-.2-1.55l-.16,.19Z"/>
              <path class="cls-28" d="M141.05,113.88c.15,.12,.13,.37,0,.51-.13,.14-.33,.19-.52,.19-.11,0-.22-.02-.32-.07-.22-.13-.28-.46-.13-.67s.48-.25,.69-.09,.26,.47,.14,.69l.14-.55Z"/>
              <path class="cls-28" d="M165.91,98.7c.35-.19,.31-.82-.07-.96-.18,.11-.34,.26-.42,.46s-.03,.45,.15,.56c.18,.11,.47,0,.48-.21l-.15,.16Z"/>
              <path class="cls-28" d="M173.16,93.32c.06-.48-.12-.98-.46-1.32-.25,.31-.5,.61-.75,.92-.12,.14-.24,.3-.27,.48-.06,.36,.31,.7,.67,.67,.36-.03,.66-.34,.75-.69l.06-.05Z"/>
              <path class="cls-24" d="M144.94,109.97c-.09,.1-.18,.2-.27,.29,.08,.21,.31,.35,.52,.31,.22-.04,.38-.29,.31-.5-.07-.21-.37-.3-.53-.15l-.02,.04Z"/>
              <path class="cls-28" d="M167.89,96.56c.06,.25,.44,.27,.65,.11s.31-.42,.5-.6c.19-.19,.47-.28,.74-.26,.16,.02,.32,.09,.38,.23,.04,.1,.03,.21,.01,.31-.08,.51-.24,1.03-.57,1.41-.34,.39-.9,.62-1.39,.44-.34-.12-.6-.44-.66-.79-.06-.35,.09-.73,.37-.96l-.04,.09Z"/>
              <path class="cls-28" d="M168.1,89.59c.02-.33-.3-.61-.62-.62s-.63,.22-.78,.5c-.07,.13-.1,.31,.01,.39,.08,.06,.19,.04,.28,.03,.39-.07,.79-.15,1.18-.22l-.08-.09Z"/>
              <path class="cls-28" d="M153.54,94.37c.3,.59-.17,1.42-.84,1.47-.16-.49-.33-1.01-.19-1.51s.7-.91,1.16-.69c.12,.27,.24,.55,.36,.82l-.5-.1Z"/>
              <path class="cls-28" d="M204.28,85.12c.13-.07,.3,.04,.35,.18,.05,.14,0,.3-.05,.44-.05,.11-.11,.23-.2,.3-.18,.16-.48,.14-.67-.01s-.26-.42-.21-.65c.02-.12,.08-.23,.18-.29,.1-.06,.25-.05,.32,.05l.28-.02Z"/>
              <path class="cls-28" d="M162.52,97.29c-.1-.1-.2-.19-.31-.29-.17,.14-.34,.3-.37,.51-.03,.21,.2,.45,.39,.34,.07-.04,.11-.12,.15-.19,.12-.23,.24-.46,.36-.69l-.22,.31Z"/>
              <path class="cls-28" d="M155.64,100.14c-.3-.17-.61-.34-.95-.37s-.72,.1-.87,.41c-.07,.15-.08,.33-.05,.5,.11,.5,.69,.84,1.19,.7,.49-.14,.8-.74,.64-1.22h.05Z"/>
              <path class="cls-28" d="M152.43,98.48c-.23,.02-.46,.03-.7,.05-.03,.18-.02,.36,.02,.53,.33,.1,.72-.12,.8-.45l-.13-.13Z"/>
              <path class="cls-28" d="M163.29,79.14c-1.27,.44-2.44,1.17-3.39,2.13-.15,.15-.3,.32-.38,.52-.15,.39,.02,.84,.28,1.17,.63,.81,1.81,1.1,2.78,.78,.98-.32,1.72-1.19,2-2.18,.15-.54,.17-1.15-.11-1.64-.28-.49-.91-.8-1.44-.58-.06,.17,.14,.37,.31,.31l-.06-.52Z"/>
              <path class="cls-28" d="M178.88,102.17c-.48-.43-1.16-.61-1.79-.48,.03,.28,.07,.58,.21,.83s.42,.44,.7,.4c.39-.06,.58-.49,.71-.86,.05,.1,.1,.19,.14,.29l.02-.18Z"/>
              <path class="cls-28" d="M175.06,104.77c-.17-.05-.36-.09-.53-.03-.16,.07-.26,.22-.35,.37-.26,.4-.55,.77-.87,1.12,.78-.09,1.57-.18,2.35-.28,.06,0,.13-.01,.19,0,.21,.06,.23,.35,.37,.52,.21,.24,.6,.15,.88,0,1.99-1.1-1.09-1.44-2.04-1.7Z"/>
              <path class="cls-28" d="M182.23,99.48c-.24-.42-.68-.72-1.16-.78-.02,.39-.04,.79-.05,1.18,0,.19-.01,.38,.07,.55,.17,.32,.67,.37,.94,.13,.28-.24,.33-.67,.19-1.01l.02-.08Z"/>
              <path class="cls-28" d="M175.94,99.53c-.18-.27-.6-.31-.87-.12s-.37,.55-.32,.87c.02,.14,.1,.31,.25,.31,.1,0,.18-.08,.24-.15,.27-.3,.54-.59,.81-.89l-.12-.02Z"/>
              <path class="cls-28" d="M176.59,93.91c-.3-.17-.61-.34-.95-.37s-.72,.1-.87,.41c-.07,.15-.08,.33-.05,.5,.11,.5,.69,.84,1.19,.7,.49-.14,.8-.74,.64-1.22h.05Z"/>
              <path class="cls-28" d="M159.46,91.29c-.28,.21-.23,.63-.12,.97,.1,.33,.21,.73-.01,1-.06,.07-.15,.13-.25,.12-.24-.02-.26-.37-.34-.59-.07-.18-.22-.32-.33-.48-.26-.39-.25-.93,.03-1.31,.22-.11,.51-.08,.7,.09,.19,.16,.27,.44,.2,.68l.13-.46Z"/>
              <path class="cls-28" d="M154.2,98.1c-.28,.21-.23,.63-.12,.97,.1,.33,.21,.73-.01,1-.06,.07-.15,.13-.25,.12-.24-.02-.26-.37-.34-.59-.07-.18-.22-.32-.33-.48-.26-.39-.25-.93,.03-1.31,.22-.11,.51-.08,.7,.09,.19,.16,.27,.44,.2,.68l.13-.46Z"/>
              <path class="cls-28" d="M147.79,98.48c-.28-.02-.57,.03-.83,.13-.04,.02-.08,.04-.12,.07-.06,.06-.07,.16-.04,.25,.06,.21,.26,.36,.47,.38,.22,.02,.43-.09,.57-.26,.07-.09,.13-.21,.11-.33-.01-.12-.11-.23-.23-.23-.02,.03,0,.08,.03,.09l.03-.1Z"/>
              <path class="cls-28" d="M188.14,91.62c-.48-.43-1.16-.61-1.79-.48,.03,.28,.07,.58,.21,.83,.14,.25,.42,.44,.7,.4,.39-.06,.58-.49,.71-.86l.14,.29,.02-.18Z"/>
              <path class="cls-28" d="M188.9,97.58c.17-.37-.24-.84-.63-.73-.07,.2-.12,.41-.06,.61,.06,.2,.25,.37,.46,.36s.37-.28,.26-.45l-.02,.21Z"/>
              <path class="cls-28" d="M178.55,94.95c.17-.37-.24-.84-.63-.73-.07,.2-.12,.41-.06,.61s.25,.37,.46,.36,.37-.28,.26-.45l-.02,.21Z"/>
              <path class="cls-28" d="M189.2,94.68c.2,.17,.52-.05,.59-.3s0-.52,.04-.78c.04-.27,.21-.51,.44-.65,.13-.08,.31-.12,.45-.05,.09,.05,.15,.15,.19,.24,.24,.46,.43,.96,.39,1.48-.04,.51-.35,1.03-.84,1.19-.34,.1-.74,0-1-.24-.26-.25-.37-.64-.28-.99l.02,.1Z"/>
              <path class="cls-28" d="M158.79,94.76c.2,.17,.52-.05,.59-.3s0-.52,.04-.78c.04-.27,.21-.51,.44-.65,.13-.08,.31-.12,.45-.05,.09,.05,.15,.15,.19,.24,.24,.46,.43,.96,.39,1.48-.04,.51-.35,1.03-.84,1.19-.34,.1-.74,0-1-.24-.26-.25-.37-.64-.28-.99l.02,.1Z"/>
              <path class="cls-28" d="M158.25,91.42c.2,.17,.52-.05,.59-.3,.07-.25,0-.52,.04-.78,.04-.27,.21-.51,.44-.65,.13-.08,.31-.12,.45-.05,.09,.05,.15,.15,.19,.24,.24,.46,.43,.96,.39,1.48-.04,.51-.35,1.03-.84,1.19-.34,.1-.74,0-1-.24-.26-.25-.37-.64-.28-.99l.02,.1Z"/>
              <path class="cls-28" d="M163.47,91.68c.2,.17,.52-.05,.59-.3,.07-.25,0-.52,.04-.78,.04-.27,.21-.51,.44-.65,.13-.08,.31-.12,.45-.05,.09,.05,.15,.15,.19,.24,.24,.46,.43,.96,.39,1.48-.04,.51-.35,1.03-.84,1.19-.34,.1-.74,0-1-.24-.26-.25-.37-.64-.28-.99l.02,.1Z"/>
              <path class="cls-28" d="M154.16,127.05c.2,.17,.52-.05,.59-.3,.07-.25,0-.52,.04-.78,.04-.27,.21-.51,.44-.65,.13-.08,.31-.12,.45-.05,.09,.05,.15,.15,.19,.24,.24,.46,.43,.96,.39,1.48-.04,.51-.35,1.03-.84,1.19-.34,.1-.74,0-1-.24s-.37-.64-.28-.99l.02,.1Z"/>
              <path class="cls-28" d="M185.34,98.48c-.14-.01-.28-.03-.42-.05-.05,.21-.1,.44,0,.63,.11,.19,.43,.24,.52,.04,.03-.07,.02-.16,0-.24-.04-.26-.08-.51-.12-.77v.38Z"/>
              <path class="cls-28" d="M161.17,111.57c-.3-.17-.61-.34-.95-.37s-.72,.1-.87,.41c-.07,.15-.08,.33-.05,.5,.11,.5,.69,.84,1.19,.7s.8-.74,.64-1.22h.05Z"/>
              <path class="cls-28" d="M179.64,89.58c.48-.1,.94,.51,.71,.94-.24,.13-.51,.2-.78,.22-.1-.28-.09-.6,.03-.88l.03-.28Z"/>
              <path class="cls-24" d="M157.11,109.96c-.19-.06-.38-.12-.58-.11-.2,.02-.4,.14-.45,.33-.08,.31,.26,.58,.33,.89,.07,.32-.14,.68,.04,.96,.17,.27,.61,.23,.83,0s.26-.58,.28-.9c.02-.29,.01-.59-.13-.84s-.45-.43-.72-.33h.39Z"/>
              <path class="cls-28" d="M166.18,94.8c-.23-1.36-1.22-2.56-2.5-3.06-1.05,.88-1.84,2.21-1.7,3.58,.14,1.37,1.46,2.62,2.81,2.36,1.35-.26,2.02-2.32,.9-3.12l.5,.24Z"/>
              <path class="cls-28" d="M179.3,86.43c.05,.18-.11,.37-.3,.41-.19,.04-.38-.04-.53-.16-.09-.07-.17-.15-.21-.25-.1-.24,.05-.54,.3-.61,.25-.07,.53,.09,.61,.34,.07,.25-.07,.53-.3,.64l.44-.36Z"/>
              <path class="cls-28" d="M172.97,90.56c-.2,.29,0,.67,.2,.95,.21,.28,.44,.62,.32,.94-.03,.09-.1,.17-.19,.2-.24,.06-.36-.26-.52-.45-.13-.15-.31-.23-.47-.34-.37-.28-.54-.8-.41-1.24,.17-.18,.46-.24,.69-.15s.4,.32,.41,.57l-.03-.48Z"/>
              <path class="cls-28" d="M166.63,99.64l-.39,.07c-.06,.21,.03,.46,.23,.56,.2,.1,.47,0,.54-.21,.07-.21-.12-.46-.34-.44l-.04,.02Z"/>
              <path class="cls-28" d="M172.85,95.22c.15,.03,.22,.22,.17,.36-.05,.14-.18,.24-.3,.32-.1,.06-.22,.12-.34,.12-.24,.02-.47-.17-.53-.41-.06-.23,.04-.49,.22-.65,.09-.08,.2-.14,.32-.13,.12,.01,.23,.11,.22,.23l.24,.16Z"/>
              <path class="cls-28" d="M177.37,105.82c.71-1.18,.75-2.74,.11-3.95-1.37-.02-2.84,.47-3.62,1.6-.79,1.13-.61,2.93,.58,3.62,1.19,.69,3.04-.44,2.72-1.77l.22,.51Z"/>
              <path class="cls-28" d="M112.95,179.34c.71-1.18,.75-2.74,.11-3.95-1.37-.02-2.84,.47-3.62,1.6-.79,1.13-.61,2.93,.58,3.62,1.19,.69,3.04-.44,2.72-1.77l.22,.51Z"/>
              <path class="cls-28" d="M183.75,97.11c-.34-.21-.75,.32-.6,.69,.15,.37,.57,.54,.95,.68,.26-.49,.17-1.14-.2-1.55l-.16,.19Z"/>
              <path class="cls-28" d="M174.89,85.47c-.13,.02-.26,.05-.39,.07-.06,.21,.03,.46,.23,.56,.2,.1,.47,0,.54-.21,.07-.21-.12-.46-.34-.44l-.04,.02Z"/>
              <path class="cls-28" d="M174.95,92.77c-1.45-.19-2.94-.04-4.32,.43-.22,.08-.45,.16-.62,.32-.33,.31-.39,.83-.3,1.27,.22,1.09,1.22,1.94,2.32,2.1,1.1,.16,2.25-.32,2.99-1.15,.41-.45,.72-1.04,.68-1.65-.04-.61-.5-1.22-1.11-1.26-.14,.14-.05,.42,.15,.45l.19-.53Z"/>
              <path class="cls-28" d="M170.48,116.41c-1-.95-2.51-1.32-3.84-.95-.32,1.34-.15,2.87,.78,3.88,.93,1.01,2.73,1.22,3.66,.21,.93-1.01,.22-3.07-1.15-3.04l.54-.1Z"/>
              <path class="cls-28" d="M150.14,100.21c-.48-.43-1.16-.61-1.79-.48,.03,.28,.07,.58,.21,.83,.14,.25,.42,.45,.7,.4,.39-.06,.58-.49,.71-.86,.05,.1,.1,.19,.14,.29l.02-.18Z"/>
              <path class="cls-28" d="M146.32,102.81c-.17-.05-.36-.09-.53-.03-.16,.07-.26,.22-.35,.37-.26,.4-.55,.77-.87,1.12,.78-.09,1.57-.18,2.35-.28,.06,0,.13-.01,.19,0,.21,.06,.23,.35,.37,.52,.21,.24,.6,.15,.88,0,1.99-1.1-1.09-1.44-2.04-1.7Z"/>
              <path class="cls-28" d="M171.41,90.38c-.23,.02-.46,.03-.69,.05,.06,.46,.37,.92,.83,.99,.46,.07,.94-.45,.72-.86-.13-.25-.44-.6-.19-.72l-.67,.55Z"/>
              <path class="cls-28" d="M156.92,104.02c.19-.05,.39-.04,.57,.03-.25,.43-.81,.55-1.31,.6-.28,.03-.62,.01-.74-.24-.09-.17-.02-.38-.04-.57-.04-.39-.41-.8-.17-1.1,.14-.17,.41-.17,.6-.06,.19,.11,.31,.3,.43,.49,.26,.4,.51,.81,.77,1.21l-.11-.36Z"/>
              <path class="cls-28" d="M158.58,111.4c-.34-.21-.75,.32-.6,.69,.15,.37,.57,.54,.95,.68,.26-.49,.17-1.14-.2-1.55l-.16,.19Z"/>
              <path class="cls-24" d="M150.43,108.67c.15,.12,.13,.37,0,.51-.13,.14-.33,.19-.52,.19-.11,0-.22-.02-.32-.07-.22-.13-.28-.46-.13-.67,.15-.21,.48-.25,.69-.09s.26,.47,.14,.69l.14-.55Z"/>
              <path class="cls-28" d="M150.9,106.17c.17-.37-.24-.84-.63-.73-.07,.2-.12,.41-.06,.61s.25,.37,.46,.36,.37-.28,.26-.45l-.02,.21Z"/>
              <path class="cls-28" d="M153.48,97.52c-.24-.42-.68-.72-1.16-.78-.02,.39-.04,.79-.05,1.18,0,.19-.01,.38,.07,.55,.17,.32,.67,.37,.94,.13,.28-.24,.33-.67,.19-1.01l.02-.08Z"/>
              <path class="cls-24" d="M153.89,113.12c.21,.18,.29,.5,.21,.76-.09,.26-.34,.47-.62,.49-.19,.02-.42-.1-.41-.29,0-.08,.06-.15,.1-.21l.63-.85s.09,.09,.13,.13l-.04-.03Z"/>
              <path class="cls-24" d="M152.4,118.41c-.28,.21-.23,.63-.12,.97,.1,.33,.21,.73-.01,1-.06,.07-.15,.13-.25,.12-.24-.02-.26-.37-.34-.59-.07-.18-.22-.32-.33-.48-.26-.39-.25-.93,.03-1.31,.22-.11,.51-.08,.7,.09,.19,.16,.27,.44,.2,.68l.13-.46Z"/>
              <path class="cls-24" d="M159.89,87.75c-.28,.21-.23,.63-.12,.97,.1,.33,.21,.73-.01,1-.06,.07-.15,.13-.25,.12-.24-.02-.26-.37-.34-.59-.07-.18-.22-.32-.33-.48-.26-.39-.25-.93,.03-1.31,.22-.11,.51-.08,.7,.09,.19,.16,.27,.44,.2,.68l.13-.46Z"/>
              <path class="cls-24" d="M149.07,117.4c-.13-.02-.26-.04-.4-.06-.13,.18-.12,.45,.03,.61s.45,.15,.58-.02c.13-.17,.04-.48-.17-.53h-.05Z"/>
              <path class="cls-28" d="M151.21,103.27c.2,.17,.52-.05,.59-.3s0-.52,.04-.78c.04-.27,.21-.51,.44-.65,.13-.08,.31-.12,.45-.05,.09,.05,.15,.15,.19,.24,.24,.46,.43,.96,.39,1.48-.04,.51-.35,1.03-.84,1.19-.34,.1-.74,0-1-.24-.26-.25-.37-.64-.28-.99l.02,.1Z"/>
              <path class="cls-28" d="M147.2,97.57c-.18-.27-.6-.31-.87-.12-.26,.19-.37,.55-.32,.87,.02,.14,.1,.31,.25,.31,.1,0,.18-.08,.24-.15,.27-.3,.54-.59,.81-.89l-.12-.02Z"/>
              <path class="cls-28" d="M162.39,107.21c.3,.59-.17,1.42-.84,1.47-.16-.49-.33-1.01-.19-1.51s.7-.91,1.16-.69c.12,.27,.24,.55,.36,.82l-.5-.1Z"/>
              <path class="cls-24" d="M147.34,107.08c-.14-.02-.28-.03-.42-.04-.05,.21-.1,.44,0,.63s.43,.24,.52,.04c.03-.07,.02-.16,0-.24-.04-.26-.08-.51-.12-.77v.38Z"/>
              <path class="cls-28" d="M181.14,92.44c-.3-.17-.61-.34-.95-.37-.34-.04-.72,.1-.87,.41-.07,.15-.08,.33-.05,.5,.11,.5,.69,.84,1.19,.7,.49-.14,.8-.74,.64-1.22h.05Z"/>
              <path class="cls-28" d="M171.36,110.27c-.23,.02-.46,.03-.7,.05-.03,.18-.02,.36,.02,.53,.33,.1,.72-.12,.8-.45l-.13-.13Z"/>
              <path class="cls-28" d="M199.05,90.03c.15,.12,.13,.37,0,.51-.13,.14-.33,.19-.52,.19-.11,0-.22-.02-.32-.07-.22-.13-.28-.46-.13-.67,.15-.21,.48-.25,.69-.09s.26,.47,.14,.69l.14-.55Z"/>
              <path class="cls-28" d="M166.51,107.16c-.23,.02-.46,.03-.7,.05-.03,.18-.02,.36,.02,.53,.33,.1,.72-.12,.8-.45l-.13-.13Z"/>
              <path class="cls-28" d="M164.45,88.16c-.14-.22-.51-.11-.65,.11-.14,.22-.15,.5-.27,.73-.12,.24-.35,.43-.61,.49-.15,.04-.33,.03-.44-.09-.07-.08-.1-.19-.11-.29-.09-.51-.12-1.05,.06-1.53,.19-.48,.64-.89,1.16-.88,.36,0,.71,.21,.88,.52,.17,.31,.16,.72-.03,1.03v-.1Z"/>
              <path class="cls-28" d="M175.79,96.18c.16,.11,.33,.23,.52,.27,.19,.04,.42-.01,.52-.18,.17-.28-.08-.63-.05-.95,.03-.32,.33-.61,.25-.93-.08-.31-.52-.4-.8-.24s-.42,.48-.53,.78c-.1,.27-.18,.56-.13,.84,.06,.28,.3,.54,.59,.52l-.37-.11Z"/>
              <path class="cls-28" d="M160.79,97.31c1.17-.21,2.29-.69,3.24-1.4,.15-.11,.31-.24,.4-.4,.18-.32,.1-.74-.08-1.06-.44-.79-1.43-1.21-2.32-1.06-.89,.15-1.66,.8-2.04,1.63-.21,.45-.3,.98-.12,1.45,.18,.46,.69,.82,1.17,.7,.07-.14-.07-.34-.23-.32l-.02,.46Z"/>
              <path class="cls-28" d="M162.02,88.78c-.04-.17-.1-.36-.24-.47-.14-.11-.32-.11-.5-.12-.47-.03-.94-.09-1.41-.2l1.41,1.9c.04,.05,.08,.1,.09,.16,.05,.21-.19,.37-.27,.58-.11,.3,.17,.6,.44,.76,1.95,1.18,.71-1.67,.46-2.61Z"/>
              <path class="cls-28" d="M160.65,97.05c-.13-.03-.26-.06-.39-.09-.14,.17-.15,.44,0,.61,.14,.17,.44,.18,.58,.02,.15-.16,.08-.47-.13-.54h-.05Z"/>
              <path class="cls-28" d="M158.91,90.88c.15-.29-.03-.68-.33-.81-.3-.13-.66-.05-.92,.15-.11,.09-.21,.24-.14,.37,.05,.09,.16,.12,.25,.14,.39,.09,.78,.18,1.17,.27l-.04-.11Z"/>
              <path class="cls-28" d="M159.09,95.19c.13-.63-.05-1.31-.47-1.79-.23,.17-.47,.35-.61,.6-.15,.25-.18,.58,0,.81,.24,.31,.71,.26,1.1,.19-.06,.09-.12,.18-.18,.27l.16-.08Z"/>
              <path class="cls-28" d="M157.77,97.77c.14,.14,.23,.32,.26,.51-.5,0-.88-.43-1.17-.84-.16-.23-.32-.53-.16-.76,.11-.16,.32-.21,.48-.32,.31-.23,.49-.75,.87-.7,.22,.03,.35,.27,.35,.49,0,.22-.11,.42-.21,.62-.22,.42-.44,.85-.67,1.27l.26-.27Z"/>
              <path class="cls-28" d="M161.7,91.56c.24-.42,.28-.95,.1-1.39-.35,.18-.7,.36-1.05,.54-.17,.09-.34,.18-.44,.33-.2,.31,0,.76,.35,.88,.34,.12,.74-.05,.96-.34l.08-.03Z"/>
              <path class="cls-28" d="M155.58,92.45c-.05,.26,.3,.43,.55,.36,.25-.07,.45-.26,.7-.35,.25-.09,.55-.07,.78,.06,.14,.08,.26,.21,.26,.36,0,.11-.06,.2-.11,.29-.28,.43-.62,.85-1.09,1.07-.46,.22-1.07,.21-1.45-.14-.26-.25-.38-.64-.29-.98s.37-.64,.72-.73l-.07,.07Z"/>
              <path class="cls-28" d="M170.49,100.36c0-.34,0-.7-.15-1.01-.14-.31-.45-.58-.79-.55-.17,.01-.33,.09-.45,.21-.38,.35-.39,1.02-.02,1.38s1.04,.33,1.38-.06l.04,.03Z"/>
              <path class="cls-28" d="M171.46,92.78c.13-.63-.05-1.31-.47-1.79-.23,.17-.47,.35-.61,.6-.15,.25-.18,.58,0,.81,.24,.31,.71,.26,1.1,.19-.06,.09-.12,.18-.18,.27l.16-.08Z"/>
              <path class="cls-28" d="M156.81,98.52c-.29,.19-.27,.62-.19,.96,.08,.34,.16,.74-.08,.99-.07,.07-.16,.12-.25,.1-.24-.04-.23-.38-.3-.62-.06-.19-.2-.33-.3-.5-.23-.4-.18-.95,.12-1.3,.23-.09,.51-.04,.69,.13,.18,.17,.24,.46,.15,.69l.16-.45Z"/>
              <path class="cls-28" d="M183.39,101.71c-.12,.05-.25,.11-.37,.16-.01,.22,.14,.44,.36,.49,.21,.05,.46-.11,.48-.33,.02-.22-.22-.42-.43-.35l-.04,.03Z"/>
              <path class="cls-28" d="M164.11,93.76c-.06-.13-.11-.26-.17-.38-.21,.06-.43,.14-.54,.32s0,.5,.22,.47c.08,0,.15-.06,.21-.11,.2-.16,.4-.33,.6-.49l-.33,.19Z"/>
            </g>
            <g>
              <path class="cls-27" d="M37.01,142.75c2.13,.85,4.46,1.2,6.74,1.02,.37-.03,.75-.08,1.07-.25,.63-.34,.91-1.11,.94-1.82,.08-1.75-1.11-3.43-2.72-4.11-1.62-.67-3.55-.38-5.01,.59-.8,.53-1.5,1.3-1.68,2.25-.18,.94,.29,2.05,1.21,2.35,.26-.16,.23-.62-.05-.75l-.5,.73Z"/>
              <path class="cls-27" d="M43.35,139.64c.48,.81,1.4,1.34,2.34,1.34,.46-.82,.64-1.85,.21-2.69s-1.56-1.32-2.36-.83-.72,1.97,.18,2.21l-.38-.03Z"/>
              <path class="cls-27" d="M51.64,141.09c-.03,.43,.15,.88,.48,1.17,.14-.14,.28-.28,.36-.46,.08-.18,.07-.41-.07-.55-.19-.19-.51-.12-.76-.03,.03-.07,.07-.13,.1-.2l-.1,.07Z"/>
              <path class="cls-27" d="M49.91,141.14c-.13,0-.26-.05-.37-.13,.24-.24,.63-.21,.97-.15,.19,.03,.41,.11,.44,.3,.02,.13-.06,.25-.08,.38-.05,.26,.12,.6-.09,.75-.12,.09-.3,.04-.4-.07-.1-.11-.15-.26-.19-.4-.09-.31-.18-.63-.28-.94v.25Z"/>
              <path class="cls-23" d="M71.95,142.56c.18,.2,.55-.07,.52-.34-.03-.27-.27-.46-.5-.62-.26,.27-.33,.72-.16,1.06l.14-.09Z"/>
              <path class="cls-27" d="M73.71,132.93c-.07-.11-.02-.26,.09-.33,.11-.07,.25-.06,.37-.03,.07,.02,.14,.05,.2,.11,.12,.13,.1,.36-.04,.46-.14,.11-.36,.07-.47-.07s-.09-.36,.04-.48l-.19,.33Z"/>
              <path class="cls-27" d="M54.56,138.22c-.27,.06-.36,.48-.14,.64,.14-.04,.27-.11,.36-.22,.08-.11,.1-.29,0-.4-.09-.11-.3-.09-.35,.05l.12-.07Z"/>
              <path class="cls-27" d="M48.8,140.39c-.13,.3-.11,.67,.06,.95,.22-.15,.44-.31,.67-.46,.1-.07,.21-.15,.27-.26,.11-.23-.07-.51-.32-.57-.24-.05-.5,.1-.62,.31l-.05,.02Z"/>
              <path class="cls-23" d="M70.43,134.77c.08-.05,.16-.09,.23-.14-.01-.15-.13-.29-.28-.3s-.3,.12-.29,.27,.19,.27,.32,.2l.02-.02Z"/>
              <path class="cls-27" d="M52.86,139.25c0-.18-.24-.26-.4-.2-.17,.07-.28,.21-.44,.3-.16,.09-.36,.1-.53,.03-.1-.04-.2-.12-.21-.22,0-.07,.02-.14,.05-.21,.15-.32,.35-.63,.64-.82,.29-.19,.71-.24,.99-.03,.2,.14,.31,.4,.28,.64-.03,.24-.2,.46-.42,.56l.04-.05Z"/>
              <path class="cls-27" d="M51.42,143.78c-.07,.21,.08,.45,.29,.52s.45-.02,.61-.18c.07-.07,.12-.18,.06-.26-.04-.05-.11-.06-.18-.07-.27-.03-.54-.05-.82-.08l.04,.07Z"/>
              <path class="cls-27" d="M61.86,143.38c-.08-.45,.38-.9,.82-.8,.02,.35,.03,.72-.16,1.02-.18,.3-.63,.46-.89,.23-.03-.2-.06-.41-.08-.61l.31,.16Z"/>
              <path class="cls-27" d="M26.85,139.92c-.1,.02-.19-.08-.2-.19,0-.1,.05-.2,.12-.28,.05-.07,.11-.13,.19-.16,.15-.07,.34,0,.43,.13s.09,.32,.02,.47c-.04,.07-.1,.14-.17,.16-.08,.02-.17-.02-.2-.09l-.19-.04Z"/>
              <path class="cls-27" d="M56.52,139.78c.05,.08,.1,.16,.15,.24,.13-.06,.28-.13,.34-.26s-.05-.34-.19-.3c-.05,.01-.09,.06-.13,.1-.12,.13-.24,.26-.37,.38l.2-.16Z"/>
              <path class="cls-27" d="M61.57,139.2c.16,.17,.34,.34,.55,.42,.22,.09,.49,.07,.65-.1,.08-.09,.12-.2,.12-.32,.02-.35-.29-.68-.65-.68-.35,0-.67,.33-.65,.68h-.03Z"/>
              <path class="cls-27" d="M63.35,140.9c.16,.03,.31,.07,.47,.1,.05-.11,.08-.23,.09-.35-.2-.13-.49-.06-.61,.14l.06,.11Z"/>
              <path class="cls-27" d="M52.6,151.54c.92-.05,1.82-.31,2.62-.76,.13-.07,.26-.15,.35-.27,.17-.23,.14-.56,.04-.82-.26-.65-.98-1.06-1.68-1.03s-1.35,.46-1.72,1.05c-.2,.33-.33,.73-.23,1.1,.09,.37,.45,.69,.83,.65,.07-.1-.02-.27-.14-.26l-.06,.35Z"/>
              <path class="cls-27" d="M46.71,133.51c.23,.37,.65,.62,1.08,.65,.03-.19,.06-.39,.02-.58-.05-.19-.19-.37-.38-.4-.27-.04-.47,.21-.63,.43l-.04-.22-.04,.11Z"/>
              <path class="cls-27" d="M49.7,132.52c.1,.06,.22,.13,.34,.12,.12-.01,.21-.1,.3-.18,.24-.21,.51-.4,.78-.57-.53-.09-1.06-.17-1.59-.26-.04,0-.09-.01-.12-.04-.13-.08-.08-.27-.15-.41-.09-.2-.37-.21-.58-.16-1.51,.35,.45,1.15,1.02,1.5Z"/>
              <path class="cls-27" d="M44.01,134.65c.08,.32,.31,.6,.61,.73,.09-.26,.17-.51,.26-.77,.04-.12,.08-.25,.06-.37-.05-.24-.37-.37-.59-.26-.23,.1-.34,.38-.31,.62l-.03,.05Z"/>
              <path class="cls-27" d="M27.89,134.66c.08-.05,.16-.09,.23-.14-.01-.15-.13-.29-.28-.3-.15-.01-.3,.12-.29,.27s.19,.27,.32,.2l.02-.02Z"/>
              <path class="cls-27" d="M48.14,135.8c.07,.21,.34,.32,.55,.24,.21-.07,.35-.29,.37-.51,.01-.1-.01-.22-.1-.25-.06-.02-.13,.02-.19,.05-.23,.14-.47,.28-.7,.43l.07,.04Z"/>
              <path class="cls-27" d="M46.66,139.36c.16,.17,.34,.34,.55,.42,.22,.09,.49,.07,.65-.1,.08-.09,.12-.2,.12-.32,.02-.35-.29-.68-.65-.68-.35,0-.67,.33-.65,.68h-.03Z"/>
              <path class="cls-27" d="M57.4,144.29c.22-.08,.27-.37,.26-.61,0-.24,0-.52,.2-.65,.05-.04,.12-.06,.18-.03,.16,.06,.1,.29,.11,.45,.01,.13,.09,.25,.13,.38,.1,.3-.01,.66-.26,.85-.17,.03-.35-.05-.44-.19-.09-.14-.1-.34,0-.48l-.17,.28Z"/>
              <path class="cls-27" d="M62.13,140.81c.22-.08,.27-.37,.26-.61,0-.24,0-.52,.2-.65,.05-.04,.12-.06,.18-.03,.16,.06,.1,.29,.11,.45,.01,.13,.09,.25,.13,.38,.1,.3-.01,.66-.26,.85-.17,.03-.35-.05-.44-.19-.09-.14-.1-.34,0-.48l-.17,.28Z"/>
              <path class="cls-27" d="M66.4,141.77c.18,.07,.38,.09,.57,.07,.03,0,.06,0,.09-.02,.05-.03,.07-.1,.07-.16,0-.15-.1-.29-.24-.34-.14-.05-.3-.02-.42,.06-.07,.05-.12,.11-.14,.19-.01,.08,.03,.17,.11,.19,.02-.01,.02-.05,0-.06l-.04,.06Z"/>
              <path class="cls-27" d="M38.66,138.69c.23,.37,.65,.62,1.08,.65,.03-.19,.06-.39,.02-.58-.05-.19-.19-.37-.38-.4-.27-.04-.47,.21-.63,.43-.01-.07-.03-.15-.04-.22l-.04,.11Z"/>
              <path class="cls-27" d="M39.28,134.64c-.18,.21,0,.6,.28,.6,.09-.11,.16-.25,.15-.39,0-.14-.09-.29-.23-.32-.14-.03-.3,.11-.25,.25l.06-.13Z"/>
              <path class="cls-27" d="M45.57,138.3c-.18,.21,0,.6,.28,.6,.09-.11,.16-.25,.15-.39,0-.14-.09-.29-.23-.32-.14-.03-.3,.11-.25,.25l.06-.13Z"/>
              <path class="cls-27" d="M38.53,136.48c-.1-.15-.35-.07-.44,.09-.09,.15-.1,.34-.18,.5-.08,.17-.23,.29-.41,.34-.1,.03-.23,.02-.3-.05-.05-.05-.07-.13-.08-.2-.07-.34-.1-.71,.02-1.04,.12-.33,.42-.61,.78-.62,.24,0,.49,.13,.61,.34,.12,.21,.12,.49,0,.7v-.07Z"/>
              <path class="cls-27" d="M58.49,142.14c-.1-.15-.35-.07-.44,.09-.09,.15-.1,.34-.18,.5-.08,.17-.23,.29-.41,.34-.1,.03-.23,.02-.3-.05-.05-.05-.07-.13-.08-.2-.07-.34-.1-.71,.02-1.04,.12-.33,.42-.61,.78-.62,.24,0,.49,.13,.61,.34,.12,.21,.12,.49,0,.7v-.07Z"/>
              <path class="cls-27" d="M58.21,144.43c-.1-.15-.35-.07-.44,.09-.09,.15-.1,.34-.17,.5-.08,.17-.23,.29-.41,.34-.1,.03-.23,.02-.3-.05-.05-.05-.07-.13-.08-.2-.07-.34-.1-.71,.02-1.04,.12-.33,.42-.61,.78-.62,.24,0,.49,.13,.61,.34,.12,.21,.12,.49,0,.7v-.07Z"/>
              <path class="cls-27" d="M54.84,143.28c-.1-.15-.35-.07-.44,.09-.09,.15-.1,.34-.18,.5-.08,.17-.23,.29-.41,.34-.1,.03-.23,.02-.3-.05-.05-.05-.07-.13-.08-.2-.07-.34-.1-.71,.02-1.04,.12-.33,.42-.61,.78-.62,.24,0,.49,.13,.61,.34,.12,.21,.12,.49,0,.7v-.07Z"/>
              <path class="cls-27" d="M67.59,121.84c-.1-.15-.35-.07-.44,.09-.09,.15-.1,.34-.18,.5-.08,.17-.23,.29-.41,.34-.1,.03-.23,.02-.3-.05-.05-.05-.07-.13-.08-.2-.07-.34-.1-.71,.02-1.04,.12-.33,.42-.61,.78-.62,.24,0,.49,.13,.61,.34,.12,.21,.12,.49,0,.7v-.07Z"/>
              <path class="cls-27" d="M41.78,134.71c.09,.04,.18,.07,.26,.11,.07-.13,.15-.27,.11-.42s-.24-.24-.33-.13c-.03,.04-.04,.1-.05,.16-.02,.18-.04,.35-.06,.53l.07-.25Z"/>
              <path class="cls-27" d="M60.09,130.67c.16,.17,.34,.34,.55,.42,.22,.09,.49,.07,.65-.1,.08-.09,.12-.2,.12-.32,.02-.35-.29-.68-.65-.68-.35,0-.67,.33-.65,.68h-.03Z"/>
              <path class="cls-27" d="M43.85,141.62c-.33-.03-.52-.51-.29-.75,.18-.04,.37-.04,.55,0,.01,.2-.06,.41-.19,.57l-.07,.18Z"/>
              <path class="cls-23" d="M62.45,132.49c.11,.08,.23,.15,.36,.18,.13,.03,.29-.01,.35-.13,.11-.19-.06-.43-.05-.65,.01-.22,.22-.42,.16-.63-.06-.21-.36-.27-.55-.15-.19,.11-.28,.33-.35,.54-.06,.18-.12,.38-.07,.57s.21,.37,.41,.35l-.25-.07Z"/>
              <path class="cls-27" d="M53.65,140.73c-.1,.93,.32,1.91,1.07,2.48,.86-.38,1.62-1.1,1.78-2.03,.16-.92-.46-1.99-1.4-2.07-.93-.09-1.76,1.14-1.18,1.88l-.28-.25Z"/>
              <path class="cls-27" d="M43.48,143.75c0-.13,.14-.22,.27-.21,.13,.01,.24,.1,.32,.2,.05,.06,.08,.13,.09,.2,.02,.17-.13,.35-.31,.35s-.33-.16-.33-.33c0-.18,.15-.34,.32-.36l-.36,.15Z"/>
              <path class="cls-27" d="M48.41,142.23c.18-.15,.13-.44,.05-.66-.08-.22-.17-.49-.03-.68,.04-.05,.1-.09,.16-.09,.17,0,.19,.24,.26,.39,.05,.12,.16,.21,.24,.31,.19,.25,.21,.63,.03,.89-.15,.08-.34,.07-.48-.03-.14-.1-.2-.29-.16-.45l-.07,.32Z"/>
              <path class="cls-27" d="M54.27,137.47c.09,0,.18,.02,.27,.03,.08-.13,.06-.31-.05-.41-.11-.1-.31-.09-.4,.04-.08,.12,0,.33,.14,.35h.03Z"/>
              <path class="cls-27" d="M49.36,139.2c-.09-.05-.1-.18-.05-.27,.06-.08,.16-.13,.26-.15,.08-.02,.17-.04,.25-.02,.16,.04,.27,.2,.27,.37s-.12,.31-.27,.39c-.07,.03-.16,.05-.23,.02-.07-.03-.13-.12-.1-.19l-.13-.15Z"/>
              <path class="cls-27" d="M48.39,131.4c-.69,.64-1.01,1.65-.81,2.57,.9,.27,1.95,.23,2.67-.37,.73-.59,.95-1.81,.3-2.48-.65-.68-2.08-.29-2.12,.65l-.05-.37Z"/>
              <path class="cls-27" d="M42.57,135.91c.18,.2,.55-.07,.52-.34-.03-.27-.27-.46-.5-.62-.26,.27-.33,.72-.16,1.06l.14-.09Z"/>
              <path class="cls-27" d="M46.19,145.21c.09,0,.18,.02,.27,.03,.08-.13,.06-.31-.05-.41-.11-.1-.31-.09-.4,.04-.08,.12,0,.33,.14,.35h.03Z"/>
              <path class="cls-27" d="M47.52,140.41c.91,.4,1.92,.58,2.91,.53,.16,0,.32-.02,.47-.1,.28-.14,.41-.47,.43-.78,.06-.76-.44-1.5-1.13-1.81-.69-.31-1.53-.21-2.18,.19-.35,.22-.67,.55-.76,.95-.09,.41,.1,.89,.49,1.03,.12-.07,.11-.27-.01-.33l-.23,.31Z"/>
              <path class="cls-27" d="M54.89,125.75c.48,.81,1.4,1.34,2.34,1.34,.46-.82,.64-1.85,.21-2.69s-1.56-1.32-2.36-.83c-.8,.49-.72,1.97,.18,2.21l-.38-.03Z"/>
              <path class="cls-27" d="M65.18,140.19c.23,.37,.65,.62,1.08,.65,.03-.19,.06-.39,.02-.58-.05-.19-.19-.37-.38-.4-.27-.04-.47,.21-.63,.43l-.04-.22-.04,.11Z"/>
              <path class="cls-27" d="M68.18,139.2c.1,.06,.22,.13,.34,.12,.12-.01,.21-.1,.3-.18,.24-.21,.51-.4,.78-.57-.53-.09-1.06-.17-1.59-.26-.04,0-.09-.01-.12-.04-.13-.08-.08-.27-.15-.41-.09-.2-.37-.21-.58-.16-1.51,.35,.45,1.15,1.02,1.5Z"/>
              <path class="cls-27" d="M49.39,142.64c.15,.03,.31,.07,.46,.1,.05-.31-.07-.67-.36-.8-.29-.13-.7,.12-.64,.43,.04,.19,.18,.47-.01,.51l.54-.23Z"/>
              <path class="cls-27" d="M61.45,136.42c-.13,0-.26-.05-.37-.13,.24-.24,.63-.21,.97-.15,.19,.03,.41,.11,.44,.3,.02,.13-.06,.25-.08,.38-.05,.26,.12,.6-.09,.75-.12,.09-.3,.04-.4-.07-.1-.11-.15-.26-.19-.4-.09-.31-.18-.63-.28-.94v.25Z"/>
              <path class="cls-27" d="M61.75,131.27c.18,.2,.55-.07,.52-.34-.03-.27-.27-.46-.5-.62-.26,.27-.33,.72-.16,1.06l.14-.09Z"/>
              <path class="cls-23" d="M66.58,134.59c-.07-.11-.02-.26,.09-.33,.11-.07,.25-.06,.37-.03,.07,.02,.14,.05,.2,.11,.12,.13,.1,.36-.04,.46-.14,.11-.36,.07-.47-.07s-.09-.36,.04-.48l-.19,.33Z"/>
              <path class="cls-27" d="M65.8,136.14c-.18,.21,0,.6,.28,.6,.09-.11,.16-.25,.15-.39,0-.14-.09-.29-.23-.32-.14-.03-.3,.11-.25,.25l.06-.13Z"/>
              <path class="cls-27" d="M62.49,141.33c.08,.32,.31,.6,.61,.73,.09-.26,.17-.51,.26-.77,.04-.12,.08-.25,.06-.37-.05-.24-.37-.37-.59-.26-.23,.1-.34,.38-.31,.62l-.03,.05Z"/>
              <path class="cls-23" d="M65.15,131.02c-.1-.16-.1-.38,0-.54,.11-.16,.31-.24,.5-.2,.13,.03,.26,.15,.21,.27-.02,.05-.06,.09-.11,.12-.19,.15-.38,.29-.57,.44-.02-.04-.04-.07-.06-.11l.02,.03Z"/>
              <path class="cls-23" d="M67.12,127.83c.22-.08,.27-.37,.26-.61,0-.24,0-.52,.2-.65,.05-.04,.12-.06,.18-.03,.16,.06,.1,.29,.11,.45,.01,.13,.09,.25,.13,.38,.1,.3-.01,.66-.26,.85-.17,.03-.35-.05-.44-.19-.09-.14-.1-.34,0-.48l-.17,.28Z"/>
              <path class="cls-23" d="M56.45,146.53c.22-.08,.27-.37,.26-.61,0-.24,0-.52,.2-.65,.05-.04,.12-.06,.18-.03,.16,.06,.1,.29,.11,.45,.01,.13,.09,.25,.13,.38,.1,.3-.01,.66-.26,.85-.17,.03-.35-.05-.44-.19-.09-.14-.1-.34,0-.48l-.17,.28Z"/>
              <path class="cls-23" d="M69.11,129.12c.08,.04,.16,.08,.25,.12,.12-.09,.16-.27,.09-.4-.07-.13-.27-.18-.39-.1-.12,.09-.12,.31,.01,.38h.03Z"/>
              <path class="cls-27" d="M65.06,137.98c-.1-.15-.35-.07-.44,.09-.09,.15-.1,.34-.17,.5-.08,.17-.23,.29-.41,.34-.1,.03-.23,.02-.3-.05-.05-.05-.07-.13-.08-.2-.07-.34-.1-.71,.02-1.04,.12-.33,.42-.61,.78-.62,.24,0,.49,.13,.61,.34,.12,.21,.12,.49,0,.7v-.07Z"/>
              <path class="cls-27" d="M66.62,142.48c.07,.21,.34,.32,.55,.24,.21-.07,.35-.29,.37-.51,.01-.1-.01-.22-.1-.25-.06-.02-.13,.02-.19,.05-.23,.14-.47,.28-.7,.43l.07,.04Z"/>
              <path class="cls-27" d="M58.47,133.3c-.08-.45,.38-.9,.82-.8,.02,.35,.02,.72-.16,1.02-.18,.3-.63,.46-.89,.23-.03-.2-.06-.41-.08-.61l.31,.16Z"/>
              <path class="cls-23" d="M68.31,136.22c.09,.04,.18,.07,.26,.11,.07-.13,.15-.27,.11-.42s-.24-.24-.33-.13c-.03,.04-.04,.1-.05,.16-.02,.18-.04,.35-.06,.53l.07-.25Z"/>
              <path class="cls-27" d="M43.4,139.47c.16,.17,.34,.34,.55,.42,.22,.09,.49,.07,.65-.1,.08-.09,.12-.2,.12-.32,.02-.35-.29-.68-.65-.68-.35,0-.67,.33-.65,.68h-.03Z"/>
              <path class="cls-27" d="M53.16,129.61c.16,.03,.31,.07,.47,.1,.05-.11,.08-.23,.08-.35-.2-.13-.49-.06-.61,.14l.06,.11Z"/>
              <path class="cls-27" d="M31.21,137.68c-.07-.11-.02-.26,.09-.33,.11-.07,.25-.06,.37-.03,.07,.02,.14,.05,.2,.11,.12,.13,.1,.36-.04,.46-.14,.11-.36,.07-.47-.07-.11-.14-.09-.36,.04-.48l-.19,.33Z"/>
              <path class="cls-27" d="M55.76,132.56c.16,.03,.31,.06,.47,.1,.05-.11,.08-.23,.09-.35-.2-.13-.49-.06-.61,.14l.06,.11Z"/>
              <path class="cls-27" d="M53.54,145.4c.05,.17,.31,.17,.45,.05s.2-.3,.32-.43c.12-.14,.31-.21,.49-.21,.11,0,.22,.04,.27,.14,.03,.06,.03,.14,.02,.21-.03,.35-.11,.71-.33,.99-.21,.28-.59,.46-.92,.36-.23-.07-.43-.27-.48-.51-.06-.24,.03-.5,.21-.67l-.02,.06Z"/>
              <path class="cls-27" d="M47.61,138.02c-.08-.1-.17-.21-.29-.28s-.28-.07-.38,.02c-.16,.15-.07,.43-.15,.63-.08,.21-.33,.34-.34,.56,0,.22,.27,.36,.48,.31s.37-.23,.5-.41c.12-.16,.22-.33,.24-.53,.02-.19-.1-.41-.29-.45l.22,.14Z"/>
              <path class="cls-27" d="M57.66,140.1c-.81-.08-1.63,.02-2.39,.31-.12,.05-.25,.1-.34,.19-.18,.18-.2,.46-.14,.71,.14,.6,.71,1.06,1.32,1.13,.61,.07,1.24-.21,1.64-.68,.22-.26,.38-.59,.35-.93-.03-.34-.3-.67-.64-.68-.07,.08-.02,.23,.09,.25l.1-.3Z"/>
              <path class="cls-27" d="M55.25,145.46c0,.12,0,.25,.07,.35,.07,.1,.19,.14,.3,.17,.31,.11,.6,.24,.88,.4-.19-.5-.38-1.01-.57-1.51-.01-.04-.03-.08-.03-.12,0-.15,.2-.21,.28-.33,.13-.18,0-.42-.15-.58-1.05-1.14-.78,.96-.79,1.63Z"/>
              <path class="cls-27" d="M57.7,140.29c.08,.04,.16,.09,.24,.13,.12-.08,.18-.26,.12-.4-.06-.14-.25-.2-.38-.12-.13,.08-.14,.3-.01,.38h.03Z"/>
              <path class="cls-27" d="M57.68,144.66c-.15,.16-.11,.45,.06,.59s.42,.16,.63,.07c.09-.04,.19-.12,.16-.21-.02-.07-.08-.1-.14-.14-.24-.13-.48-.26-.72-.4v.08Z"/>
              <path class="cls-27" d="M58.37,141.8c-.2,.39-.21,.87-.03,1.26,.18-.07,.37-.14,.51-.28,.14-.13,.23-.35,.15-.53-.1-.25-.42-.31-.68-.33,.06-.05,.11-.09,.17-.14l-.12,.02Z"/>
              <path class="cls-27" d="M59.72,140.36c-.06-.12-.09-.25-.07-.38,.33,.1,.5,.45,.61,.77,.06,.18,.11,.41-.04,.53-.1,.09-.25,.08-.37,.12-.25,.09-.46,.4-.7,.29-.14-.06-.18-.24-.14-.39,.04-.14,.15-.26,.25-.37,.23-.24,.45-.47,.68-.71l-.22,.13Z"/>
              <path class="cls-27" d="M55.98,143.69c-.24,.23-.36,.57-.33,.9,.26-.05,.53-.1,.79-.16,.12-.02,.26-.05,.35-.14,.19-.16,.14-.5-.07-.65-.2-.14-.5-.11-.7,.04h-.06Z"/>
              <path class="cls-27" d="M60.16,144.26c.08-.16-.12-.34-.29-.34-.18,0-.35,.08-.52,.1-.18,.01-.37-.05-.5-.19-.08-.08-.13-.19-.1-.29,.02-.07,.08-.12,.13-.17,.26-.23,.57-.44,.91-.5,.35-.06,.74,.06,.92,.37,.13,.21,.13,.49,0,.7s-.36,.35-.61,.34l.06-.03Z"/>
              <path class="cls-27" d="M51.87,136.27c-.06,.23-.12,.46-.09,.69,.03,.23,.19,.46,.41,.51,.11,.02,.23,0,.34-.05,.31-.16,.45-.6,.27-.9-.17-.3-.62-.41-.91-.22l-.02-.03Z"/>
              <path class="cls-27" d="M49.81,141.06c-.2,.39-.21,.87-.03,1.26,.18-.07,.37-.14,.51-.28s.23-.35,.15-.53c-.1-.25-.42-.31-.69-.33,.06-.05,.11-.1,.17-.14l-.12,.02Z"/>
              <path class="cls-27" d="M60.49,140.05c.23-.07,.29-.35,.3-.59s.03-.52,.24-.64c.06-.03,.13-.05,.19-.02,.15,.07,.08,.29,.08,.46,0,.13,.07,.26,.1,.39,.08,.31-.06,.66-.32,.83-.17,.02-.34-.07-.43-.22-.08-.15-.07-.34,.03-.48l-.19,.27Z"/>
              <path class="cls-27" d="M43.66,132.97c.09-.01,.18-.02,.27-.04,.05-.14,0-.32-.14-.39-.13-.07-.32-.01-.38,.13s.07,.32,.22,.31h.03Z"/>
              <path class="cls-27" d="M54.81,141.79l.04,.28c.15,0,.31,0,.42-.11,.11-.1,.09-.33-.06-.35-.05,0-.11,.01-.16,.03-.16,.07-.33,.14-.49,.21l.25-.07Z"/>
            </g>
          </g>
          <ellipse class="cls-26" cx="88.75" cy="199.5" rx="40.78" ry="9.08"/>
          <g>
            <path class="cls-57" d="M110.02,154.85s-1.86,2.82-4.37,6.43c-4.06,5.86-9.79,13.81-11.97,15.18-1.05,.66-1.66-1.77-1.99-5.52-.79-8.82-.07-24.94-.07-24.94,0,0,13.58,2.9,18.4,8.85Z"/>
            <path class="cls-25" d="M110.02,154.85s-1.86,2.82-4.37,6.43c0,0-3.68-.59-9.9,3.13-2.36,1.42-3.53,3.94-4.06,6.53-.79-8.82-.07-24.94-.07-24.94,0,0,13.58,2.9,18.4,8.85Z"/>
            <path class="cls-3" d="M135.66,139.6h-.04c-3.93-1.08-8.84-4.92-12.6-10.52-8.14-12.09-16.77-37.37-6.41-42.55,1.02-.51,5.94,5.67,11.19,13.91,6.19,9.7,12.87,22.26,14.25,30.11,1.38,7.78-1.85,10.27-6.39,9.05Z"/>
            <path class="cls-5" d="M130.28,136.8s3.54-13.61,7.83-13.36c4.29,.25,4.92,12.75,2.11,15.26-2.81,2.52-8.37-.33-9.94-1.9Z"/>
            <path class="cls-54" d="M135.66,139.6h-.04c-3.93-1.08-8.84-4.92-12.6-10.52-8.14-12.09-16.77-37.37-6.41-42.55,1.02-.51,5.94,5.67,11.19,13.91h0s-2.42,18.12-.69,24.55c1.74,6.45,7.52,10.38,7.52,10.38l1.03,4.23Z"/>
            <path class="cls-6" d="M73.33,128.06c-.56,16.41,6.64,25.36,22.63,29.21,15.68,3.77,29.6-10.71,29.64-31.88,.02-13.51-.84-25.73-5.71-34.43h0s0-.03,0-.03c-2.75-4.92-6.79-8.71-12.67-10.98-4.64-1.79-9.27-.23-13.54,3.33-11.14,9.28-19.91,32.12-20.35,44.77Z"/>
            <path class="cls-51" d="M89.16,101.01s-4.76,11.7-6.82,19.78c-2.45,9.59,.96,20.25,.96,20.25l-9.12-2.89s-2.46-13.16,.71-20.43c2.65-6.09,3.47-9.07,3.47-9.07l10.8-7.64Z"/>
            <path class="cls-42" d="M125.75,128.17s-.63-12.67-11.86-15.54c-13.46-3.44-26.32,9.12-28.09,19.42-1.77,10.3-1.1,20.54,11.51,24.18,0,0,23.94,5.55,28.44-28.06Z"/>
            <path class="cls-8" d="M125.42,129.47s-.63-12.67-11.86-15.54c-13.46-3.44-26.32,9.12-28.09,19.42s-1.1,20.54,11.51,24.18c0,0,23.94,5.55,28.44-28.06Z"/>
            <path class="cls-4" d="M79.47,112.43c.58,.15,1.33-.18,2.18-.86,3.78-3.03,9.51-13.12,11.01-19.15,.58-2.34,.53-4.07-.53-4.54-1.72-.77-6.92,4.36-10.87,12.43-2.29,4.7-4.29,11.48-1.8,12.12Z"/>
            <path class="cls-30" d="M81.65,111.58c3.78-3.03,9.51-13.12,11.01-19.15-2.35,1.83-5.6,5.95-8.29,11.44-1.17,2.39-2.26,5.32-2.72,7.7Z"/>
            <path class="cls-16" d="M124.1,128.13c-2.52,2.79-7.77-2.95-15.88-4.06-8.11-1.1-13.41,1.98-15.39,.26-1.98-1.72,8.16-11.68,20.39-9.06,9.76,2.09,11.74,11.9,10.88,12.86Z"/>
            <path class="cls-17" d="M107.96,155.09s-4.15,2.5-9.68,1.3-6.66-4.31-6.66-4.31c0,0,2.69-.44,6.36,1.3,3.67,1.74,7.31,2.13,9.98,1.71Z"/>
            <path class="cls-27" d="M99,101.02c.95,.27,.66,8.06-.19,8.17-.85,.11-2.36-.25-2.34-3.49s1.62-4.94,2.53-4.68Z"/>
            <path class="cls-36" d="M90.67,190.74c-5.19,.13-26.8-47.59-21.61-51.35,8.83-6.41,20.9,6.42,25.39,13.71,1.03,1.68,1.67,3.06,1.77,3.85,.52,4.19-.35,33.66-5.55,33.79Z"/>
            <path class="cls-35" d="M89.16,91.68c2.91,2.93-5.46,19.1-12.73,21.79-7.27,2.69-22.97-.61-25.47-1.64-2.5-1.03-3.44-9.42-1.09-12.65s35.32-11.51,39.3-7.51Z"/>
            <path class="cls-21" d="M77.36,91.18s11.23,8.88,27.71,8c16.48-.88,17.68-6.16,17.68-6.16,0,0-5.44-8-9.85-9.38-1.74-.54-19.88-3.77-25.81,6.96-3.88,.02-9.73,.57-9.73,.57Z"/>
            <path class="cls-10" d="M116.86,4.23s8.38,5.63,12.09,18.67c3.72,13.04-15.87-2.61-15.87-2.61l3.77-16.06Z"/>
            <path class="cls-56" d="M122.76,20.11S120.48,2.72,114.65,.4c-5.83-2.32-13.39,6.22-13.39,6.22l21.5,13.49Z"/>
            <path class="cls-38" d="M76.11,10.48c-26.13,15.87-24.7,55.54-14.68,69.92,11.66,16.73,72.89,6.21,81.53-21.26C151.71,31.35,108.6-9.25,76.11,10.48Z"/>
            <path class="cls-22" d="M68.18,52s-3.18,14.32-11.37,17.92c0,0-1.94-7.02-1.94-11.39s13.31-6.53,13.31-6.53Z"/>
            <path class="cls-58" d="M91.49,14.28c-20.19,10.07-23.28,50.84-9.85,64.38,13.43,13.54,58.98-.78,62.18-24.99,2.85-21.58-28.16-51.44-52.33-39.39Z"/>
            <path class="cls-13" d="M95.76,79.28s-9.56,1.51-13.78-4.12c-4.22-5.64-2.27-9.99-.94-10.32,1.33-.33,5.63,8.13,9.03,11.11,3.4,2.98,5.69,3.33,5.69,3.33Z"/>
            <path class="cls-1" d="M73.03,26.27s2.71,24.64-12.5,33.35c0,0-7.46,.8-11.8-3.73,0,0,6.76,6.35,13.88-.26,7.12-6.61,5.41-24.84,0-30.77-5.41-5.94-13.22-4.37-13.22-4.37l3.12-2.81s11.51-2.34,20.51,8.59Z"/>
            <path class="cls-45" d="M52.51,17.68s8.46-.78,14.37,9.03c6.28,10.42,1.71,28.44-5.91,31.18-7.63,2.74-15.33-26.42-15.33-26.42l4.43-11.6s.88-1.63,2.44-2.2Z"/>
            <path class="cls-39" d="M41.58,42.52c1.09,5.63,3.38,10.23,6.45,13.14l.02,.02,.86,.76h0c2.48,2.01,5.42,2.96,8.59,2.56,10.3-1.31,11.68-16.22,10.47-24.67-1.41-9.76-9.76-15.62-16.4-14.76-7.91,1.02-12.13,11.94-9.99,22.97Z"/>
            <path class="cls-12" d="M66.3,46.22s-1.09,9.15-7.81,11.12c-6.72,1.98-12.18-2.88-13.9-9.74,0,0,2.11,5.92,10.86,4.41,8.75-1.51,10.86-5.78,10.86-5.78Z"/>
            <path class="cls-11" d="M65.06,28.94c-.08,1.7-12.41-1.84-16.33-1.31-3.92,.52-5.59,5.33-6.21,5.22-.62-.11,1.04-11.36,8.33-12.19,7.29-.83,14.27,7.11,14.22,8.29Z"/>
            <path class="cls-41" d="M127.73,45.59c4.19,2.32,10.31-2.85,8.78-9.05-1.53-6.2-8.74-11.17-12.31-9.21-3.57,1.96-3.44,14.4,3.53,18.26Z"/>
            <path class="cls-40" d="M89.9,59.43c6.61,4.57,13.75-2.94,13.67-9.62-.08-6.67-6.22-13.23-12.33-11.56-6.68,1.83-8.13,16.48-1.35,21.17Z"/>
            <path class="cls-31" d="M110.06,61.74c-.62,1.11,7.37,6.51,11.2,4.94,4.49-1.85,3.79-11.35,2.96-12-.83-.64-13.12,5.19-14.16,7.06Z"/>
            <path class="cls-14" d="M77.36,49.42c3.6,4.91,13.84-11.94,24.88-17.6,12.6-6.46,30.91,.38,32.15-1.61,1.24-1.99-14.38-19.59-34.56-16.46-20.18,3.13-25.79,31.13-22.47,35.67Z"/>
            <path class="cls-44" d="M49.52,57.44s-.73-4.87,2.38-6.51c0,0,4.67-.25,5.84,4.27,0,0-9.22,29.52-1.68,34.25,7.01,4.4,25.5-4.64,25.5-4.64l1.49,1.21s-15.68,9.81-25.6,6.77c-9.92-3.04-7.93-35.35-7.93-35.35Z"/>
            <path class="cls-61" d="M76.93,85.24c-1.58,3.23,4.08,4.72,8.2,4.05,4.62-.75,12.11-4.74,10.37-9.12-1.73-4.39-14.88-2.49-18.57,5.07Z"/>
            <path class="cls-7" d="M77.36,85.63c.07,.78,16.14-3.48,15.74-6.41-.41-2.94-16.26,.4-15.74,6.41Z"/>
            <g>
              <path class="cls-46" d="M38,95.9s.62-2.12,3.34-3.07l1.66,6.03-5-2.96Z"/>
              <path class="cls-49" d="M38.62,80.4s8.52-5.21,26.44-4.79c0,0,7.47,27.25,8.42,46.84,0,0-10.5,2.91-21.95,2.5,0,0-8.33-20.19-12.91-44.56Z"/>
              <path class="cls-9" d="M65.06,75.61l4.08-1.52s6.14,27.38,6.55,47.77l-2.21,.59-8.42-46.84Z"/>
              <path class="cls-20" d="M46.36,110.45l2.17,6.04s5.99-7.3,5.34-14.25l-7.5,8.21Z"/>
              <path class="cls-29" d="M38.62,80.4s6.26-5.12,30.52-6.31l-4.08,1.52s-11.03-.21-26.44,4.79Z"/>
              <path class="cls-47" d="M40.01,99.2s.5,10.4,4.4,12.63c0,0,11.18-6.3,9.62-12.8-1.1-4.58-14.02,.17-14.02,.17Z"/>
              <path class="cls-37" d="M38,95.9s0,8.54,4.91,13.82c0,0,6.53-2.61,8.73-5.26,3.53-4.26,2.07-6.71,.89-7.7-1.9-1.58-14.53-.85-14.53-.85Z"/>
              <path class="cls-48" d="M67.88,83.65s1.24-1.1,2.49-.88c0,0,2.4,6.76,1.88,12.29l-1.88,.52-2.49-11.93Z"/>
              <path class="cls-59" d="M67.88,83.65s2.92,6.59,3.42,11.68l1.66-.62s-1.22-8.72-2.59-11.93c0,0-1.66-.03-2.49,.88Z"/>
              <path class="cls-60" d="M56.55,87.49c.49,2.47-.59,4.76-2.41,5.12-1.82,.36-3.7-1.35-4.18-3.81-.49-2.47,.59-4.76,2.41-5.12,1.82-.36,3.7,1.35,4.18,3.81Z"/>
              <path class="cls-50" d="M56.25,87.64c.38,1.92-.46,3.71-1.88,3.99-1.42,.28-2.88-1.05-3.26-2.97-.38-1.92,.46-3.71,1.88-3.99s2.88,1.05,3.26,2.97Z"/>
              <path class="cls-2" d="M54.52,122.34v-2.15l12.14-1.65,.88,1.91s-6.84,1.41-13.01,1.89Z"/>
              <path class="cls-18" d="M65.68,79.02l-16.89,38.62,1.54,4.22s13.7-8.62,19.51-19.06c0,0-3.54-20.36-4.16-23.78Z"/>
            </g>
            <path class="cls-15" d="M110.02,79.21s8.48-1.85,14.25-9.29c5.77-7.44,13.62-6.22,13.62-6.22,0,0-10.95,15.5-27.87,15.51Z"/>
            <path class="cls-27" d="M73.49,18.65c-.03,1.64,9.96-6.47,8.71-7.14-1.25-.67-8.68,5.27-8.71,7.14Z"/>
            <path class="cls-52" d="M91.62,134.29l-.26-.49c.05,.08,.14,.25,.26,.49Z"/>
            <path class="cls-53" d="M90.67,190.74c-5.19,.13-26.8-47.59-21.61-51.35,0,0,6.45,29.95,14.32,37.7,7.86,7.75,12.95-12.56,11.56-21.4-.14-.89-.3-1.76-.49-2.59,1.03,1.68,1.67,3.06,1.77,3.85,.52,4.19-.35,33.66-5.55,33.79Z"/>
            <path class="cls-27" d="M78.32,147.58c-.79,1.29,1.22,9.15,2.32,8.99,1.09-.16,1.33-4.3,.78-5.62-.55-1.33-2.92-3.65-3.1-3.36Z"/>
            <path class="cls-27" d="M80.87,157.88c-.92,.46,.18,2.83,.83,2.75,.65-.08,0-3.18-.83-2.75Z"/>
            <path class="cls-27" d="M106.83,4.23c.62,1.3,4.78-1.42,4.17-2.55-.62-1.13-4.79,1.25-4.17,2.55Z"/>
            <path class="cls-27" d="M39.14,97.96c0,.79,4.17-.11,3.85-.77-.31-.66-3.85-.54-3.85,.77Z"/>
            <path class="cls-32" d="M50.83,54.89c-1.09-.36-1.58,14.83-.7,15.04,.88,.21,2.39-14.48,.7-15.04Z"/>
            <path class="cls-33" d="M149.55,132.47s-3.52-4.51-8.31-4.91c-4.79-.4-6.44,1.01-7.19,4.39-.75,3.39,6.59,15.24,15.42,24.02,3.64,.13,4.52-4.37,4.9-7.26-.12-2.5-1.22-10.57-4.82-16.25Z"/>
            <path class="cls-43" d="M137.72,127.7s9.54,11.98,12.71,19c1.71,3.78,2.71,6.27,2.71,6.27,0,0-2.04,5.99-6.13,1.25-5.79-6.71-13.61-16.85-12.52-21.96,.92-4.33,1.63-5.17,3.22-4.56Z"/>
            <path class="cls-19" d="M145.8,138.77s-.93,6.68-4.89,7.86l-1.39-15.86s4.99,6.02,6.28,8.01Z"/>
            <path class="cls-34" d="M141.67,134.45c.67,1.5,0,11.57-1.04,12.75-1.04,1.19-3.65-.61-4.44-2.61-.8-1.99-4.47-12.89-.6-16.63,0,0,3.28,.2,6.08,6.48Z"/>
            <path class="cls-27" d="M139.91,135.88c.45,.06,1.11,3.47,.77,4.1-.34,.63-1.08,.6-1.47-.16-.39-.76,.02-4.03,.7-3.94Z"/>
          </g>
        </g>
      </g>
    </g>
  </g>
</svg>