<?xml version="1.0" encoding="UTF-8"?>
<svg xmlns="http://www.w3.org/2000/svg" xmlns:xlink="http://www.w3.org/1999/xlink" viewBox="0 0 197.08 211.71">
  <defs>
    <style>
      .cls-1 {
        fill: url(#_ÂÁ_Ï_ÌÌ_È_ËÂÌÚ_264-2);
      }

      .cls-2 {
        fill: url(#_ÂÁ_Ï_ÌÌ_È_ËÂÌÚ_36);
      }

      .cls-3 {
        fill: url(#_ÂÁ_Ï_ÌÌ_È_ËÂÌÚ_28);
      }

      .cls-4 {
        fill: url(#_ÂÁ_Ï_ÌÌ_È_ËÂÌÚ_46);
      }

      .cls-5 {
        fill: url(#_ÂÁ_Ï_ÌÌ_È_ËÂÌÚ_65);
      }

      .cls-6 {
        fill: url(#_ÂÁ_Ï_ÌÌ_È_ËÂÌÚ_91);
      }

      .cls-7 {
        fill: url(#_ÂÁ_Ï_ÌÌ_È_ËÂÌÚ_73);
      }

      .cls-8 {
        fill: url(#_ÂÁ_Ï_ÌÌ_È_ËÂÌÚ_14);
      }

      .cls-9 {
        fill: url(#_ÂÁ_Ï_ÌÌ_È_ËÂÌÚ_17);
      }

      .cls-10 {
        fill: url(#_ÂÁ_Ï_ÌÌ_È_ËÂÌÚ_134-2);
      }

      .cls-10, .cls-11, .cls-12, .cls-13, .cls-14, .cls-15, .cls-16 {
        mix-blend-mode: screen;
      }

      .cls-10, .cls-11, .cls-15, .cls-16 {
        opacity: .72;
      }

      .cls-11 {
        fill: url(#_ÂÁ_Ï_ÌÌ_È_ËÂÌÚ_143-2);
      }

      .cls-17, .cls-18 {
        fill: #fff;
      }

      .cls-19, .cls-20 {
        fill: #e5f6ff;
      }

      .cls-21 {
        fill: #dfe3fb;
      }

      .cls-22 {
        fill: #6340a2;
      }

      .cls-23 {
        fill: #2f95cd;
      }

      .cls-24 {
        fill: url(#_ÂÁ_Ï_ÌÌ_È_ËÂÌÚ_14-2);
      }

      .cls-25 {
        fill: url(#_ÂÁ_Ï_ÌÌ_È_ËÂÌÚ_46-6);
      }

      .cls-26 {
        fill: url(#_ÂÁ_Ï_ÌÌ_È_ËÂÌÚ_46-7);
      }

      .cls-27 {
        fill: url(#_ÂÁ_Ï_ÌÌ_È_ËÂÌÚ_46-8);
      }

      .cls-28 {
        fill: url(#_ÂÁ_Ï_ÌÌ_È_ËÂÌÚ_46-3);
      }

      .cls-29 {
        fill: url(#_ÂÁ_Ï_ÌÌ_È_ËÂÌÚ_46-2);
      }

      .cls-30 {
        fill: url(#_ÂÁ_Ï_ÌÌ_È_ËÂÌÚ_46-5);
      }

      .cls-31 {
        fill: url(#_ÂÁ_Ï_ÌÌ_È_ËÂÌÚ_46-4);
      }

      .cls-32 {
        fill: url(#_ÂÁ_Ï_ÌÌ_È_ËÂÌÚ_46-9);
      }

      .cls-33 {
        fill: url(#_ÂÁ_Ï_ÌÌ_È_ËÂÌÚ_17-2);
      }

      .cls-34 {
        fill: url(#_ÂÁ_Ï_ÌÌ_È_ËÂÌÚ_17-4);
      }

      .cls-35 {
        fill: url(#_ÂÁ_Ï_ÌÌ_È_ËÂÌÚ_17-3);
      }

      .cls-36 {
        fill: url(#_ÂÁ_Ï_ÌÌ_È_ËÂÌÚ_28-2);
      }

      .cls-37 {
        fill: url(#_ÂÁ_Ï_ÌÌ_È_ËÂÌÚ_28-7);
      }

      .cls-38 {
        fill: url(#_ÂÁ_Ï_ÌÌ_È_ËÂÌÚ_28-8);
      }

      .cls-39 {
        fill: url(#_ÂÁ_Ï_ÌÌ_È_ËÂÌÚ_28-4);
      }

      .cls-40 {
        fill: url(#_ÂÁ_Ï_ÌÌ_È_ËÂÌÚ_28-3);
      }

      .cls-41 {
        fill: url(#_ÂÁ_Ï_ÌÌ_È_ËÂÌÚ_28-5);
      }

      .cls-42 {
        fill: url(#_ÂÁ_Ï_ÌÌ_È_ËÂÌÚ_28-6);
      }

      .cls-43 {
        fill: url(#_ÂÁ_Ï_ÌÌ_È_ËÂÌÚ_65-2);
      }

      .cls-44 {
        fill: url(#_ÂÁ_Ï_ÌÌ_È_ËÂÌÚ_91-3);
      }

      .cls-45 {
        fill: url(#_ÂÁ_Ï_ÌÌ_È_ËÂÌÚ_91-2);
      }

      .cls-46 {
        fill: url(#_ÂÁ_Ï_ÌÌ_È_ËÂÌÚ_36-2);
      }

      .cls-47 {
        fill: url(#_ÂÁ_Ï_ÌÌ_È_ËÂÌÚ_36-3);
      }

      .cls-12 {
        fill: url(#_ÂÁ_Ï_ÌÌ_È_ËÂÌÚ_54);
      }

      .cls-12, .cls-13, .cls-14, .cls-48, .cls-49, .cls-50, .cls-51, .cls-52, .cls-18, .cls-20, .cls-53, .cls-54 {
        opacity: .5;
      }

      .cls-13 {
        fill: url(#_ÂÁ_Ï_ÌÌ_È_ËÂÌÚ_54-3);
      }

      .cls-14 {
        fill: url(#_ÂÁ_Ï_ÌÌ_È_ËÂÌÚ_54-2);
      }

      .cls-55 {
        fill: url(#_ÂÁ_Ï_ÌÌ_È_ËÂÌÚ_153-5);
      }

      .cls-55, .cls-56, .cls-57, .cls-58, .cls-59, .cls-60, .cls-48, .cls-49, .cls-50, .cls-51, .cls-52, .cls-53, .cls-54, .cls-61 {
        mix-blend-mode: multiply;
      }

      .cls-55, .cls-56, .cls-57, .cls-58, .cls-59, .cls-60, .cls-61 {
        opacity: .3;
      }

      .cls-56 {
        fill: url(#_ÂÁ_Ï_ÌÌ_È_ËÂÌÚ_153-6);
      }

      .cls-57 {
        fill: url(#_ÂÁ_Ï_ÌÌ_È_ËÂÌÚ_153-2);
      }

      .cls-58 {
        fill: url(#_ÂÁ_Ï_ÌÌ_È_ËÂÌÚ_153-3);
      }

      .cls-59 {
        fill: url(#_ÂÁ_Ï_ÌÌ_È_ËÂÌÚ_153-7);
      }

      .cls-60 {
        fill: url(#_ÂÁ_Ï_ÌÌ_È_ËÂÌÚ_153-4);
      }

      .cls-62 {
        isolation: isolate;
      }

      .cls-48 {
        fill: url(#_ÂÁ_Ï_ÌÌ_È_ËÂÌÚ_416-5);
      }

      .cls-49 {
        fill: url(#_ÂÁ_Ï_ÌÌ_È_ËÂÌÚ_416-4);
      }

      .cls-50 {
        fill: url(#_ÂÁ_Ï_ÌÌ_È_ËÂÌÚ_416-2);
      }

      .cls-51 {
        fill: url(#_ÂÁ_Ï_ÌÌ_È_ËÂÌÚ_416-3);
      }

      .cls-52 {
        fill: url(#_ÂÁ_Ï_ÌÌ_È_ËÂÌÚ_416-6);
      }

      .cls-15 {
        fill: url(#_ÂÁ_Ï_ÌÌ_È_ËÂÌÚ_134);
      }

      .cls-16 {
        fill: url(#_ÂÁ_Ï_ÌÌ_È_ËÂÌÚ_143);
      }

      .cls-63 {
        fill: url(#_ÂÁ_Ï_ÌÌ_È_ËÂÌÚ_264);
      }

      .cls-64 {
        fill: url(#_ÂÁ_Ï_ÌÌ_È_ËÂÌÚ_129);
      }

      .cls-65 {
        fill: url(#_ÂÁ_Ï_ÌÌ_È_ËÂÌÚ_132);
      }

      .cls-66 {
        fill: url(#_ÂÁ_Ï_ÌÌ_È_ËÂÌÚ_8);
      }

      .cls-53 {
        fill: url(#_ÂÁ_Ï_ÌÌ_È_ËÂÌÚ_416);
      }

      .cls-54 {
        fill: url(#_ÂÁ_Ï_ÌÌ_È_ËÂÌÚ_123);
      }

      .cls-61 {
        fill: url(#_ÂÁ_Ï_ÌÌ_È_ËÂÌÚ_153);
      }
    </style>
    <radialGradient id="_ÂÁ_Ï_ÌÌ_È_ËÂÌÚ_123" data-name="¡ÂÁ˚ÏˇÌÌ˚È „‡‰ËÂÌÚ 123" cx="96.71" cy="-679.15" fx="96.71" fy="-679.15" r="40.79" gradientTransform="translate(0 353.75) scale(1 .22)" gradientUnits="userSpaceOnUse">
      <stop offset="0" stop-color="#be9dea"/>
      <stop offset=".39" stop-color="#e0bff5"/>
      <stop offset="1" stop-color="#fff"/>
    </radialGradient>
    <linearGradient id="_ÂÁ_Ï_ÌÌ_È_ËÂÌÚ_46" data-name="¡ÂÁ˚ÏˇÌÌ˚È „‡‰ËÂÌÚ 46" x1="78.88" y1="188.45" x2="83.39" y2="152.55" gradientUnits="userSpaceOnUse">
      <stop offset="0" stop-color="#cbc1f7"/>
      <stop offset="1" stop-color="#e8dcf7"/>
    </linearGradient>
    <linearGradient id="_ÂÁ_Ï_ÌÌ_È_ËÂÌÚ_14" data-name="¡ÂÁ˚ÏˇÌÌ˚È „‡‰ËÂÌÚ 14" x1="23.43" y1="175.93" x2="31.88" y2="133.42" gradientUnits="userSpaceOnUse">
      <stop offset="0" stop-color="#a242ea"/>
      <stop offset="1" stop-color="#fe117e"/>
    </linearGradient>
    <linearGradient id="_ÂÁ_Ï_ÌÌ_È_ËÂÌÚ_36" data-name="¡ÂÁ˚ÏˇÌÌ˚È „‡‰ËÂÌÚ 36" x1="72.11" y1="159.33" x2="93.52" y2="159.33" gradientUnits="userSpaceOnUse">
      <stop offset="0" stop-color="#8879ea"/>
      <stop offset="1" stop-color="#9e8cef"/>
    </linearGradient>
    <linearGradient id="_ÂÁ_Ï_ÌÌ_È_ËÂÌÚ_153" data-name="¡ÂÁ˚ÏˇÌÌ˚È „‡‰ËÂÌÚ 153" x1="82.51" y1="187.37" x2="82.51" y2="151.26" gradientUnits="userSpaceOnUse">
      <stop offset="0" stop-color="#9d68c2"/>
      <stop offset="1" stop-color="#ccedff"/>
    </linearGradient>
    <linearGradient id="_ÂÁ_Ï_ÌÌ_È_ËÂÌÚ_129" data-name="¡ÂÁ˚ÏˇÌÌ˚È „‡‰ËÂÌÚ 129" x1="65.24" y1="138.16" x2="70.73" y2="94.41" gradientUnits="userSpaceOnUse">
      <stop offset="0" stop-color="#cbc1f7"/>
      <stop offset="1" stop-color="#d4bef1"/>
    </linearGradient>
    <linearGradient id="_ÂÁ_Ï_ÌÌ_È_ËÂÌÚ_28" data-name="¡ÂÁ˚ÏˇÌÌ˚È „‡‰ËÂÌÚ 28" x1="53.91" y1="136.48" x2="52.67" y2="124.28" gradientUnits="userSpaceOnUse">
      <stop offset="0" stop-color="#be9dea"/>
      <stop offset="1" stop-color="#9e8cef"/>
    </linearGradient>
    <linearGradient id="_ÂÁ_Ï_ÌÌ_È_ËÂÌÚ_153-2" data-name="¡ÂÁ˚ÏˇÌÌ˚È „‡‰ËÂÌÚ 153" x1="68.3" y1="136.61" x2="68.3" y2="96.37" xlink:href="#_ÂÁ_Ï_ÌÌ_È_ËÂÌÚ_153"/>
    <linearGradient id="_ÂÁ_Ï_ÌÌ_È_ËÂÌÚ_17" data-name="¡ÂÁ˚ÏˇÌÌ˚È „‡‰ËÂÌÚ 17" x1="63.61" y1="48.53" x2="63.61" y2="22.89" gradientUnits="userSpaceOnUse">
      <stop offset="0" stop-color="#45ffcd"/>
      <stop offset="1" stop-color="#22e0ff"/>
    </linearGradient>
    <linearGradient id="_ÂÁ_Ï_ÌÌ_È_ËÂÌÚ_264" data-name="¡ÂÁ˚ÏˇÌÌ˚È „‡‰ËÂÌÚ 264" x1="70.8" y1="37.74" x2="70.8" y2="15.85" gradientUnits="userSpaceOnUse">
      <stop offset="0" stop-color="#b9acf4"/>
      <stop offset="1" stop-color="#e1d1f5"/>
    </linearGradient>
    <linearGradient id="_ÂÁ_Ï_ÌÌ_È_ËÂÌÚ_46-2" data-name="¡ÂÁ˚ÏˇÌÌ˚È „‡‰ËÂÌÚ 46" x1="92.76" y1="95.85" x2="103.1" y2="13.48" xlink:href="#_ÂÁ_Ï_ÌÌ_È_ËÂÌÚ_46"/>
    <linearGradient id="_ÂÁ_Ï_ÌÌ_È_ËÂÌÚ_36-2" data-name="¡ÂÁ˚ÏˇÌÌ˚È „‡‰ËÂÌÚ 36" x1="67.71" y1="85.63" x2="135.32" y2="85.63" xlink:href="#_ÂÁ_Ï_ÌÌ_È_ËÂÌÚ_36"/>
    <linearGradient id="_ÂÁ_Ï_ÌÌ_È_ËÂÌÚ_153-3" data-name="¡ÂÁ˚ÏˇÌÌ˚È „‡‰ËÂÌÚ 153" x1="97.18" y1="94.02" x2="97.18" y2="40.24" xlink:href="#_ÂÁ_Ï_ÌÌ_È_ËÂÌÚ_153"/>
    <linearGradient id="_ÂÁ_Ï_ÌÌ_È_ËÂÌÚ_416" data-name="¡ÂÁ˚ÏˇÌÌ˚È „‡‰ËÂÌÚ 416" x1="101.52" y1="92.87" x2="101.52" y2="77.23" gradientUnits="userSpaceOnUse">
      <stop offset="0" stop-color="#8da4e5"/>
      <stop offset="1" stop-color="#755cbb"/>
    </linearGradient>
    <linearGradient id="_ÂÁ_Ï_ÌÌ_È_ËÂÌÚ_73" data-name="¡ÂÁ˚ÏˇÌÌ˚È „‡‰ËÂÌÚ 73" x1="134.27" y1="17.8" x2="135.55" y2="7.61" gradientTransform="translate(-33.78 87.85) rotate(-7.63)" gradientUnits="userSpaceOnUse">
      <stop offset="0" stop-color="#5e36cc"/>
      <stop offset="1" stop-color="#6c4a96"/>
    </linearGradient>
    <linearGradient id="_ÂÁ_Ï_ÌÌ_È_ËÂÌÚ_132" data-name="¡ÂÁ˚ÏˇÌÌ˚È „‡‰ËÂÌÚ 132" x1="84.74" y1="78.16" x2="84.74" y2="15.81" gradientUnits="userSpaceOnUse">
      <stop offset="0" stop-color="#0665bd"/>
      <stop offset="1" stop-color="#1a1f77"/>
    </linearGradient>
    <linearGradient id="_ÂÁ_Ï_ÌÌ_È_ËÂÌÚ_46-3" data-name="¡ÂÁ˚ÏˇÌÌ˚È „‡‰ËÂÌÚ 46" x1="93.51" y1="166.8" x2="103.3" y2="88.83" xlink:href="#_ÂÁ_Ï_ÌÌ_È_ËÂÌÚ_46"/>
    <linearGradient id="_ÂÁ_Ï_ÌÌ_È_ËÂÌÚ_264-2" data-name="¡ÂÁ˚ÏˇÌÌ˚È „‡‰ËÂÌÚ 264" x1="130.55" y1="53.64" x2="130.55" y2="11.42" xlink:href="#_ÂÁ_Ï_ÌÌ_È_ËÂÌÚ_264"/>
    <linearGradient id="_ÂÁ_Ï_ÌÌ_È_ËÂÌÚ_153-4" data-name="¡ÂÁ˚ÏˇÌÌ˚È „‡‰ËÂÌÚ 153" x1="116.53" y1="153.25" x2="116.53" y2="113.81" xlink:href="#_ÂÁ_Ï_ÌÌ_È_ËÂÌÚ_153"/>
    <linearGradient id="_ÂÁ_Ï_ÌÌ_È_ËÂÌÚ_28-2" data-name="¡ÂÁ˚ÏˇÌÌ˚È „‡‰ËÂÌÚ 28" x1="133.79" y1="52.03" x2="133.79" y2="11.62" xlink:href="#_ÂÁ_Ï_ÌÌ_È_ËÂÌÚ_28"/>
    <linearGradient id="_ÂÁ_Ï_ÌÌ_È_ËÂÌÚ_17-2" data-name="¡ÂÁ˚ÏˇÌÌ˚È „‡‰ËÂÌÚ 17" x1="136.84" y1="53.04" x2="136.84" y2="13.43" xlink:href="#_ÂÁ_Ï_ÌÌ_È_ËÂÌÚ_17"/>
    <linearGradient id="_ÂÁ_Ï_ÌÌ_È_ËÂÌÚ_28-3" data-name="¡ÂÁ˚ÏˇÌÌ˚È „‡‰ËÂÌÚ 28" x1="71.21" y1="142.12" x2="109.45" y2="142.12" xlink:href="#_ÂÁ_Ï_ÌÌ_È_ËÂÌÚ_28"/>
    <radialGradient id="_ÂÁ_Ï_ÌÌ_È_ËÂÌÚ_91" data-name="¡ÂÁ˚ÏˇÌÌ˚È „‡‰ËÂÌÚ 91" cx="90.97" cy="159.45" fx="90.97" fy="159.45" r="28.9" gradientUnits="userSpaceOnUse">
      <stop offset="0" stop-color="#45ffcd"/>
      <stop offset="1" stop-color="#22e0ff"/>
    </radialGradient>
    <linearGradient id="_ÂÁ_Ï_ÌÌ_È_ËÂÌÚ_36-3" data-name="¡ÂÁ˚ÏˇÌÌ˚È „‡‰ËÂÌÚ 36" x1="112.54" y1="113.81" x2="122.39" y2="113.81" xlink:href="#_ÂÁ_Ï_ÌÌ_È_ËÂÌÚ_36"/>
    <linearGradient id="_ÂÁ_Ï_ÌÌ_È_ËÂÌÚ_46-4" data-name="¡ÂÁ˚ÏˇÌÌ˚È „‡‰ËÂÌÚ 46" x1="128.52" y1="154.93" x2="135.91" y2="96.1" xlink:href="#_ÂÁ_Ï_ÌÌ_È_ËÂÌÚ_46"/>
    <linearGradient id="_ÂÁ_Ï_ÌÌ_È_ËÂÌÚ_46-5" data-name="¡ÂÁ˚ÏˇÌÌ˚È „‡‰ËÂÌÚ 46" x1="110.3" y1="191.77" x2="116.08" y2="145.68" xlink:href="#_ÂÁ_Ï_ÌÌ_È_ËÂÌÚ_46"/>
    <linearGradient id="_ÂÁ_Ï_ÌÌ_È_ËÂÌÚ_28-4" data-name="¡ÂÁ˚ÏˇÌÌ˚È „‡‰ËÂÌÚ 28" x1="140.69" y1="155.29" x2="140.69" y2="143.96" xlink:href="#_ÂÁ_Ï_ÌÌ_È_ËÂÌÚ_28"/>
    <linearGradient id="_ÂÁ_Ï_ÌÌ_È_ËÂÌÚ_46-6" data-name="¡ÂÁ˚ÏˇÌÌ˚È „‡‰ËÂÌÚ 46" x1="40.13" y1="146.84" x2="42.55" y2="127.55" xlink:href="#_ÂÁ_Ï_ÌÌ_È_ËÂÌÚ_46"/>
    <linearGradient id="_ÂÁ_Ï_ÌÌ_È_ËÂÌÚ_65" data-name="¡ÂÁ˚ÏˇÌÌ˚È „‡‰ËÂÌÚ 65" x1="23.81" y1="173.98" x2="32.87" y2="128.49" gradientUnits="userSpaceOnUse">
      <stop offset="0" stop-color="#d93de3"/>
      <stop offset="1" stop-color="#ff6dba"/>
    </linearGradient>
    <linearGradient id="_ÂÁ_Ï_ÌÌ_È_ËÂÌÚ_28-5" data-name="¡ÂÁ˚ÏˇÌÌ˚È „‡‰ËÂÌÚ 28" x1="45.84" y1="135.09" x2="45.3" y2="129.83" xlink:href="#_ÂÁ_Ï_ÌÌ_È_ËÂÌÚ_28"/>
    <linearGradient id="_ÂÁ_Ï_ÌÌ_È_ËÂÌÚ_28-6" data-name="¡ÂÁ˚ÏˇÌÌ˚È „‡‰ËÂÌÚ 28" x1="40.16" y1="90.59" x2="43.06" y2="67.52" xlink:href="#_ÂÁ_Ï_ÌÌ_È_ËÂÌÚ_28"/>
    <linearGradient id="_ÂÁ_Ï_ÌÌ_È_ËÂÌÚ_8" data-name="¡ÂÁ˚ÏˇÌÌ˚È „‡‰ËÂÌÚ 8" x1="25.27" y1="86.26" x2="25.27" y2="75.73" gradientTransform="translate(29.38 2.15) rotate(5.45)" gradientUnits="userSpaceOnUse">
      <stop offset="0" stop-color="#dd1a8f"/>
      <stop offset="1" stop-color="#fe117e"/>
    </linearGradient>
    <linearGradient id="_ÂÁ_Ï_ÌÌ_È_ËÂÌÚ_65-2" data-name="¡ÂÁ˚ÏˇÌÌ˚È „‡‰ËÂÌÚ 65" x1="80.86" y1="16.2" x2="80.86" y2="11.38" gradientTransform="translate(-36.06 80.62) rotate(-7.8)" xlink:href="#_ÂÁ_Ï_ÌÌ_È_ËÂÌÚ_65"/>
    <linearGradient id="_ÂÁ_Ï_ÌÌ_È_ËÂÌÚ_17-3" data-name="¡ÂÁ˚ÏˇÌÌ˚È „‡‰ËÂÌÚ 17" x1="63.22" y1="61.11" x2="63.22" y2="41.62" xlink:href="#_ÂÁ_Ï_ÌÌ_È_ËÂÌÚ_17"/>
    <linearGradient id="_ÂÁ_Ï_ÌÌ_È_ËÂÌÚ_17-4" data-name="¡ÂÁ˚ÏˇÌÌ˚È „‡‰ËÂÌÚ 17" x1="98.33" y1="45.96" x2="98.33" y2="40.24" xlink:href="#_ÂÁ_Ï_ÌÌ_È_ËÂÌÚ_17"/>
    <linearGradient id="_ÂÁ_Ï_ÌÌ_È_ËÂÌÚ_54" data-name="¡ÂÁ˚ÏˇÌÌ˚È „‡‰ËÂÌÚ 54" x1="59.27" y1="29.67" x2="112.86" y2="29.67" gradientUnits="userSpaceOnUse">
      <stop offset="0" stop-color="#000"/>
      <stop offset="1" stop-color="#6a9bff"/>
    </linearGradient>
    <linearGradient id="_ÂÁ_Ï_ÌÌ_È_ËÂÌÚ_54-2" data-name="¡ÂÁ˚ÏˇÌÌ˚È „‡‰ËÂÌÚ 54" x1="62.58" y1="72.95" x2="101.85" y2="72.95" xlink:href="#_ÂÁ_Ï_ÌÌ_È_ËÂÌÚ_54"/>
    <linearGradient id="_ÂÁ_Ï_ÌÌ_È_ËÂÌÚ_54-3" data-name="¡ÂÁ˚ÏˇÌÌ˚È „‡‰ËÂÌÚ 54" x1="53.72" y1="72.95" x2="53.72" y2="47.36" xlink:href="#_ÂÁ_Ï_ÌÌ_È_ËÂÌÚ_54"/>
    <linearGradient id="_ÂÁ_Ï_ÌÌ_È_ËÂÌÚ_143" data-name="¡ÂÁ˚ÏˇÌÌ˚È „‡‰ËÂÌÚ 143" x1="136.08" y1="51.74" x2="136.08" y2="40.17" gradientUnits="userSpaceOnUse">
      <stop offset="0" stop-color="#d4e2ff"/>
      <stop offset="1" stop-color="#000"/>
    </linearGradient>
    <linearGradient id="_ÂÁ_Ï_ÌÌ_È_ËÂÌÚ_134" data-name="¡ÂÁ˚ÏˇÌÌ˚È „‡‰ËÂÌÚ 134" x1="126.46" y1="20.67" x2="149.13" y2="20.67" gradientUnits="userSpaceOnUse">
      <stop offset="0" stop-color="#000"/>
      <stop offset="1" stop-color="#d4e2ff"/>
    </linearGradient>
    <linearGradient id="_ÂÁ_Ï_ÌÌ_È_ËÂÌÚ_416-2" data-name="¡ÂÁ˚ÏˇÌÌ˚È „‡‰ËÂÌÚ 416" x1="99.89" y1="101.24" x2="99.89" y2="88.86" xlink:href="#_ÂÁ_Ï_ÌÌ_È_ËÂÌÚ_416"/>
    <linearGradient id="_ÂÁ_Ï_ÌÌ_È_ËÂÌÚ_153-5" data-name="¡ÂÁ˚ÏˇÌÌ˚È „‡‰ËÂÌÚ 153" x1="133.71" y1="156.26" x2="133.71" y2="94.03" xlink:href="#_ÂÁ_Ï_ÌÌ_È_ËÂÌÚ_153"/>
    <linearGradient id="_ÂÁ_Ï_ÌÌ_È_ËÂÌÚ_46-7" data-name="¡ÂÁ˚ÏˇÌÌ˚È „‡‰ËÂÌÚ 46" x1="1269.47" y1="125.41" x2="1273.53" y2="93.07" gradientTransform="translate(1398.12 -74.72) rotate(174.19) scale(1 -1)" xlink:href="#_ÂÁ_Ï_ÌÌ_È_ËÂÌÚ_46"/>
    <linearGradient id="_ÂÁ_Ï_ÌÌ_È_ËÂÌÚ_28-7" data-name="¡ÂÁ˚ÏˇÌÌ˚È „‡‰ËÂÌÚ 28" x1="1276.61" y1="125.86" x2="1276.61" y2="96.56" gradientTransform="translate(1398.12 -74.72) rotate(174.19) scale(1 -1)" xlink:href="#_ÂÁ_Ï_ÌÌ_È_ËÂÌÚ_28"/>
    <linearGradient id="_ÂÁ_Ï_ÌÌ_È_ËÂÌÚ_416-3" data-name="¡ÂÁ˚ÏˇÌÌ˚È „‡‰ËÂÌÚ 416" x1="1277.2" y1="116.79" x2="1277.2" y2="105.46" gradientTransform="translate(1398.12 -74.72) rotate(174.19) scale(1 -1)" xlink:href="#_ÂÁ_Ï_ÌÌ_È_ËÂÌÚ_416"/>
    <linearGradient id="_ÂÁ_Ï_ÌÌ_È_ËÂÌÚ_46-8" data-name="¡ÂÁ˚ÏˇÌÌ˚È „‡‰ËÂÌÚ 46" x1="1277.96" y1="116.26" x2="1280.37" y2="97.12" gradientTransform="translate(1398.12 -74.72) rotate(174.19) scale(1 -1)" xlink:href="#_ÂÁ_Ï_ÌÌ_È_ËÂÌÚ_46"/>
    <linearGradient id="_ÂÁ_Ï_ÌÌ_È_ËÂÌÚ_134-2" data-name="¡ÂÁ˚ÏˇÌÌ˚È „‡‰ËÂÌÚ 134" x1="73.2" y1="128.68" x2="104.93" y2="128.68" xlink:href="#_ÂÁ_Ï_ÌÌ_È_ËÂÌÚ_134"/>
    <linearGradient id="_ÂÁ_Ï_ÌÌ_È_ËÂÌÚ_143-2" data-name="¡ÂÁ˚ÏˇÌÌ˚È „‡‰ËÂÌÚ 143" x1="90.5" y1="165.22" x2="90.5" y2="161.56" xlink:href="#_ÂÁ_Ï_ÌÌ_È_ËÂÌÚ_143"/>
    <linearGradient id="_ÂÁ_Ï_ÌÌ_È_ËÂÌÚ_153-6" data-name="¡ÂÁ˚ÏˇÌÌ˚È „‡‰ËÂÌÚ 153" x1="118.25" y1="193.1" x2="118.25" y2="146.49" xlink:href="#_ÂÁ_Ï_ÌÌ_È_ËÂÌÚ_153"/>
    <linearGradient id="_ÂÁ_Ï_ÌÌ_È_ËÂÌÚ_14-2" data-name="¡ÂÁ˚ÏˇÌÌ˚È „‡‰ËÂÌÚ 14" x1="14.7" y1="169.44" x2="23.55" y2="124.98" xlink:href="#_ÂÁ_Ï_ÌÌ_È_ËÂÌÚ_14"/>
    <linearGradient id="_ÂÁ_Ï_ÌÌ_È_ËÂÌÚ_416-4" data-name="¡ÂÁ˚ÏˇÌÌ˚È „‡‰ËÂÌÚ 416" x1="35.54" y1="136.34" x2="36.33" y2="129.98" xlink:href="#_ÂÁ_Ï_ÌÌ_È_ËÂÌÚ_416"/>
    <linearGradient id="_ÂÁ_Ï_ÌÌ_È_ËÂÌÚ_416-5" data-name="¡ÂÁ˚ÏˇÌÌ˚È „‡‰ËÂÌÚ 416" x1="-14.02" y1="457" x2="-2.74" y2="457" gradientTransform="translate(279.66 -234.69) rotate(31.78)" xlink:href="#_ÂÁ_Ï_ÌÌ_È_ËÂÌÚ_416"/>
    <radialGradient id="_ÂÁ_Ï_ÌÌ_È_ËÂÌÚ_91-2" data-name="¡ÂÁ˚ÏˇÌÌ˚È „‡‰ËÂÌÚ 91" cx="-8.87" cy="456.2" fx="-8.87" fy="456.2" r="5.55" gradientTransform="translate(279.66 -234.69) rotate(31.78)" xlink:href="#_ÂÁ_Ï_ÌÌ_È_ËÂÌÚ_91"/>
    <linearGradient id="_ÂÁ_Ï_ÌÌ_È_ËÂÌÚ_46-9" data-name="¡ÂÁ˚ÏˇÌÌ˚È „‡‰ËÂÌÚ 46" x1="41.78" y1="133.88" x2="43.34" y2="121.51" xlink:href="#_ÂÁ_Ï_ÌÌ_È_ËÂÌÚ_46"/>
    <linearGradient id="_ÂÁ_Ï_ÌÌ_È_ËÂÌÚ_28-8" data-name="¡ÂÁ˚ÏˇÌÌ˚È „‡‰ËÂÌÚ 28" x1="47.05" y1="129.66" x2="46.49" y2="124.2" xlink:href="#_ÂÁ_Ï_ÌÌ_È_ËÂÌÚ_28"/>
    <linearGradient id="_ÂÁ_Ï_ÌÌ_È_ËÂÌÚ_416-6" data-name="¡ÂÁ˚ÏˇÌÌ˚È „‡‰ËÂÌÚ 416" x1="30.77" y1="152.22" x2="31.7" y2="144.79" xlink:href="#_ÂÁ_Ï_ÌÌ_È_ËÂÌÚ_416"/>
    <radialGradient id="_ÂÁ_Ï_ÌÌ_È_ËÂÌÚ_91-3" data-name="¡ÂÁ˚ÏˇÌÌ˚È „‡‰ËÂÌÚ 91" cx="32.36" cy="149.41" fx="32.36" fy="149.41" r="3.32" xlink:href="#_ÂÁ_Ï_ÌÌ_È_ËÂÌÚ_91"/>
    <linearGradient id="_ÂÁ_Ï_ÌÌ_È_ËÂÌÚ_153-7" data-name="¡ÂÁ˚ÏˇÌÌ˚È „‡‰ËÂÌÚ 153" x1="25.01" y1="176.77" x2="30.25" y2="135.05" xlink:href="#_ÂÁ_Ï_ÌÌ_È_ËÂÌÚ_153"/>
  </defs>
  <g class="cls-62">
    <g id="Calque_2" data-name="Calque 2">
      <g id="chatbot">
        <g>
          <g>
            <path class="cls-19" d="M8.79,95.11c-7.72,25.63,26.75,75.69,78.32,74.98,57.49-.79,103.18-50.05,105.64-91.47,2.46-41.43-38.88-70.56-72.67-63.17-33.79,7.39-46.06,30.19-62.02,44.79-9.34,8.55-39.08,1.06-49.26,34.87Z"/>
            <g>
              <path class="cls-19" d="M167.18,99.31c-1.58,3.17-2.41,6.7-2.42,10.24,0,.57,.02,1.16,.25,1.68,.45,1.01,1.59,1.54,2.68,1.68,2.68,.35,5.42-1.27,6.66-3.67,1.24-2.4,1.03-5.41-.27-7.78-.72-1.3-1.82-2.47-3.25-2.87-1.43-.4-3.18,.19-3.76,1.56,.21,.42,.93,.44,1.16,.02l-1.06-.86Z"/>
              <path class="cls-19" d="M13.29,125.87c-1.58,3.17-2.41,6.7-2.42,10.24,0,.57,.02,1.16,.25,1.68,.45,1.01,1.59,1.54,2.68,1.68,2.68,.35,5.42-1.27,6.66-3.67,1.24-2.4,1.03-5.41-.27-7.78-.72-1.3-1.82-2.47-3.25-2.87-1.43-.4-3.18,.19-3.76,1.56,.21,.42,.93,.44,1.16,.02l-1.06-.86Z"/>
              <path class="cls-19" d="M171.17,109.46c-1.31,.63-2.23,1.98-2.36,3.43,1.2,.81,2.77,1.21,4.11,.67,1.34-.54,2.22-2.24,1.57-3.53-.65-1.29-2.94-1.36-3.42,0l.1-.57Z"/>
              <path class="cls-19" d="M167.89,122.02c-.66-.11-1.37,.12-1.86,.58,.19,.23,.39,.47,.66,.61,.27,.14,.62,.16,.85-.04,.31-.27,.24-.76,.14-1.17,.1,.06,.19,.12,.29,.18l-.09-.17Z"/>
              <path class="cls-19" d="M168.05,119.36c.02-.2,.11-.4,.24-.55,.33,.41,.24,1,.1,1.51-.08,.28-.22,.61-.51,.65-.2,.02-.38-.12-.58-.17-.39-.1-.94,.11-1.15-.24-.12-.2-.02-.47,.16-.61,.18-.15,.41-.2,.64-.24,.49-.1,.99-.21,1.48-.31l-.39-.03Z"/>
              <path class="cls-20" d="M163.08,153.08c-.34,.26,.03,.85,.46,.84,.42-.01,.75-.36,1.02-.69-.39-.44-1.06-.59-1.6-.38l.13,.23Z"/>
              <path class="cls-19" d="M177.67,157c.17-.1,.41,0,.5,.18,.09,.18,.07,.39,0,.58-.04,.11-.1,.21-.19,.29-.21,.17-.56,.11-.71-.12s-.06-.57,.16-.71,.56-.09,.73,.12l-.49-.34Z"/>
              <path class="cls-19" d="M171.94,126.88c-.06-.42-.69-.61-.97-.29,.05,.22,.13,.43,.29,.58,.17,.14,.43,.19,.61,.06,.18-.13,.17-.46-.03-.55l.1,.2Z"/>
              <path class="cls-19" d="M169.34,117.74c-.45-.24-1.01-.25-1.47-.03,.21,.36,.41,.72,.62,1.08,.1,.17,.2,.35,.37,.44,.33,.19,.8-.05,.91-.42,.11-.37-.09-.78-.4-1l-.03-.08Z"/>
              <path class="cls-20" d="M175.26,151.72c.06,.13,.12,.25,.19,.38,.23,0,.46-.17,.5-.4,.04-.23-.14-.48-.37-.49-.23,0-.44,.26-.35,.47l.04,.04Z"/>
              <path class="cls-19" d="M170.57,124.13c.27,.04,.43-.33,.35-.6-.08-.26-.29-.46-.4-.72-.11-.26-.1-.57,.02-.82,.07-.15,.2-.29,.37-.29,.11,0,.21,.05,.31,.11,.47,.27,.92,.61,1.18,1.09s.27,1.12-.08,1.53c-.25,.29-.65,.43-1.02,.35-.37-.07-.69-.36-.81-.72l.07,.07Z"/>
              <path class="cls-19" d="M163.78,121.34c-.31-.14-.71,.07-.84,.38-.13,.32-.02,.7,.21,.95,.1,.11,.27,.21,.39,.13,.09-.05,.11-.17,.13-.27,.07-.42,.15-.83,.22-1.25l-.12,.05Z"/>
              <path class="cls-19" d="M163.09,137.46c.7-.07,1.34,.7,1.13,1.37-.54-.02-1.12-.05-1.55-.37-.44-.32-.64-1.03-.24-1.4,.32-.02,.63-.04,.95-.05l-.28,.45Z"/>
              <path class="cls-19" d="M181.25,.28c-.02-.16,.15-.28,.31-.28,.16,0,.3,.11,.41,.21,.09,.09,.18,.19,.23,.31,.09,.24-.04,.53-.26,.65-.22,.13-.51,.1-.72-.03-.1-.07-.2-.16-.22-.29s.05-.26,.17-.29l.09-.29Z"/>
              <path class="cls-19" d="M169.29,129.69c-.13,.07-.26,.13-.39,.2,.07,.21,.16,.45,.36,.56,.2,.11,.52-.03,.48-.26-.01-.08-.07-.15-.13-.22-.18-.2-.36-.41-.54-.61l.22,.33Z"/>
              <path class="cls-19" d="M169.55,137.53c-.28,.23-.56,.47-.72,.8-.16,.32-.17,.75,.08,1.01,.12,.13,.3,.21,.47,.23,.54,.07,1.09-.37,1.13-.91,.04-.54-.43-1.07-.97-1.08v-.05Z"/>
              <path class="cls-19" d="M166.72,140.07c-.07,.23-.14,.47-.21,.7,.16,.1,.34,.16,.53,.18,.22-.28,.15-.75-.14-.96l-.18,.08Z"/>
              <path class="cls-19" d="M151.71,122.19c-.04,1.42,.25,2.84,.84,4.13,.1,.21,.2,.42,.37,.57,.33,.29,.84,.29,1.26,.16,1.03-.32,1.76-1.37,1.8-2.45,.05-1.08-.53-2.14-1.4-2.78-.48-.35-1.08-.59-1.66-.5-.59,.1-1.12,.61-1.11,1.2,.15,.12,.41,0,.42-.19l-.53-.14Z"/>
              <path class="cls-19" d="M180.18,115.4c-.6,.31-1.03,.92-1.14,1.58,.29,.07,.6,.15,.89,.1,.3-.05,.59-.25,.66-.54,.09-.4-.26-.76-.58-1.02,.11-.01,.23-.02,.34-.03l-.17-.08Z"/>
              <path class="cls-19" d="M181.32,120.13c-.11,.15-.23,.32-.22,.51,0,.18,.12,.34,.23,.49,.3,.4,.56,.83,.78,1.28l.6-2.42c.02-.06,.03-.13,.07-.18,.14-.18,.43-.09,.65-.17,.32-.12,.37-.54,.32-.87-.34-2.37-1.83,.54-2.43,1.37Z"/>
              <path class="cls-19" d="M178.77,111.1c-.5,.08-.96,.41-1.2,.85,.38,.16,.76,.33,1.15,.49,.18,.08,.37,.16,.57,.13,.38-.05,.61-.52,.48-.88-.13-.36-.54-.57-.92-.56l-.07-.05Z"/>
              <path class="cls-19" d="M176.48,117.31c-.33,.08-.53,.48-.44,.81,.09,.33,.4,.57,.74,.64,.15,.03,.34,.01,.39-.13,.04-.1,0-.2-.06-.3-.19-.38-.38-.75-.57-1.13l-.07,.11Z"/>
              <path class="cls-19" d="M171.19,114.59c-.28,.23-.56,.47-.72,.8-.16,.32-.17,.75,.08,1.01,.12,.13,.3,.21,.47,.23,.54,.07,1.09-.37,1.13-.91,.04-.54-.43-1.07-.97-1.08v-.05Z"/>
              <path class="cls-19" d="M162.26,130.48c.1,.35,.54,.46,.91,.48s.8,.06,.98,.38c.05,.09,.07,.2,.03,.29-.11,.23-.46,.12-.71,.12-.21,0-.4,.1-.6,.15-.48,.11-1.01-.1-1.28-.51-.03-.26,.12-.53,.34-.66,.23-.13,.53-.1,.74,.06l-.41-.3Z"/>
              <path class="cls-19" d="M167,138.19c.1,.35,.54,.46,.91,.48s.8,.06,.98,.38c.05,.09,.07,.2,.03,.29-.11,.23-.46,.12-.71,.12-.21,0-.4,.1-.6,.15-.48,.11-1.01-.1-1.28-.51-.03-.26,.12-.53,.34-.66,.23-.13,.53-.1,.74,.06l-.41-.3Z"/>
              <path class="cls-19" d="M165,144.64c-.12,.27-.18,.57-.18,.87,0,.05,0,.1,.03,.14,.04,.08,.14,.13,.23,.13,.23,.02,.45-.12,.55-.33s.07-.46-.04-.65c-.06-.11-.16-.2-.28-.23-.12-.03-.27,.02-.31,.14,.02,.04,.08,.03,.1,0l-.09-.07Z"/>
              <path class="cls-19" d="M173.23,102.36c-.6,.31-1.03,.92-1.14,1.58,.29,.07,.6,.15,.89,.1,.3-.05,.59-.25,.66-.54,.09-.4-.26-.76-.58-1.02,.11-.01,.23-.02,.34-.03l-.17-.08Z"/>
              <path class="cls-19" d="M179.38,103.83c-.3-.3-.92-.07-.95,.35,.17,.15,.36,.27,.58,.29,.22,.02,.46-.11,.52-.32s-.14-.47-.35-.42l.2,.1Z"/>
              <path class="cls-19" d="M172.95,113.04c-.3-.3-.92-.07-.95,.35,.17,.15,.36,.27,.58,.29,.22,.02,.46-.11,.52-.32,.06-.21-.14-.47-.35-.42l.2,.1Z"/>
              <path class="cls-19" d="M176.64,102.45c.24-.13,.15-.53-.08-.69-.22-.16-.51-.2-.75-.33-.25-.14-.42-.39-.47-.67-.03-.16,0-.35,.12-.46,.09-.07,.2-.09,.31-.1,.54-.06,1.11-.06,1.6,.17,.49,.23,.89,.73,.85,1.27-.02,.38-.27,.73-.61,.89-.34,.16-.77,.12-1.08-.09h.1Z"/>
              <path class="cls-19" d="M165.42,132.43c.24-.13,.15-.53-.08-.69-.22-.16-.51-.2-.75-.33-.25-.14-.42-.39-.47-.67-.03-.16,0-.35,.12-.46,.09-.07,.2-.09,.31-.1,.54-.06,1.11-.06,1.6,.17,.49,.23,.89,.73,.85,1.27-.02,.38-.27,.73-.61,.89-.34,.16-.77,.12-1.08-.09h.1Z"/>
              <path class="cls-19" d="M161.93,131.72c.24-.13,.15-.53-.08-.69-.22-.16-.51-.2-.75-.33-.25-.14-.42-.39-.47-.67-.03-.16,0-.35,.12-.46,.09-.07,.2-.09,.31-.1,.54-.06,1.11-.06,1.6,.17,.49,.23,.89,.73,.85,1.27-.02,.38-.27,.73-.61,.89s-.77,.12-1.08-.09h.1Z"/>
              <path class="cls-19" d="M164.12,126.68c.24-.13,.15-.53-.08-.69-.22-.16-.51-.2-.75-.33-.25-.14-.42-.39-.47-.67-.03-.16,0-.35,.12-.46,.09-.07,.2-.09,.31-.1,.54-.06,1.11-.06,1.6,.17,.49,.23,.89,.73,.85,1.27-.02,.38-.27,.73-.61,.89-.34,.16-.77,.12-1.08-.09h.1Z"/>
              <path class="cls-19" d="M195.5,148.98c.24-.13,.15-.53-.08-.69-.22-.16-.51-.2-.75-.33-.25-.14-.42-.39-.47-.67-.03-.16,0-.35,.12-.46,.09-.07,.2-.09,.31-.1,.54-.06,1.11-.06,1.6,.17,.49,.23,.89,.73,.85,1.27-.02,.38-.27,.73-.61,.89-.34,.16-.77,.12-1.08-.09h.1Z"/>
              <path class="cls-19" d="M178.95,107.67c-.07,.13-.13,.26-.2,.39,.19,.13,.4,.26,.62,.23,.22-.03,.4-.34,.23-.49-.06-.06-.15-.08-.23-.1-.27-.05-.53-.11-.8-.16l.37,.14Z"/>
              <path class="cls-19" d="M182.86,136.34c-.28,.23-.56,.47-.72,.8-.16,.32-.17,.75,.08,1.01,.12,.13,.3,.21,.47,.23,.54,.07,1.09-.37,1.13-.91s-.43-1.07-.97-1.08v-.05Z"/>
              <path class="cls-19" d="M168.07,109.97c.08-.51,.85-.74,1.19-.35,.03,.28,0,.57-.08,.85-.32,0-.63-.14-.85-.36l-.26-.13Z"/>
              <path class="cls-20" d="M179.77,139.73c-.13,.16-.26,.33-.32,.53-.06,.2-.01,.44,.16,.56,.28,.2,.66-.04,1,.01,.34,.05,.62,.39,.96,.32,.33-.07,.45-.52,.3-.82-.15-.3-.47-.48-.78-.61-.28-.12-.57-.23-.87-.19s-.59,.28-.59,.58l.14-.38Z"/>
              <path class="cls-19" d="M168.21,125.17c-1.42-.28-2.98,.25-3.94,1.33,.48,1.37,1.49,2.63,2.89,3,1.4,.37,3.12-.46,3.37-1.89,.25-1.42-1.54-2.85-2.74-2.05l.42-.4Z"/>
              <path class="cls-19" d="M164.83,109.14c.2,.02,.32,.25,.29,.45-.03,.2-.18,.35-.35,.46-.1,.06-.21,.11-.33,.12-.27,.01-.51-.25-.49-.52,.02-.27,.29-.49,.56-.47s.5,.27,.51,.54l-.19-.57Z"/>
              <path class="cls-19" d="M166.55,116.91c.21,.3,.66,.25,1.01,.15,.35-.1,.77-.21,1.05,.04,.07,.07,.13,.16,.12,.26-.03,.26-.39,.26-.63,.35-.19,.07-.34,.23-.51,.34-.41,.26-.99,.24-1.38-.06-.11-.24-.07-.54,.11-.73s.47-.27,.72-.19l-.48-.15Z"/>
              <path class="cls-19" d="M173.14,126.52c-.03,.14-.05,.28-.08,.41,.19,.14,.47,.14,.64-.02,.17-.16,.17-.47,0-.61-.18-.15-.5-.06-.56,.17v.05Z"/>
              <path class="cls-19" d="M171.1,118.75c.08-.14,.29-.14,.42-.04,.12,.1,.17,.26,.2,.42,.02,.13,.03,.26,0,.38-.07,.24-.35,.4-.6,.37-.25-.03-.47-.22-.56-.46-.04-.12-.06-.25,0-.36,.05-.11,.19-.18,.31-.13l.24-.18Z"/>
              <path class="cls-19" d="M183.21,118.24c-.9-1.14-2.41-1.76-3.85-1.57-.53,1.34-.59,2.97,.23,4.16,.82,1.19,2.66,1.69,3.78,.78,1.12-.91,.7-3.16-.73-3.34l.58-.02Z"/>
              <path class="cls-19" d="M177.01,108.72c-.34,.26,.03,.85,.46,.84,.42-.01,.75-.36,1.02-.69-.39-.44-1.06-.59-1.6-.38l.13,.23Z"/>
              <path class="cls-19" d="M162.25,113.12c-.03,.14-.05,.28-.08,.41,.19,.14,.47,.14,.64-.02,.17-.16,.17-.47,0-.61-.18-.15-.5-.06-.56,.17v.05Z"/>
              <path class="cls-19" d="M169.47,115.78c-.72,1.35-1.13,2.88-1.18,4.41,0,.25,0,.5,.09,.73,.18,.44,.67,.69,1.14,.76,1.16,.18,2.37-.48,2.93-1.51,.57-1.03,.52-2.33-.02-3.38-.29-.57-.76-1.09-1.37-1.29-.61-.19-1.38,.04-1.65,.63,.09,.19,.4,.2,.5,.02l-.45-.39Z"/>
              <path class="cls-19" d="M191.09,128.95c-1.31,.63-2.23,1.98-2.36,3.43,1.2,.81,2.77,1.21,4.11,.67,1.34-.54,2.22-2.24,1.57-3.53-.65-1.29-2.94-1.36-3.42,0l.1-.57Z"/>
              <path class="cls-19" d="M24.92,149.7c-1.31,.63-2.23,1.98-2.36,3.43,1.2,.81,2.77,1.21,4.11,.67,1.34-.54,2.22-2.24,1.57-3.53-.65-1.29-2.94-1.36-3.42,0l.1-.57Z"/>
              <path class="cls-19" d="M167.58,142.97c-.6,.31-1.03,.92-1.14,1.58,.29,.07,.6,.15,.89,.1,.3-.05,.59-.25,.66-.54,.09-.4-.26-.76-.58-1.02,.11-.01,.23-.02,.34-.03l-.17-.08Z"/>
              <path class="cls-19" d="M168.72,147.7c-.11,.15-.23,.32-.22,.51,0,.18,.12,.34,.23,.49,.3,.4,.56,.83,.78,1.28,.2-.81,.4-1.61,.6-2.42,.02-.06,.03-.13,.07-.18,.14-.18,.43-.09,.65-.17,.32-.12,.37-.54,.32-.87-.34-2.37-1.83,.54-2.43,1.37Z"/>
              <path class="cls-19" d="M165.79,118.38c-.07,.23-.14,.47-.21,.7,.47,.11,1.04-.03,1.28-.45,.24-.42-.09-1.09-.57-1.03-.3,.04-.75,.21-.78-.08l.29,.87Z"/>
              <path class="cls-19" d="M173.84,137.71c.02-.2,.11-.4,.24-.55,.33,.41,.24,1,.1,1.51-.08,.28-.22,.61-.51,.65-.2,.02-.38-.12-.58-.17-.39-.1-.94,.11-1.15-.24-.12-.2-.02-.47,.16-.61,.18-.15,.41-.2,.64-.24,.49-.1,.99-.21,1.48-.31l-.39-.03Z"/>
              <path class="cls-19" d="M181.72,138.82c-.34,.26,.03,.85,.46,.84,.42-.01,.75-.36,1.02-.69-.39-.44-1.06-.59-1.6-.38l.13,.23Z"/>
              <path class="cls-20" d="M176.02,145.83c.17-.1,.41,0,.5,.18,.09,.18,.07,.39,0,.58-.04,.11-.1,.21-.19,.29-.21,.17-.56,.11-.71-.12-.15-.23-.06-.57,.16-.71,.23-.15,.56-.09,.73,.12l-.49-.34Z"/>
              <path class="cls-19" d="M173.73,144.44c-.3-.3-.92-.07-.95,.35,.17,.15,.36,.27,.58,.29s.46-.11,.52-.32c.06-.21-.14-.47-.35-.42l.2,.1Z"/>
              <path class="cls-19" d="M166.17,138.68c-.5,.08-.96,.41-1.2,.85,.38,.16,.76,.33,1.15,.49,.18,.08,.37,.16,.57,.13,.38-.05,.61-.52,.48-.88-.13-.36-.54-.57-.92-.56l-.07-.05Z"/>
              <path class="cls-20" d="M181.68,144.07c.26-.14,.6-.1,.83,.08s.33,.51,.25,.79c-.06,.19-.26,.38-.44,.29-.08-.04-.13-.11-.17-.18-.2-.31-.4-.63-.6-.94,.06-.03,.12-.05,.18-.08l-.04,.03Z"/>
              <path class="cls-20" d="M186.34,147.51c.1,.35,.54,.46,.91,.48,.36,.02,.8,.06,.98,.38,.05,.09,.07,.2,.03,.29-.11,.23-.46,.12-.71,.12-.21,0-.4,.1-.6,.15-.48,.11-1.01-.1-1.28-.51-.03-.26,.12-.53,.34-.66,.23-.13,.53-.1,.74,.06l-.41-.3Z"/>
              <path class="cls-20" d="M158.93,128.74c.1,.35,.54,.46,.91,.48s.8,.06,.98,.38c.05,.09,.07,.2,.03,.29-.11,.23-.46,.12-.71,.12-.21,0-.4,.1-.6,.15-.48,.11-1.01-.1-1.28-.51-.03-.26,.12-.53,.34-.66,.23-.13,.53-.1,.74,.06l-.41-.3Z"/>
              <path class="cls-20" d="M184.11,150.41c-.07,.12-.14,.24-.21,.37,.13,.19,.4,.29,.61,.19,.21-.09,.32-.38,.2-.58-.12-.2-.45-.22-.58-.03v.05Z"/>
              <path class="cls-19" d="M170.99,143.06c.24-.13,.15-.53-.08-.69-.22-.16-.51-.2-.75-.33-.25-.14-.42-.39-.47-.67-.03-.16,0-.35,.12-.46,.09-.07,.2-.09,.31-.1,.54-.06,1.11-.06,1.6,.17,.49,.23,.89,.73,.85,1.27-.02,.38-.27,.73-.61,.89-.34,.16-.77,.12-1.08-.09h.1Z"/>
              <path class="cls-19" d="M163.88,144.89c-.33,.08-.53,.48-.44,.81,.09,.33,.4,.57,.74,.64,.15,.03,.34,.01,.39-.13,.04-.1,0-.2-.06-.3-.19-.38-.38-.75-.57-1.13l-.07,.11Z"/>
              <path class="cls-19" d="M179.02,133.51c.7-.07,1.34,.7,1.13,1.37-.54-.02-1.12-.05-1.55-.37-.44-.32-.64-1.03-.24-1.4,.32-.02,.63-.04,.95-.05l-.28,.45Z"/>
              <path class="cls-20" d="M173.3,148.28c-.07,.13-.13,.26-.2,.39,.19,.13,.4,.26,.62,.23,.22-.03,.4-.34,.23-.49-.06-.06-.15-.08-.23-.1-.27-.05-.53-.11-.8-.16l.37,.14Z"/>
              <path class="cls-19" d="M171.44,109.55c-.28,.23-.56,.47-.72,.8-.16,.32-.17,.75,.08,1.01,.12,.13,.3,.21,.47,.23,.54,.07,1.09-.37,1.13-.91,.04-.54-.43-1.07-.97-1.08v-.05Z"/>
              <path class="cls-19" d="M185.36,125.81c-.07,.23-.14,.47-.21,.7,.16,.1,.34,.16,.53,.18,.22-.28,.15-.75-.14-.96l-.18,.08Z"/>
              <path class="cls-19" d="M175.72,91.03c.17-.1,.41,0,.5,.18,.09,.18,.07,.39,0,.58-.04,.11-.1,.21-.19,.29-.21,.17-.56,.11-.71-.12s-.06-.57,.16-.71c.23-.15,.56-.09,.73,.12l-.49-.34Z"/>
              <path class="cls-19" d="M180.5,129.44c-.07,.23-.14,.47-.21,.7,.16,.1,.34,.16,.53,.18,.22-.28,.15-.75-.14-.96l-.18,.08Z"/>
              <path class="cls-19" d="M161.02,124.4c-.27,.06-.29,.46-.13,.68,.17,.22,.43,.34,.62,.54,.19,.21,.29,.5,.26,.78-.02,.16-.1,.34-.25,.4-.1,.04-.22,.03-.33,0-.53-.1-1.08-.27-1.48-.63-.4-.36-.63-.96-.44-1.47,.13-.35,.47-.62,.84-.68,.37-.05,.77,.11,1,.41l-.09-.04Z"/>
              <path class="cls-19" d="M173.13,116.21c.17-.12,.35-.24,.46-.41,.11-.17,.14-.42,.02-.58-.21-.27-.65-.16-.95-.3-.31-.15-.48-.55-.82-.59-.34-.03-.59,.36-.53,.7,.06,.33,.31,.59,.57,.81,.23,.2,.48,.39,.78,.44,.3,.05,.65-.1,.73-.39l-.25,.32Z"/>
              <path class="cls-19" d="M168.67,131.41c.23-1.23,.17-2.51-.17-3.71-.05-.19-.12-.39-.25-.55-.25-.3-.69-.37-1.07-.31-.94,.14-1.72,.96-1.91,1.89s.17,1.94,.85,2.62c.37,.37,.86,.66,1.38,.66,.52,0,1.06-.37,1.13-.89-.11-.12-.36-.06-.4,.11l.44,.19Z"/>
              <path class="cls-19" d="M160.73,127.03c-.19-.02-.39-.04-.55,.06-.16,.1-.23,.28-.31,.44-.2,.46-.44,.9-.72,1.31,.8-.23,1.6-.45,2.4-.68,.06-.02,.13-.04,.19-.03,.23,.03,.3,.33,.47,.48,.26,.22,.65,.05,.92-.15,1.89-1.48-1.38-1.31-2.4-1.43Z"/>
              <path class="cls-19" d="M168.36,131.45c-.08,.12-.16,.23-.24,.35,.11,.2,.38,.31,.59,.23,.22-.08,.34-.36,.24-.57-.11-.2-.44-.25-.58-.07v.05Z"/>
              <path class="cls-19" d="M161.64,130.87c-.23-.25-.68-.22-.92,.02-.24,.24-.29,.63-.19,.96,.05,.14,.16,.3,.31,.28,.1-.02,.17-.11,.23-.2,.23-.35,.47-.7,.7-1.06h-.13Z"/>
              <path class="cls-19" d="M165.96,132.29c-.57-.36-1.31-.44-1.94-.2,.08,.29,.17,.59,.36,.82,.19,.24,.51,.39,.8,.3,.39-.12,.52-.61,.59-1.01,.07,.09,.13,.19,.2,.28v-.19Z"/>
              <path class="cls-19" d="M168.01,134.55c.19-.08,.4-.1,.6-.06-.19,.49-.75,.71-1.26,.84-.28,.07-.64,.12-.81-.12-.12-.17-.09-.39-.14-.59-.11-.39-.56-.76-.36-1.11,.11-.2,.4-.25,.61-.17,.22,.08,.38,.26,.53,.43,.33,.38,.67,.75,1,1.13l-.17-.35Z"/>
              <path class="cls-19" d="M163.35,128.38c-.32-.4-.83-.63-1.34-.62,.05,.41,.09,.83,.14,1.24,.02,.19,.05,.4,.17,.56,.23,.31,.75,.27,1-.02,.25-.29,.23-.75,.02-1.08v-.09Z"/>
              <path class="cls-19" d="M161.95,134.73c.24,.14,.53-.13,.56-.41,.03-.27-.09-.54-.09-.82,0-.28,.13-.56,.35-.75,.13-.11,.3-.18,.46-.12,.1,.04,.18,.13,.24,.22,.32,.44,.6,.93,.65,1.47,.05,.54-.19,1.13-.68,1.37-.34,.17-.77,.13-1.08-.08-.31-.22-.49-.6-.45-.98l.04,.1Z"/>
              <path class="cls-19" d="M175.29,122.99c-.34-.12-.69-.25-1.05-.23s-.74,.23-.84,.57c-.05,.17-.03,.36,.04,.53,.2,.5,.86,.76,1.35,.53,.49-.23,.71-.9,.45-1.38l.05-.02Z"/>
              <path class="cls-19" d="M168.17,119.22c-.57-.36-1.31-.44-1.94-.2,.08,.29,.17,.59,.36,.82,.19,.24,.51,.39,.8,.3,.39-.12,.52-.61,.59-1.01,.07,.09,.13,.19,.2,.28v-.19Z"/>
              <path class="cls-19" d="M168.39,135.78c.07,.36,.51,.49,.87,.54,.36,.05,.79,.12,.95,.45,.04,.09,.06,.2,0,.29-.13,.22-.46,.08-.72,.07-.21-.01-.4,.07-.61,.11-.48,.08-1-.17-1.24-.6,0-.26,.15-.52,.39-.63s.54-.07,.73,.11l-.39-.33Z"/>
              <path class="cls-19" d="M181.4,110.78c0,.14,.01,.28,.02,.42,.21,.09,.49,.03,.62-.17,.13-.19,.06-.49-.15-.59-.21-.1-.5,.06-.5,.29l.02,.05Z"/>
              <path class="cls-19" d="M166.42,126.82c-.15,0-.29,.02-.44,.02-.02,.23-.03,.48,.11,.65,.14,.18,.49,.18,.55-.04,.02-.08,0-.17-.03-.25-.09-.26-.17-.52-.26-.78l.07,.39Z"/>
            </g>
            <g>
              <path class="cls-17" d="M182.97,75.01c.85-2.26,1.16-4.72,.92-7.12-.04-.39-.1-.78-.29-1.12-.38-.65-1.19-.93-1.94-.95-1.84-.05-3.59,1.25-4.26,2.96s-.32,3.74,.73,5.26c.58,.83,1.41,1.55,2.4,1.72,1,.17,2.15-.36,2.44-1.32-.17-.27-.66-.23-.79,.07l.78,.51Z"/>
              <path class="cls-17" d="M179.54,68.4c.84-.52,1.38-1.5,1.36-2.49-.87-.46-1.97-.63-2.84-.16-.87,.46-1.35,1.67-.81,2.5,.53,.83,2.09,.71,2.32-.24l-.03,.4Z"/>
              <path class="cls-17" d="M180.88,59.65c.46,.03,.92-.18,1.22-.53-.15-.14-.3-.29-.49-.37-.19-.08-.43-.06-.57,.09-.19,.21-.11,.54-.02,.8-.07-.03-.14-.07-.21-.1l.07,.11Z"/>
              <path class="cls-17" d="M180.96,61.46c0,.14-.05,.28-.13,.39-.25-.25-.23-.66-.18-1.02,.03-.2,.11-.43,.3-.47,.14-.03,.27,.05,.41,.08,.28,.04,.63-.14,.8,.08,.09,.13,.05,.32-.07,.43-.11,.11-.27,.16-.42,.21-.33,.1-.65,.21-.98,.31h.27Z"/>
              <path class="cls-18" d="M181.95,38.24c.21-.2-.08-.58-.37-.54s-.48,.3-.64,.54c.3,.27,.76,.33,1.11,.15l-.1-.14Z"/>
              <path class="cls-17" d="M171.78,36.61c-.11,.08-.28,.02-.35-.09-.07-.11-.07-.26-.04-.39,.02-.08,.05-.15,.11-.21,.13-.13,.37-.11,.49,.03,.11,.14,.08,.38-.06,.49-.14,.12-.37,.1-.5-.03l.36,.2Z"/>
              <path class="cls-17" d="M177.79,56.64c.07,.28,.51,.36,.68,.13-.05-.14-.12-.28-.24-.37-.12-.09-.31-.1-.42,0-.11,.1-.09,.32,.06,.37l-.08-.13Z"/>
              <path class="cls-17" d="M180.2,62.65c.32,.13,.7,.1,1-.08-.17-.23-.33-.46-.5-.69-.08-.11-.16-.22-.28-.28-.24-.11-.54,.09-.59,.35-.05,.26,.12,.52,.34,.65l.03,.05Z"/>
              <path class="cls-18" d="M173.78,40.02c-.05-.08-.1-.16-.15-.24-.16,.02-.3,.15-.31,.31-.01,.16,.13,.31,.29,.3s.28-.2,.2-.34l-.03-.02Z"/>
              <path class="cls-17" d="M178.91,58.41c-.19,0-.27,.26-.2,.43s.23,.29,.32,.46c.09,.17,.11,.38,.04,.56-.04,.11-.12,.21-.23,.22-.07,.01-.15-.02-.22-.05-.34-.15-.67-.35-.88-.66s-.27-.74-.06-1.04c.15-.21,.41-.34,.67-.31,.26,.02,.49,.2,.6,.43l-.06-.04Z"/>
              <path class="cls-17" d="M183.71,59.82c.22,.07,.48-.09,.54-.32,.06-.22-.04-.47-.21-.63-.08-.07-.2-.13-.28-.06-.06,.04-.07,.12-.07,.19-.02,.29-.04,.57-.06,.86l.08-.04Z"/>
              <path class="cls-17" d="M183.05,48.84c-.47,.1-.96-.38-.87-.85,.37-.02,.76-.04,1.08,.14,.32,.18,.5,.65,.26,.93-.21,.03-.43,.07-.64,.1l.16-.33Z"/>
              <path class="cls-17" d="M180.22,85.75c.02,.11-.08,.2-.19,.21-.11,0-.21-.05-.29-.12-.07-.05-.14-.11-.17-.19-.07-.16-.01-.36,.13-.46,.14-.1,.34-.11,.49-.03,.08,.04,.15,.1,.17,.18,.02,.08-.01,.18-.09,.21l-.04,.2Z"/>
              <path class="cls-17" d="M179.38,54.54c.08-.05,.17-.11,.25-.16-.07-.14-.14-.29-.29-.35s-.35,.06-.31,.21c.02,.06,.06,.1,.1,.14,.14,.13,.27,.25,.41,.38l-.17-.21Z"/>
              <path class="cls-17" d="M178.65,49.25c.17-.18,.35-.36,.43-.59,.09-.23,.06-.52-.13-.68-.09-.08-.22-.12-.34-.12-.37-.01-.71,.33-.7,.7s.37,.69,.73,.66v.04Z"/>
              <path class="cls-17" d="M180.4,47.32c.03-.16,.06-.33,.09-.49-.12-.05-.24-.08-.37-.08-.13,.21-.05,.52,.17,.64l.12-.07Z"/>
              <path class="cls-17" d="M191.84,58.39c-.07-.96-.37-1.91-.86-2.74-.08-.13-.17-.27-.29-.36-.25-.17-.59-.14-.86-.02-.68,.29-1.09,1.06-1.05,1.79,.05,.74,.51,1.41,1.15,1.79,.35,.2,.77,.33,1.16,.22,.39-.11,.72-.49,.66-.89-.11-.07-.28,.03-.27,.16l.37,.05Z"/>
              <path class="cls-17" d="M173.01,65.01c.38-.25,.63-.69,.66-1.15-.2-.03-.41-.06-.61,0-.2,.05-.39,.21-.41,.41-.03,.28,.23,.49,.47,.65-.08,.02-.15,.03-.23,.05l.12,.04Z"/>
              <path class="cls-17" d="M171.9,61.88c.06-.11,.13-.23,.11-.36-.02-.12-.11-.22-.19-.31-.23-.25-.44-.52-.62-.81-.08,.56-.16,1.12-.24,1.68,0,.04-.01,.09-.04,.13-.08,.13-.29,.09-.43,.16-.21,.1-.21,.39-.16,.61,.4,1.58,1.2-.5,1.55-1.1Z"/>
              <path class="cls-17" d="M174.27,67.82c.33-.09,.62-.34,.75-.66-.27-.08-.54-.17-.81-.25-.13-.04-.26-.08-.39-.05-.25,.06-.38,.4-.26,.63,.12,.23,.41,.35,.66,.31l.05,.03Z"/>
              <path class="cls-17" d="M174.66,84.79c-.05-.08-.1-.16-.15-.24-.16,.02-.3,.15-.31,.31-.01,.16,.13,.31,.29,.3,.16-.01,.28-.2,.2-.34l-.03-.02Z"/>
              <path class="cls-17" d="M175.38,63.45c.22-.07,.33-.36,.24-.58-.08-.22-.31-.36-.55-.38-.1-.01-.23,.02-.26,.12-.02,.07,.02,.14,.06,.2,.16,.24,.31,.48,.47,.73l.04-.08Z"/>
              <path class="cls-17" d="M179.17,64.92c.17-.18,.35-.36,.43-.59,.09-.23,.06-.52-.13-.68-.09-.08-.22-.12-.34-.12-.37-.01-.71,.33-.7,.7s.37,.69,.73,.66v.04Z"/>
              <path class="cls-17" d="M184.1,53.51c-.09-.23-.4-.27-.65-.26-.25,.01-.55,.01-.69-.19-.04-.06-.06-.13-.04-.19,.06-.16,.3-.11,.47-.13,.14-.02,.26-.1,.39-.14,.32-.11,.69,0,.9,.26,.04,.18-.04,.37-.19,.47-.15,.1-.35,.11-.51,.01l.3,.17Z"/>
              <path class="cls-17" d="M180.34,48.62c-.09-.23-.4-.27-.65-.26-.25,.01-.55,.01-.69-.19-.04-.06-.06-.13-.04-.19,.06-.17,.3-.11,.47-.13,.14-.02,.26-.1,.39-.14,.32-.11,.69,0,.9,.26,.04,.18-.04,.37-.19,.47-.15,.1-.35,.11-.51,.01l.3,.17Z"/>
              <path class="cls-17" d="M181.24,44.1c.06-.19,.08-.4,.06-.6,0-.03-.01-.07-.03-.09-.03-.05-.1-.08-.17-.07-.15,0-.3,.11-.35,.26-.05,.15-.02,.32,.08,.44,.05,.07,.12,.13,.21,.14,.08,.01,.18-.04,.2-.12-.02-.02-.06-.02-.07,0l.07,.04Z"/>
              <path class="cls-17" d="M178.65,73.36c.38-.25,.63-.69,.66-1.15-.2-.03-.41-.06-.61,0-.2,.05-.39,.21-.41,.41-.03,.28,.23,.49,.47,.65-.08,.02-.15,.03-.23,.05l.12,.04Z"/>
              <path class="cls-17" d="M174.37,72.8c.22,.18,.63-.02,.62-.3-.12-.09-.26-.16-.41-.15-.15,0-.3,.1-.33,.25s.13,.31,.27,.26l-.14-.05Z"/>
              <path class="cls-17" d="M178.08,66.09c.22,.18,.63-.02,.62-.3-.12-.09-.26-.16-.41-.15s-.3,.1-.33,.25,.13,.31,.27,.26l-.14-.05Z"/>
              <path class="cls-17" d="M176.33,73.54c-.15,.11-.06,.37,.1,.46,.16,.09,.36,.1,.53,.17,.18,.08,.32,.24,.37,.42,.03,.11,.03,.24-.05,.32-.05,.05-.13,.07-.2,.09-.36,.08-.75,.12-1.1,0-.35-.12-.65-.43-.67-.8,0-.26,.13-.52,.35-.65,.22-.13,.51-.14,.74-.01h-.07Z"/>
              <path class="cls-17" d="M181.82,52.41c-.15,.11-.06,.37,.1,.46s.36,.1,.53,.17c.18,.08,.32,.24,.37,.42,.03,.11,.03,.24-.05,.32-.05,.05-.13,.07-.2,.09-.36,.08-.75,.12-1.1,0-.35-.12-.65-.43-.67-.8,0-.26,.13-.52,.35-.65,.22-.13,.51-.14,.74-.01h-.07Z"/>
              <path class="cls-17" d="M184.24,52.65c-.15,.11-.06,.37,.1,.46,.16,.09,.36,.1,.53,.17,.18,.08,.32,.24,.37,.42,.03,.11,.03,.24-.05,.32-.05,.05-.13,.07-.2,.09-.36,.08-.75,.12-1.1,0-.35-.12-.65-.43-.67-.8,0-.26,.13-.52,.35-.65s.51-.14,.74-.01h-.07Z"/>
              <path class="cls-17" d="M183.11,56.22c-.15,.11-.06,.37,.1,.46,.16,.09,.36,.1,.53,.17,.18,.08,.32,.24,.37,.42,.03,.11,.03,.24-.05,.32-.05,.05-.13,.07-.2,.09-.36,.08-.75,.12-1.1,0s-.65-.43-.67-.8c-.01-.26,.13-.52,.35-.65,.22-.13,.51-.14,.74-.01h-.07Z"/>
              <path class="cls-17" d="M160.25,43.31c-.15,.11-.06,.37,.1,.46,.16,.09,.36,.1,.53,.17,.18,.08,.32,.24,.37,.42,.03,.11,.03,.24-.05,.32-.05,.05-.13,.07-.2,.09-.36,.08-.75,.12-1.1,0-.35-.12-.65-.43-.67-.8,0-.26,.13-.52,.35-.65,.22-.13,.51-.14,.74-.01h-.07Z"/>
              <path class="cls-17" d="M174.4,70.17c.04-.09,.07-.19,.11-.28-.14-.07-.29-.15-.44-.11s-.25,.26-.12,.35c.05,.04,.11,.04,.17,.05,.18,.02,.37,.04,.55,.06l-.26-.07Z"/>
              <path class="cls-17" d="M169.71,51c.17-.18,.35-.36,.43-.59s.06-.52-.13-.68c-.09-.08-.22-.12-.34-.12-.37-.01-.71,.33-.7,.7,0,.37,.37,.69,.73,.66v.04Z"/>
              <path class="cls-17" d="M181.61,67.83c-.02,.35-.52,.56-.78,.32-.04-.19-.05-.39,0-.58,.21-.02,.43,.05,.6,.18l.19,.07Z"/>
              <path class="cls-18" d="M171.57,48.47c.08-.12,.16-.24,.18-.38,.02-.14-.02-.3-.14-.37-.2-.11-.45,.07-.68,.06-.23,0-.45-.22-.67-.15-.22,.07-.27,.39-.15,.58,.12,.19,.35,.29,.57,.36,.2,.06,.41,.11,.61,.07,.2-.05,.38-.23,.36-.44l-.07,.27Z"/>
              <path class="cls-17" d="M180.44,57.54c.99,.09,2-.38,2.58-1.18-.42-.89-1.2-1.68-2.17-1.83-.97-.15-2.08,.53-2.15,1.52-.07,.98,1.24,1.82,2,1.19l-.26,.3Z"/>
              <path class="cls-17" d="M183.87,68.17c-.14,0-.24-.15-.23-.28,0-.14,.1-.25,.21-.34,.06-.05,.13-.09,.21-.1,.18-.03,.37,.13,.37,.32,0,.18-.16,.35-.34,.36-.18,0-.36-.15-.39-.33l.17,.37Z"/>
              <path class="cls-17" d="M182.15,63.02c-.16-.19-.47-.12-.7-.03-.23,.09-.51,.19-.71,.05-.06-.04-.1-.1-.1-.17,0-.18,.25-.2,.41-.28,.13-.06,.22-.18,.32-.26,.26-.21,.65-.23,.94-.06,.09,.15,.08,.36-.02,.51s-.3,.22-.47,.18l.34,.07Z"/>
              <path class="cls-17" d="M177,56.97c0-.1,.02-.19,.02-.29-.14-.08-.33-.06-.43,.06-.1,.12-.08,.33,.05,.42,.13,.09,.34,0,.37-.15v-.03Z"/>
              <path class="cls-17" d="M178.94,62.09c-.05,.1-.19,.11-.28,.05-.09-.06-.14-.17-.17-.27-.02-.08-.04-.17-.02-.26,.03-.17,.21-.29,.38-.29,.17,0,.33,.12,.41,.27,.04,.08,.06,.17,.03,.24-.03,.08-.12,.14-.2,.11l-.15,.14Z"/>
              <path class="cls-17" d="M170.76,63.3c.69,.71,1.76,1.02,2.72,.79,.27-.95,.19-2.05-.45-2.81-.64-.75-1.92-.96-2.62-.26-.7,.7-.25,2.19,.73,2.21l-.39,.06Z"/>
              <path class="cls-17" d="M175.63,69.31c.21-.2-.08-.58-.37-.54s-.48,.3-.64,.54c.3,.27,.76,.33,1.11,.15l-.1-.14Z"/>
              <path class="cls-17" d="M185.33,65.29c0-.1,.02-.19,.02-.29-.14-.08-.33-.06-.43,.06-.1,.12-.08,.33,.05,.42s.34,0,.37-.15v-.03Z"/>
              <path class="cls-17" d="M180.25,64c.4-.97,.56-2.03,.49-3.07-.01-.17-.03-.34-.11-.49-.16-.29-.5-.42-.83-.44-.8-.04-1.57,.5-1.88,1.23-.31,.74-.19,1.62,.25,2.29,.24,.37,.59,.69,1.02,.78,.43,.09,.93-.13,1.08-.54-.07-.12-.28-.11-.34,.02l.33,.23Z"/>
              <path class="cls-17" d="M164.66,56.59c.84-.52,1.38-1.5,1.36-2.49-.87-.46-1.97-.63-2.84-.16-.87,.46-1.35,1.67-.81,2.5s2.09,.71,2.32-.24l-.03,.4Z"/>
              <path class="cls-17" d="M179.61,45.42c.38-.25,.63-.69,.66-1.15-.2-.03-.41-.06-.61,0-.2,.05-.39,.21-.41,.41-.03,.28,.23,.49,.47,.65-.08,.02-.15,.03-.23,.05l.12,.04Z"/>
              <path class="cls-17" d="M178.5,42.29c.06-.11,.13-.23,.11-.36-.02-.12-.11-.22-.19-.31-.23-.25-.44-.52-.62-.81-.08,.56-.16,1.12-.24,1.68,0,.04-.01,.09-.04,.13-.08,.13-.29,.09-.43,.16-.21,.1-.21,.39-.16,.61,.4,1.58,1.2-.5,1.55-1.1Z"/>
              <path class="cls-17" d="M182.56,61.97c.03-.16,.06-.33,.09-.49-.33-.04-.71,.09-.84,.4-.13,.3,.14,.73,.46,.66,.2-.05,.49-.2,.54,0l-.26-.57Z"/>
              <path class="cls-17" d="M175.73,49.43c0,.14-.05,.28-.13,.39-.25-.25-.23-.66-.18-1.02,.03-.2,.11-.43,.3-.47,.14-.03,.27,.05,.41,.08,.27,.04,.63-.14,.79,.08,.09,.13,.05,.32-.07,.43-.11,.11-.27,.16-.42,.21-.33,.1-.65,.21-.98,.31h.27Z"/>
              <path class="cls-17" d="M170.31,49.23c.21-.2-.08-.58-.37-.54-.29,.04-.48,.3-.64,.54,.3,.27,.76,.33,1.11,.15l-.1-.14Z"/>
              <path class="cls-18" d="M173.69,44.07c-.11,.08-.28,.02-.35-.09-.07-.11-.07-.26-.04-.39,.02-.08,.05-.15,.11-.21,.13-.13,.37-.11,.49,.03,.11,.14,.08,.38-.06,.49s-.37,.1-.5-.03l.36,.2Z"/>
              <path class="cls-17" d="M175.33,44.86c.22,.18,.63-.02,.62-.3-.12-.09-.26-.16-.41-.15s-.3,.1-.33,.25,.13,.31,.27,.26l-.14-.05Z"/>
              <path class="cls-17" d="M180.87,48.23c.33-.09,.62-.34,.75-.66-.27-.08-.54-.17-.81-.25-.13-.04-.26-.08-.39-.05-.25,.06-.38,.4-.26,.63,.12,.23,.41,.35,.66,.31l.05,.03Z"/>
              <path class="cls-18" d="M169.97,45.67c-.17,.11-.4,.11-.57,0-.17-.11-.26-.32-.23-.52,.02-.14,.15-.28,.28-.23,.05,.02,.09,.07,.13,.11,.16,.2,.32,.4,.47,.59-.04,.02-.08,.04-.12,.07l.03-.02Z"/>
              <path class="cls-18" d="M166.56,43.66c-.09-.23-.4-.27-.65-.26-.25,.01-.55,.01-.69-.19-.04-.06-.06-.13-.04-.19,.06-.16,.3-.11,.47-.13,.14-.02,.26-.1,.39-.14,.32-.11,.69,0,.9,.26,.04,.18-.04,.37-.19,.47-.15,.1-.35,.11-.51,.01l.3,.17Z"/>
              <path class="cls-18" d="M186.48,54.45c-.09-.23-.4-.27-.65-.26-.25,.01-.55,.01-.69-.19-.04-.06-.06-.13-.04-.19,.06-.16,.3-.11,.47-.13,.14-.02,.26-.1,.39-.14,.32-.11,.69,0,.9,.26,.04,.18-.04,.37-.19,.47-.15,.1-.35,.11-.51,.01l.3,.17Z"/>
              <path class="cls-18" d="M167.87,41.54c.04-.09,.08-.18,.12-.26-.1-.12-.29-.17-.43-.09-.14,.08-.19,.28-.09,.41,.1,.12,.32,.12,.4-.02v-.03Z"/>
              <path class="cls-17" d="M177.29,45.6c-.15,.11-.06,.37,.1,.46,.16,.09,.36,.1,.53,.17,.18,.08,.32,.24,.37,.42,.03,.11,.03,.24-.05,.32-.05,.05-.13,.07-.2,.09-.36,.08-.75,.12-1.1,0-.35-.12-.65-.43-.67-.8,0-.26,.13-.52,.35-.65,.22-.13,.51-.14,.74-.01h-.07Z"/>
              <path class="cls-17" d="M181.98,43.85c.22-.07,.33-.36,.24-.58-.08-.22-.31-.36-.55-.38-.1-.01-.23,.02-.26,.12-.02,.07,.02,.14,.06,.2,.16,.24,.31,.48,.47,.73l.04-.08Z"/>
              <path class="cls-17" d="M172.52,52.64c-.47,.1-.96-.38-.87-.85,.37-.02,.76-.04,1.08,.14,.32,.18,.5,.65,.26,.93-.21,.03-.43,.07-.64,.1l.16-.33Z"/>
              <path class="cls-18" d="M175.36,42.22c.04-.09,.07-.19,.11-.28-.14-.07-.29-.15-.44-.11s-.25,.26-.12,.35c.05,.04,.11,.04,.17,.05,.18,.02,.37,.04,.55,.06l-.26-.07Z"/>
              <path class="cls-17" d="M179.36,68.35c.17-.18,.35-.36,.43-.59s.06-.52-.13-.68c-.09-.08-.22-.12-.34-.12-.37-.01-.71,.33-.7,.7,0,.37,.37,.69,.73,.66v.04Z"/>
              <path class="cls-17" d="M168.76,58.32c.03-.16,.06-.33,.09-.49-.12-.05-.24-.08-.37-.08-.13,.21-.05,.52,.17,.64l.12-.07Z"/>
              <path class="cls-17" d="M177.76,81.22c-.11,.08-.28,.02-.35-.09-.07-.11-.07-.26-.04-.39,.02-.08,.05-.15,.11-.21,.13-.13,.37-.11,.49,.03,.11,.14,.08,.38-.06,.49s-.37,.1-.5-.03l.36,.2Z"/>
              <path class="cls-17" d="M171.8,55.51l.09-.49c-.12-.05-.24-.08-.37-.08-.13,.21-.05,.52,.16,.64l.12-.07Z"/>
              <path class="cls-17" d="M185.37,57.55c.18-.06,.17-.33,.04-.47s-.32-.2-.46-.32c-.15-.13-.23-.32-.23-.51,0-.11,.04-.24,.14-.29,.07-.04,.15-.03,.22-.03,.37,.03,.75,.1,1.05,.32,.3,.22,.5,.61,.4,.96-.07,.25-.27,.45-.52,.52-.25,.06-.53-.02-.71-.2l.07,.02Z"/>
              <path class="cls-17" d="M177.74,63.96c-.11,.09-.22,.18-.28,.31-.06,.13-.07,.29,.03,.4,.16,.17,.45,.06,.67,.14,.22,.08,.36,.34,.6,.34,.23,0,.37-.29,.31-.51-.06-.22-.25-.38-.44-.51-.17-.12-.35-.23-.56-.24-.21-.01-.43,.11-.47,.31l.15-.24Z"/>
              <path class="cls-17" d="M179.69,53.34c-.07,.85,.06,1.71,.38,2.51,.05,.13,.11,.26,.21,.35,.19,.18,.49,.2,.75,.14,.63-.16,1.1-.77,1.16-1.42,.06-.65-.25-1.3-.76-1.71-.28-.23-.63-.39-.98-.35-.36,.04-.69,.33-.7,.69,.09,.08,.25,.01,.26-.1l-.31-.1Z"/>
              <path class="cls-17" d="M185.38,55.75c.13,0,.27,0,.37-.08,.1-.08,.14-.2,.18-.32,.1-.32,.24-.64,.4-.94-.53,.21-1.05,.42-1.58,.63-.04,.02-.09,.03-.13,.03-.16,0-.22-.2-.35-.29-.19-.13-.45,0-.61,.17-1.18,1.14,1.03,.79,1.73,.8Z"/>
              <path class="cls-17" d="M179.89,53.29c.05-.08,.09-.17,.14-.25-.09-.13-.28-.19-.42-.12-.14,.07-.21,.27-.12,.4,.09,.13,.32,.14,.4,0v-.03Z"/>
              <path class="cls-17" d="M184.49,53.2c.17,.15,.47,.1,.62-.08s.15-.45,.06-.66c-.04-.09-.13-.19-.23-.17-.07,.02-.11,.09-.14,.15l-.4,.77h.09Z"/>
              <path class="cls-17" d="M181.47,52.54c.41,.21,.92,.21,1.33,0-.08-.19-.16-.39-.3-.53-.15-.15-.37-.23-.56-.15-.26,.11-.31,.45-.33,.73-.05-.06-.1-.12-.15-.17l.02,.13Z"/>
              <path class="cls-17" d="M179.91,51.16c-.12,.07-.26,.1-.4,.08,.09-.35,.46-.53,.79-.66,.19-.07,.43-.12,.56,.03,.09,.1,.09,.26,.14,.39,.1,.26,.43,.47,.32,.73-.06,.14-.25,.2-.4,.16-.15-.04-.27-.15-.39-.26-.25-.23-.51-.46-.76-.69l.14,.23Z"/>
              <path class="cls-17" d="M183.51,55.02c.24,.25,.61,.37,.95,.32-.06-.28-.12-.55-.18-.83-.03-.13-.06-.27-.15-.37-.18-.19-.53-.13-.68,.08-.15,.22-.1,.53,.06,.73v.06Z"/>
              <path class="cls-17" d="M184.01,50.61c-.17-.08-.35,.13-.35,.32,0,.19,.1,.36,.12,.55,.02,.19-.05,.39-.18,.53-.08,.08-.19,.14-.3,.12-.07-.02-.13-.08-.18-.13-.25-.27-.48-.59-.55-.95-.07-.36,.05-.78,.36-.98,.22-.14,.51-.14,.74-.02,.23,.12,.38,.38,.38,.63l-.03-.06Z"/>
              <path class="cls-17" d="M175.8,59.52c.24,.06,.49,.12,.73,.08,.24-.04,.48-.21,.53-.45,.02-.12,0-.25-.06-.35-.17-.33-.64-.46-.95-.27s-.42,.66-.21,.97l-.03,.02Z"/>
              <path class="cls-17" d="M180.89,61.57c.41,.21,.92,.21,1.33,0-.08-.19-.16-.39-.3-.53-.15-.15-.37-.23-.56-.15-.26,.11-.31,.45-.33,.73-.05-.06-.1-.12-.15-.17l.02,.13Z"/>
              <path class="cls-17" d="M179.57,50.35c-.08-.24-.38-.3-.63-.31-.25,0-.55-.02-.67-.24-.04-.06-.05-.13-.02-.2,.07-.16,.31-.09,.48-.1,.14,0,.27-.08,.4-.11,.32-.09,.69,.05,.88,.32,.02,.18-.07,.36-.22,.46-.15,.09-.36,.08-.51-.02l.28,.19Z"/>
              <path class="cls-17" d="M172.51,68.23c-.01-.09-.03-.19-.04-.28-.15-.05-.33,.02-.41,.16-.07,.14,0,.34,.14,.39,.15,.05,.34-.08,.32-.23l-.02-.03Z"/>
              <path class="cls-17" d="M181.54,56.29c.1-.02,.2-.03,.3-.05,0-.15-.02-.32-.12-.44-.11-.11-.35-.09-.37,.07,0,.06,.02,.11,.04,.17l.23,.51-.07-.26Z"/>
            </g>
          </g>
          <ellipse class="cls-54" cx="96.71" cy="202.64" rx="40.78" ry="9.08"/>
          <g>
            <path class="cls-4" d="M93.3,165.21c-.35,4.37-7.28,18.36-12.7,22.16t0,.02c-1.05,.73-2.04,1.08-2.91,.91-3.9-.75-5.78-19.43-5.96-29.95-.07-4.06,.12-6.9,.54-7.02,3.54-.94,21.45,8.68,21.04,13.88Z"/>
            <path class="cls-8" d="M56.14,138.25l-.05,.05c-12.95,14.95-23.91,39.37-23.91,39.37L0,166.95l7.07-3.62,49.07-25.08Z"/>
            <path class="cls-2" d="M93.3,166.63s-4.79,2.6-12.27-1.15c-5.85-2.93-9.75-12.47-8.76-14.16,.99-1.69,23.74,8.53,21.03,15.31Z"/>
            <path class="cls-61" d="M93.3,165.21c-.35,4.37-7.28,18.36-12.7,22.16,4.07-4.68,4.21-14.23,1.62-18.6-1.95-3.31-7.77-8.24-10.49-10.43-.07-4.06,.12-6.9,.54-7.02,3.54-.94,21.45,8.68,21.04,13.88Z"/>
            <path class="cls-64" d="M78.2,125.39s-20.57,11.67-25.41,11.2c-4.84-.47-2.69-11.47-2.69-11.47,.64-.76,1.36-1.54,2.13-2.35h0c7.73-8.17,20.93-18.57,28.51-23.53h0c3.19-2.09,5.39-3.21,5.76-2.79,2.81,3.12-8.33,28.94-8.33,28.94Z"/>
            <path class="cls-3" d="M50.11,125.12s2.69-2.26,6.02,.78c3.33,3.04-.1,10.33-3.33,10.69-3.23,.36-5.16-6.74-2.69-11.47Z"/>
            <path class="cls-57" d="M78.2,125.39s-20.57,11.67-25.41,11.2c-4.84-.47-2.69-11.47-2.69-11.47,.64-.76,1.36-1.54,2.13-2.35h0s5.03,2.96,14.29,1.54c9.27-1.42,14.22-25.07,14.22-25.07h0c3.19-2.09,5.39-3.21,5.76-2.79,2.81,3.12-8.33,28.94-8.33,28.94Z"/>
            <path class="cls-9" d="M63.88,22.89s-6.94,7.33-7.71,20.87,14.91-6.02,14.91-6.02l-7.2-14.85Z"/>
            <path class="cls-63" d="M59.39,37.74s3.15-16.68,8.32-20.22c5.18-3.54,14.5-.34,14.5-.34l-22.83,20.56Z"/>
            <path class="cls-29" d="M139.33,76.75c-11.76,18.48-69.97,21.42-79.97,12.18-3.98-3.68-6.53-8.52-7.79-13.99v-.02c-5.37-23.4,12.81-58.18,42.98-61.58,20.44-2.3,37.53,14.61,44.66,32.65,4.47,11.28,5.05,23,.12,30.75Z"/>
            <path class="cls-46" d="M127.92,85.64c-7.17,3.15-18,6.13-25.28,7.1-13.52,1.8-23.46,1.58-29.2,.13h0c-3.78-.96-5.73-2.43-5.71-4.22,0-1.09,2.54-2.38,6.61-3.71,11.98-3.87,37.29-7.94,51.25-7.7,1.2,.02,2.32,.07,3.34,.16,.22,.02,.43,.04,.63,.07,.04,0,.07,0,.12,0,2.44,.26,4.21,.75,5.07,1.52,.22,.19,.38,.4,.48,.62,.75,1.7-2.43,3.9-7.3,6.03Z"/>
            <path class="cls-58" d="M139.33,76.75c-11.76,18.48-69.97,21.42-79.97,12.18-3.98-3.68-6.53-8.52-7.79-13.99v-.02s4.86,7.01,16.74,6.87c11.87-.14,45.73-6.41,51.97-12.46,6.23-6.04,.44-29.1,.44-29.1l18.5,5.76c4.47,11.28,5.05,23,.12,30.75Z"/>
            <path class="cls-53" d="M127.92,85.64c-6.17-1.76-24.06-6.04-37.29-1.15-16.22,5.98-17.2,8.38-17.2,8.38h0c-3.78-.96-5.73-2.43-5.71-4.22,0-1.09,2.54-2.38,6.61-3.71,11.98-3.87,37.29-7.94,51.25-7.7,1.47,.07,2.79,.14,3.97,.23,.04,0,.07,0,.12,0,2.44,.26,4.21,.75,5.07,1.52,.22,.19,.38,.4,.48,.62,.75,1.7-2.43,3.9-7.3,6.03Z"/>
            <path class="cls-7" d="M128.92,77.4c-2.79,3.48-17.75,8.17-26.49,9.34-15.66,2.07-25.5,.88-28.1-1.8,13-4.19,41.75-8.64,54.59-7.53Z"/>
            <path class="cls-21" d="M51.57,76.04c3.4,6.81,53.4,2.77,64.43-11.39,11.04-14.16-6.46-54.15-32.22-46.86-24.56,6.95-38.38,45.91-32.22,58.24Z"/>
            <path class="cls-65" d="M51.57,74.93c3.4,6.81,53.4,2.77,64.43-11.39,11.04-14.16-6.46-54.15-32.22-46.86-24.56,6.95-38.38,45.91-32.22,58.24Z"/>
            <path class="cls-28" d="M122.46,143.93c-3.52,16.04-12.7,22.93-29.16,22.7-16.12-.22-26.03-17.7-20.83-38.22,3.32-13.1,7.18-24.72,14.05-31.95h0s0-.02,0-.02c3.88-4.09,8.73-6.76,14.99-7.5,4.94-.59,9.03,2.07,12.3,6.58,8.5,11.75,11.34,36.05,8.64,48.41Z"/>
            <path class="cls-1" d="M118.5,20.23s-2.71,24.64,12.5,33.35c0,0,7.46,.8,11.8-3.73,0,0-6.76,6.35-13.88-.26s-5.41-24.84,0-30.77c5.41-5.94,13.22-4.37,13.22-4.37l-3.12-2.81s-11.51-2.34-20.51,8.59Z"/>
            <path class="cls-60" d="M113.81,113.81s1.72,12.51,1.72,20.86c0,9.9-6.08,18.59-6.08,18.59l12.34-6.63s2.3-6.47,1.72-13.09c-.58-6.62-1.12-9.65-1.12-9.65l-8.58-10.08Z"/>
            <path class="cls-36" d="M139.01,11.64s-8.46-.78-14.37,9.04c-6.28,10.42-1.71,28.44,5.91,31.18s15.33-26.42,15.33-26.42l-4.43-11.6s-.88-1.63-2.44-2.2Z"/>
            <path class="cls-33" d="M149.94,36.47c-1.09,5.63-3.38,10.23-6.45,13.14l-.02,.02-.86,.76h0c-2.48,2.01-5.42,2.96-8.59,2.56-10.3-1.31-11.68-16.22-10.47-24.67,1.41-9.76,9.76-15.62,16.4-14.76,7.91,1.02,12.13,11.95,9.99,22.97Z"/>
            <path class="cls-40" d="M71.64,131.07s3.75-12.12,15.34-12.12c13.89,0,23.25,15.35,22.42,25.77-.83,10.41-4.02,20.17-17.14,20.58,0,0-24.57-.55-20.62-34.22Z"/>
            <path class="cls-6" d="M71.64,132.41s3.75-12.12,15.34-12.12c13.89,0,23.25,15.35,22.42,25.77-.83,10.41-4.02,20.17-17.14,20.58,0,0-24.57-.55-20.62-34.22Z"/>
            <path class="cls-47" d="M120.37,127.27c-.6,0-1.24-.5-1.9-1.37-2.91-3.87-5.97-15.06-5.94-21.28,.02-2.41,.49-4.07,1.63-4.27,1.85-.32,5.62,5.94,7.45,14.73,1.06,5.12,1.32,12.18-1.25,12.18Z"/>
            <path class="cls-22" d="M118.48,125.9c-2.91-3.87-5.97-15.06-5.94-21.28,1.82,2.36,3.96,7.16,5.2,13.14,.54,2.6,.87,5.71,.73,8.14Z"/>
            <path class="cls-31" d="M147.87,150.38c-1.88,6.04-8.96,6.67-11.03,5.21-1.81-1.27-6.79-7.12-11.56-17.84,0,0,0-.02-.02-.02-.7-1.57-1.39-3.26-2.08-5.05-5.32-13.96-9.32-39.66-3.82-38.66,0,0,0,0,.02,0,15.96,2.92,30.34,50.32,28.47,56.35Z"/>
            <path class="cls-30" d="M121.99,192.91c-1.09,.53-2.6-.02-4.33-1.29-1.88-1.39-4.01-3.64-6.13-6.25,0,0-.02-.02-.02-.02l-.02-.02c-5.9-7.27-11.66-17.35-11.37-19.61,1.01-7.81,11.63-14.6,17.94-17.59,2.46-1.17,4.27-1.76,4.58-1.61,1.13,.54,4.97,43.67-.65,46.4Z"/>
            <path class="cls-39" d="M133.35,151.84s.09-5.56,5.01-7.52c4.92-1.95,9.66,4.61,9.66,4.61,0,0,.05,6.25-6.62,6.35-6.66,.1-8.05-3.44-8.05-3.44Z"/>
            <path class="cls-25" d="M55.29,132.06s-4.06,6.4-8.43,9.53c-4.37,3.12-12.96,4.47-12.96,4.47,0,0-6.09-2.81-6.09-7,0,0,6.56-3.33,9.06-8.6,0,0,8.52-3.04,12.23-2.05,3.7,.99,6.2,3.65,6.2,3.65Z"/>
            <path class="cls-5" d="M56.14,138.25l-.05,.05c-1,1.08-17.13,18.56-24.7,37.19L0,166.95s4.28-9.1,12.73-19.88c.02-.02,.02-.02,.02-.03h0c4.85-6.19,11.06-12.93,18.63-18.81,0,0,12.56,1.91,24.75,10.03Z"/>
            <polygon class="cls-41" points="43.06 130.06 50.02 134.66 41.18 130.86 43.06 130.06"/>
            <path class="cls-42" d="M50.02,68.39s-6.75,2.97-12.38,9.73c-5.62,6.77-6.09,13.8,2.03,11.61l3.39-2.98s-4.79,1.64-5.1-3.5c-.31-5.14,12.06-13.92,12.06-13.92v-.95Z"/>
            <path class="cls-66" d="M37.43,85.91c-1.99,2.99,3.27,4.35,7.45,4.23,4.68-.13,12.77-2.2,11.63-6.78-1.13-4.58-14.41-4.45-19.08,2.55Z"/>
            <path class="cls-43" d="M37.81,86.36c-.04,.78,16.46-1.3,16.45-4.26s-16.17-1.77-16.45,4.26Z"/>
            <path class="cls-35" d="M57.49,58.84c1.18,3.85,9.13,2.8,11.23-3.22,2.11-6.03-.15-13.68-4.21-13.99-4.06-.31-9.36,9.6-7.02,17.22Z"/>
            <path class="cls-34" d="M89.65,45.92c-.26,.55,5.68-5.13,17.29-3.02,1.15,.21-12.18-7.81-17.29,3.02Z"/>
            <path class="cls-23" d="M77.99,66.99s11.14-2.92,16.04-11.77c0,0-1.87,11.97-16.04,11.77Z"/>
            <path class="cls-12" d="M59.39,42.25c1.44,1.47,9.78-5.14,20.19-6.08,10.41-.94,23.51,6.93,31.63,4.07,6.45-2.27-6.91-24.45-24.23-23.33s-29.02,23.88-27.59,25.34Z"/>
            <path class="cls-14" d="M62.58,75.05s10.08-4.87,23.48-5.93c13.4-1.07,15.79-.08,15.79,1.2s-9.06,5.65-21.35,6.7-17.92-1.96-17.92-1.96Z"/>
            <path class="cls-13" d="M51.56,72.95s-3.13-8.99,2.7-23.68c0,0,1.4-2.4,2.36-1.82,.96,.58-5.56,11.68-5.06,25.5Z"/>
            <path class="cls-16" d="M125.22,40.17s1.09,9.15,7.81,11.12c6.72,1.98,12.18-2.88,13.9-9.74,0,0-2.11,5.92-10.86,4.4-8.75-1.51-10.86-5.78-10.86-5.78Z"/>
            <path class="cls-15" d="M126.46,22.89c.08,1.7,12.41-1.84,16.33-1.31,3.92,.52,5.59,5.33,6.21,5.22s-1.04-11.36-8.33-12.19c-7.29-.83-14.27,7.11-14.22,8.29Z"/>
            <path class="cls-50" d="M113.82,95.52s-16.98,6.4-23.49,5.66c-6.32-.71-3.95-4.5-3.81-4.72h0s0-.02,0-.02c3.88-4.09,8.73-6.76,14.99-7.5,4.94-.59,9.03,2.07,12.3,6.58Z"/>
            <path class="cls-55" d="M147.87,150.38c-1.88,6.04-8.96,6.67-11.03,5.21-1.81-1.27-6.79-7.12-11.56-17.84,.47,.91,3.97,7.43,7.1,7.43,3.37,0,9.87-9.37,3.3-29.01-6.36-19.03-15.7-21.98-16.28-22.14,15.96,2.92,30.34,50.32,28.47,56.35Z"/>
            <path class="cls-26" d="M139.3,147.17c2.79-.75,7.19,1.49,8.73,3.74,1.53,2.26,5.36,11.77,3.17,24.05,0,0-4.17,5.52-8.85,4.31-3.56-.92-4.41-11.51-5.37-19.03-.96-7.52-2.28-11.83,2.32-13.07Z"/>
            <path class="cls-37" d="M143.03,179.59s1.72-24.63-8.3-28.6c0,0-.05,4,1.95,13.25,2,9.25,4.04,14.78,6.34,15.35Z"/>
            <path class="cls-51" d="M142.35,166.09s-2.08,3.82-3.69,4.58c-1.61,.75-2.98,.27-2.98,.27l5.06-11.62s1.56,4.25,1.62,6.77Z"/>
            <path class="cls-27" d="M140.73,159.32s-2.04-6.57-6.25-7.79c0,0-3.38,4.09-.96,18.42,0,0,2.38,2.56,5.06-.52,0,0,1.98-5.17,2.15-10.11Z"/>
            <path class="cls-17" d="M138.17,157.2c1.38-.14-.1,6.16-.83,6.09-.73-.07-.32-5.97,.83-6.09Z"/>
            <path class="cls-10" d="M73.25,131.44c1.75,3.33,8.26-.94,16.39,0,8.13,.94,12.5,5.24,14.85,4.06,2.34-1.18-5.02-13.34-17.51-13.82-9.98-.39-14.32,8.63-13.73,9.76Z"/>
            <path class="cls-11" d="M82.22,161.56s3.41,3.45,9.05,3.65c5.65,.2,7.52-2.53,7.52-2.53,0,0-2.5-1.09-6.48-.31-3.98,.78-7.61,.26-10.09-.81Z"/>
            <path class="cls-56" d="M121.99,192.91c-1.09,.53-2.6-.02-4.33-1.29l-6.13-6.25c.59,.54,7.44,6.49,8.74-5.92,1.36-12.98-2.8-30.5-2.8-30.5l.59-.82c2.46-1.17,4.27-1.76,4.58-1.61,1.13,.54,4.97,43.67-.65,46.4Z"/>
            <path class="cls-17" d="M122.39,116.49c-2.42,1.42,2.57,11.48,3.74,11.73,1.17,.25-2.09-12.7-3.74-11.73Z"/>
            <path class="cls-17" d="M126.84,129.88c-.51,.06,.05,2.4,.43,2.72,.38,.32,1.17,.38,1.39,.16,.22-.22-1.24-2.94-1.82-2.88Z"/>
            <path class="cls-17" d="M102.91,105.45c-.99,.03-2.71,9.63-1.92,9.94,.79,.32,1.86-1.72,2.64-4.86,.78-3.15,.22-5.11-.73-5.08Z"/>
            <path class="cls-17" d="M59.59,117.38c.22,.7,5.06-1.48,5.08-3.57,.01-2.09-5.39,2.56-5.08,3.57Z"/>
            <path class="cls-17" d="M106.83,165.31c-2.15,.48,.96,5.73,1.45,5.92,.49,.2,.89-2.01,.51-3.59-.33-1.41-1.21-2.5-1.96-2.33Z"/>
            <path class="cls-17" d="M77.36,169.44c-1.19-.27-.88,3.11-.68,3.33,.2,.22,.93-.8,1.11-1.69,.17-.79-.01-1.55-.43-1.64Z"/>
            <path class="cls-17" d="M108.78,171.85c-.41,.32,.56,1.95,.91,1.61,.35-.35,.26-1.19,.04-1.47s-.76-.29-.95-.14Z"/>
            <path class="cls-24" d="M33.54,126.97s1.13,14.67-1.58,23.31c0,0-21.39,8.03-31.36,16.35l32.51-16.04s2.22-14.66,.43-23.62Z"/>
            <path class="cls-49" d="M26.65,132.16s2.45,4.17,9.58,4.12c7.13-.05,9.17-3.6,9.17-3.6l-4.22-1.82-11.09-1.66s-3.22,2.76-3.44,2.96Z"/>
            <path class="cls-48" d="M25.77,149.48c.03,2.56,3.92,6.37,7.73,5.31,4.76-1.33,5.14-8.15,2.37-9.31-2.77-1.16-3.52,.56-4.98,.64s-5.16,.23-5.12,3.36Z"/>
            <path class="cls-45" d="M25.77,148.54c.03,2.56,3.92,6.37,7.73,5.31,4.76-1.33,5.14-8.15,2.37-9.31-2.77-1.16-3.52,.56-4.98,.64s-5.16,.23-5.12,3.36Z"/>
            <path class="cls-32" d="M52.75,126.57s-4.38-4.6-8.05-4.88c-3.67-.28-12.99,3.74-15.81,9,0,0,.42,1.26,3.62,2.01,3.2,.75,10.54-2.64,10.54-2.64l12.23,2.07s0-2.73-2.54-5.57Z"/>
            <path class="cls-38" d="M43.06,130.06s5.9-1.79,6.57-6.18l.94,.71s-.84,4.56-7.51,5.47Z"/>
            <path class="cls-17" d="M32.64,128.22c.06,.92,6.56-2.09,6.56-3.18s-6.66,1.63-6.56,3.18Z"/>
            <path class="cls-52" d="M32.02,152.36c-.44-.03-.84-.1-1.2-.21-1.41-.39-2.32-1.29-3.25-2.28-1.17-1.24-1.49-2.24-.5-3.06,1.52-1.27,5.23-1.51,6.48-1.71,.88-.13,1.43,.27,1.87,1.35,.18,.45,.35,1.01,.51,1.7,.54,2.34-1.76,4.37-3.91,4.21Z"/>
            <path class="cls-44" d="M32.02,152.36c-.44-.03-.84-.1-1.2-.21-.35-.3-.67-.63-1-.98-1.18-1.25-1.5-2.24-.51-3.07,1.39-1.15,4.62-1.46,6.11-1.65,.18,.45,.35,1.01,.51,1.7,.54,2.34-1.76,4.37-3.91,4.21Z"/>
            <path class="cls-59" d="M56.09,138.3c-12.95,14.95-23.91,39.37-23.91,39.37L0,166.95s4.28-9.1,12.73-19.88c-.49,.78-7.87,12.44-9.6,15.77l3.95,.49,26.27,3.31s13.45-19.55,22.74-28.34Z"/>
          </g>
        </g>
      </g>
    </g>
  </g>
</svg>