<?xml version="1.0" encoding="UTF-8"?>
<svg xmlns="http://www.w3.org/2000/svg" xmlns:xlink="http://www.w3.org/1999/xlink" viewBox="0 0 205.1 222.35">
  <defs>
    <style>
      .cls-1 {
        fill: url(#_ÂÁ_Ï_ÌÌ_È_ËÂÌÚ_46-11);
      }

      .cls-2 {
        fill: url(#_ÂÁ_Ï_ÌÌ_È_ËÂÌÚ_46-10);
      }

      .cls-3 {
        fill: url(#_ÂÁ_Ï_ÌÌ_È_ËÂÌÚ_264-2);
      }

      .cls-4 {
        fill: url(#_ÂÁ_Ï_ÌÌ_È_ËÂÌÚ_28-11);
      }

      .cls-5 {
        fill: url(#_ÂÁ_Ï_ÌÌ_È_ËÂÌÚ_28-10);
      }

      .cls-6 {
        fill: url(#_ÂÁ_Ï_ÌÌ_È_ËÂÌÚ_36);
      }

      .cls-7 {
        fill: url(#_ÂÁ_Ï_ÌÌ_È_ËÂÌÚ_28);
      }

      .cls-8 {
        fill: url(#_ÂÁ_Ï_ÌÌ_È_ËÂÌÚ_46);
      }

      .cls-9 {
        fill: url(#_ÂÁ_Ï_ÌÌ_È_ËÂÌÚ_65);
      }

      .cls-10 {
        fill: url(#_ÂÁ_Ï_ÌÌ_È_ËÂÌÚ_91);
      }

      .cls-11 {
        fill: url(#_ÂÁ_Ï_ÌÌ_È_ËÂÌÚ_73);
      }

      .cls-12 {
        fill: url(#_ÂÁ_Ï_ÌÌ_È_ËÂÌÚ_14);
      }

      .cls-13 {
        fill: url(#_ÂÁ_Ï_ÌÌ_È_ËÂÌÚ_17);
      }

      .cls-14 {
        fill: url(#_ÂÁ_Ï_ÌÌ_È_ËÂÌÚ_134-2);
      }

      .cls-14, .cls-15, .cls-16, .cls-17, .cls-18, .cls-19, .cls-20 {
        mix-blend-mode: screen;
      }

      .cls-14, .cls-15, .cls-19, .cls-20 {
        opacity: .72;
      }

      .cls-15 {
        fill: url(#_ÂÁ_Ï_ÌÌ_È_ËÂÌÚ_143-2);
      }

      .cls-21, .cls-22 {
        fill: #fff;
      }

      .cls-23, .cls-24 {
        fill: #e5f6ff;
      }

      .cls-25 {
        fill: #dfe3fb;
      }

      .cls-26 {
        fill: #2f95cd;
      }

      .cls-27 {
        fill: url(#_ÂÁ_Ï_ÌÌ_È_ËÂÌÚ_46-6);
      }

      .cls-28 {
        fill: url(#_ÂÁ_Ï_ÌÌ_È_ËÂÌÚ_46-7);
      }

      .cls-29 {
        fill: url(#_ÂÁ_Ï_ÌÌ_È_ËÂÌÚ_46-8);
      }

      .cls-30 {
        fill: url(#_ÂÁ_Ï_ÌÌ_È_ËÂÌÚ_46-3);
      }

      .cls-31 {
        fill: url(#_ÂÁ_Ï_ÌÌ_È_ËÂÌÚ_46-2);
      }

      .cls-32 {
        fill: url(#_ÂÁ_Ï_ÌÌ_È_ËÂÌÚ_46-5);
      }

      .cls-33 {
        fill: url(#_ÂÁ_Ï_ÌÌ_È_ËÂÌÚ_46-4);
      }

      .cls-34 {
        fill: url(#_ÂÁ_Ï_ÌÌ_È_ËÂÌÚ_46-9);
      }

      .cls-35 {
        fill: url(#_ÂÁ_Ï_ÌÌ_È_ËÂÌÚ_17-2);
      }

      .cls-36 {
        fill: url(#_ÂÁ_Ï_ÌÌ_È_ËÂÌÚ_17-4);
      }

      .cls-37 {
        fill: url(#_ÂÁ_Ï_ÌÌ_È_ËÂÌÚ_17-3);
      }

      .cls-38 {
        fill: url(#_ÂÁ_Ï_ÌÌ_È_ËÂÌÚ_28-2);
      }

      .cls-39 {
        fill: url(#_ÂÁ_Ï_ÌÌ_È_ËÂÌÚ_28-7);
      }

      .cls-40 {
        fill: url(#_ÂÁ_Ï_ÌÌ_È_ËÂÌÚ_28-8);
      }

      .cls-41 {
        fill: url(#_ÂÁ_Ï_ÌÌ_È_ËÂÌÚ_28-9);
      }

      .cls-42 {
        fill: url(#_ÂÁ_Ï_ÌÌ_È_ËÂÌÚ_28-4);
      }

      .cls-43 {
        fill: url(#_ÂÁ_Ï_ÌÌ_È_ËÂÌÚ_28-3);
      }

      .cls-44 {
        fill: url(#_ÂÁ_Ï_ÌÌ_È_ËÂÌÚ_28-5);
      }

      .cls-45 {
        fill: url(#_ÂÁ_Ï_ÌÌ_È_ËÂÌÚ_28-6);
      }

      .cls-46 {
        fill: url(#_ÂÁ_Ï_ÌÌ_È_ËÂÌÚ_65-2);
      }

      .cls-47 {
        fill: url(#_ÂÁ_Ï_ÌÌ_È_ËÂÌÚ_36-2);
      }

      .cls-16 {
        fill: url(#_ÂÁ_Ï_ÌÌ_È_ËÂÌÚ_54);
      }

      .cls-16, .cls-17, .cls-48, .cls-49, .cls-50, .cls-51, .cls-22, .cls-24, .cls-52, .cls-53 {
        opacity: .5;
      }

      .cls-17 {
        fill: url(#_ÂÁ_Ï_ÌÌ_È_ËÂÌÚ_54-2);
      }

      .cls-54 {
        fill: url(#_ÂÁ_Ï_ÌÌ_È_ËÂÌÚ_153-5);
      }

      .cls-54, .cls-55, .cls-56, .cls-57, .cls-58, .cls-59, .cls-60, .cls-48, .cls-49, .cls-50, .cls-51, .cls-52, .cls-53, .cls-61 {
        mix-blend-mode: multiply;
      }

      .cls-54, .cls-55, .cls-56, .cls-57, .cls-58, .cls-59, .cls-60, .cls-61 {
        opacity: .3;
      }

      .cls-55 {
        fill: url(#_ÂÁ_Ï_ÌÌ_È_ËÂÌÚ_153-6);
      }

      .cls-56 {
        fill: url(#_ÂÁ_Ï_ÌÌ_È_ËÂÌÚ_153-8);
      }

      .cls-57 {
        fill: url(#_ÂÁ_Ï_ÌÌ_È_ËÂÌÚ_153-2);
      }

      .cls-58 {
        fill: url(#_ÂÁ_Ï_ÌÌ_È_ËÂÌÚ_153-3);
      }

      .cls-59 {
        fill: url(#_ÂÁ_Ï_ÌÌ_È_ËÂÌÚ_153-7);
      }

      .cls-60 {
        fill: url(#_ÂÁ_Ï_ÌÌ_È_ËÂÌÚ_153-4);
      }

      .cls-18 {
        fill: url(#_ÂÁ_Ï_ÌÌ_È_ËÂÌÚ_126);
        opacity: .2;
      }

      .cls-62 {
        isolation: isolate;
      }

      .cls-48 {
        fill: url(#_ÂÁ_Ï_ÌÌ_È_ËÂÌÚ_416-5);
      }

      .cls-49 {
        fill: url(#_ÂÁ_Ï_ÌÌ_È_ËÂÌÚ_416-4);
      }

      .cls-50 {
        fill: url(#_ÂÁ_Ï_ÌÌ_È_ËÂÌÚ_416-2);
      }

      .cls-51 {
        fill: url(#_ÂÁ_Ï_ÌÌ_È_ËÂÌÚ_416-3);
      }

      .cls-19 {
        fill: url(#_ÂÁ_Ï_ÌÌ_È_ËÂÌÚ_134);
      }

      .cls-20 {
        fill: url(#_ÂÁ_Ï_ÌÌ_È_ËÂÌÚ_143);
      }

      .cls-63 {
        fill: url(#_ÂÁ_Ï_ÌÌ_È_ËÂÌÚ_264);
      }

      .cls-64 {
        fill: url(#_ÂÁ_Ï_ÌÌ_È_ËÂÌÚ_132);
      }

      .cls-65 {
        fill: url(#_ÂÁ_Ï_ÌÌ_È_ËÂÌÚ_8);
      }

      .cls-52 {
        fill: url(#_ÂÁ_Ï_ÌÌ_È_ËÂÌÚ_416);
      }

      .cls-53 {
        fill: url(#_ÂÁ_Ï_ÌÌ_È_ËÂÌÚ_123);
      }

      .cls-61 {
        fill: url(#_ÂÁ_Ï_ÌÌ_È_ËÂÌÚ_153);
      }
    </style>
    <linearGradient id="_ÂÁ_Ï_ÌÌ_È_ËÂÌÚ_153" data-name="¡ÂÁ˚ÏˇÌÌ˚È „‡‰ËÂÌÚ 153" x1="173.05" y1="222.35" x2="173.05" y2="222.3" gradientUnits="userSpaceOnUse">
      <stop offset="0" stop-color="#9d68c2"/>
      <stop offset="1" stop-color="#ccedff"/>
    </linearGradient>
    <radialGradient id="_ÂÁ_Ï_ÌÌ_È_ËÂÌÚ_123" data-name="¡ÂÁ˚ÏˇÌÌ˚È „‡‰ËÂÌÚ 123" cx="93.35" cy="-816.29" fx="93.35" fy="-816.29" r="40.79" gradientTransform="translate(0 392.35) scale(1 .22)" gradientUnits="userSpaceOnUse">
      <stop offset="0" stop-color="#be9dea"/>
      <stop offset=".39" stop-color="#e0bff5"/>
      <stop offset="1" stop-color="#fff"/>
    </radialGradient>
    <linearGradient id="_ÂÁ_Ï_ÌÌ_È_ËÂÌÚ_14" data-name="¡ÂÁ˚ÏˇÌÌ˚È „‡‰ËÂÌÚ 14" x1="174.33" y1="43.57" x2="177.39" y2=".43" gradientUnits="userSpaceOnUse">
      <stop offset="0" stop-color="#a242ea"/>
      <stop offset="1" stop-color="#fe117e"/>
    </linearGradient>
    <linearGradient id="_ÂÁ_Ï_ÌÌ_È_ËÂÌÚ_46" data-name="¡ÂÁ˚ÏˇÌÌ˚È „‡‰ËÂÌÚ 46" x1="70.15" y1="196.31" x2="74.53" y2="161.44" gradientUnits="userSpaceOnUse">
      <stop offset="0" stop-color="#cbc1f7"/>
      <stop offset="1" stop-color="#e8dcf7"/>
    </linearGradient>
    <linearGradient id="_ÂÁ_Ï_ÌÌ_È_ËÂÌÚ_46-2" data-name="¡ÂÁ˚ÏˇÌÌ˚È „‡‰ËÂÌÚ 46" x1="101.5" y1="201.23" x2="107.15" y2="156.25" xlink:href="#_ÂÁ_Ï_ÌÌ_È_ËÂÌÚ_46"/>
    <linearGradient id="_ÂÁ_Ï_ÌÌ_È_ËÂÌÚ_28" data-name="¡ÂÁ˚ÏˇÌÌ˚È „‡‰ËÂÌÚ 28" x1="73.75" y1="173.68" x2="73.75" y2="159.94" gradientUnits="userSpaceOnUse">
      <stop offset="0" stop-color="#be9dea"/>
      <stop offset="1" stop-color="#9e8cef"/>
    </linearGradient>
    <linearGradient id="_ÂÁ_Ï_ÌÌ_È_ËÂÌÚ_28-2" data-name="¡ÂÁ˚ÏˇÌÌ˚È „‡‰ËÂÌÚ 28" x1="105.71" y1="174" x2="105.71" y2="157.65" xlink:href="#_ÂÁ_Ï_ÌÌ_È_ËÂÌÚ_28"/>
    <linearGradient id="_ÂÁ_Ï_ÌÌ_È_ËÂÌÚ_153-2" data-name="¡ÂÁ˚ÏˇÌÌ˚È „‡‰ËÂÌÚ 153" x1="73.78" y1="196.76" x2="73.78" y2="160.05" xlink:href="#_ÂÁ_Ï_ÌÌ_È_ËÂÌÚ_153"/>
    <linearGradient id="_ÂÁ_Ï_ÌÌ_È_ËÂÌÚ_153-3" data-name="¡ÂÁ˚ÏˇÌÌ˚È „‡‰ËÂÌÚ 153" x1="105.78" y1="200.17" x2="105.78" y2="157.53" xlink:href="#_ÂÁ_Ï_ÌÌ_È_ËÂÌÚ_153"/>
    <linearGradient id="_ÂÁ_Ï_ÌÌ_È_ËÂÌÚ_46-3" data-name="¡ÂÁ˚ÏˇÌÌ˚È „‡‰ËÂÌÚ 46" x1="49.35" y1="164.54" x2="56.9" y2="104.42" xlink:href="#_ÂÁ_Ï_ÌÌ_È_ËÂÌÚ_46"/>
    <linearGradient id="_ÂÁ_Ï_ÌÌ_È_ËÂÌÚ_28-3" data-name="¡ÂÁ˚ÏˇÌÌ˚È „‡‰ËÂÌÚ 28" x1="44.93" y1="163.96" x2="44.93" y2="154.41" xlink:href="#_ÂÁ_Ï_ÌÌ_È_ËÂÌÚ_28"/>
    <linearGradient id="_ÂÁ_Ï_ÌÌ_È_ËÂÌÚ_153-4" data-name="¡ÂÁ˚ÏˇÌÌ˚È „‡‰ËÂÌÚ 153" x1="52.43" y1="163.4" x2="52.43" y2="112.88" xlink:href="#_ÂÁ_Ï_ÌÌ_È_ËÂÌÚ_153"/>
    <linearGradient id="_ÂÁ_Ï_ÌÌ_È_ËÂÌÚ_46-4" data-name="¡ÂÁ˚ÏˇÌÌ˚È „‡‰ËÂÌÚ 46" x1="42.63" y1="189.97" x2="46.74" y2="157.23" xlink:href="#_ÂÁ_Ï_ÌÌ_È_ËÂÌÚ_46"/>
    <linearGradient id="_ÂÁ_Ï_ÌÌ_È_ËÂÌÚ_28-4" data-name="¡ÂÁ˚ÏˇÌÌ˚È „‡‰ËÂÌÚ 28" x1="49.08" y1="189.8" x2="49.08" y2="160.51" xlink:href="#_ÂÁ_Ï_ÌÌ_È_ËÂÌÚ_28"/>
    <linearGradient id="_ÂÁ_Ï_ÌÌ_È_ËÂÌÚ_416" data-name="¡ÂÁ˚ÏˇÌÌ˚È „‡‰ËÂÌÚ 416" x1="48.72" y1="180.74" x2="48.72" y2="169.41" gradientUnits="userSpaceOnUse">
      <stop offset="0" stop-color="#8da4e5"/>
      <stop offset="1" stop-color="#755cbb"/>
    </linearGradient>
    <linearGradient id="_ÂÁ_Ï_ÌÌ_È_ËÂÌÚ_46-5" data-name="¡ÂÁ˚ÏˇÌÌ˚È „‡‰ËÂÌÚ 46" x1="49.48" y1="180.2" x2="51.88" y2="161.07" xlink:href="#_ÂÁ_Ï_ÌÌ_È_ËÂÌÚ_46"/>
    <linearGradient id="_ÂÁ_Ï_ÌÌ_È_ËÂÌÚ_264" data-name="¡ÂÁ˚ÏˇÌÌ˚È „‡‰ËÂÌÚ 264" x1="1130.77" y1="55.56" x2="1130.77" y2="20.88" gradientTransform="translate(1185.03) rotate(-180) scale(1 -1)" gradientUnits="userSpaceOnUse">
      <stop offset="0" stop-color="#b9acf4"/>
      <stop offset="1" stop-color="#e1d1f5"/>
    </linearGradient>
    <linearGradient id="_ÂÁ_Ï_ÌÌ_È_ËÂÌÚ_28-5" data-name="¡ÂÁ˚ÏˇÌÌ˚È „‡‰ËÂÌÚ 28" x1="51.77" y1="42.46" x2="51.77" y2="20.88" xlink:href="#_ÂÁ_Ï_ÌÌ_È_ËÂÌÚ_28"/>
    <linearGradient id="_ÂÁ_Ï_ÌÌ_È_ËÂÌÚ_264-2" data-name="¡ÂÁ˚ÏˇÌÌ˚È „‡‰ËÂÌÚ 264" x1="125.78" x2="125.78" gradientTransform="matrix(1, 0, 0, 1, 0, 0)" xlink:href="#_ÂÁ_Ï_ÌÌ_È_ËÂÌÚ_264"/>
    <linearGradient id="_ÂÁ_Ï_ÌÌ_È_ËÂÌÚ_28-6" data-name="¡ÂÁ˚ÏˇÌÌ˚È „‡‰ËÂÌÚ 28" x1="128.29" y1="39.73" x2="128.29" y2="20.88" xlink:href="#_ÂÁ_Ï_ÌÌ_È_ËÂÌÚ_28"/>
    <linearGradient id="_ÂÁ_Ï_ÌÌ_È_ËÂÌÚ_17" data-name="¡ÂÁ˚ÏˇÌÌ˚È „‡‰ËÂÌÚ 17" x1="132.98" y1="57.22" x2="132.98" y2="23.15" gradientUnits="userSpaceOnUse">
      <stop offset="0" stop-color="#45ffcd"/>
      <stop offset="1" stop-color="#22e0ff"/>
    </linearGradient>
    <linearGradient id="_ÂÁ_Ï_ÌÌ_È_ËÂÌÚ_17-2" data-name="¡ÂÁ˚ÏˇÌÌ˚È „‡‰ËÂÌÚ 17" x1="1137.98" x2="1137.98" gradientTransform="translate(1185.03) rotate(-180) scale(1 -1)" xlink:href="#_ÂÁ_Ï_ÌÌ_È_ËÂÌÚ_17"/>
    <linearGradient id="_ÂÁ_Ï_ÌÌ_È_ËÂÌÚ_46-6" data-name="¡ÂÁ˚ÏˇÌÌ˚È „‡‰ËÂÌÚ 46" x1="86.27" y1="104.74" x2="97.3" y2="16.97" xlink:href="#_ÂÁ_Ï_ÌÌ_È_ËÂÌÚ_46"/>
    <linearGradient id="_ÂÁ_Ï_ÌÌ_È_ËÂÌÚ_132" data-name="¡ÂÁ˚ÏˇÌÌ˚È „‡‰ËÂÌÚ 132" x1="89.87" y1="80.68" x2="89.87" y2="19.26" gradientUnits="userSpaceOnUse">
      <stop offset="0" stop-color="#0665bd"/>
      <stop offset="1" stop-color="#1a1f77"/>
    </linearGradient>
    <linearGradient id="_ÂÁ_Ï_ÌÌ_È_ËÂÌÚ_153-5" data-name="¡ÂÁ˚ÏˇÌÌ˚È „‡‰ËÂÌÚ 153" x1="90.17" y1="103.93" x2="90.17" y2="51.61" xlink:href="#_ÂÁ_Ï_ÌÌ_È_ËÂÌÚ_153"/>
    <linearGradient id="_ÂÁ_Ï_ÌÌ_È_ËÂÌÚ_36" data-name="¡ÂÁ˚ÏˇÌÌ˚È „‡‰ËÂÌÚ 36" x1="54.91" y1="97.13" x2="123.09" y2="97.13" gradientUnits="userSpaceOnUse">
      <stop offset="0" stop-color="#8879ea"/>
      <stop offset="1" stop-color="#9e8cef"/>
    </linearGradient>
    <linearGradient id="_ÂÁ_Ï_ÌÌ_È_ËÂÌÚ_416-2" data-name="¡ÂÁ˚ÏˇÌÌ˚È „‡‰ËÂÌÚ 416" x1="88.9" y1="100.17" x2="88.9" y2="90.34" xlink:href="#_ÂÁ_Ï_ÌÌ_È_ËÂÌÚ_416"/>
    <linearGradient id="_ÂÁ_Ï_ÌÌ_È_ËÂÌÚ_73" data-name="¡ÂÁ˚ÏˇÌÌ˚È „‡‰ËÂÌÚ 73" x1="88.73" y1="98.78" x2="90.01" y2="88.59" gradientUnits="userSpaceOnUse">
      <stop offset="0" stop-color="#5e36cc"/>
      <stop offset="1" stop-color="#6c4a96"/>
    </linearGradient>
    <linearGradient id="_ÂÁ_Ï_ÌÌ_È_ËÂÌÚ_46-7" data-name="¡ÂÁ˚ÏˇÌÌ˚È „‡‰ËÂÌÚ 46" x1="85.69" y1="172.57" x2="95.27" y2="96.32" xlink:href="#_ÂÁ_Ï_ÌÌ_È_ËÂÌÚ_46"/>
    <linearGradient id="_ÂÁ_Ï_ÌÌ_È_ËÂÌÚ_36-2" data-name="¡ÂÁ˚ÏˇÌÌ˚È „‡‰ËÂÌÚ 36" x1="106.25" y1="113.65" x2="115.32" y2="113.65" xlink:href="#_ÂÁ_Ï_ÌÌ_È_ËÂÌÚ_36"/>
    <linearGradient id="_ÂÁ_Ï_ÌÌ_È_ËÂÌÚ_46-8" data-name="¡ÂÁ˚ÏˇÌÌ˚È „‡‰ËÂÌÚ 46" x1="125.52" y1="120.4" x2="131.48" y2="72.93" xlink:href="#_ÂÁ_Ï_ÌÌ_È_ËÂÌÚ_46"/>
    <linearGradient id="_ÂÁ_Ï_ÌÌ_È_ËÂÌÚ_416-3" data-name="¡ÂÁ˚ÏˇÌÌ˚È „‡‰ËÂÌÚ 416" x1="54.1" y1="91.8" x2="54.1" y2="78.01" xlink:href="#_ÂÁ_Ï_ÌÌ_È_ËÂÌÚ_416"/>
    <linearGradient id="_ÂÁ_Ï_ÌÌ_È_ËÂÌÚ_28-7" data-name="¡ÂÁ˚ÏˇÌÌ˚È „‡‰ËÂÌÚ 28" x1="145.67" y1="91.2" x2="145.67" y2="74.1" xlink:href="#_ÂÁ_Ï_ÌÌ_È_ËÂÌÚ_28"/>
    <linearGradient id="_ÂÁ_Ï_ÌÌ_È_ËÂÌÚ_17-3" data-name="¡ÂÁ˚ÏˇÌÌ˚È „‡‰ËÂÌÚ 17" x1="108.69" y1="49.82" x2="108.69" y2="35.1" xlink:href="#_ÂÁ_Ï_ÌÌ_È_ËÂÌÚ_17"/>
    <linearGradient id="_ÂÁ_Ï_ÌÌ_È_ËÂÌÚ_17-4" data-name="¡ÂÁ˚ÏˇÌÌ˚È „‡‰ËÂÌÚ 17" x1="1216.8" y1="49.82" x2="1216.8" y2="35.1" gradientTransform="translate(1287.52) rotate(-180) scale(1 -1)" xlink:href="#_ÂÁ_Ï_ÌÌ_È_ËÂÌÚ_17"/>
    <linearGradient id="_ÂÁ_Ï_ÌÌ_È_ËÂÌÚ_28-8" data-name="¡ÂÁ˚ÏˇÌÌ˚È „‡‰ËÂÌÚ 28" x1="35.38" y1="82.79" x2="40.43" y2="42.56" xlink:href="#_ÂÁ_Ï_ÌÌ_È_ËÂÌÚ_28"/>
    <linearGradient id="_ÂÁ_Ï_ÌÌ_È_ËÂÌÚ_8" data-name="¡ÂÁ˚ÏˇÌÌ˚È „‡‰ËÂÌÚ 8" x1="12.42" y1="221.88" x2="12.42" y2="210.54" gradientTransform="translate(93.76 -135.79) rotate(13.25)" gradientUnits="userSpaceOnUse">
      <stop offset="0" stop-color="#dd1a8f"/>
      <stop offset="1" stop-color="#fe117e"/>
    </linearGradient>
    <linearGradient id="_ÂÁ_Ï_ÌÌ_È_ËÂÌÚ_54" data-name="¡ÂÁ˚ÏˇÌÌ˚È „‡‰ËÂÌÚ 54" x1="60.05" y1="33.71" x2="122.88" y2="33.71" gradientUnits="userSpaceOnUse">
      <stop offset="0" stop-color="#000"/>
      <stop offset="1" stop-color="#6a9bff"/>
    </linearGradient>
    <linearGradient id="_ÂÁ_Ï_ÌÌ_È_ËÂÌÚ_54-2" data-name="¡ÂÁ˚ÏˇÌÌ˚È „‡‰ËÂÌÚ 54" x1="68.93" y1="75.07" x2="113.58" y2="75.07" xlink:href="#_ÂÁ_Ï_ÌÌ_È_ËÂÌÚ_54"/>
    <linearGradient id="_ÂÁ_Ï_ÌÌ_È_ËÂÌÚ_153-6" data-name="¡ÂÁ˚ÏˇÌÌ˚È „‡‰ËÂÌÚ 153" x1="133.75" y1="54" x2="133.75" y2="52.59" xlink:href="#_ÂÁ_Ï_ÌÌ_È_ËÂÌÚ_153"/>
    <linearGradient id="_ÂÁ_Ï_ÌÌ_È_ËÂÌÚ_153-7" data-name="¡ÂÁ˚ÏˇÌÌ˚È „‡‰ËÂÌÚ 153" x1="89.59" y1="172.7" x2="89.59" y2="111.35" xlink:href="#_ÂÁ_Ï_ÌÌ_È_ËÂÌÚ_153"/>
    <linearGradient id="_ÂÁ_Ï_ÌÌ_È_ËÂÌÚ_28-9" data-name="¡ÂÁ˚ÏˇÌÌ˚È „‡‰ËÂÌÚ 28" x1="89" y1="171.46" x2="89" y2="123.14" xlink:href="#_ÂÁ_Ï_ÌÌ_È_ËÂÌÚ_28"/>
    <radialGradient id="_ÂÁ_Ï_ÌÌ_È_ËÂÌÚ_91" data-name="¡ÂÁ˚ÏˇÌÌ˚È „‡‰ËÂÌÚ 91" cx="89.97" cy="165.21" fx="89.97" fy="165.21" r="36.87" gradientUnits="userSpaceOnUse">
      <stop offset="0" stop-color="#45ffcd"/>
      <stop offset="1" stop-color="#22e0ff"/>
    </radialGradient>
    <linearGradient id="_ÂÁ_Ï_ÌÌ_È_ËÂÌÚ_416-4" data-name="¡ÂÁ˚ÏˇÌÌ˚È „‡‰ËÂÌÚ 416" x1="88.53" y1="110.7" x2="88.53" y2="95.75" xlink:href="#_ÂÁ_Ï_ÌÌ_È_ËÂÌÚ_416"/>
    <linearGradient id="_ÂÁ_Ï_ÌÌ_È_ËÂÌÚ_143" data-name="¡ÂÁ˚ÏˇÌÌ˚È „‡‰ËÂÌÚ 143" x1="90.17" y1="170.01" x2="90.17" y2="161.64" gradientUnits="userSpaceOnUse">
      <stop offset="0" stop-color="#d4e2ff"/>
      <stop offset="1" stop-color="#000"/>
    </linearGradient>
    <linearGradient id="_ÂÁ_Ï_ÌÌ_È_ËÂÌÚ_153-8" data-name="¡ÂÁ˚ÏˇÌÌ˚È „‡‰ËÂÌÚ 153" x1="128.81" y1="119.28" x2="128.81" y2="75.44" xlink:href="#_ÂÁ_Ï_ÌÌ_È_ËÂÌÚ_153"/>
    <linearGradient id="_ÂÁ_Ï_ÌÌ_È_ËÂÌÚ_46-9" data-name="¡ÂÁ˚ÏˇÌÌ˚È „‡‰ËÂÌÚ 46" x1="149.02" y1="87.83" x2="153.48" y2="52.32" xlink:href="#_ÂÁ_Ï_ÌÌ_È_ËÂÌÚ_46"/>
    <linearGradient id="_ÂÁ_Ï_ÌÌ_È_ËÂÌÚ_28-10" data-name="¡ÂÁ˚ÏˇÌÌ˚È „‡‰ËÂÌÚ 28" x1="148.45" y1="76.14" x2="148.45" y2="52.59" xlink:href="#_ÂÁ_Ï_ÌÌ_È_ËÂÌÚ_28"/>
    <linearGradient id="_ÂÁ_Ï_ÌÌ_È_ËÂÌÚ_416-5" data-name="¡ÂÁ˚ÏˇÌÌ˚È „‡‰ËÂÌÚ 416" x1="147.7" y1="71.85" x2="147.7" y2="58.2" xlink:href="#_ÂÁ_Ï_ÌÌ_È_ËÂÌÚ_416"/>
    <linearGradient id="_ÂÁ_Ï_ÌÌ_È_ËÂÌÚ_46-10" data-name="¡ÂÁ˚ÏˇÌÌ˚È „‡‰ËÂÌÚ 46" x1="142.43" y1="74.77" x2="144.92" y2="54.98" xlink:href="#_ÂÁ_Ï_ÌÌ_È_ËÂÌÚ_46"/>
    <linearGradient id="_ÂÁ_Ï_ÌÌ_È_ËÂÌÚ_28-11" data-name="¡ÂÁ˚ÏˇÌÌ˚È „‡‰ËÂÌÚ 28" x1="152.76" y1="78.37" x2="152.76" y2="65.32" xlink:href="#_ÂÁ_Ï_ÌÌ_È_ËÂÌÚ_28"/>
    <linearGradient id="_ÂÁ_Ï_ÌÌ_È_ËÂÌÚ_65" data-name="¡ÂÁ˚ÏˇÌÌ˚È „‡‰ËÂÌÚ 65" x1="55.7" y1="77.54" x2="55.7" y2="72.72" gradientUnits="userSpaceOnUse">
      <stop offset="0" stop-color="#d93de3"/>
      <stop offset="1" stop-color="#ff6dba"/>
    </linearGradient>
    <linearGradient id="_ÂÁ_Ï_ÌÌ_È_ËÂÌÚ_126" data-name="¡ÂÁ˚ÏˇÌÌ˚È „‡‰ËÂÌÚ 126" x1="37.39" y1="107.83" x2="37.39" y2="85.05" gradientTransform="translate(24.06 -42.16) rotate(3.92)" gradientUnits="userSpaceOnUse">
      <stop offset="0" stop-color="#000"/>
      <stop offset="1" stop-color="#00e3ff"/>
    </linearGradient>
    <linearGradient id="_ÂÁ_Ï_ÌÌ_È_ËÂÌÚ_134" data-name="¡ÂÁ˚ÏˇÌÌ˚È „‡‰ËÂÌÚ 134" x1="69.45" y1="136.36" x2="111.46" y2="136.36" gradientUnits="userSpaceOnUse">
      <stop offset="0" stop-color="#000"/>
      <stop offset="1" stop-color="#d4e2ff"/>
    </linearGradient>
    <linearGradient id="_ÂÁ_Ï_ÌÌ_È_ËÂÌÚ_65-2" data-name="¡ÂÁ˚ÏˇÌÌ˚È „‡‰ËÂÌÚ 65" x1="166.7" y1="43.02" x2="169.79" y2="-.44" xlink:href="#_ÂÁ_Ï_ÌÌ_È_ËÂÌÚ_65"/>
    <linearGradient id="_ÂÁ_Ï_ÌÌ_È_ËÂÌÚ_134-2" data-name="¡ÂÁ˚ÏˇÌÌ˚È „‡‰ËÂÌÚ 134" x1="127.56" y1="31.67" x2="136.43" y2="31.67" xlink:href="#_ÂÁ_Ï_ÌÌ_È_ËÂÌÚ_134"/>
    <linearGradient id="_ÂÁ_Ï_ÌÌ_È_ËÂÌÚ_143-2" data-name="¡ÂÁ˚ÏˇÌÌ˚È „‡‰ËÂÌÚ 143" x1="42.53" y1="30.3" x2="52.3" y2="30.3" xlink:href="#_ÂÁ_Ï_ÌÌ_È_ËÂÌÚ_143"/>
    <linearGradient id="_ÂÁ_Ï_ÌÌ_È_ËÂÌÚ_46-11" data-name="¡ÂÁ˚ÏˇÌÌ˚È „‡‰ËÂÌÚ 46" x1="30.23" y1="64.72" x2="30.23" y2="53.46" gradientTransform="translate(5.42 -9.61) rotate(.95)" xlink:href="#_ÂÁ_Ï_ÌÌ_È_ËÂÌÚ_46"/>
  </defs>
  <g class="cls-62">
    <g id="Calque_2" data-name="Calque 2">
      <g id="chatbot">
        <path class="cls-61" d="M173.02,222.3s.04,.04,.06,.04c-.04,0-.06-.04-.06-.04Z"/>
        <g>
          <g>
            <path class="cls-23" d="M176.64,157.86c-2.63,5.22-5.71,9.58-9.15,12.71-1.01,.92-2.06,1.74-3.14,2.44-1.02,.66-2.07,1.22-3.15,1.66-15.69,6.48-31.75-8.27-49.7-6.53-15.04,1.46-25.87,9.82-35.47,16.84-3.39,2.48-6.63,4.8-9.86,6.58-.91,.51-1.82,.97-2.73,1.38-.98,.44-2.01,.85-3.12,1.22,0,0,0,0,0,0h0c-13.9,4.76-37.38,4.58-47.79-5.67-10.89-10.75-24.13-45.58,5.84-90.44,33.29-49.86,124.26-56.76,148.57-40.27,25.15,17.05,24.14,71.42,9.7,100.07Z"/>
            <g>
              <path class="cls-23" d="M178.53,78.2c2.76-2.21,5-5.07,6.5-8.28,.24-.52,.47-1.06,.47-1.63,.01-1.1-.8-2.07-1.73-2.65-2.28-1.44-5.46-1.12-7.59,.54-2.13,1.66-3.21,4.48-3.02,7.17,.1,1.48,.61,3.01,1.74,3.97,1.13,.96,2.97,1.16,4.07,.16-.02-.47-.66-.79-1.04-.51l.6,1.23Z"/>
              <path class="cls-23" d="M182.29,148.83c2.76-2.21,5-5.07,6.5-8.28,.24-.52,.47-1.06,.47-1.63,.01-1.1-.8-2.07-1.73-2.65-2.28-1.44-5.46-1.12-7.59,.54-2.13,1.66-3.21,4.48-3.02,7.17,.1,1.48,.61,3.01,1.74,3.97,1.13,.96,2.97,1.16,4.07,.16-.02-.47-.66-.79-1.04-.51l.6,1.23Z"/>
              <path class="cls-23" d="M179.17,67.31c1.45-.03,2.86-.86,3.58-2.12-.75-1.24-2.01-2.26-3.45-2.33-1.44-.07-2.95,1.1-2.9,2.54s2.09,2.47,3.11,1.43l-.33,.48Z"/>
              <path class="cls-23" d="M187.42,57.28c.56,.38,1.3,.47,1.93,.25-.08-.29-.16-.59-.34-.83-.18-.24-.5-.4-.79-.32-.4,.11-.54,.59-.62,1-.06-.09-.13-.19-.19-.28v.19Z"/>
              <path class="cls-23" d="M186.17,59.63c-.11,.17-.27,.32-.45,.4-.13-.51,.2-1.01,.54-1.41,.19-.22,.46-.47,.73-.37,.19,.07,.3,.27,.45,.4,.31,.26,.9,.29,.94,.7,.02,.23-.18,.43-.4,.49-.22,.06-.46,0-.68-.05-.49-.11-.98-.23-1.47-.34l.34,.19Z"/>
              <path class="cls-24" d="M204.83,31.11c.41-.09,.33-.79-.06-.96-.39-.17-.83,.01-1.22,.19,.17,.56,.71,.98,1.29,1.02l-.02-.26Z"/>
              <path class="cls-23" d="M193.24,21.43c-.2,.02-.37-.18-.38-.38,0-.2,.11-.38,.25-.52,.08-.08,.18-.15,.3-.18,.26-.07,.56,.14,.59,.41s-.18,.54-.45,.58c-.27,.04-.54-.16-.61-.42l.3,.51Z"/>
              <path class="cls-23" d="M185.79,51.18c-.12,.41,.37,.84,.76,.67,.05-.21,.07-.45-.02-.65-.09-.2-.31-.35-.53-.31s-.35,.34-.2,.51v-.22Z"/>
              <path class="cls-23" d="M184.32,60.56c.31,.4,.81,.65,1.32,.65-.04-.41-.07-.83-.11-1.24-.02-.2-.04-.4-.15-.56-.22-.31-.75-.29-1,0-.25,.29-.25,.74-.05,1.07v.09Z"/>
              <path class="cls-24" d="M193.2,27.24c0-.14,0-.28-.01-.42-.21-.1-.49-.04-.62,.15-.13,.19-.07,.49,.14,.6,.21,.11,.5-.05,.51-.28l-.02-.05Z"/>
              <path class="cls-23" d="M185.88,54.24c-.23-.15-.53,.12-.57,.39s.07,.55,.07,.82c0,.28-.15,.56-.37,.74-.13,.1-.31,.17-.46,.11-.1-.04-.17-.14-.24-.23-.31-.44-.58-.94-.61-1.49s.22-1.13,.71-1.36c.34-.16,.77-.11,1.07,.11s.48,.62,.43,.99l-.04-.1Z"/>
              <path class="cls-23" d="M190.87,59.62c.23,.26,.67,.24,.92,0,.25-.24,.31-.62,.21-.95-.04-.14-.15-.3-.3-.29-.1,.01-.17,.11-.23,.19-.24,.35-.48,.69-.72,1.04h.13Z"/>
              <path class="cls-23" d="M198.27,45.29c-.66-.22-.92-1.19-.45-1.72,.48,.25,.99,.52,1.26,.99,.27,.47,.15,1.2-.37,1.37-.29-.12-.59-.23-.88-.35l.44-.29Z"/>
              <path class="cls-23" d="M167.01,89.68c-.05,.15-.26,.19-.4,.12s-.22-.22-.28-.37c-.05-.12-.09-.25-.08-.37,.02-.25,.26-.46,.51-.48,.25-.02,.51,.12,.64,.33,.07,.1,.11,.23,.08,.35-.03,.12-.15,.22-.27,.2l-.2,.22Z"/>
              <path class="cls-23" d="M189.37,49.73h.44c.02-.24,.04-.49-.1-.67-.14-.18-.49-.19-.55,.03-.02,.08,0,.17,.03,.25,.08,.26,.16,.52,.24,.78l-.06-.39Z"/>
              <path class="cls-23" d="M192.42,42.51c.35-.1,.71-.2,.99-.42,.28-.23,.47-.61,.35-.95-.06-.17-.18-.31-.33-.41-.46-.29-1.14-.12-1.41,.35-.27,.47-.06,1.15,.43,1.39l-.02,.05Z"/>
              <path class="cls-23" d="M196.06,41.4c.16-.18,.32-.37,.49-.55-.11-.15-.25-.29-.41-.38-.32,.16-.46,.62-.27,.93h.19Z"/>
              <path class="cls-23" d="M202.19,63.92c.63-1.27,.97-2.68,.97-4.1,0-.23,0-.46-.1-.67-.18-.4-.64-.62-1.07-.67-1.07-.14-2.17,.51-2.67,1.47-.49,.96-.41,2.17,.11,3.11,.29,.52,.73,.99,1.3,1.15s1.27-.08,1.51-.62c-.09-.17-.37-.17-.46,0l.42,.34Z"/>
              <path class="cls-23" d="M173.49,58.14c.67-.03,1.32-.4,1.7-.96-.24-.19-.48-.38-.77-.46-.29-.08-.64-.03-.82,.22-.25,.33-.08,.8,.1,1.17-.11-.04-.22-.07-.32-.11l.12,.15Z"/>
              <path class="cls-23" d="M174.44,53.37c.16-.09,.34-.2,.41-.37,.07-.17,.03-.36,0-.54-.1-.49-.16-.99-.17-1.48-.52,.65-1.04,1.29-1.56,1.94-.04,.05-.08,.1-.14,.14-.2,.11-.43-.1-.66-.12-.34-.03-.56,.33-.66,.66-.68,2.3,1.88,.27,2.78-.23Z"/>
              <path class="cls-23" d="M172.96,62.63c.49,.14,1.04,.03,1.45-.27-.28-.31-.56-.62-.83-.93-.13-.15-.27-.3-.46-.36-.37-.12-.77,.21-.8,.6-.03,.38,.25,.74,.6,.89l.05,.07Z"/>
              <path class="cls-23" d="M177.65,57.95c.34,.07,.68-.21,.74-.55s-.13-.69-.4-.89c-.12-.09-.3-.15-.41-.05-.07,.07-.08,.19-.07,.29,.01,.42,.03,.84,.04,1.27l.11-.07Z"/>
              <path class="cls-23" d="M181.31,62.65c.35-.1,.71-.2,.99-.42,.28-.23,.47-.61,.35-.95-.06-.17-.18-.31-.33-.41-.46-.29-1.14-.12-1.41,.35-.27,.47-.06,1.15,.43,1.39l-.02,.05Z"/>
              <path class="cls-23" d="M196.09,51.97c.06-.36-.3-.64-.62-.82-.32-.17-.7-.39-.73-.76,0-.1,.02-.21,.1-.27,.2-.16,.46,.09,.7,.19,.19,.09,.4,.08,.6,.12,.48,.1,.88,.52,.94,1-.09,.25-.33,.43-.59,.45-.26,.02-.53-.13-.65-.36l.24,.44Z"/>
              <path class="cls-23" d="M195.02,42.98c.06-.36-.3-.64-.62-.82-.32-.17-.7-.39-.73-.76,0-.1,.02-.21,.1-.27,.2-.16,.46,.09,.7,.19,.19,.09,.4,.08,.6,.12,.48,.1,.88,.52,.94,1-.09,.25-.33,.43-.59,.45-.26,.02-.53-.13-.65-.36l.24,.44Z"/>
              <path class="cls-23" d="M199.55,37.97c.23-.19,.41-.44,.52-.71,.02-.04,.04-.09,.04-.14,0-.09-.07-.17-.15-.22-.2-.11-.46-.08-.64,.07s-.26,.39-.23,.61c.01,.12,.06,.25,.16,.33,.1,.08,.25,.09,.34,0,0-.04-.06-.06-.09-.04l.05,.1Z"/>
              <path class="cls-23" d="M174.33,72.89c.67-.03,1.32-.4,1.7-.96-.24-.19-.48-.38-.77-.46-.29-.08-.64-.02-.82,.22-.25,.33-.08,.8,.1,1.17-.11-.04-.22-.07-.32-.11l.12,.15Z"/>
              <path class="cls-23" d="M169.36,68.98c.15,.4,.8,.45,1.01,.08-.09-.2-.22-.4-.41-.5-.19-.11-.46-.1-.61,.07-.14,.17-.07,.48,.14,.53l-.14-.18Z"/>
              <path class="cls-23" d="M179.07,63.31c.15,.4,.8,.45,1.01,.08-.09-.2-.22-.4-.41-.5-.19-.11-.46-.1-.61,.07-.14,.17-.07,.48,.14,.53l-.14-.18Z"/>
              <path class="cls-23" d="M171.27,71.38c-.27,.02-.35,.42-.22,.66,.13,.24,.38,.39,.54,.62,.16,.23,.22,.54,.15,.81-.04,.16-.14,.32-.3,.36-.11,.03-.22,0-.32-.04-.52-.17-1.03-.41-1.38-.82s-.5-1.04-.24-1.51c.18-.33,.55-.55,.93-.56,.38,0,.75,.21,.94,.54l-.09-.06Z"/>
              <path class="cls-23" d="M194.03,48.87c-.27,.02-.35,.42-.22,.66s.38,.39,.54,.62c.16,.23,.22,.54,.15,.81-.04,.16-.14,.32-.3,.36-.11,.03-.22,0-.32-.04-.52-.17-1.03-.41-1.38-.82s-.5-1.04-.24-1.51c.18-.33,.55-.55,.93-.56s.75,.21,.94,.54l-.09-.06Z"/>
              <path class="cls-23" d="M196.91,50.99c-.27,.02-.35,.42-.22,.66s.38,.39,.54,.62c.16,.23,.22,.54,.15,.81-.04,.16-.14,.32-.3,.36-.11,.03-.22,0-.32-.04-.52-.17-1.03-.41-1.38-.82s-.5-1.04-.24-1.51c.18-.33,.55-.55,.93-.56,.38,0,.75,.21,.94,.54l-.09-.06Z"/>
              <path class="cls-23" d="M192.8,54.64c-.27,.02-.35,.42-.22,.66s.38,.39,.54,.62c.16,.23,.22,.54,.15,.81-.04,.16-.14,.32-.3,.36-.11,.03-.22,0-.32-.04-.52-.17-1.03-.41-1.38-.82s-.5-1.04-.24-1.51c.18-.33,.55-.55,.93-.56,.38,0,.75,.21,.94,.54l-.09-.06Z"/>
              <path class="cls-23" d="M173.68,21.23c-.27,.02-.35,.42-.22,.66,.13,.24,.39,.39,.54,.62,.16,.23,.22,.54,.15,.81-.04,.16-.14,.32-.3,.36-.11,.03-.22,0-.32-.04-.52-.17-1.03-.41-1.38-.82-.35-.41-.5-1.04-.24-1.51,.18-.33,.55-.55,.93-.56,.38,0,.75,.21,.94,.54l-.09-.06Z"/>
              <path class="cls-23" d="M171.36,65.67c.12-.09,.23-.18,.35-.27-.12-.19-.25-.4-.47-.47-.22-.06-.5,.14-.42,.35,.03,.08,.1,.13,.17,.19,.22,.16,.44,.32,.66,.49l-.28-.28Z"/>
              <path class="cls-23" d="M179.85,38.01c.35-.1,.71-.2,.99-.42,.28-.23,.47-.61,.35-.95-.06-.17-.18-.31-.33-.41-.46-.29-1.14-.12-1.41,.35s-.06,1.15,.43,1.39l-.02,.05Z"/>
              <path class="cls-23" d="M182.21,68.15c-.29,.43-1.08,.31-1.23-.18,.09-.27,.23-.52,.43-.74,.28,.14,.51,.39,.62,.68l.18,.23Z"/>
              <path class="cls-24" d="M184.08,36.22c.19-.09,.38-.19,.51-.34,.13-.16,.2-.39,.09-.57-.17-.3-.62-.24-.9-.43-.29-.19-.4-.61-.73-.69-.33-.08-.63,.28-.62,.62,.01,.34,.23,.63,.45,.88,.2,.23,.42,.45,.71,.54,.29,.09,.65,0,.78-.28l-.29,.29Z"/>
              <path class="cls-23" d="M188.46,54.3c1.18,.85,2.81,1.02,4.14,.45,.14-1.44-.25-3.02-1.37-3.94-1.11-.92-3.02-.89-3.85,.3s.2,3.23,1.63,3.01l-.55,.18Z"/>
              <path class="cls-23" d="M184.8,70.26c-.17-.1-.19-.36-.08-.53,.11-.16,.31-.24,.51-.27,.12-.01,.24-.01,.35,.03,.25,.1,.36,.44,.23,.68s-.47,.33-.7,.19c-.24-.13-.34-.45-.24-.7l-.07,.59Z"/>
              <path class="cls-23" d="M186.49,62.49c-.07-.36-.5-.51-.86-.56-.36-.06-.79-.14-.94-.47-.04-.09-.05-.2,0-.29,.13-.22,.46-.07,.72-.05,.2,.02,.4-.06,.61-.09,.48-.07,1,.2,1.22,.63,0,.26-.17,.52-.41,.62-.24,.1-.54,.05-.73-.13l.38,.34Z"/>
              <path class="cls-23" d="M184.55,51c.08-.11,.16-.23,.24-.34-.11-.2-.37-.32-.59-.25-.22,.07-.35,.35-.25,.56,.1,.21,.43,.26,.58,.08l.02-.05Z"/>
              <path class="cls-23" d="M183.14,58.91c-.13,.09-.32,0-.39-.14s-.05-.31,0-.46c.03-.12,.08-.25,.16-.35,.17-.19,.48-.22,.7-.08s.33,.4,.31,.65c0,.12-.05,.25-.15,.33-.1,.08-.25,.09-.34,0l-.29,.06Z"/>
              <path class="cls-23" d="M171.93,54.29c.34,1.41,1.45,2.61,2.84,3.05,1.05-1,1.78-2.44,1.54-3.87-.24-1.43-1.7-2.65-3.11-2.29-1.4,.36-1.96,2.57-.74,3.34l-.54-.22Z"/>
              <path class="cls-23" d="M173.56,65.53c.41-.09,.33-.79-.06-.96-.39-.17-.83,.01-1.22,.19,.17,.56,.71,.98,1.29,1.02l-.02-.26Z"/>
              <path class="cls-23" d="M188.81,67.73c.08-.11,.16-.23,.24-.34-.11-.2-.37-.32-.59-.25-.22,.07-.35,.35-.25,.56,.1,.21,.43,.26,.58,.08l.02-.05Z"/>
              <path class="cls-23" d="M183.37,62.29c1.23-.92,2.23-2.14,2.92-3.51,.11-.22,.22-.45,.23-.7,.02-.48-.32-.91-.72-1.17-.97-.65-2.35-.56-3.3,.14s-1.45,1.9-1.4,3.07c.03,.64,.23,1.31,.7,1.74,.48,.43,1.27,.54,1.76,.12,0-.21-.28-.35-.45-.23l.24,.54Z"/>
              <path class="cls-23" d="M169.28,41.26c1.45-.03,2.86-.86,3.58-2.12-.75-1.24-2.01-2.26-3.45-2.33-1.44-.07-2.95,1.1-2.9,2.54,.05,1.45,2.09,2.47,3.11,1.43l-.33,.48Z"/>
              <path class="cls-23" d="M196.5,38.4c.67-.03,1.32-.4,1.7-.96-.24-.19-.48-.38-.77-.46-.29-.08-.64-.02-.82,.22-.25,.33-.08,.8,.1,1.17-.11-.04-.22-.07-.32-.11l.12,.15Z"/>
              <path class="cls-23" d="M197.45,33.63c.16-.09,.34-.2,.41-.37,.07-.17,.03-.36,0-.54-.1-.49-.16-.99-.17-1.48-.52,.65-1.04,1.29-1.56,1.94-.04,.05-.08,.1-.14,.14-.2,.11-.43-.1-.66-.12-.34-.03-.56,.33-.66,.66-.68,2.3,1.88,.27,2.78-.23Z"/>
              <path class="cls-23" d="M187.8,61.47l.49-.55c-.38-.3-.96-.41-1.35-.13-.39,.29-.37,1.03,.09,1.18,.29,.09,.77,.12,.68,.4l.1-.91Z"/>
              <path class="cls-23" d="M188.61,40.55c-.11,.18-.27,.32-.45,.4-.13-.51,.2-1.01,.54-1.41,.19-.22,.46-.47,.73-.37,.19,.07,.3,.27,.45,.4,.31,.26,.9,.29,.94,.7,.02,.23-.18,.43-.4,.49-.22,.06-.46,0-.68-.05-.49-.11-.98-.23-1.47-.34l.34,.19Z"/>
              <path class="cls-23" d="M181.92,36.23c.41-.09,.33-.79-.06-.96s-.83,.01-1.22,.19c.17,.56,.71,.98,1.29,1.02l-.02-.26Z"/>
              <path class="cls-24" d="M190.04,32.26c-.2,.02-.37-.18-.38-.38,0-.2,.11-.38,.25-.52,.08-.08,.18-.15,.3-.18,.26-.07,.56,.14,.59,.41,.04,.27-.18,.54-.45,.58-.27,.04-.54-.16-.61-.42l.3,.51Z"/>
              <path class="cls-23" d="M191.53,34.49c.15,.4,.8,.45,1.01,.08-.09-.2-.22-.4-.41-.5-.19-.11-.46-.1-.61,.07-.14,.17-.07,.48,.14,.53l-.14-.18Z"/>
              <path class="cls-23" d="M195.98,42.89c.49,.14,1.04,.03,1.45-.27-.28-.31-.56-.62-.83-.93-.13-.15-.27-.3-.46-.36-.37-.12-.77,.21-.8,.6s.25,.74,.6,.89l.05,.07Z"/>
              <path class="cls-24" d="M184.16,31.48c-.29,.02-.59-.16-.72-.42-.13-.26-.09-.6,.11-.82,.13-.15,.39-.24,.52-.08,.05,.06,.07,.15,.08,.24,.05,.37,.1,.74,.15,1.1-.06,0-.13,0-.19,0h.05Z"/>
              <path class="cls-24" d="M181.38,26.41c.06-.36-.3-.64-.62-.82-.32-.17-.7-.39-.73-.76,0-.1,.02-.21,.1-.27,.2-.16,.46,.09,.7,.19,.19,.09,.4,.08,.6,.12,.48,.1,.88,.52,.94,1-.09,.25-.33,.43-.59,.45-.26,.02-.53-.13-.65-.36l.24,.44Z"/>
              <path class="cls-24" d="M198.38,54.94c.06-.36-.3-.64-.62-.82s-.7-.39-.73-.76c0-.1,.02-.21,.1-.27,.2-.16,.46,.09,.7,.19,.19,.09,.4,.08,.6,.12,.48,.1,.88,.52,.94,1-.09,.25-.33,.43-.59,.45-.26,.02-.53-.13-.65-.36l.24,.44Z"/>
              <path class="cls-24" d="M184.62,24.71l.34-.24c-.04-.23-.24-.43-.47-.43s-.45,.22-.42,.45c.03,.23,.32,.39,.52,.27l.03-.04Z"/>
              <path class="cls-23" d="M193.44,36.89c-.27,.02-.35,.42-.22,.66,.13,.24,.38,.39,.54,.62,.16,.23,.22,.54,.15,.81-.04,.16-.14,.32-.3,.36-.11,.03-.22,0-.32-.04-.52-.17-1.03-.41-1.38-.82-.35-.41-.5-1.04-.24-1.51,.18-.33,.55-.55,.93-.56,.38,0,.75,.21,.94,.54l-.09-.06Z"/>
              <path class="cls-23" d="M200.66,38.21c.34,.07,.68-.21,.74-.55s-.13-.69-.4-.89c-.12-.09-.3-.15-.41-.05-.07,.07-.08,.19-.07,.29,.01,.42,.03,.84,.04,1.27l.11-.07Z"/>
              <path class="cls-23" d="M182.15,42.19c-.66-.22-.92-1.19-.45-1.72,.48,.25,.99,.52,1.26,.99,.27,.47,.15,1.2-.37,1.37-.29-.12-.59-.23-.88-.35l.44-.29Z"/>
              <path class="cls-24" d="M193.54,31.19c.12-.09,.23-.18,.35-.27-.12-.19-.25-.4-.47-.47-.22-.06-.5,.14-.42,.35,.03,.08,.1,.13,.17,.19,.22,.16,.44,.32,.66,.49l-.28-.28Z"/>
              <path class="cls-23" d="M178.97,67.11c.35-.1,.71-.2,.99-.42,.28-.23,.47-.61,.35-.95-.06-.17-.18-.31-.33-.41-.46-.29-1.14-.12-1.41,.35-.27,.47-.06,1.15,.43,1.39l-.02,.05Z"/>
              <path class="cls-23" d="M173.16,46.52c.16-.18,.32-.37,.49-.55-.11-.15-.25-.29-.41-.38-.32,.16-.46,.62-.27,.93h.19Z"/>
              <path class="cls-23" d="M167.32,82.13c-.2,.02-.37-.18-.38-.38,0-.2,.11-.38,.25-.52,.08-.08,.18-.15,.3-.18,.26-.07,.56,.14,.59,.41s-.18,.54-.45,.58c-.27,.04-.54-.16-.61-.42l.3,.51Z"/>
              <path class="cls-23" d="M179.09,45.26c.16-.18,.32-.37,.49-.55-.11-.15-.25-.29-.41-.38-.32,.16-.46,.62-.27,.93h.2Z"/>
              <path class="cls-23" d="M194.66,58.01c.27,.06,.46-.29,.4-.56s-.25-.49-.34-.75c-.09-.27-.05-.58,.1-.82,.09-.14,.23-.27,.39-.26,.11,0,.21,.07,.3,.13,.44,.31,.86,.69,1.08,1.19,.21,.5,.17,1.14-.21,1.52-.27,.26-.69,.37-1.05,.26-.36-.11-.66-.42-.74-.79l.07,.08Z"/>
              <path class="cls-23" d="M180.23,60.36c-.2,.03-.41,.07-.59,.18-.17,.11-.3,.32-.26,.52,.07,.33,.52,.41,.74,.68,.22,.26,.2,.7,.5,.88,.29,.17,.69-.08,.78-.41,.09-.33-.03-.67-.17-.98-.12-.27-.27-.55-.52-.72-.25-.17-.63-.18-.83,.04l.36-.19Z"/>
              <path class="cls-23" d="M190.66,48.44c-.72,1.02-1.21,2.21-1.4,3.44-.03,.2-.06,.41,0,.6,.1,.38,.47,.62,.84,.73,.92,.27,1.96-.15,2.52-.92,.56-.77,.66-1.83,.33-2.73-.18-.49-.5-.96-.98-1.18-.48-.22-1.12-.11-1.4,.34,.05,.16,.3,.2,.4,.07l-.32-.36Z"/>
              <path class="cls-23" d="M196.03,55.75c.16,.1,.34,.2,.53,.18,.18-.02,.33-.15,.46-.27,.37-.33,.78-.63,1.2-.88l-2.46-.39c-.07-.01-.13-.02-.19-.06-.2-.12-.13-.42-.23-.63-.14-.3-.57-.32-.9-.25-2.33,.55,.7,1.77,1.58,2.3Z"/>
              <path class="cls-23" d="M190.95,48.53c.12-.07,.24-.15,.36-.22-.02-.23-.21-.44-.44-.46-.23-.02-.46,.18-.45,.41,.01,.23,.29,.41,.5,.3l.03-.04Z"/>
              <path class="cls-23" d="M196.81,51.87c.1,.33,.52,.49,.84,.37,.32-.12,.53-.45,.57-.79,.02-.15-.02-.34-.16-.38-.1-.03-.2,.03-.29,.08-.36,.22-.72,.44-1.08,.67l.11,.06Z"/>
              <path class="cls-23" d="M193.49,48.77c.36,.57,1,.95,1.67,1,.05-.3,.09-.61,.02-.9-.07-.29-.3-.57-.6-.61-.41-.05-.73,.33-.96,.67l-.06-.34-.07,.18Z"/>
              <path class="cls-23" d="M192.58,45.86c-.2,0-.41-.07-.57-.2,.38-.37,.98-.33,1.49-.24,.29,.05,.63,.16,.69,.45,.04,.2-.09,.39-.12,.59-.07,.4,.19,.92-.14,1.16-.19,.14-.46,.06-.63-.11-.16-.17-.23-.4-.3-.62-.15-.48-.29-.96-.44-1.45v.39Z"/>
              <path class="cls-23" d="M194.21,53.42c.12,.49,.49,.92,.95,1.12,.13-.4,.26-.79,.39-1.19,.06-.19,.12-.38,.08-.57-.08-.38-.57-.56-.92-.4-.35,.16-.52,.59-.47,.97l-.04,.08Z"/>
              <path class="cls-23" d="M198.15,48.24c-.15-.23-.54-.1-.68,.14-.14,.24-.15,.53-.27,.78-.12,.26-.36,.46-.63,.53-.16,.04-.35,.04-.46-.08-.08-.08-.11-.19-.13-.3-.11-.53-.16-1.1,.03-1.61,.18-.51,.65-.95,1.19-.96,.38,0,.75,.2,.94,.53s.19,.75,0,1.08v-.1Z"/>
              <path class="cls-23" d="M181.12,53.3c.26,.25,.52,.52,.86,.65,.34,.13,.76,.1,1-.17,.12-.13,.18-.31,.19-.49,.03-.54-.46-1.05-1-1.05-.54,0-1.02,.52-.99,1.06h-.05Z"/>
              <path class="cls-23" d="M185.99,59.71c.36,.57,1,.95,1.67,1,.05-.3,.09-.61,.02-.9-.07-.29-.3-.57-.6-.61-.41-.05-.73,.33-.96,.67-.02-.11-.04-.22-.06-.34l-.07,.18Z"/>
              <path class="cls-23" d="M192.75,44.59c.08-.36-.25-.66-.56-.86-.31-.2-.67-.44-.67-.81,0-.1,.03-.21,.12-.26,.21-.15,.45,.12,.68,.24,.18,.1,.4,.1,.59,.16,.47,.13,.84,.58,.87,1.07-.1,.24-.36,.41-.62,.41s-.52-.17-.62-.41l.21,.46Z"/>
              <path class="cls-23" d="M170.44,61.82c.05-.13,.11-.26,.16-.39-.15-.17-.43-.23-.63-.11-.2,.12-.26,.42-.11,.6,.15,.18,.48,.15,.58-.05v-.05Z"/>
              <path class="cls-23" d="M190.78,53.55c.14,.05,.27,.11,.41,.16,.11-.2,.22-.42,.17-.64s-.37-.37-.51-.19c-.05,.07-.07,.16-.07,.24-.03,.27-.06,.54-.09,.81l.1-.39Z"/>
            </g>
            <g>
              <path class="cls-21" d="M113.78,158.89c-1.89-1.5-4.13-2.56-6.49-3.07-.38-.08-.78-.15-1.16-.07-.74,.16-1.25,.84-1.5,1.55-.61,1.74,.08,3.8,1.5,4.96,1.43,1.17,3.46,1.46,5.23,.92,.97-.29,1.91-.86,2.38-1.76s.32-2.15-.51-2.73c-.31,.08-.42,.56-.18,.77l.72-.58Z"/>
              <path class="cls-21" d="M106.44,160.11c-.24-.96-1-1.77-1.95-2.06-.71,.69-1.2,1.68-1.03,2.65s1.18,1.8,2.13,1.55c.95-.25,1.32-1.76,.48-2.28l.37,.15Z"/>
              <path class="cls-21" d="M98.53,156.14c.17-.43,.12-.93-.13-1.32-.18,.09-.37,.19-.5,.35-.13,.16-.19,.39-.09,.57,.14,.25,.48,.27,.76,.26-.05,.06-.11,.11-.16,.17l.13-.03Z"/>
              <path class="cls-21" d="M100.29,156.62c.13,.04,.25,.13,.33,.24-.32,.16-.7,.02-1.02-.14-.18-.09-.38-.23-.36-.43,.01-.14,.13-.24,.2-.36,.12-.25,.06-.64,.32-.73,.15-.05,.31,.05,.39,.19,.07,.14,.07,.3,.07,.46v1.03s.07-.26,.07-.26Z"/>
              <path class="cls-22" d="M78.5,148.52c-.12-.26-.57-.1-.63,.18-.05,.28,.14,.55,.31,.78,.35-.2,.55-.62,.48-1.02l-.17,.05Z"/>
              <path class="cls-21" d="M73.81,157.69c.04,.13-.06,.27-.19,.31s-.27-.01-.39-.09c-.07-.04-.13-.1-.17-.17-.08-.16,0-.39,.18-.46,.17-.06,.39,.04,.45,.21,.07,.17-.02,.39-.19,.47l.3-.28Z"/>
              <path class="cls-21" d="M94.72,158.15c.29,.02,.5-.37,.33-.61-.15,0-.31,.02-.43,.11-.12,.09-.19,.26-.13,.4,.06,.14,.28,.18,.37,.06l-.15,.04Z"/>
              <path class="cls-21" d="M101.18,157.71c.22-.27,.31-.64,.23-.98-.27,.09-.54,.17-.81,.26-.13,.04-.26,.09-.35,.19-.17,.19-.08,.54,.15,.67s.53,.05,.72-.13h.06Z"/>
              <path class="cls-22" d="M77.68,156.84c-.09,.02-.19,.05-.28,.07-.03,.15,.05,.33,.2,.39,.15,.06,.34-.03,.38-.18,.04-.15-.11-.33-.26-.3l-.03,.02Z"/>
              <path class="cls-21" d="M96.74,157.63c-.06,.18,.16,.34,.35,.32,.19-.02,.35-.13,.54-.17,.19-.04,.39,.01,.55,.13,.09,.07,.16,.18,.14,.29-.01,.07-.06,.14-.11,.19-.25,.27-.54,.53-.89,.63-.36,.1-.78,.02-1.01-.27-.16-.2-.19-.49-.09-.73,.1-.24,.34-.41,.59-.44l-.06,.04Z"/>
              <path class="cls-21" d="M99.57,153.5c.14-.19,.06-.48-.14-.61-.19-.13-.46-.11-.67,0-.09,.05-.18,.15-.14,.24,.02,.07,.1,.1,.16,.13,.27,.11,.53,.22,.8,.32v-.09Z"/>
              <path class="cls-21" d="M88.92,150.74c-.05,.47-.65,.79-1.07,.56,.09-.36,.19-.74,.47-.98s.77-.28,.97,.04c-.03,.21-.07,.43-.1,.64l-.26-.25Z"/>
              <path class="cls-21" d="M123.16,164.82c.11,.01,.17,.14,.14,.25-.03,.1-.11,.18-.2,.24-.07,.05-.15,.1-.24,.11-.17,.02-.34-.1-.4-.27-.05-.16,0-.35,.13-.48,.06-.06,.14-.11,.22-.11s.17,.07,.17,.15l.18,.1Z"/>
              <path class="cls-21" d="M93.21,155.99c-.02-.1-.05-.19-.07-.29-.15,.02-.32,.05-.42,.16-.1,.12-.05,.35,.1,.36,.06,0,.11-.03,.16-.06,.16-.09,.32-.18,.48-.28l-.25,.1Z"/>
              <path class="cls-21" d="M87.95,155.05c-.12-.22-.24-.44-.43-.59-.19-.15-.48-.22-.69-.09-.1,.06-.18,.17-.22,.28-.13,.35,.09,.78,.44,.88,.35,.11,.77-.13,.86-.49h.03Z"/>
              <path class="cls-21" d="M86.66,152.8c-.15-.08-.29-.16-.44-.24-.09,.09-.15,.21-.19,.33,.16,.19,.48,.21,.66,.04l-.03-.13Z"/>
              <path class="cls-21" d="M100.71,145.32c-.94-.23-1.93-.24-2.87-.03-.15,.03-.31,.08-.43,.17-.24,.18-.31,.52-.29,.82,.07,.73,.67,1.37,1.38,1.55,.71,.18,1.5-.05,2.05-.54,.3-.27,.55-.63,.57-1.04s-.24-.84-.64-.91c-.1,.08-.06,.27,.06,.31l.17-.33Z"/>
              <path class="cls-21" d="M101.21,165.28c-.12-.44-.46-.82-.89-.98-.09,.19-.18,.38-.19,.58-.01,.21,.08,.43,.27,.52,.26,.12,.54-.07,.76-.24,0,.08-.02,.15-.03,.23l.08-.1Z"/>
              <path class="cls-21" d="M97.89,165.37c-.09-.1-.18-.2-.31-.22-.12-.02-.24,.03-.36,.09-.31,.14-.63,.25-.96,.34,.51,.25,1.02,.5,1.53,.74,.04,.02,.08,.04,.11,.07,.1,.12,0,.3,.02,.46,.03,.23,.31,.32,.54,.34,1.63,.11-.1-1.29-.57-1.82Z"/>
              <path class="cls-21" d="M104.27,164.95c.02-.35-.13-.7-.4-.92-.16,.23-.33,.46-.49,.69-.08,.11-.16,.23-.17,.36-.02,.26,.26,.48,.52,.44,.26-.04,.46-.28,.5-.54l.04-.04Z"/>
              <path class="cls-21" d="M120.53,169.81c-.09,.02-.19,.05-.28,.07-.03,.15,.05,.33,.2,.39,.15,.06,.34-.03,.38-.18,.04-.15-.11-.33-.26-.3l-.03,.02Z"/>
              <path class="cls-21" d="M100.45,162.54c0-.23-.24-.42-.48-.41-.23,.01-.44,.19-.53,.4-.04,.09-.06,.23,.03,.28,.06,.04,.14,.02,.21,0,.28-.07,.56-.15,.84-.22l-.06-.06Z"/>
              <path class="cls-21" d="M103.02,159.4c-.12-.22-.24-.44-.43-.59-.19-.15-.48-.22-.69-.09-.1,.06-.18,.17-.22,.28-.13,.35,.09,.78,.44,.88,.35,.11,.77-.13,.86-.49h.03Z"/>
              <path class="cls-21" d="M93.69,151.18c-.25,.02-.38,.3-.45,.54-.07,.24-.16,.52-.39,.6-.07,.02-.14,.02-.2-.02-.14-.11-.01-.32,.02-.49,.03-.14-.01-.28-.01-.42,0-.33,.21-.66,.52-.78,.18,.02,.34,.15,.39,.32s0,.37-.14,.49l.26-.23Z"/>
              <path class="cls-21" d="M87.87,153.25c-.25,.02-.38,.3-.45,.54-.07,.24-.16,.52-.39,.6-.07,.02-.14,.02-.2-.02-.14-.11-.01-.32,.02-.49,.03-.14-.01-.28-.01-.42,0-.33,.21-.66,.52-.78,.18,.02,.34,.15,.39,.32s0,.37-.14,.49l.26-.23Z"/>
              <path class="cls-21" d="M83.86,151c-.16-.12-.35-.2-.55-.24-.03,0-.07-.01-.1,0-.06,.02-.1,.07-.12,.13-.05,.15,.02,.32,.14,.41,.12,.09,.3,.11,.44,.06,.08-.03,.16-.08,.2-.15,.04-.08,.02-.18-.05-.23-.03,0-.03,.05-.01,.07l.06-.05Z"/>
              <path class="cls-21" d="M110.89,162.49c-.12-.44-.46-.82-.89-.98-.09,.19-.18,.38-.19,.58-.01,.21,.08,.43,.27,.52,.26,.12,.54-.07,.76-.24,0,.08-.02,.15-.03,.23l.08-.1Z"/>
              <path class="cls-21" d="M109.04,166.39c.24-.16,.18-.6-.1-.69-.12,.09-.23,.2-.27,.35s0,.32,.14,.39c.13,.07,.33-.02,.33-.17l-.1,.12Z"/>
              <path class="cls-21" d="M103.8,160.79c.24-.16,.18-.6-.1-.69-.12,.09-.23,.2-.27,.35s0,.32,.14,.39c.13,.07,.33-.02,.33-.17l-.1,.12Z"/>
              <path class="cls-21" d="M110.35,164.75c.06,.18,.33,.17,.47,.05,.14-.13,.2-.32,.33-.46,.13-.14,.32-.23,.52-.22,.11,0,.24,.05,.29,.15,.03,.07,.03,.15,.02,.22-.03,.37-.12,.75-.34,1.04-.22,.3-.61,.49-.97,.39-.25-.07-.45-.28-.51-.53-.06-.25,.03-.53,.22-.7l-.02,.07Z"/>
              <path class="cls-21" d="M91.94,153.02c.06,.18,.33,.17,.47,.05s.2-.32,.33-.46c.13-.14,.32-.23,.52-.22,.11,0,.24,.05,.29,.15,.03,.07,.03,.15,.02,.22-.03,.37-.12,.75-.34,1.04-.22,.3-.61,.49-.97,.39-.25-.07-.45-.28-.51-.53-.06-.25,.03-.53,.22-.7l-.02,.07Z"/>
              <path class="cls-21" d="M92.91,150.79c.06,.18,.33,.17,.47,.05,.14-.13,.2-.32,.33-.46,.13-.14,.32-.23,.52-.22,.11,0,.24,.05,.29,.15,.03,.07,.03,.15,.02,.22-.03,.37-.12,.75-.34,1.04-.22,.3-.61,.49-.97,.39-.25-.07-.45-.28-.51-.53-.06-.25,.03-.53,.22-.7l-.02,.07Z"/>
              <path class="cls-21" d="M95.96,152.97c.06,.18,.33,.17,.47,.05s.2-.32,.33-.46c.13-.14,.32-.23,.52-.22,.11,0,.24,.05,.29,.15,.03,.07,.03,.15,.02,.22-.03,.37-.12,.75-.34,1.04-.22,.3-.61,.49-.97,.39-.25-.07-.45-.28-.51-.53-.06-.25,.03-.53,.22-.7l-.02,.07Z"/>
              <path class="cls-21" d="M76.63,170.73c.06,.18,.33,.17,.47,.05s.2-.32,.33-.46c.13-.14,.32-.23,.52-.22,.11,0,.24,.05,.29,.15,.03,.07,.03,.15,.02,.22-.03,.37-.12,.75-.34,1.04-.22,.3-.61,.49-.97,.39-.25-.07-.45-.28-.51-.53-.06-.25,.03-.53,.22-.7l-.02,.07Z"/>
              <path class="cls-21" d="M106.54,165.55l-.23-.19c-.11,.11-.23,.23-.24,.38,0,.15,.17,.31,.3,.23,.05-.03,.07-.09,.1-.14,.07-.17,.15-.34,.22-.51l-.14,.23Z"/>
              <path class="cls-21" d="M86.86,164.09c-.12-.22-.24-.44-.43-.59s-.48-.22-.69-.09c-.1,.06-.18,.17-.22,.28-.13,.35,.09,.78,.44,.88,.35,.11,.77-.13,.86-.49h.03Z"/>
              <path class="cls-21" d="M106.55,157.97c.33,.13,.37,.67,.07,.85-.19-.02-.38-.08-.55-.17,.05-.21,.18-.4,.36-.52l.13-.16Z"/>
              <path class="cls-22" d="M85.03,161.55c-.09-.11-.18-.22-.31-.29s-.29-.07-.4,.02c-.17,.16-.07,.45-.15,.67-.08,.22-.35,.36-.35,.59,0,.23,.28,.38,.51,.32,.22-.06,.38-.25,.52-.43,.12-.17,.23-.35,.25-.56s-.1-.43-.31-.47l.23,.15Z"/>
              <path class="cls-21" d="M96.39,155.91c.39-.91,.26-2.02-.33-2.82-.98,.12-1.97,.62-2.41,1.5-.44,.88-.13,2.14,.78,2.51s2.12-.62,1.75-1.54l.21,.34Z"/>
              <path class="cls-21" d="M107.56,155.93c-.04,.13-.21,.18-.34,.13-.13-.05-.21-.17-.26-.3-.03-.07-.04-.16-.03-.23,.03-.18,.24-.31,.42-.26s.29,.26,.24,.44c-.05,.18-.25,.3-.43,.27l.4-.04Z"/>
              <path class="cls-21" d="M102.13,155.97c-.23,.1-.26,.41-.25,.65,.02,.25,.03,.55-.17,.69-.06,.04-.13,.06-.19,.04-.17-.06-.12-.3-.14-.47-.02-.14-.1-.26-.15-.39-.12-.31-.02-.69,.24-.91,.17-.04,.37,.03,.47,.18,.11,.14,.12,.35,.03,.51l.17-.3Z"/>
              <path class="cls-21" d="M94.79,159l-.27-.11c-.12,.1-.16,.29-.08,.43,.08,.13,.29,.18,.41,.08,.12-.1,.11-.33-.03-.4h-.03Z"/>
              <path class="cls-21" d="M100.26,158.74c.08,.07,.05,.22-.03,.28-.08,.07-.2,.08-.31,.07-.09,0-.18-.01-.25-.06-.15-.08-.22-.29-.16-.45,.06-.16,.22-.28,.39-.31,.08-.01,.18,0,.24,.05,.07,.05,.1,.16,.05,.22l.08,.19Z"/>
              <path class="cls-21" d="M98.88,166.9c.89-.44,1.52-1.36,1.6-2.35-.82-.55-1.9-.82-2.81-.44-.91,.38-1.5,1.53-1.05,2.41,.45,.88,2.01,.92,2.33-.02l-.07,.39Z"/>
              <path class="cls-21" d="M106.11,164.11c-.12-.26-.57-.1-.63,.18-.05,.28,.14,.55,.31,.78,.35-.2,.55-.62,.48-1.01l-.17,.05Z"/>
              <path class="cls-21" d="M105.27,153.64c-.09-.04-.18-.07-.27-.11-.12,.1-.16,.29-.08,.43,.08,.13,.29,.18,.41,.08,.12-.1,.11-.33-.03-.4h-.03Z"/>
              <path class="cls-21" d="M102.47,158.08c-.8-.68-1.76-1.16-2.77-1.41-.16-.04-.33-.07-.5-.04-.32,.06-.55,.35-.67,.65-.29,.75-.01,1.65,.59,2.17,.6,.52,1.48,.68,2.25,.47,.42-.11,.84-.35,1.05-.73,.21-.38,.17-.93-.18-1.19-.14,.03-.19,.24-.09,.33l.32-.24Z"/>
              <path class="cls-21" d="M90.61,170.63c-.24-.96-1-1.77-1.95-2.06-.71,.69-1.2,1.68-1.03,2.65,.17,.97,1.18,1.8,2.13,1.55,.95-.25,1.32-1.76,.48-2.28l.37,.15Z"/>
              <path class="cls-21" d="M84.6,152.96c-.12-.44-.46-.82-.89-.98-.09,.19-.18,.38-.19,.58-.01,.21,.08,.43,.27,.52,.26,.12,.54-.07,.76-.24,0,.08-.02,.15-.03,.23l.08-.1Z"/>
              <path class="cls-21" d="M81.29,153.05c-.09-.1-.18-.2-.31-.22-.12-.02-.24,.03-.36,.09-.31,.14-.63,.25-.96,.34,.51,.25,1.02,.5,1.53,.74,.04,.02,.08,.04,.11,.07,.1,.12,0,.3,.02,.46,.03,.23,.31,.32,.54,.34,1.63,.11-.1-1.29-.57-1.82Z"/>
              <path class="cls-21" d="M101.26,155.26c-.15-.08-.29-.16-.44-.24-.14,.3-.13,.7,.12,.92,.25,.22,.74,.09,.77-.24,.02-.2-.04-.53,.17-.51l-.62,.07Z"/>
              <path class="cls-21" d="M87.22,157.88c.13,.04,.25,.13,.33,.24-.32,.16-.7,.02-1.02-.14-.18-.09-.38-.23-.36-.43,.01-.14,.13-.24,.2-.36,.13-.25,.06-.64,.32-.73,.15-.05,.31,.05,.39,.19,.07,.14,.07,.3,.07,.46,0,.34,0,.69,0,1.03l.07-.26Z"/>
              <path class="cls-21" d="M85.36,162.98c-.12-.26-.57-.1-.63,.18-.05,.28,.14,.55,.31,.78,.35-.2,.55-.62,.48-1.02l-.17,.05Z"/>
              <path class="cls-22" d="M81.5,158.18c.04,.13-.06,.27-.19,.31s-.27-.01-.39-.09c-.07-.04-.13-.1-.17-.17-.08-.16,0-.39,.18-.46,.17-.06,.39,.04,.45,.21,.07,.17-.02,.39-.19,.47l.3-.28Z"/>
              <path class="cls-21" d="M82.75,156.85c.24-.16,.18-.6-.1-.69-.12,.09-.23,.2-.27,.35-.04,.14,0,.32,.14,.39s.33-.02,.33-.17l-.1,.12Z"/>
              <path class="cls-21" d="M87.67,152.63c.02-.35-.13-.7-.4-.92-.16,.23-.33,.46-.49,.69-.08,.11-.16,.23-.17,.36-.02,.26,.26,.48,.52,.44,.26-.04,.46-.28,.5-.54l.04-.04Z"/>
              <path class="cls-22" d="M81.87,162.21c.05,.19-.02,.41-.17,.54-.16,.13-.39,.15-.56,.05-.12-.06-.22-.23-.13-.34,.03-.05,.09-.07,.15-.09,.24-.09,.47-.18,.71-.27,0,.04,.02,.09,.03,.13v-.03Z"/>
              <path class="cls-22" d="M78.91,164.83c-.25,.02-.38,.3-.45,.54-.07,.24-.16,.52-.39,.6-.07,.02-.14,.02-.2-.02-.14-.11-.01-.32,.02-.49,.03-.14-.01-.28-.01-.42,0-.33,.21-.66,.52-.78,.18,.02,.34,.15,.39,.32s0,.37-.14,.49l.26-.23Z"/>
              <path class="cls-22" d="M95.32,149.21c-.25,.02-.38,.3-.45,.54-.07,.24-.16,.52-.39,.6-.07,.02-.14,.02-.2-.02-.14-.11-.01-.32,.02-.49,.03-.14-.01-.28-.01-.42,0-.33,.21-.66,.52-.78,.18,.02,.34,.15,.39,.32s0,.37-.14,.49l.26-.23Z"/>
              <path class="cls-22" d="M77.29,162.93c-.07-.06-.14-.13-.21-.19-.15,.06-.25,.23-.21,.38,.03,.15,.21,.27,.36,.21,.15-.05,.21-.27,.1-.39h-.03Z"/>
              <path class="cls-21" d="M84.06,155.22c.06,.18,.33,.17,.47,.05s.2-.32,.33-.46c.13-.14,.32-.23,.52-.22,.11,0,.24,.05,.29,.15,.03,.07,.03,.15,.02,.22-.03,.37-.12,.75-.34,1.04-.22,.3-.61,.49-.97,.39-.25-.07-.45-.28-.51-.53s.03-.53,.22-.7l-.02,.07Z"/>
              <path class="cls-21" d="M83.85,150.22c0-.23-.24-.42-.48-.41-.23,.01-.44,.19-.53,.4-.04,.09-.06,.23,.03,.28,.06,.04,.14,.02,.21,0,.28-.07,.56-.15,.84-.22l-.06-.06Z"/>
              <path class="cls-21" d="M89.29,161.93c-.05,.47-.65,.79-1.07,.56,.09-.36,.19-.74,.47-.98s.77-.28,.97,.04c-.03,.21-.07,.43-.1,.64l-.26-.25Z"/>
              <path class="cls-22" d="M80.25,156.02l-.23-.19c-.11,.11-.23,.23-.24,.38s.17,.31,.3,.23c.05-.03,.07-.09,.1-.14,.07-.17,.15-.34,.22-.51l-.14,.23Z"/>
              <path class="cls-21" d="M106.34,160.27c-.12-.22-.24-.44-.43-.59s-.48-.22-.69-.09c-.1,.06-.18,.17-.22,.28-.13,.35,.09,.78,.44,.88s.77-.13,.86-.49h.03Z"/>
              <path class="cls-21" d="M93.53,167.26c-.15-.08-.29-.16-.44-.24-.09,.09-.15,.21-.19,.33,.16,.19,.48,.21,.66,.04l-.03-.13Z"/>
              <path class="cls-21" d="M118.09,165.76c.04,.13-.06,.27-.19,.31s-.27-.01-.39-.09c-.07-.04-.13-.1-.17-.17-.08-.16,0-.39,.18-.45,.17-.06,.39,.04,.45,.21,.07,.17-.02,.39-.19,.47l.3-.28Z"/>
              <path class="cls-21" d="M91.8,163.5c-.15-.08-.29-.16-.44-.24-.09,.09-.15,.21-.19,.33,.16,.19,.48,.21,.66,.04l-.03-.13Z"/>
              <path class="cls-21" d="M97.92,151.22c0-.19-.27-.26-.44-.18-.17,.08-.29,.24-.45,.34-.17,.1-.38,.12-.56,.06-.11-.04-.21-.11-.23-.22-.01-.07,.01-.15,.04-.22,.14-.34,.33-.68,.63-.9,.3-.22,.73-.29,1.04-.09,.22,.14,.35,.4,.33,.66s-.18,.5-.41,.61l.04-.06Z"/>
              <path class="cls-21" d="M101.66,160.46c.05,.13,.11,.27,.21,.36,.1,.1,.26,.15,.39,.09,.21-.1,.2-.41,.34-.59,.14-.19,.44-.24,.51-.46,.07-.22-.16-.44-.39-.45-.23-.01-.44,.12-.62,.26-.16,.12-.33,.27-.4,.46-.07,.19-.03,.44,.15,.54l-.18-.21Z"/>
              <path class="cls-21" d="M92.16,155.33c.79,.33,1.65,.47,2.5,.41,.14,0,.28-.02,.4-.09,.23-.12,.34-.41,.36-.67,.04-.65-.39-1.28-.99-1.54-.6-.26-1.32-.16-1.86,.19-.3,.19-.56,.48-.64,.83s.1,.76,.44,.88c.1-.06,.09-.23-.01-.28l-.19,.27Z"/>
              <path class="cls-21" d="M96.21,150.65c.04-.12,.08-.26,.04-.38-.04-.12-.15-.19-.25-.27-.28-.2-.53-.42-.77-.67,.04,.56,.08,1.13,.11,1.69,0,.05,0,.09,0,.13-.05,.15-.26,.15-.39,.25-.18,.14-.13,.43-.03,.63,.72,1.47,1.07-.73,1.29-1.4Z"/>
              <path class="cls-21" d="M92.18,155.12l-.2-.21c-.15,.05-.26,.21-.24,.36,.02,.16,.19,.28,.34,.24,.15-.04,.23-.26,.13-.38l-.03-.02Z"/>
              <path class="cls-21" d="M93.52,150.72c.2-.12,.24-.42,.12-.62-.13-.2-.38-.29-.61-.26-.1,.01-.22,.06-.23,.17,0,.07,.05,.13,.1,.18,.2,.21,.4,.41,.61,.62l.02-.08Z"/>
              <path class="cls-21" d="M91.95,153.39c.32-.33,.48-.81,.41-1.26-.21,.01-.42,.03-.6,.12-.18,.09-.33,.28-.31,.49,.03,.28,.33,.44,.59,.54-.07,.03-.14,.06-.21,.09l.13,.02Z"/>
              <path class="cls-21" d="M90.16,154.44c.03,.14,.01,.28-.04,.41-.3-.19-.37-.6-.38-.96,0-.2,.01-.44,.2-.53,.13-.06,.27,0,.41,0,.28-.02,.59-.27,.79-.08,.12,.1,.11,.3,.02,.43-.09,.13-.23,.21-.36,.29-.3,.17-.6,.34-.9,.51l.26-.06Z"/>
              <path class="cls-21" d="M94.94,152.21c.31-.16,.54-.46,.6-.8-.28-.03-.56-.05-.85-.08-.13-.01-.27-.02-.39,.03-.24,.11-.29,.46-.13,.67,.16,.21,.47,.26,.71,.17h.06Z"/>
              <path class="cls-21" d="M90.9,150.37c-.13,.14,.01,.37,.19,.43,.18,.06,.37,.02,.56,.06,.19,.04,.36,.17,.45,.34,.05,.1,.08,.23,.02,.32-.04,.06-.11,.1-.18,.13-.34,.15-.71,.27-1.07,.23s-.73-.29-.82-.65c-.06-.25,.02-.53,.21-.71s.47-.24,.72-.16h-.07Z"/>
              <path class="cls-21" d="M96.84,160.94c.13-.21,.26-.42,.3-.67,.04-.24-.05-.52-.26-.64-.11-.06-.24-.07-.36-.05-.36,.06-.63,.47-.55,.83,.08,.36,.5,.6,.85,.5v.03Z"/>
              <path class="cls-21" d="M100.36,156.73c.32-.33,.48-.81,.41-1.26-.21,.01-.42,.03-.6,.12-.18,.09-.33,.28-.31,.49,.03,.28,.33,.44,.59,.54-.07,.03-.14,.06-.21,.09l.13,.02Z"/>
              <path class="cls-21" d="M89.29,154.52c-.25,0-.4,.27-.49,.5-.08,.23-.19,.51-.43,.57-.07,.02-.14,0-.19-.04-.13-.12,0-.32,.06-.49,.04-.13,0-.28,.02-.42,.02-.33,.26-.64,.58-.74,.18,.03,.33,.18,.37,.35,.04,.17-.03,.37-.18,.47l.27-.21Z"/>
              <path class="cls-21" d="M104.11,166.75l-.28-.05c-.09,.13-.09,.32,.02,.43,.11,.11,.32,.11,.42-.02,.1-.13,.03-.34-.12-.38h-.03Z"/>
              <path class="cls-21" d="M95.54,154.48l.05-.3c-.15-.04-.31-.09-.45-.02-.14,.07-.19,.3-.05,.37,.05,.03,.11,.02,.17,.01,.18-.02,.37-.04,.55-.06h-.27Z"/>
            </g>
          </g>
          <ellipse class="cls-53" cx="93.35" cy="210.72" rx="40.78" ry="9.08"/>
          <g>
            <polygon class="cls-12" points="188.27 1.2 191.19 2.45 188.27 35.1 185.77 36.21 172.03 37.59 170.99 43.33 160.99 35.1 188.27 1.2"/>
            <path class="cls-8" d="M85.34,175.47c-1.19,6.94-6.46,22.98-11.19,21.28-1.02-.36-2.09-1.66-3.16-3.56-3.23-5.79-6.41-17.17-7.99-24.87-.86-4.2-1.24-7.3-.9-7.81,2.11-3.12,22.15,10.42,23.35,11.93,.22,.29,.17,1.41-.11,3.03Z"/>
            <path class="cls-31" d="M117.08,166.1c-.07,.64-.16,1.31-.26,2-1.42,10.54-4.34,26.03-7.49,31.66-.75,1.35-1.52,2.14-2.28,2.15-.2,0-.4-.02-.61-.09-.71-.21-1.46-.78-2.23-1.64h0c-4.77-5.37-10.16-21.64-10.35-26.49-.02-.6,.03-1.03,.18-1.24,2.72-3.69,22.43-16.3,23.53-14.8,.29,.4,.07,3.76-.49,8.45Z"/>
            <path class="cls-7" d="M62.1,160.52c-2.22,2.9,15.86,16.02,23.48,12.59,0,0-20.53-16.44-23.48-12.59Z"/>
            <path class="cls-38" d="M93.86,173.68c-.6,1.48,20.27-1.91,23.71-16.03,0,0-18.05,2.11-23.71,16.03Z"/>
            <path class="cls-57" d="M70,172.7c-1.01,1.25,.24,17.49,4.14,24.05-1.02-.36-2.09-1.66-3.16-3.56-.63-2.84-1.57-7.06-2.46-11.28-1.14-5.42-4.04-10.99-5.52-13.59-.86-4.2-1.24-7.3-.9-7.81,2.11-3.12,22.15,10.42,23.35,11.93,.22,.29,.17,1.41-.11,3.03,0,0-14.32-4.01-15.33-2.77Z"/>
            <path class="cls-21" d="M105.31,178.59c-.85,.26-1.05,7.06,.37,7.44s1.6-8.05-.37-7.44Z"/>
            <path class="cls-58" d="M117.08,166.1s-11.42,3.38-14.06,8.8c-2.64,5.41-1.65,18.27,1.2,25.27-4.77-5.36-10.16-21.63-10.35-26.49-.02-.6,.03-1.03,.18-1.24,2.72-3.69,22.43-16.3,23.53-14.8,.29,.4,.07,3.76-.49,8.45Z"/>
            <path class="cls-30" d="M67.74,112.88c-.02,6.03-.87,14.74-3.6,21.78-4.53,11.66-11.33,26.33-11.53,26.79h0c-4.15,2.54-9.13,2.41-12.29,1.95-1.92-.28-3.17-.68-3.17-.68,0,0,1.41-13.35,8.75-28.48,3.68-7.6,8.38-14.67,12.43-19.88,.02-.02,.04-.05,.06-.07,.04-.07,.1-.13,.15-.2,.03-.04,.06-.07,.08-.11,.03-.03,.06-.07,.07-.1,.04-.05,.07-.09,.11-.13,0,0,.02-.02,.02-.02,0,0,.02-.02,.02-.02,4.11-5.22,7.45-8.38,8.15-8,.42,.23,.79,3.08,.77,7.18Z"/>
            <path class="cls-43" d="M37.19,162.19s5.35-8.83,10.87-7.68c5.52,1.15,4.53,6.95,4.53,6.95,0,0-7.06,5.11-15.4,.73Z"/>
            <path class="cls-60" d="M67.74,112.88c-.02,6.03-.87,14.74-3.6,21.78-4.53,11.66-11.33,26.33-11.53,26.79h0s-12.29,1.95-12.29,1.95c-1.92-.28-3.17-.68-3.17-.68,0,0,1.41-13.35,8.75-28.48,3.68-7.6,8.38-14.67,12.43-19.88-2.32,3.06-12.01,16.37-14.62,27.68-2.97,12.87,9,7.91,13.9,0,4.89-7.91,10-29.15,10-29.15h.15Z"/>
            <path class="cls-21" d="M54.36,133.45c-.97-.37,4.06-11.77,5.62-11.87,1.56-.1-4.79,12.18-5.62,11.87Z"/>
            <path class="cls-21" d="M53.85,134.66c-.77-.41-1.49,1.73-.79,2.04s1.66-1.58,.79-2.04Z"/>
            <path class="cls-33" d="M46.28,157.17c-2.86-.47-7.01,2.21-8.3,4.61-1.3,2.4-1.97,16.22,1.3,27.64,0,0,4.61,1.25,8.06,0,3.46-1.25,5.86-11.33,6.05-18.91s-2.4-12.57-7.1-13.34Z"/>
            <path class="cls-42" d="M45.85,189.8s-4.21-24.33,5.36-29.3c0,0,2.84,4.82,1.79,14.23-1.06,9.41-2.68,14.21-7.14,15.07Z"/>
            <path class="cls-52" d="M45.16,176.3s2.46,3.59,4.14,4.18c1.68,.59,2.99-.03,2.99-.03l-6.21-11.04s-1.13,4.39-.92,6.9Z"/>
            <path class="cls-32" d="M46.09,169.41s1.36-6.74,5.43-8.38c0,0,3.78,3.73,2.82,18.22,0,0-2.11,2.78-5.09,0,0,0-2.5-4.94-3.17-9.84Z"/>
            <path class="cls-21" d="M48.41,167.03c-1.38,0,.72,6.12,1.44,5.98,.72-.14-.29-5.98-1.44-5.98Z"/>
            <path class="cls-63" d="M64.13,27.22s-6.25-5.4-13.91-6.33c0,0-2.34,1.15-5.05,9.58-2.71,8.43,2.29,25.1,2.29,25.1l16.67-28.34Z"/>
            <path class="cls-44" d="M47.26,25.09s1.23-2.85,2.97-4.2c0,0,6.3,5.81,6.05,19.7l-1.82,1.88-7.2-17.37Z"/>
            <path class="cls-3" d="M115.89,27.22s6.25-5.4,13.91-6.33c0,0,2.34,1.15,5.05,9.58,2.71,8.43-2.29,25.1-2.29,25.1l-16.67-28.34Z"/>
            <path class="cls-45" d="M129.8,20.88s-6.19,6.64-6.19,17.34l2.4,1.51,6.98-14.44s-2.32-4.53-3.18-4.41Z"/>
            <path class="cls-13" d="M125.78,39s-1.65-9.14,4.37-15.85c0,0,6.79,3.2,9.61,15.07,2.81,11.87-4.51,19-4.51,19l-9.47-18.22Z"/>
            <path class="cls-35" d="M54.25,39s1.65-9.14-4.37-15.85c0,0-6.79,3.2-9.61,15.07-2.81,11.87,4.51,19,4.51,19l9.47-18.22Z"/>
            <path class="cls-27" d="M134.12,89.51c-13.96,19.57-79.55,18.12-88.09,2.29-5.57-10.34-4.96-25.88,.4-40.18,7.04-18.77,22.28-35.42,42.5-35.42,23.79,0,42.07,23.7,47.57,45.35,2.79,10.96,2.31,21.38-2.38,27.96Z"/>
            <path class="cls-25" d="M50.93,71.36c3.12,13.33,60.78,14.78,74.94,2.7,14.16-12.08-6.23-54.99-37.47-53.12-28.57,1.71-42.59,28.58-37.47,50.42Z"/>
            <path class="cls-64" d="M50.63,69.74c3.12,13.33,60.78,14.78,74.94,2.7,14.16-12.08-6.23-54.99-37.47-53.12-28.57,1.71-42.59,28.58-37.47,50.42Z"/>
            <path class="cls-54" d="M134.12,89.51c-13.96,19.57-79.55,18.12-88.09,2.29-5.57-10.34-4.96-25.88,.4-40.18,0,0,0,0,0,0-.23,.84-5.73,20.89-.12,29.71,5.74,9.02,28.44,7.77,52.81,6.73,24.37-1.05,32.43-4.58,36.52-11.46,3.22-5.41-.02-17.34-1.54-22.18l2.39,7.13c2.79,10.96,2.31,21.38-2.38,27.96Z"/>
            <path class="cls-6" d="M89.01,103.92c-13.63-.02-23.46-1.55-28.96-3.75h0c-3.61-1.44-5.36-3.17-5.1-4.94,.16-1.08,2.84-2.03,7.05-2.8,12.38-2.24,38.01-2.92,51.82-.82,1.19,.18,2.29,.38,3.29,.6,.21,.05,.42,.1,.62,.15,.04,0,.07,.02,.12,.02,2.38,.59,4.07,1.3,4.82,2.18,.19,.22,.32,.45,.39,.68,1.29,4.42-21.71,8.7-34.03,8.69Z"/>
            <path class="cls-50" d="M122.88,94.14c-.05,.13-.12,.27-.23,.41-1.34,1.89-6.75,4.32-6.75,4.32,0,0-20.82-8.52-37.69-4.73s-18.16,6.03-18.16,6.03h0c-3.61-1.44-5.36-3.17-5.1-4.94,.16-1.08,2.84-2.03,7.05-2.8,12.38-2.24,38.01-2.92,51.82-.82,1.44,.26,2.75,.51,3.91,.75,.04,0,.07,.02,.12,.02,3.27,.71,5.21,1.34,5.05,1.76Z"/>
            <path class="cls-11" d="M117.09,92.2c-3.22,3.08-18.68,5.75-27.49,5.74-15.79-.02-25.39-2.51-27.62-5.52,13.45-2.43,42.53-3.03,55.11-.22Z"/>
            <path class="cls-28" d="M116.1,153.97c-1.9,11.24-11.97,18.74-26.4,18.74-12.56,0-23.21-4.68-26.02-15-2.81-10.3-1.72-29.36,2.03-41.23,.56-1.77,1.24-3.48,2.02-5.1v-.02c.72-1.47,1.51-2.87,2.38-4.18,0,0,0-.02,0-.02,4.58-6.9,11.29-11.41,18.88-11.41s13.94,3.25,18.05,8.05c1.91,2.23,3.41,4.81,4.48,7.54,1.24,3.15,2.28,6.49,3.1,9.93,0,.02,0,.06,.02,.1,2.6,10.78,3.15,22.55,1.45,32.59Z"/>
            <path class="cls-47" d="M106.25,102.91s1.23,13.36,9.07,21.48c0,0-2.17-12.45-9.07-21.48Z"/>
            <path class="cls-29" d="M150.58,86.59c-12.29,24.37-33.97,32.69-33.97,32.69-5.96-3.86-11.15-16.45-9.1-18.91h0c.1-.13,.23-.23,.37-.3,26.45-12.65,34.36-25.78,34.36-25.78,3.57,.26,5.61,2.34,6.78,4.73,1.71,3.47,1.56,7.56,1.56,7.56Z"/>
            <path class="cls-51" d="M46.03,91.8s2.77-3.23,8.2-5.84c5.43-2.6,10.43-4.64,11.2-6.73s-14.91-.86-14.91-.86l-7.8,3.39s1.22,6.29,3.3,10.04Z"/>
            <path class="cls-39" d="M142.25,74.3c-2.2,.59-1.98,15.2,.83,16.66,2.81,1.46,7.5-4.37,7.5-4.37,0,0-.52-14.37-8.33-12.29Z"/>
            <path class="cls-37" d="M100.49,48.17c2.08,3.67,15.88,.41,16.66-1.77,1.04-2.92-2.81-12.08-10.1-11.25-7.29,.83-7.57,11.24-6.56,13.02Z"/>
            <path class="cls-36" d="M78.93,48.17c-2.08,3.67-15.88,.41-16.66-1.77-1.04-2.92,2.81-12.08,10.1-11.25,7.29,.83,7.57,11.24,6.56,13.02Z"/>
            <path class="cls-26" d="M75.08,54.93s3.93,4.06,15.09,4.06,16.88-4.69,16.88-4.69c0,0-4.92,6.66-16.88,6.66s-15.09-6.04-15.09-6.04Z"/>
            <path class="cls-40" d="M39.64,42.46s4.05,2.6,1.39,8.63c0,0-18.9,10.29-17.8,21.51,.91,9.36,27.02,4.83,27.02,4.83l.94,3.12s-22.18,4.34-29.83-.88c0,0-2.6-6.18,3.85-17.32,6.46-11.14,14.43-19.89,14.43-19.89Z"/>
            <path class="cls-65" d="M46.94,76.56c-2.38,2.69,2.67,5.64,6.82,6.09,4.66,.51,12.93-1.34,12.43-6.03-.5-4.69-13.67-6.37-19.25-.06Z"/>
            <path class="cls-16" d="M60.09,36.03c-.72,4.32,8.89,4.13,21.97,3.7,15.72-.52,31.52,13.02,40.72,3.3,1.52-1.6-13.54-22.62-31.71-22.15-18.17,.47-30.35,11.4-30.98,15.15Z"/>
            <path class="cls-17" d="M69,73.64c-.83,3.13,5.72,6.26,21.81,5.47,19.46-.95,23.59-5.03,22.64-6.16-.57-.68-6.4,2.99-22.39-.51-10.56-2.31-21.19-2.09-22.06,1.2Z"/>
            <path class="cls-55" d="M133.98,54l-.47-1.42c.09,.27,.26,.76,.47,1.42Z"/>
            <path class="cls-59" d="M116.1,153.97c-1.9,11.24-11.97,18.74-26.4,18.74-12.56,0-23.21-4.68-26.02-15-2.81-10.3-1.72-29.36,2.03-41.23,.56-1.77,1.24-3.48,2.02-5.1v-.02s-7.59,25.2-1.52,41.25c6.08,16.05,34.38,15.71,43.96,5.05,9.12-10.15,4.9-33.99,4.48-36.27,2.6,10.78,3.15,22.55,1.45,32.59Z"/>
            <path class="cls-41" d="M64.22,147.29c2.15-15.09,14.25-25.32,27.7-24.05,14.49,1.37,22.28,15.2,22.08,27.07-.21,11.87-8.88,21.14-24.44,21.14s-27.35-10.05-25.34-24.16Z"/>
            <path class="cls-10" d="M64.36,148.54c2.15-15.09,14.25-25.32,27.7-24.05,14.49,1.37,22.28,15.2,22.08,27.07-.21,11.87-8.88,21.14-24.44,21.14s-27.35-10.05-25.34-24.16Z"/>
            <path class="cls-49" d="M107.05,103.8c-3.07,4.82-20,7.63-29.78,6.74-8.52-.78-7.22-3.08-7.16-3.37,0,0,0-.02,0-.02,4.58-6.9,11.29-11.41,18.88-11.41s13.94,3.25,18.05,8.05Z"/>
            <path class="cls-21" d="M101.04,112.16c-.79,.26-.82,6.6,0,7.63,.82,1.02,2.15,.71,2.59-.79,.44-1.49-1.4-7.23-2.59-6.84Z"/>
            <path class="cls-21" d="M102.49,121.48c-.66,.16-.73,1.73-.43,2.28s1.44,.43,1.63-.24c.19-.67-.54-2.2-1.2-2.04Z"/>
            <path class="cls-20" d="M72.87,163.91s3.47,6.05,16.41,6.1c12.94,.05,18.2-7.65,18.2-7.65,0,0-5.97,3.89-14.5,1.55-8.54-2.34-16.98-3.65-20.1,0Z"/>
            <path class="cls-21" d="M100.06,18.96c-1.38,.32,10.21,6.46,10.68,5.73,.47-.73-6.86-6.62-10.68-5.73Z"/>
            <path class="cls-21" d="M122.28,23.54c-1.16,.62-1.06,1.87,1.33,1.56s3.69-2.19,3.43-2.55-3.47,.29-4.76,.99Z"/>
            <path class="cls-56" d="M150.58,86.59c-12.29,24.37-33.97,32.69-33.97,32.69-5.96-3.86-11.15-16.45-9.1-18.91h0c.12-.12,.24-.21,.37-.3,0,0,3.87,14.21,15.2,10.27,13.45-4.68,18.95-28.05,18.95-28.05v-6.85l6.98,3.59c1.71,3.47,1.56,7.56,1.56,7.56Z"/>
            <path class="cls-34" d="M141.46,78.43s-.1,7.71,4.27,8.96c4.37,1.25,9.84-6.92,11.87-10.31,2.03-3.39,5.1-18.64,2.19-22.29-2.92-3.64-8.54-2.71-12.29,2.39,0,0-5.83,14.68-6.04,21.24Z"/>
            <path class="cls-5" d="M141.7,76.14s5.07-3.86,6.22-9.79,7.29-13.76,7.29-13.76c0,0-3.23-.3-7.71,4.6-4.48,4.89-5.8,18.96-5.8,18.96Z"/>
            <path class="cls-48" d="M146.7,58.2l3.88,1.46s-1.72,2.89-2.42,5.65-3.33,6.53-3.33,6.53l1.87-13.64Z"/>
            <path class="cls-2" d="M141.7,74.68s-1.33-2.92-1.51-8.54c-.18-5.62,1.15-10.05,1.78-10.83,.62-.78,2.81-.68,3.85,.57s1.79,7.43,1.79,7.43c0,0-1.4,10.01-5.91,11.36Z"/>
            <path class="cls-4" d="M147.92,66.35s2.61,8.59,8.88,12.03l.81-1.3s-6.39-3.37-9.44-11.76l-.24,1.03Z"/>
            <path class="cls-21" d="M143.34,59.52c-.63-.07-.42,5.46,.36,5.23,.78-.23,.52-5.13-.36-5.23Z"/>
            <path class="cls-9" d="M47.26,77.05c-.14,.77,16.49,.95,16.88-1.99,.39-2.94-15.78-3.95-16.88,1.99Z"/>
            <path class="cls-18" d="M51.35,65.35s-.68-4.54,.12-10.63c.8-6.09,2.43-10.02,3.41-9.47,.97,.55,.82,6.52,1.4,12.39,.45,4.57,1.33,8.87,1.33,8.87,0,0-4.21,4.02-6.26-1.16Z"/>
            <path class="cls-19" d="M69.5,138.97c2.55,4.08,13.07,1.91,24.92,3.06,11.85,1.16,13.87,5.01,16.37,4.23s-1.45-18.62-19.15-19.83c-17.7-1.21-22.77,11.52-22.13,12.54Z"/>
            <path class="cls-46" d="M151.07,1.2s-.1,23.54,1.69,34.94l18.23,7.18-2.92-5.11,17.7-2.01s1.87-26.47,2.5-35.01c0,0-13.95-2.71-37.2,0Z"/>
            <g>
              <path class="cls-21" d="M164.45,11.73c-.07,1.38-.13,2.74-.18,4.1-.05,1.35-.08,2.71-.1,4.07,.17,.01,.35,.02,.53,.02h.53c.22,0,.45,0,.68-.01,.23,0,.47-.02,.7-.03,.01-.31,.02-.61,.02-.9v-.91c0-1.06-.01-2.11-.03-3.16s-.06-2.11-.1-3.17h2.57c-.12,1.68-.22,3.34-.29,4.99-.07,1.65-.1,3.32-.1,4.99,0,.82,.01,1.64,.03,2.45,.02,.81,.05,1.63,.08,2.46h-2.38c.03-.83,.07-1.65,.09-2.47,.03-.82,.06-1.64,.08-2.46-.4-.02-.79-.04-1.18-.06-.39-.02-.78-.03-1.17-.03h-.08v3.59c0,.47,0,.95,.02,1.43h-2.39c.03-1,.06-1.99,.07-2.97,.01-.98,.02-1.96,.02-2.95,0-2.99-.06-5.99-.19-8.98h2.78Z"/>
              <path class="cls-21" d="M174.43,26.57c-.28-.01-.56-.02-.83-.03-.28,0-.56-.01-.83-.01-.46,0-.92,0-1.38,.03-.46,.02-.92,.04-1.38,.08l.02-2.24c.16,.02,.32,.04,.48,.05,.16,.01,.32,.02,.48,.04,.04-1.08,.08-2.15,.12-3.22,.04-1.07,.06-2.14,.06-3.21,0-.72-.01-1.42-.03-2.12-.02-.7-.04-1.4-.06-2.11-.18,0-.37,0-.55,.01-.19,0-.38,.02-.57,.03l.02-2.18c.54,.03,1.07,.06,1.61,.08,.54,.02,1.07,.03,1.62,.03h.58c.19,0,.39,0,.59-.02l-.06,2.08c-.16,0-.32,0-.48-.01-.16,0-.31-.01-.47-.01-.1,1.25-.17,2.5-.21,3.73-.04,1.23-.06,2.48-.06,3.73,0,1.09,.02,2.18,.06,3.27,.22,0,.45,0,.68-.01,.23,0,.47-.02,.7-.03l-.1,2.08Z"/>
              <path class="cls-21" d="M177.81,25.84c0,.17-.03,.32-.1,.47-.07,.15-.15,.27-.26,.38-.11,.11-.24,.19-.39,.26-.15,.06-.31,.09-.47,.09s-.32-.03-.46-.09c-.14-.06-.27-.15-.38-.26-.11-.11-.2-.23-.26-.38-.06-.15-.09-.3-.09-.47s.03-.32,.09-.46c.06-.14,.15-.27,.26-.38,.11-.11,.24-.2,.38-.26,.14-.06,.3-.09,.46-.09s.32,.03,.47,.09c.15,.06,.28,.15,.39,.26,.11,.11,.19,.24,.26,.38,.07,.14,.1,.3,.1,.46Zm.19-14.25c-.19,1.93-.35,3.87-.46,5.83-.11,1.96-.18,3.89-.2,5.79l-1.39,.04c-.05-1.91-.11-3.85-.19-5.82-.08-1.97-.17-3.91-.28-5.82l2.51-.02Z"/>
            </g>
            <path class="cls-14" d="M135.32,28.52s-2.2-2.73-5.21-2c-3,.73-3.2,10.19-1.41,10.42,1.8,.23,2.56-5.23,3.93-6.09,1.38-.86,3.78-.53,3.78-.53l-1.1-1.8Z"/>
            <path class="cls-15" d="M42.53,31.81s1.16-1.31,3.76-.89c2.6,.43,4.1,5.77,5.44,5.23,1.33-.54,.36-9.19-3.17-11.74,0,0-4.54,3.87-6.03,7.39Z"/>
            <path class="cls-1" d="M39,44.41s-9.21,10.34-8.65,11.08c.56,.74,9.2-10.01,8.65-11.08Z"/>
          </g>
        </g>
      </g>
    </g>
  </g>
</svg>