<?xml version="1.0" encoding="UTF-8"?>
<svg id="Calque_2" data-name="Calque 2" xmlns="http://www.w3.org/2000/svg" viewBox="0 0 390.5 254.47">
  <g id="Calque_1-2" data-name="Calque 1">
    <g>
      <g>
        <path d="M245.07,254.47h-80.15l-69.23-93.31h-30.4v93.31H0V0H110.06c15.04,0,27.97,.85,38.79,2.56,10.82,1.71,20.96,5.41,30.42,11.11,9.57,5.7,17.17,13.07,22.82,22.13,5.64,9.06,8.46,20.42,8.46,34.09,0,18.8-4.36,34.12-13.07,45.97-8.71,11.85-21.16,21.7-37.34,29.57l84.94,109.03ZM142.7,77.93c0-6.38-1.31-11.85-3.93-16.41-2.62-4.56-7.12-8.14-13.5-10.77-4.44-1.82-9.63-2.93-15.55-3.33-5.93-.4-12.82-.6-20.68-.6h-23.75V115.36h20.17c10.48,0,19.25-.51,26.32-1.54,7.06-1.03,12.99-3.36,17.77-7.01,4.56-3.53,7.89-7.43,10-11.71,2.11-4.27,3.16-10,3.16-17.18Z"/>
        <path d="M390.5,165.94h-130.4v-49.22h130.4v49.22Z"/>
      </g>
      <g>
        <path d="M317.5,80.33c0,3.16-.64,5.99-1.91,8.48-1.27,2.49-3.03,4.56-5.25,6.2-2.58,1.93-5.41,3.31-8.5,4.13-3.09,.82-7.01,1.23-11.76,1.23h-28.56V34.93h25.4c5.27,0,9.13,.18,11.58,.53,2.45,.35,4.87,1.13,7.27,2.33,2.49,1.26,4.34,2.95,5.56,5.08,1.21,2.12,1.82,4.55,1.82,7.27,0,3.16-.83,5.95-2.5,8.37s-4.03,4.3-7.08,5.65v.35c4.28,.85,7.67,2.61,10.17,5.27,2.5,2.67,3.76,6.18,3.76,10.55Zm-21.62-26.89c0-1.08-.27-2.17-.81-3.25-.54-1.08-1.5-1.89-2.88-2.42-1.23-.47-2.76-.73-4.59-.77-1.83-.04-4.4-.07-7.71-.07h-1.58v13.84h2.64c2.67,0,4.94-.04,6.81-.13s3.35-.38,4.44-.88c1.52-.67,2.52-1.54,2.99-2.61,.47-1.07,.7-2.31,.7-3.71Zm4.09,26.63c0-2.08-.4-3.68-1.21-4.81-.8-1.13-2.17-1.97-4.1-2.53-1.32-.38-3.13-.59-5.44-.62-2.31-.03-4.72-.04-7.24-.04h-3.68v16.3h1.23c4.74,0,8.13-.01,10.17-.04,2.05-.03,3.93-.41,5.66-1.14,1.75-.73,2.96-1.71,3.62-2.92,.66-1.22,.99-2.61,.99-4.2Z"/>
        <path d="M388.74,100.37h-16.88v-28.83h-24.92v28.83h-16.88V34.93h16.88v23.95h24.92v-23.95h16.88V100.37Z"/>
      </g>
    </g>
  </g>
</svg>