<?xml version="1.0" encoding="UTF-8"?>
<svg xmlns="http://www.w3.org/2000/svg" xmlns:xlink="http://www.w3.org/1999/xlink" viewBox="0 0 192.28 208.8">
  <defs>
    <style>
      .cls-1 {
        fill: url(#_ÂÁ_Ï_ÌÌ_È_ËÂÌÚ_46-11);
      }

      .cls-2 {
        fill: url(#_ÂÁ_Ï_ÌÌ_È_ËÂÌÚ_46-10);
      }

      .cls-3 {
        fill: url(#_ÂÁ_Ï_ÌÌ_È_ËÂÌÚ_264-2);
      }

      .cls-4 {
        fill: url(#_ÂÁ_Ï_ÌÌ_È_ËÂÌÚ_28-10);
      }

      .cls-5 {
        fill: url(#_ÂÁ_Ï_ÌÌ_È_ËÂÌÚ_28);
      }

      .cls-6 {
        fill: url(#_ÂÁ_Ï_ÌÌ_È_ËÂÌÚ_46);
      }

      .cls-7 {
        fill: url(#_ÂÁ_Ï_ÌÌ_È_ËÂÌÚ_30);
      }

      .cls-8 {
        fill: url(#_ÂÁ_Ï_ÌÌ_È_ËÂÌÚ_65);
      }

      .cls-9 {
        fill: url(#_ÂÁ_Ï_ÌÌ_È_ËÂÌÚ_91);
      }

      .cls-10 {
        fill: url(#_ÂÁ_Ï_ÌÌ_È_ËÂÌÚ_17);
      }

      .cls-11 {
        fill: url(#_ÂÁ_Ï_ÌÌ_È_ËÂÌÚ_134-2);
      }

      .cls-11, .cls-12, .cls-13, .cls-14, .cls-15, .cls-16, .cls-17 {
        mix-blend-mode: screen;
      }

      .cls-11, .cls-12, .cls-16, .cls-17 {
        opacity: .72;
      }

      .cls-12 {
        fill: url(#_ÂÁ_Ï_ÌÌ_È_ËÂÌÚ_143-2);
      }

      .cls-18, .cls-19 {
        fill: #fff;
      }

      .cls-20, .cls-21 {
        fill: #e5f6ff;
      }

      .cls-22 {
        fill: #2f95cd;
      }

      .cls-23 {
        fill: url(#_ÂÁ_Ï_ÌÌ_È_ËÂÌÚ_30-2);
      }

      .cls-24 {
        fill: url(#_ÂÁ_Ï_ÌÌ_È_ËÂÌÚ_46-6);
      }

      .cls-25 {
        fill: url(#_ÂÁ_Ï_ÌÌ_È_ËÂÌÚ_46-7);
      }

      .cls-26 {
        fill: url(#_ÂÁ_Ï_ÌÌ_È_ËÂÌÚ_46-8);
      }

      .cls-27 {
        fill: url(#_ÂÁ_Ï_ÌÌ_È_ËÂÌÚ_46-3);
      }

      .cls-28 {
        fill: url(#_ÂÁ_Ï_ÌÌ_È_ËÂÌÚ_46-2);
      }

      .cls-29 {
        fill: url(#_ÂÁ_Ï_ÌÌ_È_ËÂÌÚ_46-5);
      }

      .cls-30 {
        fill: url(#_ÂÁ_Ï_ÌÌ_È_ËÂÌÚ_46-4);
      }

      .cls-31 {
        fill: url(#_ÂÁ_Ï_ÌÌ_È_ËÂÌÚ_46-9);
      }

      .cls-32 {
        fill: url(#_ÂÁ_Ï_ÌÌ_È_ËÂÌÚ_17-2);
      }

      .cls-33 {
        fill: url(#_ÂÁ_Ï_ÌÌ_È_ËÂÌÚ_17-4);
      }

      .cls-34 {
        fill: url(#_ÂÁ_Ï_ÌÌ_È_ËÂÌÚ_17-3);
      }

      .cls-35 {
        fill: url(#_ÂÁ_Ï_ÌÌ_È_ËÂÌÚ_28-2);
      }

      .cls-36 {
        fill: url(#_ÂÁ_Ï_ÌÌ_È_ËÂÌÚ_28-7);
      }

      .cls-37 {
        fill: url(#_ÂÁ_Ï_ÌÌ_È_ËÂÌÚ_28-8);
      }

      .cls-38 {
        fill: url(#_ÂÁ_Ï_ÌÌ_È_ËÂÌÚ_28-9);
      }

      .cls-39 {
        fill: url(#_ÂÁ_Ï_ÌÌ_È_ËÂÌÚ_28-4);
      }

      .cls-40 {
        fill: url(#_ÂÁ_Ï_ÌÌ_È_ËÂÌÚ_28-3);
      }

      .cls-41 {
        fill: url(#_ÂÁ_Ï_ÌÌ_È_ËÂÌÚ_28-5);
      }

      .cls-42 {
        fill: url(#_ÂÁ_Ï_ÌÌ_È_ËÂÌÚ_28-6);
      }

      .cls-13 {
        fill: url(#_ÂÁ_Ï_ÌÌ_È_ËÂÌÚ_54);
      }

      .cls-13, .cls-43, .cls-14, .cls-44, .cls-45, .cls-46, .cls-47, .cls-48, .cls-19, .cls-21, .cls-49, .cls-50, .cls-51 {
        opacity: .5;
      }

      .cls-43 {
        fill: #d9d2ec;
      }

      .cls-43, .cls-52, .cls-53, .cls-54, .cls-55, .cls-44, .cls-45, .cls-46, .cls-47, .cls-48, .cls-49, .cls-50, .cls-51, .cls-56 {
        mix-blend-mode: multiply;
      }

      .cls-14 {
        fill: url(#_ÂÁ_Ï_ÌÌ_È_ËÂÌÚ_54-2);
      }

      .cls-52 {
        fill: url(#_ÂÁ_Ï_ÌÌ_È_ËÂÌÚ_153-5);
      }

      .cls-52, .cls-53, .cls-54, .cls-55, .cls-56 {
        opacity: .3;
      }

      .cls-53 {
        fill: url(#_ÂÁ_Ï_ÌÌ_È_ËÂÌÚ_153-2);
      }

      .cls-54 {
        fill: url(#_ÂÁ_Ï_ÌÌ_È_ËÂÌÚ_153-3);
      }

      .cls-55 {
        fill: url(#_ÂÁ_Ï_ÌÌ_È_ËÂÌÚ_153-4);
      }

      .cls-44 {
        fill: url(#_ÂÁ_Ï_ÌÌ_È_ËÂÌÚ_166-3);
      }

      .cls-45 {
        fill: url(#_ÂÁ_Ï_ÌÌ_È_ËÂÌÚ_166-2);
      }

      .cls-15 {
        fill: url(#_ÂÁ_Ï_ÌÌ_È_ËÂÌÚ_126);
        opacity: .2;
      }

      .cls-57 {
        isolation: isolate;
      }

      .cls-46 {
        fill: url(#_ÂÁ_Ï_ÌÌ_È_ËÂÌÚ_416-4);
      }

      .cls-47 {
        fill: url(#_ÂÁ_Ï_ÌÌ_È_ËÂÌÚ_416-2);
      }

      .cls-48 {
        fill: url(#_ÂÁ_Ï_ÌÌ_È_ËÂÌÚ_416-3);
      }

      .cls-16 {
        fill: url(#_ÂÁ_Ï_ÌÌ_È_ËÂÌÚ_134);
      }

      .cls-17 {
        fill: url(#_ÂÁ_Ï_ÌÌ_È_ËÂÌÚ_143);
      }

      .cls-58 {
        fill: url(#_ÂÁ_Ï_ÌÌ_È_ËÂÌÚ_264);
      }

      .cls-59 {
        fill: url(#_ÂÁ_Ï_ÌÌ_È_ËÂÌÚ_129);
      }

      .cls-60 {
        fill: url(#_ÂÁ_Ï_ÌÌ_È_ËÂÌÚ_132);
      }

      .cls-61 {
        fill: url(#_ÂÁ_Ï_ÌÌ_È_ËÂÌÚ_8);
      }

      .cls-49 {
        fill: url(#_ÂÁ_Ï_ÌÌ_È_ËÂÌÚ_416);
      }

      .cls-50 {
        fill: url(#_ÂÁ_Ï_ÌÌ_È_ËÂÌÚ_166);
      }

      .cls-51 {
        fill: url(#_ÂÁ_Ï_ÌÌ_È_ËÂÌÚ_123);
      }

      .cls-56 {
        fill: url(#_ÂÁ_Ï_ÌÌ_È_ËÂÌÚ_153);
      }
    </style>
    <radialGradient id="_ÂÁ_Ï_ÌÌ_È_ËÂÌÚ_123" data-name="¡ÂÁ˚ÏˇÌÌ˚È „‡‰ËÂÌÚ 123" cx="100.29" cy="-474.76" fx="100.29" fy="-474.76" r="40.79" gradientTransform="translate(0 305.36) scale(1 .22)" gradientUnits="userSpaceOnUse">
      <stop offset="0" stop-color="#be9dea"/>
      <stop offset=".39" stop-color="#e0bff5"/>
      <stop offset="1" stop-color="#fff"/>
    </radialGradient>
    <linearGradient id="_ÂÁ_Ï_ÌÌ_È_ËÂÌÚ_46" data-name="¡ÂÁ˚ÏˇÌÌ˚È „‡‰ËÂÌÚ 46" x1="131.16" y1="130.36" x2="135.73" y2="93.97" gradientUnits="userSpaceOnUse">
      <stop offset="0" stop-color="#cbc1f7"/>
      <stop offset="1" stop-color="#e8dcf7"/>
    </linearGradient>
    <linearGradient id="_ÂÁ_Ï_ÌÌ_È_ËÂÌÚ_153" data-name="¡ÂÁ˚ÏˇÌÌ˚È „‡‰ËÂÌÚ 153" x1="128.01" y1="130.99" x2="128.01" y2="92.11" gradientUnits="userSpaceOnUse">
      <stop offset="0" stop-color="#9d68c2"/>
      <stop offset="1" stop-color="#ccedff"/>
    </linearGradient>
    <linearGradient id="_ÂÁ_Ï_ÌÌ_È_ËÂÌÚ_46-2" data-name="¡ÂÁ˚ÏˇÌÌ˚È „‡‰ËÂÌÚ 46" x1="119.57" y1="139.69" x2="123.95" y2="104.82" gradientTransform="translate(-51.93 65.53) rotate(-9.87)" xlink:href="#_ÂÁ_Ï_ÌÌ_È_ËÂÌÚ_46"/>
    <linearGradient id="_ÂÁ_Ï_ÌÌ_È_ËÂÌÚ_28" data-name="¡ÂÁ˚ÏˇÌÌ˚È „‡‰ËÂÌÚ 28" x1="123.17" y1="117.06" x2="123.17" y2="103.32" gradientTransform="translate(-51.93 65.53) rotate(-9.87)" gradientUnits="userSpaceOnUse">
      <stop offset="0" stop-color="#be9dea"/>
      <stop offset="1" stop-color="#9e8cef"/>
    </linearGradient>
    <linearGradient id="_ÂÁ_Ï_ÌÌ_È_ËÂÌÚ_153-2" data-name="¡ÂÁ˚ÏˇÌÌ˚È „‡‰ËÂÌÚ 153" x1="123.21" y1="140.14" x2="123.21" y2="103.43" gradientTransform="translate(-51.93 65.53) rotate(-9.87)" xlink:href="#_ÂÁ_Ï_ÌÌ_È_ËÂÌÚ_153"/>
    <linearGradient id="_ÂÁ_Ï_ÌÌ_È_ËÂÌÚ_46-3" data-name="¡ÂÁ˚ÏˇÌÌ˚È „‡‰ËÂÌÚ 46" x1="84.35" y1="228.72" x2="90" y2="183.74" gradientTransform="translate(56.51 -54.81) rotate(8.95)" xlink:href="#_ÂÁ_Ï_ÌÌ_È_ËÂÌÚ_46"/>
    <linearGradient id="_ÂÁ_Ï_ÌÌ_È_ËÂÌÚ_28-2" data-name="¡ÂÁ˚ÏˇÌÌ˚È „‡‰ËÂÌÚ 28" x1="88.56" y1="201.49" x2="88.56" y2="185.14" gradientTransform="translate(56.51 -54.81) rotate(8.95)" xlink:href="#_ÂÁ_Ï_ÌÌ_È_ËÂÌÚ_28"/>
    <linearGradient id="_ÂÁ_Ï_ÌÌ_È_ËÂÌÚ_153-3" data-name="¡ÂÁ˚ÏˇÌÌ˚È „‡‰ËÂÌÚ 153" x1="88.63" y1="227.66" x2="88.63" y2="185.01" gradientTransform="translate(56.51 -54.81) rotate(8.95)" xlink:href="#_ÂÁ_Ï_ÌÌ_È_ËÂÌÚ_153"/>
    <linearGradient id="_ÂÁ_Ï_ÌÌ_È_ËÂÌÚ_46-4" data-name="¡ÂÁ˚ÏˇÌÌ˚È „‡‰ËÂÌÚ 46" x1="61.37" y1="147.1" x2="68.92" y2="86.98" xlink:href="#_ÂÁ_Ï_ÌÌ_È_ËÂÌÚ_46"/>
    <linearGradient id="_ÂÁ_Ï_ÌÌ_È_ËÂÌÚ_28-3" data-name="¡ÂÁ˚ÏˇÌÌ˚È „‡‰ËÂÌÚ 28" x1="56.95" y1="146.52" x2="56.95" y2="136.97" gradientTransform="matrix(1, 0, 0, 1, 0, 0)" xlink:href="#_ÂÁ_Ï_ÌÌ_È_ËÂÌÚ_28"/>
    <linearGradient id="_ÂÁ_Ï_ÌÌ_È_ËÂÌÚ_153-4" data-name="¡ÂÁ˚ÏˇÌÌ˚È „‡‰ËÂÌÚ 153" x1="64.46" y1="145.96" x2="64.46" y2="95.44" xlink:href="#_ÂÁ_Ï_ÌÌ_È_ËÂÌÚ_153"/>
    <linearGradient id="_ÂÁ_Ï_ÌÌ_È_ËÂÌÚ_264" data-name="¡ÂÁ˚ÏˇÌÌ˚È „‡‰ËÂÌÚ 264" x1="135.57" y1="39.23" x2="135.57" y2="4.55" gradientUnits="userSpaceOnUse">
      <stop offset="0" stop-color="#b9acf4"/>
      <stop offset="1" stop-color="#e1d1f5"/>
    </linearGradient>
    <linearGradient id="_ÂÁ_Ï_ÌÌ_È_ËÂÌÚ_28-4" data-name="¡ÂÁ˚ÏˇÌÌ˚È „‡‰ËÂÌÚ 28" x1="138.09" y1="23.4" x2="138.09" y2="4.55" gradientTransform="matrix(1, 0, 0, 1, 0, 0)" xlink:href="#_ÂÁ_Ï_ÌÌ_È_ËÂÌÚ_28"/>
    <linearGradient id="_ÂÁ_Ï_ÌÌ_È_ËÂÌÚ_17" data-name="¡ÂÁ˚ÏˇÌÌ˚È „‡‰ËÂÌÚ 17" x1="142.78" y1="40.89" x2="142.78" y2="6.82" gradientUnits="userSpaceOnUse">
      <stop offset="0" stop-color="#45ffcd"/>
      <stop offset="1" stop-color="#22e0ff"/>
    </linearGradient>
    <linearGradient id="_ÂÁ_Ï_ÌÌ_È_ËÂÌÚ_264-2" data-name="¡ÂÁ˚ÏˇÌÌ˚È „‡‰ËÂÌÚ 264" x1="464" y1="40.58" x2="464" y2="5.9" gradientTransform="translate(527.33) rotate(-180) scale(1 -1)" xlink:href="#_ÂÁ_Ï_ÌÌ_È_ËÂÌÚ_264"/>
    <linearGradient id="_ÂÁ_Ï_ÌÌ_È_ËÂÌÚ_28-5" data-name="¡ÂÁ˚ÏˇÌÌ˚È „‡‰ËÂÌÚ 28" x1="466.51" y1="24.75" x2="466.51" y2="5.9" gradientTransform="translate(527.33) rotate(-180) scale(1 -1)" xlink:href="#_ÂÁ_Ï_ÌÌ_È_ËÂÌÚ_28"/>
    <linearGradient id="_ÂÁ_Ï_ÌÌ_È_ËÂÌÚ_17-2" data-name="¡ÂÁ˚ÏˇÌÌ˚È „‡‰ËÂÌÚ 17" x1="471.17" y1="43.01" x2="471.17" y2="8.17" gradientTransform="translate(527.33) rotate(-180) scale(1 -1)" xlink:href="#_ÂÁ_Ï_ÌÌ_È_ËÂÌÚ_17"/>
    <linearGradient id="_ÂÁ_Ï_ÌÌ_È_ËÂÌÚ_46-5" data-name="¡ÂÁ˚ÏˇÌÌ˚È „‡‰ËÂÌÚ 46" x1="96.23" y1="155.72" x2="105.81" y2="79.47" xlink:href="#_ÂÁ_Ï_ÌÌ_È_ËÂÌÚ_46"/>
    <linearGradient id="_ÂÁ_Ï_ÌÌ_È_ËÂÌÚ_153-5" data-name="¡ÂÁ˚ÏˇÌÌ˚È „‡‰ËÂÌÚ 153" x1="100.13" y1="155.85" x2="100.13" y2="94.5" xlink:href="#_ÂÁ_Ï_ÌÌ_È_ËÂÌÚ_153"/>
    <linearGradient id="_ÂÁ_Ï_ÌÌ_È_ËÂÌÚ_28-6" data-name="¡ÂÁ˚ÏˇÌÌ˚È „‡‰ËÂÌÚ 28" x1="99.54" y1="154.61" x2="99.54" y2="106.29" gradientTransform="matrix(1, 0, 0, 1, 0, 0)" xlink:href="#_ÂÁ_Ï_ÌÌ_È_ËÂÌÚ_28"/>
    <radialGradient id="_ÂÁ_Ï_ÌÌ_È_ËÂÌÚ_91" data-name="¡ÂÁ˚ÏˇÌÌ˚È „‡‰ËÂÌÚ 91" cx="100.51" cy="148.36" fx="100.51" fy="148.36" r="36.87" gradientUnits="userSpaceOnUse">
      <stop offset="0" stop-color="#45ffcd"/>
      <stop offset="1" stop-color="#22e0ff"/>
    </radialGradient>
    <linearGradient id="_ÂÁ_Ï_ÌÌ_È_ËÂÌÚ_416" data-name="¡ÂÁ˚ÏˇÌÌ˚È „‡‰ËÂÌÚ 416" x1="99.07" y1="93.85" x2="99.07" y2="78.9" gradientUnits="userSpaceOnUse">
      <stop offset="0" stop-color="#8da4e5"/>
      <stop offset="1" stop-color="#755cbb"/>
    </linearGradient>
    <linearGradient id="_ÂÁ_Ï_ÌÌ_È_ËÂÌÚ_143" data-name="¡ÂÁ˚ÏˇÌÌ˚È „‡‰ËÂÌÚ 143" x1="100.71" y1="153.16" x2="100.71" y2="144.79" gradientUnits="userSpaceOnUse">
      <stop offset="0" stop-color="#d4e2ff"/>
      <stop offset="1" stop-color="#000"/>
    </linearGradient>
    <linearGradient id="_ÂÁ_Ï_ÌÌ_È_ËÂÌÚ_134" data-name="¡ÂÁ˚ÏˇÌÌ˚È „‡‰ËÂÌÚ 134" x1="79.99" y1="119.51" x2="122" y2="119.51" gradientUnits="userSpaceOnUse">
      <stop offset="0" stop-color="#000"/>
      <stop offset="1" stop-color="#d4e2ff"/>
    </linearGradient>
    <linearGradient id="_ÂÁ_Ï_ÌÌ_È_ËÂÌÚ_46-6" data-name="¡ÂÁ˚ÏˇÌÌ˚È „‡‰ËÂÌÚ 46" x1="96.35" y1="85.02" x2="106.92" y2=".8" xlink:href="#_ÂÁ_Ï_ÌÌ_È_ËÂÌÚ_46"/>
    <linearGradient id="_ÂÁ_Ï_ÌÌ_È_ËÂÌÚ_132" data-name="¡ÂÁ˚ÏˇÌÌ˚È „‡‰ËÂÌÚ 132" x1="99.75" y1="79.25" x2="99.75" y2="9.63" gradientUnits="userSpaceOnUse">
      <stop offset="0" stop-color="#0665bd"/>
      <stop offset="1" stop-color="#1a1f77"/>
    </linearGradient>
    <linearGradient id="_ÂÁ_Ï_ÌÌ_È_ËÂÌÚ_17-3" data-name="¡ÂÁ˚ÏˇÌÌ˚È „‡‰ËÂÌÚ 17" x1="666.49" y1="85.55" x2="666.49" y2="68.71" gradientTransform="translate(790.39 52.58) rotate(-172.36) scale(1 -1)" xlink:href="#_ÂÁ_Ï_ÌÌ_È_ËÂÌÚ_17"/>
    <linearGradient id="_ÂÁ_Ï_ÌÌ_È_ËÂÌÚ_17-4" data-name="¡ÂÁ˚ÏˇÌÌ˚È „‡‰ËÂÌÚ 17" x1="206.83" y1="3.7" x2="206.83" y2="-13.14" gradientTransform="translate(-122.62 84.01) rotate(-10.85)" xlink:href="#_ÂÁ_Ï_ÌÌ_È_ËÂÌÚ_17"/>
    <linearGradient id="_ÂÁ_Ï_ÌÌ_È_ËÂÌÚ_46-7" data-name="¡ÂÁ˚ÏˇÌÌ˚È „‡‰ËÂÌÚ 46" x1="52.9" y1="169.16" x2="56.64" y2="139.42" xlink:href="#_ÂÁ_Ï_ÌÌ_È_ËÂÌÚ_46"/>
    <linearGradient id="_ÂÁ_Ï_ÌÌ_È_ËÂÌÚ_28-7" data-name="¡ÂÁ˚ÏˇÌÌ˚È „‡‰ËÂÌÚ 28" x1="56.72" y1="168.15" x2="53.9" y2="140.51" gradientTransform="matrix(1, 0, 0, 1, 0, 0)" xlink:href="#_ÂÁ_Ï_ÌÌ_È_ËÂÌÚ_28"/>
    <linearGradient id="_ÂÁ_Ï_ÌÌ_È_ËÂÌÚ_28-8" data-name="¡ÂÁ˚ÏˇÌÌ˚È „‡‰ËÂÌÚ 28" x1="148.36" y1="128.37" x2="146.62" y2="111.26" gradientTransform="matrix(1, 0, 0, 1, 0, 0)" xlink:href="#_ÂÁ_Ï_ÌÌ_È_ËÂÌÚ_28"/>
    <linearGradient id="_ÂÁ_Ï_ÌÌ_È_ËÂÌÚ_46-8" data-name="¡ÂÁ˚ÏˇÌÌ˚È „‡‰ËÂÌÚ 46" x1="157.36" y1="128.46" x2="159.25" y2="113.41" xlink:href="#_ÂÁ_Ï_ÌÌ_È_ËÂÌÚ_46"/>
    <linearGradient id="_ÂÁ_Ï_ÌÌ_È_ËÂÌÚ_28-9" data-name="¡ÂÁ˚ÏˇÌÌ˚È „‡‰ËÂÌÚ 28" x1="155.03" y1="122.92" x2="153.87" y2="111.58" gradientTransform="matrix(1, 0, 0, 1, 0, 0)" xlink:href="#_ÂÁ_Ï_ÌÌ_È_ËÂÌÚ_28"/>
    <linearGradient id="_ÂÁ_Ï_ÌÌ_È_ËÂÌÚ_416-2" data-name="¡ÂÁ˚ÏˇÌÌ˚È „‡‰ËÂÌÚ 416" x1="150.78" y1="127.49" x2="150.78" y2="117.87" xlink:href="#_ÂÁ_Ï_ÌÌ_È_ËÂÌÚ_416"/>
    <linearGradient id="_ÂÁ_Ï_ÌÌ_È_ËÂÌÚ_30" data-name="¡ÂÁ˚ÏˇÌÌ˚È „‡‰ËÂÌÚ 30" x1="161.56" y1="151.74" x2="161.56" y2="114.98" gradientUnits="userSpaceOnUse">
      <stop offset="0" stop-color="#6fcaf4"/>
      <stop offset="1" stop-color="#7dffcf"/>
    </linearGradient>
    <linearGradient id="_ÂÁ_Ï_ÌÌ_È_ËÂÌÚ_166" data-name="¡ÂÁ˚ÏˇÌÌ˚È „‡‰ËÂÌÚ 166" x1="161.15" y1="138.36" x2="161.15" y2="119.94" gradientUnits="userSpaceOnUse">
      <stop offset="0" stop-color="#755cbb"/>
      <stop offset="1" stop-color="#ccedff"/>
    </linearGradient>
    <linearGradient id="_ÂÁ_Ï_ÌÌ_È_ËÂÌÚ_166-2" data-name="¡ÂÁ˚ÏˇÌÌ˚È „‡‰ËÂÌÚ 166" x1="161.58" y1="151.79" x2="161.58" y2="116.13" xlink:href="#_ÂÁ_Ï_ÌÌ_È_ËÂÌÚ_166"/>
    <linearGradient id="_ÂÁ_Ï_ÌÌ_È_ËÂÌÚ_30-2" data-name="¡ÂÁ˚ÏˇÌÌ˚È „‡‰ËÂÌÚ 30" x1="163.25" y1="133.96" x2="163.25" y2="112.59" xlink:href="#_ÂÁ_Ï_ÌÌ_È_ËÂÌÚ_30"/>
    <linearGradient id="_ÂÁ_Ï_ÌÌ_È_ËÂÌÚ_166-3" data-name="¡ÂÁ˚ÏˇÌÌ˚È „‡‰ËÂÌÚ 166" x1="151.09" y1="117.81" x2="166.81" y2="117.81" xlink:href="#_ÂÁ_Ï_ÌÌ_È_ËÂÌÚ_166"/>
    <linearGradient id="_ÂÁ_Ï_ÌÌ_È_ËÂÌÚ_46-9" data-name="¡ÂÁ˚ÏˇÌÌ˚È „‡‰ËÂÌÚ 46" x1="118.75" y1="215.28" x2="120.03" y2="205.14" gradientTransform="translate(112.23 -125.06) rotate(19.08)" xlink:href="#_ÂÁ_Ï_ÌÌ_È_ËÂÌÚ_46"/>
    <linearGradient id="_ÂÁ_Ï_ÌÌ_È_ËÂÌÚ_129" data-name="¡ÂÁ˚ÏˇÌÌ˚È „‡‰ËÂÌÚ 129" x1="162.49" y1="116.54" x2="161.9" y2="110.77" gradientUnits="userSpaceOnUse">
      <stop offset="0" stop-color="#cbc1f7"/>
      <stop offset="1" stop-color="#d4bef1"/>
    </linearGradient>
    <linearGradient id="_ÂÁ_Ï_ÌÌ_È_ËÂÌÚ_54" data-name="¡ÂÁ˚ÏˇÌÌ˚È „‡‰ËÂÌÚ 54" x1="70.59" y1="25.2" x2="132" y2="25.2" gradientUnits="userSpaceOnUse">
      <stop offset="0" stop-color="#000"/>
      <stop offset="1" stop-color="#6a9bff"/>
    </linearGradient>
    <linearGradient id="_ÂÁ_Ï_ÌÌ_È_ËÂÌÚ_54-2" data-name="¡ÂÁ˚ÏˇÌÌ˚È „‡‰ËÂÌÚ 54" x1="78.67" y1="74.31" x2="123.32" y2="74.31" xlink:href="#_ÂÁ_Ï_ÌÌ_È_ËÂÌÚ_54"/>
    <linearGradient id="_ÂÁ_Ï_ÌÌ_È_ËÂÌÚ_126" data-name="¡ÂÁ˚ÏˇÌÌ˚È „‡‰ËÂÌÚ 126" x1="53.03" y1="51.8" x2="53.03" y2="29.03" gradientTransform="translate(14.62 10.48) rotate(3.92)" gradientUnits="userSpaceOnUse">
      <stop offset="0" stop-color="#000"/>
      <stop offset="1" stop-color="#00e3ff"/>
    </linearGradient>
    <linearGradient id="_ÂÁ_Ï_ÌÌ_È_ËÂÌÚ_416-3" data-name="¡ÂÁ˚ÏˇÌÌ˚È „‡‰ËÂÌÚ 416" x1="66.09" y1="77.49" x2="66.09" y2="66.81" xlink:href="#_ÂÁ_Ï_ÌÌ_È_ËÂÌÚ_416"/>
    <linearGradient id="_ÂÁ_Ï_ÌÌ_È_ËÂÌÚ_28-10" data-name="¡ÂÁ˚ÏˇÌÌ˚È „‡‰ËÂÌÚ 28" x1="46.45" y1="71.59" x2="51.5" y2="31.36" gradientTransform="matrix(1, 0, 0, 1, 0, 0)" xlink:href="#_ÂÁ_Ï_ÌÌ_È_ËÂÌÚ_28"/>
    <linearGradient id="_ÂÁ_Ï_ÌÌ_È_ËÂÌÚ_8" data-name="¡ÂÁ˚ÏˇÌÌ˚È „‡‰ËÂÌÚ 8" x1="25.68" y1="28.22" x2="25.68" y2="16.88" gradientTransform="translate(47.54 38.48) rotate(13.25)" gradientUnits="userSpaceOnUse">
      <stop offset="0" stop-color="#dd1a8f"/>
      <stop offset="1" stop-color="#fe117e"/>
    </linearGradient>
    <linearGradient id="_ÂÁ_Ï_ÌÌ_È_ËÂÌÚ_65" data-name="¡ÂÁ˚ÏˇÌÌ˚È „‡‰ËÂÌÚ 65" x1="66.77" y1="66.34" x2="66.77" y2="61.52" gradientUnits="userSpaceOnUse">
      <stop offset="0" stop-color="#d93de3"/>
      <stop offset="1" stop-color="#ff6dba"/>
    </linearGradient>
    <linearGradient id="_ÂÁ_Ï_ÌÌ_È_ËÂÌÚ_134-2" data-name="¡ÂÁ˚ÏˇÌÌ˚È „‡‰ËÂÌÚ 134" x1="137.69" y1="15.32" x2="146.56" y2="15.32" xlink:href="#_ÂÁ_Ï_ÌÌ_È_ËÂÌÚ_134"/>
    <linearGradient id="_ÂÁ_Ï_ÌÌ_È_ËÂÌÚ_143-2" data-name="¡ÂÁ˚ÏˇÌÌ˚È „‡‰ËÂÌÚ 143" x1="51.88" y1="14.71" x2="61.65" y2="14.71" xlink:href="#_ÂÁ_Ï_ÌÌ_È_ËÂÌÚ_143"/>
    <linearGradient id="_ÂÁ_Ï_ÌÌ_È_ËÂÌÚ_416-4" data-name="¡ÂÁ˚ÏˇÌÌ˚È „‡‰ËÂÌÚ 416" x1="57.35" y1="159.12" x2="55.76" y2="143.43" xlink:href="#_ÂÁ_Ï_ÌÌ_È_ËÂÌÚ_416"/>
    <linearGradient id="_ÂÁ_Ï_ÌÌ_È_ËÂÌÚ_46-10" data-name="¡ÂÁ˚ÏˇÌÌ˚È „‡‰ËÂÌÚ 46" x1="59.42" y1="159.89" x2="61.92" y2="139.99" xlink:href="#_ÂÁ_Ï_ÌÌ_È_ËÂÌÚ_46"/>
    <linearGradient id="_ÂÁ_Ï_ÌÌ_È_ËÂÌÚ_46-11" data-name="¡ÂÁ˚ÏˇÌÌ˚È „‡‰ËÂÌÚ 46" x1="42.85" y1="48.59" x2="42.85" y2="37.33" xlink:href="#_ÂÁ_Ï_ÌÌ_È_ËÂÌÚ_46"/>
  </defs>
  <g class="cls-57">
    <g id="Calque_2" data-name="Calque 2">
      <g id="chatbot">
        <g>
          <g>
            <path class="cls-20" d="M183.72,156.65c-3.34,6.62-7.16,10.57-11.3,12.64-6.37,3.2-13.52,1.97-20.92-.79-.23-.08-.44-.16-.67-.24-1-.39-2.01-.8-3.03-1.24-11.61-4.94-23.6-12.38-33.96-11.38-4.74,.46-9.91,2.42-15.45,5.02-4.96,2.32-10.23,5.16-15.77,7.87-.99,.48-1.98,.96-2.98,1.44-2.56,1.2-5.17,2.36-7.85,3.41-14.99,5.9-31.68,8.51-49.63-2.47-12.52-7.67-37.65-51.21-8.91-94.23C45.18,28.85,130.44,29.6,155.12,43.19c43.67,24.06,42.45,85.98,28.6,113.45Z"/>
            <g>
              <path class="cls-20" d="M149.2,16.29c-1.05,3.38-1.31,7-.75,10.5,.09,.56,.21,1.14,.52,1.62,.61,.92,1.82,1.27,2.92,1.23,2.7-.09,5.15-2.12,5.99-4.69,.84-2.57,.15-5.51-1.51-7.63-.91-1.17-2.19-2.15-3.66-2.31-1.47-.17-3.11,.7-3.47,2.14,.28,.38,.99,.28,1.15-.16l-1.18-.68Z"/>
              <path class="cls-20" d="M2.38,170.36c-1.05,3.38-1.31,7-.75,10.5,.09,.56,.21,1.14,.52,1.62,.61,.92,1.82,1.27,2.92,1.23,2.7-.09,5.15-2.12,5.99-4.69,.84-2.57,.15-5.51-1.51-7.63-.91-1.17-2.19-2.15-3.66-2.31-1.47-.17-3.11,.7-3.47,2.14,.28,.38,.99,.28,1.15-.16l-1.18-.68Z"/>
              <path class="cls-20" d="M154.76,25.68c-1.19,.83-1.89,2.31-1.78,3.76,1.31,.61,2.93,.75,4.17,0,1.24-.75,1.83-2.56,.98-3.73-.85-1.17-3.11-.87-3.38,.55v-.58Z"/>
              <path class="cls-20" d="M153.53,38.6c-.67,0-1.34,.33-1.74,.87,.23,.2,.46,.4,.75,.5,.29,.1,.64,.06,.83-.18,.26-.32,.12-.79-.04-1.17l.32,.13-.11-.15Z"/>
              <path class="cls-20" d="M153.26,35.95c-.01-.2,.04-.41,.15-.58,.39,.35,.4,.95,.35,1.47-.03,.29-.12,.64-.4,.72-.2,.05-.4-.06-.6-.08-.41-.04-.91,.26-1.17-.05-.15-.18-.09-.46,.06-.63,.15-.17,.38-.26,.59-.34,.47-.18,.94-.36,1.41-.54l-.39,.04Z"/>
              <path class="cls-21" d="M153.75,70.03c-.29,.31,.17,.84,.58,.76,.42-.08,.68-.48,.9-.84-.45-.37-1.14-.42-1.64-.12l.16,.2Z"/>
              <path class="cls-20" d="M168.78,71.57c.15-.13,.41-.06,.52,.1,.12,.16,.13,.38,.09,.57-.02,.11-.07,.23-.14,.32-.18,.2-.54,.2-.72,0-.18-.2-.15-.55,.05-.73s.54-.17,.74,0l-.54-.26Z"/>
              <path class="cls-20" d="M158.31,42.75c-.13-.4-.78-.49-1.01-.13,.08,.21,.2,.41,.38,.52,.19,.12,.46,.12,.61-.04,.15-.16,.1-.48-.11-.54l.13,.18Z"/>
              <path class="cls-20" d="M154.27,34.14c-.48-.16-1.04-.08-1.46,.2,.26,.32,.52,.65,.79,.97,.12,.15,.26,.31,.44,.38,.36,.13,.78-.18,.83-.56,.05-.38-.21-.76-.56-.92l-.04-.07Z"/>
              <path class="cls-21" d="M165.55,66.74c.08,.11,.16,.23,.24,.34,.23-.04,.43-.24,.43-.47,0-.23-.22-.45-.45-.42s-.39,.32-.27,.52l.04,.03Z"/>
              <path class="cls-20" d="M156.51,40.25c.28,0,.37-.4,.25-.65s-.37-.41-.51-.64c-.15-.24-.19-.55-.11-.82,.05-.16,.16-.31,.32-.35,.11-.02,.22,.02,.32,.05,.51,.19,1.01,.46,1.34,.89s.45,1.06,.17,1.52c-.2,.32-.57,.53-.95,.51-.38-.01-.74-.25-.91-.58l.08,.06Z"/>
              <path class="cls-20" d="M149.37,38.59c-.33-.09-.69,.18-.76,.51s.09,.69,.36,.91c.12,.1,.3,.17,.41,.07,.08-.07,.09-.18,.09-.29,0-.42,.01-.84,.02-1.27l-.11,.06Z"/>
              <path class="cls-20" d="M151.26,54.61c.68-.18,1.43,.47,1.34,1.17-.54,.07-1.11,.13-1.59-.11s-.79-.91-.47-1.34c.31-.07,.62-.14,.92-.2l-.2,.49Z"/>
              <path class="cls-20" d="M152.32,.33c-.04-.15,.11-.31,.26-.32,.16-.02,.31,.06,.44,.15,.11,.07,.21,.16,.27,.27,.12,.22,.05,.52-.15,.69-.2,.16-.49,.18-.72,.08-.11-.05-.22-.13-.26-.25-.04-.12,0-.27,.12-.31l.04-.3Z"/>
              <path class="cls-20" d="M156.14,45.95c-.12,.09-.24,.17-.36,.26,.11,.2,.23,.42,.45,.49,.21,.07,.51-.12,.44-.33-.03-.08-.1-.14-.16-.19-.21-.17-.42-.34-.63-.52l.27,.29Z"/>
              <path class="cls-20" d="M157.65,53.64c-.23,.27-.48,.56-.58,.9-.11,.34-.05,.77,.24,.99,.14,.11,.33,.16,.5,.15,.54-.01,1.02-.54,.97-1.08s-.59-.98-1.13-.91v-.05Z"/>
              <path class="cls-20" d="M155.26,56.6c-.03,.24-.06,.49-.09,.73,.17,.07,.36,.1,.55,.09,.18-.32,.03-.77-.29-.92l-.16,.11Z"/>
              <path class="cls-20" d="M137.58,41.36c.19,1.4,.7,2.76,1.49,3.94,.13,.19,.27,.38,.46,.5,.38,.23,.87,.15,1.27-.04,.97-.48,1.51-1.64,1.39-2.71-.13-1.07-.87-2.03-1.83-2.52-.53-.27-1.16-.41-1.72-.23-.56,.19-1.01,.78-.9,1.36,.17,.09,.41-.06,.39-.25l-.54-.05Z"/>
              <path class="cls-20" d="M164.6,30.09c-.54,.4-.87,1.07-.87,1.74,.3,.02,.61,.05,.9-.05,.29-.09,.55-.34,.56-.64,.02-.41-.38-.7-.74-.91,.11-.03,.22-.06,.33-.09l-.18-.05Z"/>
              <path class="cls-20" d="M166.48,34.58c-.09,.17-.17,.35-.14,.54,.03,.18,.18,.31,.31,.44,.36,.35,.68,.73,.97,1.14,.07-.83,.14-1.65,.21-2.48,0-.07,.01-.13,.04-.19,.11-.2,.41-.16,.61-.27,.29-.16,.28-.59,.18-.91-.72-2.29-1.72,.83-2.18,1.74Z"/>
              <path class="cls-20" d="M162.52,26.08c-.48,.16-.88,.55-1.05,1.03,.4,.1,.81,.2,1.21,.3,.19,.05,.39,.1,.58,.04,.37-.11,.52-.61,.33-.94-.19-.33-.62-.48-1-.4l-.08-.03Z"/>
              <path class="cls-20" d="M161.26,32.58c-.32,.13-.45,.56-.31,.87,.14,.31,.49,.5,.83,.51,.15,0,.34-.04,.37-.19,.02-.1-.04-.2-.1-.28-.25-.34-.5-.68-.74-1.03l-.05,.12Z"/>
              <path class="cls-20" d="M155.6,30.73c-.24,.27-.48,.56-.58,.9-.11,.34-.05,.77,.24,.99,.14,.11,.33,.16,.5,.15,.54-.01,1.02-.54,.97-1.08-.04-.54-.59-.98-1.13-.91v-.05Z"/>
              <path class="cls-20" d="M149.32,47.85c.15,.33,.61,.37,.97,.33,.36-.04,.8-.07,1.03,.22,.06,.08,.1,.18,.07,.28-.07,.25-.43,.19-.68,.23-.2,.03-.38,.16-.56,.24-.45,.19-1.02,.06-1.34-.3-.07-.25,.03-.54,.23-.7,.21-.16,.51-.19,.74-.06l-.45-.23Z"/>
              <path class="cls-20" d="M155.24,54.7c.15,.33,.61,.37,.97,.33,.36-.04,.8-.07,1.03,.22,.06,.08,.1,.18,.07,.28-.07,.25-.43,.19-.68,.23-.2,.03-.38,.16-.56,.24-.45,.19-1.02,.06-1.34-.3-.07-.25,.03-.54,.23-.7,.21-.16,.51-.19,.74-.06l-.45-.23Z"/>
              <path class="cls-20" d="M154.29,61.39c-.08,.29-.09,.59-.03,.88,0,.05,.02,.1,.05,.13,.05,.08,.16,.1,.25,.1,.23-.01,.43-.19,.49-.41,.06-.22,0-.46-.15-.64-.08-.1-.19-.17-.31-.18s-.26,.07-.29,.19c.02,.03,.08,.02,.1-.02l-.1-.05Z"/>
              <path class="cls-20" d="M155.65,18.34c-.54,.4-.87,1.07-.87,1.74,.3,.02,.61,.05,.9-.05,.29-.09,.55-.34,.56-.64,.02-.41-.38-.7-.74-.91,.11-.03,.22-.06,.33-.09l-.18-.05Z"/>
              <path class="cls-20" d="M161.96,18.8c-.34-.25-.92,.07-.89,.5,.19,.12,.4,.21,.62,.19,.22-.02,.44-.18,.46-.4,.03-.22-.21-.44-.41-.36l.21,.07Z"/>
              <path class="cls-20" d="M157.09,28.93c-.34-.25-.92,.07-.89,.5,.19,.12,.4,.21,.62,.19,.22-.02,.44-.18,.46-.4,.03-.22-.21-.44-.41-.36l.21,.07Z"/>
              <path class="cls-20" d="M159.03,17.88c.22-.17,.06-.54-.19-.67-.25-.12-.54-.11-.8-.21-.27-.1-.48-.32-.58-.59-.05-.16-.06-.35,.05-.47,.07-.08,.18-.12,.29-.15,.52-.15,1.08-.24,1.6-.09,.52,.15,.99,.58,1.05,1.12,.04,.38-.14,.76-.46,.98-.31,.21-.74,.25-1.08,.08h.1Z"/>
              <path class="cls-20" d="M152.76,49.27c.22-.17,.06-.54-.19-.67-.25-.12-.54-.11-.8-.21-.26-.1-.48-.32-.58-.59-.05-.16-.06-.35,.05-.47,.07-.08,.18-.12,.29-.15,.52-.15,1.08-.24,1.6-.09,.52,.15,.99,.58,1.05,1.12,.04,.38-.14,.76-.46,.98s-.74,.25-1.08,.08h.1Z"/>
              <path class="cls-20" d="M149.2,49.12c.22-.17,.06-.54-.19-.67-.25-.12-.54-.11-.8-.21-.26-.1-.48-.32-.58-.59-.06-.16-.06-.35,.05-.47,.07-.08,.18-.12,.29-.15,.52-.15,1.08-.24,1.6-.09,.52,.15,.99,.58,1.05,1.12,.04,.38-.14,.76-.46,.98-.31,.21-.74,.25-1.08,.08h.1Z"/>
              <path class="cls-20" d="M150.56,43.8c.22-.17,.06-.54-.19-.67-.25-.12-.54-.11-.8-.21-.27-.1-.48-.32-.58-.59-.05-.16-.06-.35,.05-.47,.07-.08,.18-.12,.29-.15,.52-.15,1.08-.24,1.6-.09,.52,.15,.99,.58,1.05,1.12,.04,.38-.14,.76-.46,.98-.31,.21-.74,.25-1.08,.08h.1Z"/>
              <path class="cls-20" d="M185.1,60.79c.22-.17,.06-.54-.19-.67-.25-.12-.54-.11-.8-.21-.26-.1-.48-.32-.58-.59-.05-.16-.06-.35,.05-.47,.07-.08,.18-.12,.29-.15,.52-.15,1.08-.24,1.6-.09,.52,.15,.99,.58,1.05,1.12,.04,.38-.14,.76-.46,.98-.31,.21-.74,.25-1.08,.08h.1Z"/>
              <path class="cls-20" d="M162.15,22.66c-.04,.14-.09,.28-.13,.42,.21,.1,.44,.19,.65,.12,.22-.07,.34-.4,.15-.53-.07-.05-.16-.05-.25-.06-.27-.01-.54-.02-.82-.03l.39,.07Z"/>
              <path class="cls-20" d="M170.6,50.33c-.24,.27-.48,.56-.58,.9-.11,.34-.05,.77,.24,.99,.14,.11,.33,.16,.5,.15,.54-.01,1.02-.54,.97-1.08-.04-.54-.59-.98-1.13-.91v-.05Z"/>
              <path class="cls-20" d="M151.77,26.68c0-.52,.72-.86,1.12-.54,.08,.27,.1,.57,.06,.85-.31,.04-.64-.04-.9-.22l-.28-.09Z"/>
              <path class="cls-21" d="M168.09,54.19c-.1,.18-.21,.37-.23,.57-.02,.21,.06,.44,.24,.53,.31,.15,.65-.14,.99-.15,.34,0,.68,.28,1,.16,.32-.12,.37-.59,.17-.86-.2-.27-.54-.39-.87-.48-.29-.08-.6-.13-.89-.05-.29,.09-.54,.37-.49,.67l.08-.4Z"/>
              <path class="cls-20" d="M154.34,41.65c-1.45-.04-2.9,.72-3.68,1.94,.69,1.27,1.9,2.36,3.33,2.5,1.44,.14,3-.95,3.02-2.4,.02-1.45-1.97-2.56-3.03-1.58l.35-.46Z"/>
              <path class="cls-20" d="M148.45,26.37c.2,0,.36,.2,.36,.39,0,.2-.12,.38-.27,.51-.09,.08-.19,.14-.3,.17-.26,.05-.55-.17-.57-.43-.02-.27,.21-.53,.47-.55,.27-.02,.54,.18,.59,.45l-.28-.53Z"/>
              <path class="cls-20" d="M151.39,33.77c.26,.26,.69,.14,1.03-.01,.33-.15,.73-.33,1.04-.13,.08,.05,.16,.14,.16,.24,.01,.26-.34,.32-.57,.44-.18,.1-.3,.28-.45,.41-.36,.33-.94,.39-1.37,.16-.15-.22-.15-.52-.01-.74,.14-.22,.42-.35,.68-.3l-.5-.07Z"/>
              <path class="cls-20" d="M159.43,42.2c0,.14,0,.28-.01,.42,.21,.11,.49,.06,.63-.12,.14-.18,.09-.49-.11-.6-.2-.12-.5,.03-.53,.26v.05Z"/>
              <path class="cls-20" d="M156.17,34.86c.06-.15,.27-.18,.41-.1,.14,.08,.21,.23,.27,.38,.04,.12,.07,.25,.06,.38-.03,.25-.28,.45-.53,.46-.25,.01-.5-.15-.63-.37-.06-.11-.1-.24-.06-.36,.04-.12,.16-.21,.28-.18l.21-.21Z"/>
              <path class="cls-20" d="M168.05,32.42c-1.07-.98-2.66-1.35-4.05-.94-.31,1.41-.11,3.02,.89,4.07,1,1.05,2.9,1.24,3.86,.16,.96-1.08,.19-3.23-1.26-3.18l.57-.12Z"/>
              <path class="cls-20" d="M160.4,24.01c-.29,.31,.17,.84,.58,.76,.42-.08,.68-.48,.9-.84-.45-.37-1.14-.42-1.64-.12l.16,.2Z"/>
              <path class="cls-20" d="M146.54,30.71c0,.14,0,.28-.01,.42,.21,.11,.49,.06,.63-.12,.14-.18,.09-.49-.11-.6-.2-.11-.5,.03-.53,.26v.05Z"/>
              <path class="cls-20" d="M154.09,32.18c-.5,1.45-.66,3.02-.46,4.54,.03,.25,.08,.5,.21,.71,.25,.41,.77,.57,1.25,.57,1.17,0,2.26-.86,2.65-1.96,.4-1.1,.14-2.39-.56-3.33-.38-.52-.92-.96-1.56-1.05-.64-.09-1.36,.26-1.53,.88,.12,.17,.42,.13,.5-.06l-.5-.31Z"/>
              <path class="cls-20" d="M177.54,41.73c-1.19,.83-1.89,2.31-1.78,3.76,1.31,.61,2.93,.75,4.17,0s1.83-2.56,.98-3.73c-.85-1.17-3.11-.87-3.38,.55v-.58Z"/>
              <path class="cls-20" d="M16.31,175.15c-1.19,.83-1.89,2.31-1.78,3.76,1.31,.61,2.93,.75,4.17,0,1.24-.75,1.83-2.56,.98-3.73-.85-1.17-3.11-.87-3.38,.55v-.58Z"/>
              <path class="cls-20" d="M156.57,59.33c-.54,.4-.87,1.07-.87,1.74,.3,.02,.61,.05,.9-.05,.29-.09,.55-.34,.56-.64,.02-.41-.38-.7-.74-.91,.11-.03,.22-.06,.33-.09l-.18-.05Z"/>
              <path class="cls-20" d="M158.46,63.82c-.09,.17-.17,.35-.14,.54,.03,.18,.18,.31,.31,.44,.36,.35,.68,.73,.97,1.14,.07-.83,.14-1.65,.21-2.48,0-.07,.01-.13,.04-.19,.11-.2,.41-.16,.61-.27,.29-.16,.28-.59,.18-.91-.72-2.29-1.72,.83-2.18,1.74Z"/>
              <path class="cls-20" d="M150.88,35.34c-.03,.24-.06,.48-.1,.72,.49,.03,1.03-.19,1.19-.65,.17-.46-.27-1.06-.73-.93-.29,.08-.71,.33-.79,.04l.42,.81Z"/>
              <path class="cls-20" d="M161.92,53.13c-.01-.2,.04-.41,.15-.58,.39,.35,.4,.95,.35,1.47-.03,.29-.12,.64-.4,.72-.2,.05-.4-.06-.6-.08-.41-.04-.91,.26-1.17-.05-.15-.18-.09-.46,.06-.63,.15-.17,.38-.26,.59-.34,.47-.18,.94-.36,1.41-.54l-.39,.04Z"/>
              <path class="cls-20" d="M169.87,52.97c-.29,.31,.17,.84,.58,.76,.42-.08,.68-.48,.9-.84-.45-.37-1.14-.42-1.64-.12l.16,.2Z"/>
              <path class="cls-21" d="M165.36,60.8c.15-.13,.41-.06,.52,.1,.12,.16,.13,.38,.09,.57-.02,.11-.07,.23-.14,.32-.18,.2-.54,.2-.72,0-.18-.2-.15-.55,.05-.73,.2-.18,.54-.17,.74,0l-.54-.26Z"/>
              <path class="cls-20" d="M162.88,59.79c-.34-.25-.92,.07-.89,.5,.19,.12,.4,.21,.62,.19,.22-.02,.44-.18,.46-.4,.03-.22-.21-.44-.41-.36l.21,.07Z"/>
              <path class="cls-20" d="M154.5,55.32c-.48,.16-.88,.55-1.05,1.03,.4,.1,.81,.2,1.21,.3,.19,.05,.39,.1,.58,.04,.37-.11,.52-.61,.33-.94-.19-.33-.62-.48-1-.4l-.08-.03Z"/>
              <path class="cls-21" d="M170.67,58.16c.23-.18,.58-.2,.83-.05,.25,.15,.41,.45,.37,.74-.02,.2-.19,.42-.39,.36-.08-.02-.14-.09-.2-.15-.25-.28-.49-.55-.74-.83,.05-.04,.11-.07,.16-.11l-.04,.04Z"/>
              <path class="cls-21" d="M175.82,60.81c.15,.33,.61,.37,.97,.33,.36-.04,.8-.07,1.03,.22,.06,.08,.1,.18,.07,.28-.07,.25-.43,.19-.68,.23-.2,.03-.38,.16-.56,.24-.45,.19-1.02,.06-1.34-.3-.07-.25,.03-.54,.23-.7,.21-.16,.51-.19,.74-.06l-.45-.23Z"/>
              <path class="cls-21" d="M145.76,46.67c.15,.33,.61,.37,.97,.33,.36-.04,.8-.07,1.03,.22,.06,.08,.1,.18,.07,.28-.07,.25-.43,.19-.68,.23-.2,.03-.38,.16-.56,.24-.45,.19-1.02,.06-1.34-.3-.07-.25,.03-.54,.23-.7,.21-.16,.51-.19,.74-.06l-.45-.23Z"/>
              <path class="cls-21" d="M174.08,64.03c-.05,.13-.1,.26-.15,.39,.16,.17,.44,.22,.63,.09,.19-.13,.25-.43,.1-.61s-.48-.14-.58,.07v.05Z"/>
              <path class="cls-20" d="M159.95,58.87c.22-.17,.06-.54-.19-.67-.25-.12-.54-.11-.8-.21-.27-.1-.48-.32-.58-.59-.05-.16-.06-.35,.05-.47,.07-.08,.18-.12,.29-.15,.52-.15,1.08-.24,1.6-.09,.52,.15,.99,.58,1.05,1.12,.04,.38-.14,.76-.46,.98-.31,.21-.74,.25-1.08,.08h.1Z"/>
              <path class="cls-20" d="M153.23,61.82c-.32,.13-.45,.56-.31,.87,.14,.31,.49,.5,.83,.51,.15,0,.34-.04,.37-.19,.02-.1-.04-.2-.1-.28-.25-.34-.5-.68-.74-1.03l-.05,.12Z"/>
              <path class="cls-20" d="M166.35,48.16c.67-.18,1.43,.47,1.34,1.17-.54,.07-1.11,.13-1.59-.11-.48-.24-.79-.91-.47-1.34,.31-.07,.62-.14,.93-.2l-.2,.49Z"/>
              <path class="cls-21" d="M163.07,63.65c-.04,.14-.09,.28-.13,.42,.21,.1,.44,.19,.65,.12,.22-.07,.34-.4,.15-.53-.07-.05-.16-.05-.25-.06-.27-.01-.54-.02-.82-.03l.39,.07Z"/>
              <path class="cls-20" d="M155.03,25.73c-.24,.27-.48,.56-.58,.9-.11,.34-.05,.77,.24,.99,.14,.11,.33,.16,.5,.15,.54-.01,1.02-.54,.97-1.08s-.59-.98-1.13-.91v-.05Z"/>
              <path class="cls-20" d="M171.38,39.54c-.03,.24-.06,.49-.09,.73,.17,.07,.36,.1,.55,.09,.18-.32,.03-.77-.29-.92l-.16,.11Z"/>
              <path class="cls-20" d="M156.29,6.76c.15-.13,.41-.06,.52,.1,.12,.16,.13,.38,.09,.57-.02,.11-.07,.23-.14,.32-.18,.2-.54,.2-.72,0-.18-.2-.15-.55,.05-.73s.54-.17,.74,0l-.54-.26Z"/>
              <path class="cls-20" d="M167.16,43.9c-.03,.24-.06,.49-.09,.73,.17,.07,.36,.1,.55,.09,.18-.32,.03-.77-.29-.92l-.16,.11Z"/>
              <path class="cls-20" d="M147.13,42.05c-.26,.1-.22,.5-.02,.69,.2,.19,.48,.26,.7,.43,.22,.17,.37,.45,.38,.73,0,.16-.04,.35-.18,.44-.09,.06-.21,.06-.32,.06-.54-.01-1.1-.09-1.56-.38-.46-.29-.78-.84-.67-1.38,.08-.37,.36-.69,.72-.8,.36-.11,.78-.02,1.05,.24l-.1-.03Z"/>
              <path class="cls-20" d="M157.77,32.03c.15-.14,.31-.29,.39-.48,.08-.19,.07-.44-.08-.58-.25-.23-.66-.05-.99-.15-.33-.1-.56-.47-.9-.45-.34,.02-.52,.45-.41,.77,.11,.32,.4,.54,.69,.71,.26,.16,.54,.31,.84,.31s.62-.2,.66-.5l-.2,.36Z"/>
              <path class="cls-20" d="M155.8,47.74c.03-1.25-.23-2.5-.76-3.64-.09-.18-.18-.37-.33-.5-.3-.25-.74-.25-1.11-.14-.91,.29-1.54,1.22-1.58,2.17-.04,.95,.48,1.89,1.25,2.45,.42,.31,.95,.52,1.47,.43s.99-.54,.97-1.06c-.13-.1-.36,0-.37,.17l.47,.12Z"/>
              <path class="cls-20" d="M147.26,44.69c-.19,0-.39,.03-.54,.15-.14,.12-.19,.31-.23,.49-.12,.48-.29,.95-.5,1.41,.75-.35,1.5-.7,2.26-1.06,.06-.03,.12-.06,.19-.06,.23,0,.35,.28,.54,.4,.29,.17,.65-.05,.88-.3,1.63-1.76-1.57-1.08-2.6-1.02Z"/>
              <path class="cls-20" d="M155.51,47.83c-.06,.13-.12,.26-.18,.38,.15,.18,.42,.25,.62,.14,.2-.11,.28-.41,.14-.6-.14-.19-.47-.18-.58,.03v.05Z"/>
              <path class="cls-20" d="M148.78,48.34c-.27-.21-.7-.11-.91,.17-.2,.28-.19,.67-.03,.98,.07,.13,.21,.27,.35,.22,.1-.03,.15-.14,.19-.23,.17-.38,.35-.77,.52-1.15l-.13,.02Z"/>
              <path class="cls-20" d="M153.26,49.05c-.62-.27-1.36-.22-1.94,.11,.13,.27,.26,.55,.49,.76,.22,.2,.57,.31,.84,.17,.37-.19,.42-.68,.43-1.09l.24,.24-.04-.19Z"/>
              <path class="cls-20" d="M155.65,50.95c.17-.11,.38-.17,.58-.16-.11,.51-.63,.82-1.11,1.03-.27,.12-.62,.22-.82,.01-.14-.14-.15-.37-.23-.56-.17-.37-.68-.66-.54-1.04,.08-.22,.35-.31,.58-.26,.23,.05,.41,.2,.59,.34,.39,.32,.78,.64,1.17,.95l-.23-.32Z"/>
              <path class="cls-20" d="M150.06,45.6c-.38-.34-.92-.49-1.42-.39,.11,.4,.23,.8,.34,1.2,.05,.19,.11,.39,.25,.52,.28,.27,.79,.15,.98-.18,.2-.33,.11-.78-.15-1.07v-.08Z"/>
              <path class="cls-20" d="M149.7,52.1c.26,.1,.5-.22,.49-.49s-.17-.52-.22-.79c-.04-.28,.04-.58,.22-.79,.11-.13,.27-.23,.43-.19,.11,.02,.2,.1,.27,.18,.39,.38,.74,.82,.88,1.35,.13,.53,0,1.15-.45,1.46-.31,.22-.74,.25-1.08,.09-.34-.16-.58-.52-.6-.89l.05,.09Z"/>
              <path class="cls-20" d="M160.98,38.37c-.35-.07-.72-.14-1.07-.06-.35,.08-.69,.34-.74,.7-.02,.18,.03,.36,.12,.51,.28,.46,.97,.61,1.42,.31,.45-.31,.56-1,.23-1.43l.04-.03Z"/>
              <path class="cls-20" d="M153.36,35.79c-.62-.27-1.36-.22-1.94,.11,.13,.27,.26,.55,.49,.76,.22,.2,.57,.31,.84,.17,.37-.19,.42-.68,.42-1.09,.08,.08,.16,.16,.24,.24l-.04-.19Z"/>
              <path class="cls-20" d="M156.22,52.1c.13,.34,.58,.41,.95,.4,.37-.01,.8,0,1.01,.29,.06,.08,.09,.19,.05,.28-.09,.24-.44,.16-.7,.18-.2,.02-.39,.14-.58,.2-.46,.16-1.02-.01-1.32-.4-.05-.26,.07-.54,.28-.69,.22-.15,.52-.15,.74-.01l-.43-.26Z"/>
              <path class="cls-20" d="M165.07,25.34c.03,.14,.06,.28,.09,.41,.22,.06,.49-.05,.58-.26,.09-.21-.02-.5-.24-.56-.22-.07-.48,.14-.45,.37l.03,.04Z"/>
              <path class="cls-20" d="M152.84,43.57c-.14,.03-.29,.06-.43,.09,.02,.23,.05,.47,.22,.63,.17,.15,.51,.1,.53-.13,0-.09-.03-.17-.07-.24-.13-.24-.25-.48-.38-.73l.13,.38Z"/>
            </g>
            <g>
              <path class="cls-18" d="M29.09,153.3c.85-2.26,1.16-4.72,.92-7.12-.04-.39-.1-.78-.29-1.12-.38-.65-1.19-.93-1.94-.95-1.84-.05-3.59,1.25-4.26,2.96s-.32,3.74,.73,5.26c.58,.83,1.41,1.55,2.4,1.72,1,.17,2.15-.36,2.44-1.32-.17-.27-.66-.23-.79,.07l.78,.51Z"/>
              <path class="cls-18" d="M25.67,146.69c.84-.52,1.38-1.5,1.36-2.49-.87-.46-1.97-.63-2.84-.16-.87,.46-1.35,1.67-.81,2.5,.53,.83,2.09,.71,2.32-.24l-.03,.4Z"/>
              <path class="cls-18" d="M27,137.94c.46,.03,.92-.18,1.22-.53-.15-.14-.3-.29-.49-.37-.19-.08-.43-.06-.57,.09-.19,.21-.11,.54-.02,.8-.07-.03-.14-.07-.21-.1l.07,.11Z"/>
              <path class="cls-18" d="M27.09,139.76c0,.14-.05,.28-.13,.39-.25-.25-.23-.66-.18-1.02,.03-.2,.11-.43,.3-.47,.14-.03,.27,.05,.41,.08,.27,.04,.63-.14,.79,.08,.09,.13,.05,.32-.07,.43-.11,.11-.27,.16-.42,.21-.33,.1-.65,.21-.98,.31h.27Z"/>
              <path class="cls-19" d="M28.07,116.53c.21-.2-.08-.58-.37-.54-.29,.04-.48,.3-.64,.54,.3,.27,.76,.33,1.11,.15l-.1-.14Z"/>
              <path class="cls-18" d="M17.9,114.9c-.11,.08-.28,.02-.35-.09-.07-.11-.07-.26-.04-.39,.02-.08,.05-.15,.11-.21,.13-.13,.37-.11,.49,.03,.11,.14,.08,.38-.06,.49-.14,.12-.37,.1-.5-.03l.36,.2Z"/>
              <path class="cls-18" d="M23.91,134.93c.07,.28,.51,.36,.68,.13-.05-.14-.12-.28-.24-.37-.12-.09-.31-.1-.42,0-.11,.1-.09,.32,.06,.37l-.08-.13Z"/>
              <path class="cls-18" d="M26.33,140.94c.32,.13,.7,.1,1-.08-.17-.23-.33-.46-.5-.69-.08-.11-.16-.22-.28-.28-.24-.11-.54,.09-.59,.35-.05,.26,.12,.52,.34,.65l.03,.05Z"/>
              <path class="cls-19" d="M19.91,118.32c-.05-.08-.1-.16-.15-.24-.16,.02-.3,.15-.31,.31s.13,.31,.29,.3,.28-.2,.2-.34l-.03-.02Z"/>
              <path class="cls-18" d="M25.04,136.7c-.19,0-.27,.26-.2,.43s.23,.29,.32,.46c.09,.17,.11,.38,.04,.56-.04,.11-.12,.21-.23,.22-.07,.01-.15-.02-.22-.05-.34-.15-.67-.35-.88-.66s-.27-.74-.06-1.04c.15-.21,.41-.34,.67-.31,.26,.02,.49,.2,.6,.43l-.06-.04Z"/>
              <path class="cls-18" d="M29.84,138.11c.22,.07,.48-.09,.54-.32,.06-.22-.04-.47-.21-.63-.08-.07-.2-.13-.28-.06-.06,.04-.07,.12-.07,.19l-.06,.86,.08-.04Z"/>
              <path class="cls-18" d="M29.17,127.13c-.47,.1-.96-.38-.87-.85,.37-.02,.76-.04,1.08,.14,.32,.18,.5,.65,.26,.93-.21,.03-.43,.07-.64,.1l.16-.33Z"/>
              <path class="cls-18" d="M26.34,164.04c.02,.11-.08,.2-.19,.21-.11,0-.21-.05-.29-.12-.07-.05-.14-.11-.17-.19-.07-.16-.01-.36,.13-.46,.14-.1,.34-.11,.49-.03,.08,.04,.15,.1,.17,.18,.02,.08-.01,.18-.09,.21l-.04,.2Z"/>
              <path class="cls-18" d="M25.51,132.83c.08-.05,.17-.11,.25-.16-.07-.14-.14-.29-.29-.35-.14-.06-.35,.06-.31,.21,.02,.06,.06,.1,.1,.14,.14,.13,.27,.25,.41,.38l-.17-.21Z"/>
              <path class="cls-18" d="M24.78,127.54c.17-.18,.35-.36,.43-.59,.09-.23,.06-.52-.13-.68-.09-.08-.22-.12-.34-.12-.37-.01-.71,.33-.7,.7s.37,.69,.73,.66v.04Z"/>
              <path class="cls-18" d="M26.52,125.62c.03-.16,.06-.33,.09-.49-.12-.05-.24-.08-.37-.08-.13,.21-.05,.52,.16,.64l.12-.07Z"/>
              <path class="cls-18" d="M37.97,136.68c-.07-.96-.37-1.91-.86-2.74-.08-.13-.17-.27-.29-.36-.25-.17-.59-.14-.86-.02-.68,.29-1.09,1.06-1.05,1.79,.05,.74,.51,1.41,1.15,1.79,.35,.2,.77,.33,1.16,.22s.72-.49,.66-.89c-.11-.07-.28,.03-.27,.16l.37,.05Z"/>
              <path class="cls-18" d="M19.14,143.3c.38-.25,.63-.69,.66-1.15-.2-.03-.41-.06-.61,0-.2,.05-.39,.21-.41,.41-.03,.28,.23,.49,.47,.65-.08,.02-.15,.03-.23,.05l.12,.04Z"/>
              <path class="cls-18" d="M18.03,140.17c.06-.11,.13-.23,.11-.36-.02-.12-.11-.22-.19-.31-.23-.25-.44-.52-.62-.81-.08,.56-.16,1.12-.24,1.68,0,.04-.01,.09-.04,.13-.08,.13-.29,.09-.43,.16-.21,.1-.21,.39-.16,.61,.4,1.58,1.2-.5,1.55-1.1Z"/>
              <path class="cls-18" d="M20.4,146.11c.33-.09,.62-.34,.75-.66-.27-.08-.54-.17-.81-.25-.13-.04-.26-.08-.39-.05-.25,.06-.38,.39-.26,.63,.12,.23,.41,.35,.66,.31l.05,.03Z"/>
              <path class="cls-18" d="M20.78,163.08c-.05-.08-.1-.16-.15-.24-.16,.02-.3,.15-.31,.31s.13,.31,.29,.3,.28-.2,.2-.34l-.03-.02Z"/>
              <path class="cls-18" d="M21.51,141.74c.22-.07,.33-.36,.24-.58-.08-.22-.31-.36-.55-.38-.1-.01-.23,.02-.26,.12-.02,.07,.02,.14,.06,.2,.16,.24,.31,.48,.47,.73l.04-.08Z"/>
              <path class="cls-18" d="M25.29,143.22c.17-.18,.35-.36,.43-.59s.06-.52-.13-.68c-.09-.08-.22-.12-.34-.12-.37-.01-.71,.33-.7,.7,0,.37,.37,.69,.73,.66v.04Z"/>
              <path class="cls-18" d="M30.23,131.8c-.09-.23-.4-.27-.65-.26-.25,.01-.55,.01-.69-.19-.04-.06-.06-.13-.04-.19,.06-.16,.3-.11,.47-.13,.14-.02,.26-.1,.39-.14,.32-.11,.69,0,.9,.26,.04,.18-.04,.37-.19,.47-.15,.1-.35,.11-.51,.01l.3,.17Z"/>
              <path class="cls-18" d="M26.46,126.91c-.09-.23-.4-.27-.65-.26-.25,.01-.55,.01-.69-.19-.04-.06-.06-.13-.04-.19,.06-.16,.3-.11,.47-.13,.14-.02,.26-.1,.39-.14,.32-.11,.69,0,.9,.26,.04,.18-.04,.37-.19,.47-.15,.1-.35,.11-.51,.01l.3,.17Z"/>
              <path class="cls-18" d="M27.37,122.39c.06-.19,.08-.4,.06-.6,0-.03-.01-.07-.03-.09-.03-.05-.1-.08-.17-.07-.15,0-.3,.11-.35,.26-.05,.15-.02,.32,.08,.44,.05,.07,.12,.13,.21,.14,.08,.01,.18-.04,.2-.12-.02-.02-.06-.02-.07,0l.07,.04Z"/>
              <path class="cls-18" d="M24.77,151.65c.38-.25,.63-.69,.66-1.15-.2-.03-.41-.06-.61,0-.2,.05-.39,.21-.41,.41-.03,.28,.23,.49,.47,.65-.08,.02-.15,.03-.23,.05l.12,.04Z"/>
              <path class="cls-18" d="M20.5,151.09c.22,.18,.63-.01,.62-.3-.12-.09-.26-.16-.41-.15s-.3,.1-.33,.25c-.03,.15,.13,.31,.27,.26l-.14-.05Z"/>
              <path class="cls-18" d="M24.21,144.39c.22,.18,.63-.02,.62-.3-.12-.09-.26-.16-.41-.15-.15,0-.3,.1-.33,.25s.13,.31,.27,.26l-.14-.05Z"/>
              <path class="cls-18" d="M22.46,151.83c-.15,.11-.06,.37,.1,.46,.16,.09,.36,.1,.53,.17,.18,.08,.32,.24,.37,.42,.03,.11,.03,.24-.05,.32-.05,.05-.13,.07-.2,.09-.36,.08-.75,.12-1.1,0-.35-.12-.65-.43-.67-.8-.01-.26,.13-.52,.35-.65,.22-.13,.51-.14,.74-.01h-.07Z"/>
              <path class="cls-18" d="M27.94,130.7c-.15,.11-.06,.37,.1,.46s.36,.1,.53,.17c.18,.08,.32,.24,.37,.42,.03,.11,.03,.24-.05,.32-.05,.05-.13,.07-.2,.09-.36,.08-.75,.12-1.1,0-.35-.12-.65-.43-.67-.8,0-.26,.13-.52,.35-.65,.22-.13,.51-.14,.74-.01h-.07Z"/>
              <path class="cls-18" d="M30.36,130.94c-.15,.11-.06,.37,.1,.46,.16,.09,.36,.1,.53,.17,.18,.08,.32,.24,.37,.42,.03,.11,.03,.24-.05,.32-.05,.05-.13,.07-.2,.09-.36,.08-.75,.12-1.1,0-.35-.12-.65-.43-.67-.8,0-.26,.13-.52,.35-.65,.22-.13,.51-.14,.74-.01h-.07Z"/>
              <path class="cls-18" d="M29.23,134.52c-.15,.11-.06,.37,.1,.46s.36,.1,.53,.17c.18,.08,.32,.24,.37,.42,.03,.11,.03,.24-.05,.32-.05,.05-.13,.07-.2,.09-.36,.08-.75,.12-1.1,0-.35-.12-.65-.43-.67-.8,0-.26,.13-.51,.35-.65,.22-.13,.51-.14,.74-.01h-.07Z"/>
              <path class="cls-18" d="M6.37,121.61c-.15,.11-.06,.37,.1,.46,.16,.09,.36,.1,.53,.17,.18,.08,.32,.24,.37,.42,.03,.11,.03,.24-.05,.32-.05,.05-.13,.07-.2,.09-.36,.08-.75,.12-1.1,0-.35-.12-.65-.43-.67-.8,0-.26,.13-.52,.35-.65,.22-.13,.51-.14,.74-.01h-.07Z"/>
              <path class="cls-18" d="M20.52,148.46l.11-.28c-.14-.07-.29-.15-.44-.11-.15,.04-.25,.26-.12,.35,.05,.04,.11,.04,.17,.05,.18,.02,.37,.04,.55,.06l-.26-.07Z"/>
              <path class="cls-18" d="M15.84,129.29c.17-.18,.35-.36,.43-.59s.06-.52-.13-.68c-.09-.08-.22-.12-.34-.12-.37-.01-.71,.33-.7,.7,0,.37,.37,.69,.73,.66v.04Z"/>
              <path class="cls-18" d="M27.74,146.13c-.02,.35-.52,.56-.78,.32-.04-.19-.05-.39,0-.58,.21-.02,.43,.05,.6,.18l.19,.07Z"/>
              <path class="cls-19" d="M17.7,126.76c.08-.12,.16-.24,.18-.38,.02-.14-.02-.3-.14-.37-.2-.11-.45,.07-.68,.06-.23,0-.45-.22-.67-.15-.22,.07-.27,.39-.15,.58,.12,.19,.35,.29,.57,.36,.2,.06,.41,.11,.61,.07,.2-.05,.38-.23,.36-.44l-.07,.27Z"/>
              <path class="cls-18" d="M26.57,135.83c.99,.09,2-.38,2.58-1.18-.42-.89-1.2-1.68-2.17-1.83-.97-.15-2.08,.53-2.15,1.52-.07,.98,1.24,1.82,2,1.19l-.26,.3Z"/>
              <path class="cls-18" d="M29.99,146.46c-.14,0-.24-.15-.23-.28s.1-.25,.21-.34c.06-.05,.13-.09,.21-.1,.18-.03,.37,.13,.37,.32,0,.18-.16,.35-.34,.36-.18,0-.36-.15-.39-.33l.17,.37Z"/>
              <path class="cls-18" d="M28.27,141.31c-.16-.19-.47-.12-.7-.03-.23,.09-.51,.19-.71,.05-.06-.04-.1-.1-.1-.17,0-.18,.25-.2,.41-.28,.13-.06,.22-.18,.32-.26,.26-.21,.65-.23,.94-.06,.09,.15,.08,.36-.02,.51-.1,.15-.3,.22-.47,.18l.34,.07Z"/>
              <path class="cls-18" d="M23.13,135.26c0-.1,.02-.19,.02-.29-.14-.08-.33-.06-.43,.06-.1,.12-.08,.33,.05,.42,.13,.09,.34,0,.37-.15v-.03Z"/>
              <path class="cls-18" d="M25.06,140.38c-.05,.1-.19,.11-.28,.05-.09-.06-.14-.17-.17-.27-.02-.08-.04-.17-.02-.26,.03-.17,.21-.29,.38-.29,.17,0,.33,.12,.41,.27,.04,.08,.06,.17,.03,.24-.03,.08-.12,.14-.2,.11l-.15,.14Z"/>
              <path class="cls-18" d="M16.88,141.59c.69,.71,1.76,1.02,2.72,.79,.27-.95,.19-2.05-.45-2.81-.64-.75-1.92-.96-2.62-.26-.7,.7-.25,2.19,.73,2.21l-.39,.06Z"/>
              <path class="cls-18" d="M21.76,147.61c.21-.2-.08-.58-.37-.54s-.48,.3-.64,.54c.3,.27,.76,.33,1.11,.15l-.1-.14Z"/>
              <path class="cls-18" d="M31.46,143.58c0-.1,.02-.19,.02-.29-.14-.08-.33-.06-.43,.06-.1,.12-.08,.33,.05,.42s.34,0,.37-.15v-.03Z"/>
              <path class="cls-18" d="M26.38,142.29c.4-.97,.56-2.03,.49-3.07-.01-.17-.03-.34-.11-.49-.16-.29-.5-.42-.83-.44-.8-.04-1.57,.5-1.88,1.23-.31,.74-.18,1.62,.25,2.29,.24,.37,.59,.69,1.02,.78s.93-.13,1.08-.54c-.07-.12-.28-.11-.34,.02l.33,.23Z"/>
              <path class="cls-18" d="M10.78,134.88c.84-.52,1.38-1.5,1.36-2.49-.87-.46-1.97-.63-2.84-.16-.87,.46-1.35,1.67-.81,2.5,.53,.83,2.09,.71,2.32-.24l-.03,.4Z"/>
              <path class="cls-18" d="M25.73,123.71c.38-.25,.63-.69,.66-1.15-.2-.03-.41-.06-.61,0-.2,.05-.39,.21-.41,.41-.03,.28,.23,.49,.47,.65-.08,.02-.15,.03-.23,.05l.12,.04Z"/>
              <path class="cls-18" d="M24.63,120.58c.06-.11,.13-.23,.11-.36-.02-.12-.11-.22-.19-.31-.23-.25-.44-.52-.62-.81-.08,.56-.16,1.12-.24,1.68,0,.04-.01,.09-.04,.13-.08,.13-.29,.09-.43,.16-.21,.1-.21,.39-.16,.61,.4,1.59,1.2-.5,1.55-1.1Z"/>
              <path class="cls-18" d="M28.68,140.26c.03-.16,.06-.33,.09-.49-.33-.04-.71,.09-.84,.4s.14,.73,.46,.66c.2-.05,.49-.2,.54,0l-.26-.57Z"/>
              <path class="cls-18" d="M21.86,127.72c0,.14-.05,.28-.13,.39-.25-.25-.23-.66-.18-1.02,.03-.2,.11-.43,.3-.47,.14-.03,.27,.05,.41,.08,.27,.04,.63-.14,.79,.08,.09,.13,.05,.32-.07,.43s-.27,.16-.42,.21l-.98,.31h.27Z"/>
              <path class="cls-18" d="M16.43,127.52c.21-.2-.08-.58-.37-.54-.29,.04-.48,.3-.65,.54,.3,.27,.76,.33,1.11,.15l-.1-.14Z"/>
              <path class="cls-19" d="M19.81,122.36c-.11,.08-.28,.02-.35-.09-.07-.11-.07-.26-.04-.39,.02-.08,.05-.15,.11-.21,.13-.13,.37-.11,.49,.03,.11,.14,.08,.38-.06,.49-.14,.12-.37,.1-.5-.03l.36,.2Z"/>
              <path class="cls-18" d="M21.46,123.15c.22,.18,.63-.02,.62-.3-.12-.09-.26-.16-.41-.15-.15,0-.3,.1-.33,.25-.03,.15,.13,.31,.27,.26l-.14-.05Z"/>
              <path class="cls-18" d="M26.99,126.52c.33-.09,.62-.34,.75-.66-.27-.08-.54-.17-.81-.25-.13-.04-.26-.08-.39-.05-.25,.06-.38,.39-.26,.63,.12,.23,.41,.35,.66,.31l.05,.03Z"/>
              <path class="cls-19" d="M16.09,123.96c-.17,.11-.4,.11-.57,0-.17-.11-.26-.32-.23-.52,.02-.14,.15-.28,.28-.23,.05,.02,.09,.07,.13,.11,.16,.2,.32,.4,.47,.59-.04,.02-.08,.04-.12,.07l.03-.02Z"/>
              <path class="cls-19" d="M12.69,121.96c-.09-.23-.4-.27-.65-.26-.25,.01-.55,.01-.69-.19-.04-.06-.06-.13-.04-.19,.06-.16,.3-.11,.47-.13,.14-.02,.26-.1,.39-.14,.32-.11,.69,0,.9,.26,.04,.17-.04,.37-.19,.47-.15,.1-.35,.11-.51,.01l.3,.17Z"/>
              <path class="cls-19" d="M32.61,132.75c-.09-.23-.4-.27-.65-.26-.25,.01-.55,.01-.69-.19-.04-.06-.06-.13-.04-.19,.06-.16,.3-.11,.47-.13,.14-.02,.26-.1,.39-.14,.32-.11,.69,0,.9,.26,.04,.18-.04,.37-.19,.47-.15,.1-.35,.11-.51,.01l.3,.17Z"/>
              <path class="cls-19" d="M14,119.83c.04-.09,.08-.18,.12-.26-.1-.12-.29-.17-.43-.09-.14,.08-.19,.28-.09,.41,.1,.12,.32,.12,.4-.02v-.03Z"/>
              <path class="cls-18" d="M23.42,123.89c-.15,.11-.06,.37,.1,.46,.16,.09,.36,.1,.53,.17,.18,.08,.32,.24,.37,.42,.03,.11,.03,.24-.05,.32-.05,.05-.13,.07-.2,.09-.36,.08-.75,.12-1.1,0-.35-.12-.65-.43-.67-.8,0-.26,.13-.52,.35-.65,.22-.13,.51-.14,.74-.01h-.07Z"/>
              <path class="cls-18" d="M28.11,122.14c.22-.07,.33-.36,.24-.58-.08-.22-.31-.36-.55-.38-.1-.01-.23,.02-.26,.12-.02,.07,.02,.14,.06,.2,.16,.24,.31,.48,.47,.73l.04-.08Z"/>
              <path class="cls-18" d="M18.65,130.94c-.47,.1-.96-.38-.87-.85,.37-.02,.76-.04,1.08,.14,.32,.18,.5,.65,.26,.93-.21,.03-.43,.07-.64,.1l.16-.33Z"/>
              <path class="cls-19" d="M21.48,120.51c.04-.09,.07-.19,.11-.28-.14-.07-.29-.15-.44-.11s-.25,.26-.12,.35c.05,.04,.11,.04,.17,.05,.18,.02,.37,.04,.55,.06l-.26-.07Z"/>
              <path class="cls-18" d="M25.48,146.65c.17-.18,.35-.36,.43-.59,.09-.23,.06-.52-.13-.68-.09-.08-.22-.12-.34-.12-.37-.01-.71,.33-.7,.7,0,.37,.37,.69,.73,.66v.04Z"/>
              <path class="cls-18" d="M14.89,136.61c.03-.16,.06-.33,.09-.49-.12-.05-.24-.08-.37-.08-.13,.21-.05,.52,.16,.64l.12-.07Z"/>
              <path class="cls-18" d="M23.89,159.51c-.11,.08-.28,.02-.35-.09-.07-.11-.07-.26-.04-.39,.02-.08,.05-.15,.11-.21,.13-.13,.37-.11,.49,.03,.11,.14,.08,.38-.06,.49-.14,.11-.37,.1-.5-.03l.36,.2Z"/>
              <path class="cls-18" d="M17.93,133.8c.03-.16,.06-.33,.09-.49-.12-.05-.24-.08-.37-.08-.13,.21-.05,.52,.16,.64l.12-.07Z"/>
              <path class="cls-18" d="M31.49,135.84c.18-.06,.17-.33,.04-.47-.13-.14-.32-.2-.46-.32-.15-.13-.23-.32-.23-.51,0-.11,.04-.24,.14-.29,.07-.04,.15-.03,.22-.03,.37,.03,.75,.1,1.05,.32,.3,.22,.5,.61,.4,.96-.07,.25-.27,.45-.52,.52-.25,.06-.53-.02-.71-.2l.07,.02Z"/>
              <path class="cls-18" d="M23.86,142.25c-.11,.09-.22,.18-.28,.31s-.07,.29,.03,.4c.16,.17,.45,.06,.67,.14,.22,.08,.36,.34,.6,.34,.23,0,.37-.29,.31-.51-.06-.22-.25-.38-.44-.51-.17-.12-.35-.23-.56-.24-.21-.01-.43,.11-.47,.31l.15-.24Z"/>
              <path class="cls-18" d="M25.81,131.63c-.07,.85,.06,1.71,.38,2.51,.05,.13,.11,.26,.21,.35,.19,.18,.49,.2,.75,.14,.63-.16,1.1-.77,1.16-1.42,.06-.65-.25-1.3-.76-1.71-.28-.23-.63-.39-.98-.35-.36,.04-.69,.33-.7,.69,.09,.08,.25,.01,.26-.1l-.31-.1Z"/>
              <path class="cls-18" d="M31.51,134.04c.13,0,.27,0,.37-.08,.1-.08,.14-.2,.18-.32,.1-.32,.24-.64,.4-.94-.53,.21-1.05,.42-1.58,.63-.04,.02-.09,.03-.13,.03-.16,0-.22-.2-.35-.29-.19-.13-.45,0-.61,.17-1.18,1.14,1.03,.79,1.73,.8Z"/>
              <path class="cls-18" d="M26.02,131.58c.04-.08,.09-.17,.14-.25-.09-.13-.28-.19-.42-.12s-.21,.27-.12,.4c.09,.13,.32,.14,.4,0v-.03Z"/>
              <path class="cls-18" d="M30.62,131.49c.18,.15,.48,.1,.62-.08s.15-.45,.06-.66c-.04-.09-.13-.19-.23-.17-.07,.02-.11,.09-.14,.15-.13,.26-.27,.51-.4,.77h.09Z"/>
              <path class="cls-18" d="M27.59,130.83c.41,.21,.92,.21,1.33,0-.08-.19-.16-.39-.3-.53-.15-.15-.37-.23-.56-.15-.26,.11-.31,.45-.33,.73-.05-.06-.1-.12-.15-.17l.02,.13Z"/>
              <path class="cls-18" d="M26.04,129.45c-.12,.07-.26,.1-.4,.08,.09-.35,.46-.53,.79-.66,.19-.07,.43-.12,.56,.03,.09,.1,.09,.26,.14,.39,.1,.26,.43,.47,.32,.73-.06,.14-.25,.2-.4,.16-.15-.04-.27-.15-.39-.26-.25-.23-.51-.46-.76-.69l.14,.23Z"/>
              <path class="cls-18" d="M29.63,133.31c.24,.25,.61,.37,.95,.32-.06-.28-.12-.55-.18-.83-.03-.13-.06-.27-.15-.37-.18-.19-.53-.13-.68,.08-.15,.22-.1,.53,.06,.73v.06Z"/>
              <path class="cls-18" d="M30.13,128.9c-.17-.08-.35,.13-.35,.32,0,.19,.1,.36,.12,.55,.02,.19-.05,.39-.18,.53-.08,.08-.19,.14-.3,.12-.07-.02-.13-.08-.18-.13-.25-.27-.48-.59-.55-.95-.07-.36,.05-.78,.36-.98,.22-.14,.51-.14,.74-.02,.23,.12,.38,.38,.38,.63l-.03-.06Z"/>
              <path class="cls-18" d="M21.92,137.81c.24,.06,.48,.12,.73,.08,.24-.04,.48-.21,.53-.45,.02-.12,0-.25-.06-.35-.17-.33-.64-.46-.95-.27-.32,.19-.42,.66-.21,.97l-.03,.02Z"/>
              <path class="cls-18" d="M27.01,139.86c.41,.21,.92,.21,1.33,0-.08-.19-.16-.39-.3-.53-.15-.15-.37-.23-.56-.15-.26,.11-.31,.45-.33,.73-.05-.06-.1-.12-.15-.17l.02,.13Z"/>
              <path class="cls-18" d="M25.69,128.65c-.08-.24-.38-.3-.63-.31s-.55-.02-.67-.24c-.04-.06-.05-.13-.02-.2,.07-.16,.31-.09,.48-.1,.14,0,.27-.08,.4-.11,.32-.09,.69,.05,.88,.32,.02,.18-.07,.36-.22,.46-.15,.09-.36,.08-.51-.02l.28,.19Z"/>
              <path class="cls-18" d="M18.64,146.52c-.01-.09-.03-.19-.04-.28-.15-.05-.33,.02-.41,.16-.07,.14,0,.34,.14,.39,.15,.05,.34-.08,.32-.23l-.02-.03Z"/>
              <path class="cls-18" d="M27.66,134.58c.1-.02,.2-.03,.3-.05,0-.15-.02-.32-.12-.44-.11-.11-.35-.09-.37,.07,0,.06,.02,.11,.04,.17,.08,.17,.15,.34,.23,.51l-.07-.26Z"/>
            </g>
          </g>
          <ellipse class="cls-51" cx="100.29" cy="199.72" rx="40.78" ry="9.08"/>
          <g>
            <path class="cls-6" d="M152.12,112.51s0,8.16-3.28,13.26c-1.86,2.9-5.13,4.57-8.89,5.06-2.87,.38-6.02,.08-9.08-.86-7.07-2.18-11.71-13.19-14.21-24.03-2.5-10.84,3.5-14.11,4.35-13.81,1.57,.57,5.48,5.66,9.98,10.26,2.29,2.34,4.73,4.55,7.09,5.98,7,4.22,14.03,4.14,14.03,4.14Z"/>
            <path class="cls-56" d="M139.95,130.83c-2.87,.38-6.02,.08-9.08-.86-7.07-2.18-11.71-13.19-14.21-24.03-2.5-10.84,3.5-14.11,4.35-13.81,1.57,.57,5.48,5.66,9.98,10.26,0,0-3.64,7.77-2.08,18.31,1.57,10.53,11.03,10.12,11.03,10.12Z"/>
            <path class="cls-28" d="M101.21,159.53c.02,7.04-2.43,23.74-7.38,22.89-1.07-.18-2.35-1.27-3.72-2.97-4.18-5.15-9.26-15.82-12.13-23.13-1.56-3.99-2.48-6.98-2.22-7.54,1.54-3.44,23.61,6.47,25.04,7.75,.27,.25,.41,1.36,.41,3Z"/>
            <path class="cls-5" d="M75.75,148.78c-1.69,3.24,18.37,13.06,25.29,8.38,0,0-23.05-12.68-25.29-8.38Z"/>
            <path class="cls-53" d="M85.63,159.43c-.78,1.41,3.23,17.19,8.2,22.99-1.07-.18-2.35-1.27-3.72-2.97-1.11-2.69-2.76-6.69-4.36-10.69-2.05-5.15-5.86-10.13-7.77-12.45-1.56-3.99-2.48-6.98-2.22-7.54,1.54-3.44,23.61,6.47,25.04,7.75,.27,.25,.41,1.36,.41,3,0,0-14.8-1.5-15.58-.1Z"/>
            <path class="cls-27" d="M125.12,151.95c-.17,.62-.37,1.27-.56,1.94-3.04,10.19-8.34,25.03-12.33,30.11-.95,1.22-1.83,1.87-2.58,1.77-.2-.02-.4-.09-.59-.18-.67-.31-1.32-1-1.94-1.97h0c-3.88-6.04-6.68-22.96-6.11-27.78,.07-.6,.19-1.01,.37-1.19,3.26-3.23,24.69-12.61,25.54-10.96,.22,.44-.51,3.72-1.8,8.27Z"/>
            <path class="cls-35" d="M101.01,155.83c-.82,1.37,20.32,1.26,25.91-12.15,0,0-18.16-.72-25.91,12.15Z"/>
            <path class="cls-18" d="M111.55,162.46c-.88,.13-2.14,6.81-.79,7.41,1.34,.59,2.83-7.7,.79-7.41Z"/>
            <path class="cls-54" d="M125.12,151.95s-11.8,1.56-15.25,6.5c-3.45,4.93-4.47,17.79-2.75,25.15-3.88-6.04-6.68-22.95-6.11-27.77,.07-.6,.19-1.01,.37-1.19,3.26-3.23,24.69-12.61,25.54-10.96,.22,.44-.51,3.72-1.8,8.27Z"/>
            <path class="cls-30" d="M79.76,95.44c-.02,6.03-.87,14.74-3.6,21.78-4.53,11.66-11.33,26.33-11.53,26.79h0c-4.15,2.54-9.13,2.41-12.29,1.95-1.92-.28-3.17-.68-3.17-.68,0,0,1.41-13.35,8.75-28.48,3.68-7.6,8.38-14.67,12.43-19.88,.02-.02,.04-.05,.06-.07,.04-.07,.1-.13,.15-.2,.03-.04,.06-.07,.08-.11,.03-.03,.06-.07,.07-.1,.04-.05,.07-.09,.11-.13,0,0,.02-.02,.02-.02,0,0,.02-.02,.02-.02,4.11-5.22,7.45-8.38,8.15-8,.42,.23,.79,3.08,.77,7.18Z"/>
            <path class="cls-40" d="M49.22,144.75s5.35-8.83,10.87-7.68c5.52,1.15,4.53,6.95,4.53,6.95,0,0-7.06,5.11-15.4,.73Z"/>
            <path class="cls-55" d="M79.76,95.44c-.02,6.03-.87,14.74-3.6,21.78-4.53,11.66-11.33,26.33-11.53,26.79h0s-12.29,1.95-12.29,1.95c-1.92-.28-3.17-.68-3.17-.68,0,0,1.41-13.35,8.75-28.48,3.68-7.6,8.38-14.67,12.43-19.88-2.32,3.06-12.01,16.37-14.62,27.68-2.97,12.87,9,7.91,13.9,0,4.89-7.91,10-29.15,10-29.15h.15Z"/>
            <path class="cls-18" d="M66.39,116.01c-.97-.37,4.06-11.77,5.62-11.87,1.56-.1-4.79,12.18-5.62,11.87Z"/>
            <path class="cls-18" d="M65.88,117.23c-.77-.41-1.49,1.73-.79,2.04,.7,.31,1.66-1.58,.79-2.04Z"/>
            <path class="cls-58" d="M125.69,10.89s6.25-5.4,13.91-6.33c0,0,2.34,1.15,5.05,9.58,2.71,8.43-2.29,25.1-2.29,25.1l-16.67-28.34Z"/>
            <path class="cls-39" d="M139.6,4.55s-6.19,6.64-6.19,17.34l2.39,1.51,6.98-14.44s-2.32-4.53-3.18-4.41Z"/>
            <path class="cls-10" d="M135.57,22.67s-1.65-9.14,4.37-15.85c0,0,6.79,3.2,9.61,15.07s-4.51,19-4.51,19l-9.47-18.22Z"/>
            <path class="cls-18" d="M132.08,7.21c-1.16,.62-1.06,1.87,1.33,1.56s3.69-2.19,3.43-2.55c-.26-.36-3.47,.29-4.76,.99Z"/>
            <path class="cls-3" d="M73.21,12.24s-6.25-5.4-13.91-6.33c0,0-2.34,1.15-5.05,9.58-2.71,8.43,2.29,25.1,2.29,25.1l16.67-28.34Z"/>
            <path class="cls-41" d="M59.31,5.9s6.19,6.64,6.19,17.34l-2.39,1.51-6.98-14.44s2.32-4.53,3.18-4.41Z"/>
            <path class="cls-32" d="M63.33,24.02s1.65-9.14-4.37-15.85c0,0-6.79,3.2-9.61,15.07s5.29,19.77,5.29,19.77l8.68-18.98Z"/>
            <path class="cls-18" d="M66.83,8.56c1.16,.62,1.06,1.87-1.33,1.56-2.39-.31-3.69-2.19-3.43-2.55,.26-.36,3.47,.29,4.76,.99Z"/>
            <path class="cls-29" d="M126.64,137.12c-1.9,11.24-11.97,18.74-26.4,18.74-12.56,0-23.21-4.68-26.02-15-2.81-10.3-1.72-29.36,2.03-41.23,.56-1.77,1.24-3.48,2.02-5.1v-.02c.72-1.47,1.51-2.87,2.38-4.18,0,0,0-.02,0-.02,4.58-6.9,11.29-11.41,18.88-11.41s13.94,3.25,18.05,8.05c1.91,2.23,3.41,4.81,4.48,7.54,1.24,3.15,2.28,6.49,3.1,9.93,0,.02,0,.06,.02,.1,2.6,10.78,3.15,22.55,1.45,32.59Z"/>
            <path class="cls-52" d="M126.64,137.12c-1.9,11.24-11.97,18.74-26.4,18.74-12.56,0-23.21-4.68-26.02-15-2.81-10.3-1.72-29.36,2.03-41.23,.56-1.77,1.24-3.48,2.02-5.1v-.02s-7.59,25.2-1.52,41.25c6.08,16.05,34.38,15.71,43.96,5.05,9.12-10.15,4.9-33.99,4.48-36.27,2.6,10.78,3.15,22.55,1.45,32.59Z"/>
            <path class="cls-42" d="M74.76,130.44c2.15-15.09,14.25-25.32,27.7-24.05,14.49,1.37,22.28,15.2,22.08,27.07-.21,11.87-8.88,21.14-24.44,21.14s-27.35-10.05-25.34-24.16Z"/>
            <path class="cls-9" d="M74.9,131.69c2.15-15.09,14.25-25.32,27.7-24.05,14.49,1.37,22.28,15.2,22.08,27.07-.21,11.87-8.88,21.14-24.44,21.14s-27.35-10.05-25.34-24.16Z"/>
            <path class="cls-49" d="M117.59,86.95c-3.07,4.82-20,7.63-29.78,6.74-8.52-.78-7.22-3.08-7.16-3.37,0,0,0-.02,0-.02,4.58-6.9,11.29-11.41,18.88-11.41s13.94,3.25,18.05,8.05Z"/>
            <path class="cls-18" d="M111.58,95.31c-.79,.26-.82,6.6,0,7.63,.82,1.02,2.15,.71,2.59-.79,.44-1.49-1.4-7.23-2.59-6.84Z"/>
            <path class="cls-18" d="M113.03,104.63c-.66,.16-.73,1.73-.43,2.28,.3,.55,1.44,.43,1.63-.24s-.54-2.2-1.2-2.04Z"/>
            <path class="cls-17" d="M83.41,147.06s3.47,6.05,16.41,6.1c12.94,.05,18.2-7.65,18.2-7.65,0,0-5.97,3.89-14.5,1.55-8.54-2.34-16.98-3.65-20.1,0Z"/>
            <path class="cls-16" d="M80.04,122.12c2.55,4.08,13.07,1.91,24.92,3.06,11.85,1.16,13.87,5.01,16.37,4.23,2.5-.78-1.45-18.62-19.15-19.83-17.7-1.21-22.77,11.52-22.13,12.53Z"/>
            <path class="cls-24" d="M55.64,70.03c9.58,22.1,81.29,15.21,89.86-2.95C154.87,47.23,133.32-1.85,98.96,.44c-29.03,1.94-55.63,41.18-43.32,69.59Z"/>
            <path class="cls-60" d="M59.6,66.91c9.16,18.13,71.76,15.13,80.9-1.53,7.76-14.15-10.57-57.24-42.02-55.71-31.45,1.54-47.68,39.84-38.88,57.24Z"/>
            <path class="cls-34" d="M127.56,45.55c-1.23,3.3-17.74,2.92-17.72,1.73,.1-6.59,3.63-15.25,10.22-15.19,6.81,.06,9.8,7.31,7.51,13.46Z"/>
            <path class="cls-33" d="M71.93,45.99c1.42,3.23,17.88,1.92,17.79,.73-.47-6.58-4.47-15.02-11.05-14.59-6.79,.44-9.38,7.85-6.74,13.86Z"/>
            <path class="cls-22" d="M90.01,58.19c-2.48,.6,2.71,8.89,11.04,8.89,7.39,0,11.56-8.52,10.62-8.89-.94-.37-5.37,1.92-11.54,1.92s-9.08-2.17-10.12-1.92Z"/>
            <path class="cls-25" d="M49.15,145.27s3.3-4.67,8.07-5.3c4.77-.62,6.48,.7,7.39,4.04,.91,3.35-5.85,15.54-14.25,24.73-3.63,.3-4.72-4.15-5.25-7.01,0-2.5,2.4-12.53,4.03-16.46Z"/>
            <path class="cls-36" d="M60.74,139.94s-8.95,12.43-11.79,19.58c-1.53,3.86-2.41,6.39-2.41,6.39,0,0,2.33,5.89,6.18,.96,5.46-6.98,12.78-17.48,11.45-22.53-1.13-4.28-1.88-5.09-3.44-4.41Z"/>
            <path class="cls-37" d="M145.45,111.49c-4.1,1.28-4.58,15.2-.68,16.97,3.9,1.77,9.37-10.41,7.34-15.95,0,0-3.65-1.96-6.66-1.02Z"/>
            <path class="cls-26" d="M145.82,113.11s-2.92,2.89-1.67,7.59c1.25,4.7,7.5,7.87,15.31,7.77,7.81-.1,12.81-5.74,13.9-9.17,0,0-1.41-2.88-9.06-4.66-5.2-1.21-12.18-2.13-12.18-2.13,0,0-3.63-.54-6.3,.6Z"/>
            <path class="cls-38" d="M144.46,121.6s6.88,2.24,15,.78c8.12-1.46,5.65-7.26,5.65-7.26,0,0-3.98-2-7.62-2.73-3.64-.73-11.55,0-11.55,0,0,0-4.32,3.74-1.48,9.21Z"/>
            <path class="cls-47" d="M149.45,126.43s.73-5.79,.06-8.57c0,0,2.3,6.03,2.61,9.62l-2.67-1.05Z"/>
            <path class="cls-7" d="M172.75,147.02l-3.21,.23,2.63,.51-.45,3.54s-.06,0-.17,.02c-.04,0-.08,0-.13,0-.6,.04-2.06,.13-3.98,.22-4.62,.21-12.09,.4-17.65-.25,0,0,2.91-17.8,0-31.68l-.29-2.86-.06-.54,11.48-1.24s5.98,9.95,10.31,20.53c.9,2.2,1.73,4.43,2.42,6.59l-.91,4.91Z"/>
            <path class="cls-50" d="M171.25,135.51l-16.77,2.85-3.43-18.42,14.41,5.24s5.12,8.67,5.78,10.33Z"/>
            <path class="cls-45" d="M151.44,150.03s10.38,1.23,20.29,1.26c0,0-.06,0-.17,.02-.04,0-.08,0-.13,0-.6,.04-2.06,.13-3.98,.22-5.05,.25-13.28,.49-17.65-.25,0,0,2.91-17.8,0-31.68l-.29-2.86,1-.63,19.12,17.24,1.62,2.14c.9,2.2,1.73,4.43,2.42,6.59h-17.6l-1.59,3.44,15.07,1.7-15.4-1.02-2.7,3.81Z"/>
            <path class="cls-23" d="M149.45,116.22s4.54-3.03,13.62-3.63c0,0,8.78,9.58,13.98,20.77l-22.3,.6s-2.21-11.79-5.31-17.74Z"/>
            <path class="cls-44" d="M151.09,115.36s3.61,3.92,8.29,5.07c4.69,1.15,7.43-3.35,7.43-3.35l-1.62-2.06-14.1,.35Z"/>
            <path class="cls-31" d="M146.42,112.73c-1.17-3.62,15.09-3.57,17.25-2.17,.96,.62,2.6,2.76,1.93,4.07-.67,1.31-6.02,2.11-8.25,1.88-2.24-.22-10.15-1.41-10.92-3.78Z"/>
            <path class="cls-59" d="M158.87,116.53s-.17-3.56,1.68-4.98c1.85-1.42,3.53-.68,3.53-.68,0,0,2.42,1.8,1.52,3.75-.91,1.95-5.52,2.41-6.73,1.9Z"/>
            <path class="cls-43" d="M158.91,119.56c-3.4,1.56-2.14,9.1,2.19,11.12,4.33,2.02,7.64-2.71,7.07-6.87s-7-5.3-9.27-4.25Z"/>
            <path class="cls-18" d="M161.83,121.74c.18-.04,.38-.07,.6-.07,.22,0,.46,0,.72,.02l.3,1.3c-.13-.05-.26-.09-.39-.1-.13-.01-.25-.02-.36-.01-.12,0-.24,.02-.36,.03-.15,.06-.26,.17-.33,.33-.07,.16-.08,.33-.02,.52,.05,.17,.14,.31,.26,.42,.12,.1,.25,.19,.4,.27,.15,.08,.31,.15,.49,.22,.18,.07,.35,.16,.51,.27,.16,.11,.32,.24,.46,.4,.14,.16,.26,.37,.35,.63,.08,.25,.11,.49,.09,.7-.02,.21-.06,.4-.14,.58-.08,.17-.19,.32-.32,.45-.13,.13-.27,.24-.42,.32l1.33,2.49h-1.22l-.63-2.27s-.08,.02-.16,.04-.18,.03-.29,.04c-.11,.01-.24,.01-.37,0-.13-.01-.26-.04-.38-.1l-.32-1.27c.18,.07,.35,.1,.52,.12,.17,.01,.31,.02,.44,.01,.15,0,.29-.03,.43-.07,.19-.2,.25-.43,.17-.69-.04-.13-.12-.24-.24-.33-.12-.09-.26-.18-.42-.27-.16-.09-.34-.18-.52-.27-.19-.09-.37-.21-.55-.34-.18-.13-.34-.29-.48-.47-.14-.18-.26-.41-.34-.67-.13-.43-.14-.82,0-1.17,.12-.35,.34-.63,.65-.83l-1.08-2.68,1,.28,.63,2.16Z"/>
            <path class="cls-18" d="M109.09,4.55c-.65,.78,6.95,4.08,7.97,3.62,1.02-.46-5.78-6.23-7.97-3.62Z"/>
            <path class="cls-13" d="M70.64,27.83c-.72,4.32,7.46,3.83,20.55,3.39,15.72-.52,31.52,13.02,40.72,3.3,1.52-1.6-13.54-22.62-31.71-22.15-18.17,.47-28.93,11.71-29.55,15.46Z"/>
            <path class="cls-14" d="M78.74,72.89c-.83,3.13,5.72,6.26,21.81,5.47,19.46-.95,23.59-5.03,22.64-6.16-.57-.68-6.4,2.99-22.39-.51-10.56-2.31-21.19-2.09-22.06,1.2Z"/>
            <path class="cls-15" d="M61.35,63.16s-.68-4.54,.12-10.63c.8-6.09,2.43-10.02,3.41-9.47s.82,6.52,1.4,12.39c.45,4.57,1.33,8.87,1.33,8.87,0,0-4.21,4.02-6.26-1.16Z"/>
            <path class="cls-48" d="M62.69,77.49s.97-1.05,6.16-4.1c3.48-2.05,7.14-4.47,7.66-5.36,.77-2.09-14.91-.86-14.91-.86l-5.96,2.86s2.37,4.68,7.05,7.45Z"/>
            <path class="cls-4" d="M50.71,31.26s4.05,2.6,1.39,8.63c0,0-18.9,10.29-17.8,21.51,.91,9.36,27.02,4.83,27.02,4.83l.94,3.12s-22.18,4.34-29.83-.88c0,0-2.6-6.18,3.85-17.32,6.46-11.14,14.43-19.89,14.43-19.89Z"/>
            <path class="cls-61" d="M58.02,65.36c-2.38,2.69,2.67,5.64,6.82,6.09,4.66,.51,12.93-1.34,12.43-6.03-.5-4.69-13.67-6.37-19.25-.06Z"/>
            <path class="cls-8" d="M58.33,65.85c-.14,.77,16.49,.95,16.88-1.99s-15.78-3.95-16.88,1.99Z"/>
            <path class="cls-11" d="M145.45,12.18s-2.2-2.73-5.21-2c-3,.73-3.2,10.19-1.41,10.42,1.8,.23,2.56-5.23,3.93-6.09,1.38-.86,3.78-.53,3.78-.53l-1.1-1.8Z"/>
            <path class="cls-12" d="M51.88,16.21s1.16-1.31,3.76-.89c2.6,.43,4.1,5.77,5.44,5.23,1.33-.54,.36-9.19-3.17-11.74,0,0-4.54,3.87-6.03,7.39Z"/>
            <path class="cls-46" d="M53.2,151.39s1.25,6.63,5.26,7.62l.63-15.91s-4.69,6.25-5.89,8.3Z"/>
            <path class="cls-2" d="M57.12,146.88c-.6,1.53,.56,11.55,1.65,12.69,1.09,1.13,3.61-.78,4.31-2.81,.7-2.03,3.85-13.09-.2-16.64,0,0-3.27,.36-5.77,6.76Z"/>
            <path class="cls-18" d="M58.94,148.22c-.45,.08-.94,3.51-.57,4.13,.37,.62,1.11,.54,1.46-.23,.35-.78-.21-4.02-.89-3.9Z"/>
            <path class="cls-1" d="M47.08,37.33s-9.04,10.49-8.46,11.22c.57,.73,9.03-10.16,8.46-11.22Z"/>
          </g>
        </g>
      </g>
    </g>
  </g>
</svg>